<svg xmlns="http://www.w3.org/2000/svg" width="300" height="235"><defs><clipPath id="a"><path fill="none" d="M0 0h300v235H0z"/></clipPath></defs><g clip-path="url(#a)"><g data-name="Illustration" transform="translate(-.201 -.009)"><path d="m66.177 258.725-31.729 13.539a2.876 2.876 0 0 1-3.546-1.237l-13.817-24.41c-.947-1.674-.5-3.576 1.005-4.22l37.841-16.145c1.51-.644 3.189.352 3.743 2.193l8.061 26.861a2.876 2.876 0 0 1-1.559 3.418Z" fill="#2772f0"/><rect width="53.513" height="10.941" rx="3.753" transform="rotate(-23.07 601.423 92.903)" fill="#fff"/><path d="m14.338 250.723-1.961-4.6a3.51 3.51 0 0 1 1.852-4.6l43.749-18.667a3.51 3.51 0 0 1 4.6 1.852l1.959 4.6a3.505 3.505 0 0 1-1.852 4.6L18.94 252.574a3.509 3.509 0 0 1-4.6-1.853Z" fill="#262424"/><rect data-name="Rectangle" width="34.01" height="6.953" rx="3.476" transform="rotate(-113.08 97.514 108.466)" fill="#f5b544"/><path data-name="Path" d="M290.947 201.37c-.093-.044-.171-.086-.257-.127-4.516-2.376-20.626-15.808-32.074-22.354-3.965-2.269-3.087-11.631 16.027-15.375a74.506 74.506 0 0 1 4.124-.679s19.178 9.753 22.625 23.187c3.388 13.187-5.827 17.447-10.445 15.348Z" fill="#f5b544"/><path data-name="Path" d="M281.389 193.135a.535.535 0 0 1-.493-.741 21.333 21.333 0 0 1 4.122-6.638c-4.129-3.814-17.329-11.887-17.462-11.971a.535.535 0 1 1 .558-.914c.586.357 14.359 8.8 18.064 12.506a.535.535 0 0 1-.035.785 18.627 18.627 0 0 0-4.252 6.64.535.535 0 0 1-.5.333Z" fill="#262424"/><path data-name="Path" d="M290.945 201.37c4.375-1.327 7.592-4.217 7.478-9.875-.296-14.324-18.014-24.922-23.778-27.988a74.392 74.392 0 0 1 4.125-.679s19.178 9.753 22.625 23.187c3.385 13.194-5.83 17.453-10.45 15.355Z" fill="#fff"/><path data-name="Shape" d="M290.725 201.851a.536.536 0 0 1 .067-1c4.806-1.456 7.194-4.6 7.1-9.351-.298-14.127-18.068-24.635-23.499-27.52a.535.535 0 0 1 .148-1 79.62 79.62 0 0 1 4.153-.682.522.522 0 0 1 .314.054c.792.4 19.434 10.019 22.9 23.532 2.2 8.569-.9 12.738-2.948 14.454a8.724 8.724 0 0 1-5.512 2.077h-.063a6.575 6.575 0 0 1-2.66-.564Z" fill="#262424"/><path data-name="Path" d="m248.984 177.551 11.684-4.817a6.783 6.783 0 0 1 3.687 5.558l-10.554 7.106Z" fill="#fff"/><path data-name="Shape" d="M253.799 185.935a.547.547 0 0 1-.456-.244l-4.818-7.848a.535.535 0 0 1 .253-.776l11.684-4.817a.537.537 0 0 1 .406 0 7.281 7.281 0 0 1 4.016 5.989.535.535 0 0 1-.232.509l-10.554 7.106a.54.54 0 0 1-.285.081Z" fill="#262424"/><path data-name="Path" d="M255.372 193.278s-10.1 8.747-20.735 14.076c-4.852 2.425-9.817 4.146-13.984 4-2.277-.086-5.327-1.084-8.912-2.779-17.369-8.196-47.032-32.532-58.869-45.747a60.491 60.491 0 0 1-7.362-10.16c-7.954-13.743-9.084-28.301-2.87-33.834 5.137-4.567 12.251-2.02 20.1 3.474a172.087 172.087 0 0 1 16.284 13.638c13.8 12.617 50.548 43.308 50.548 43.308l16.411-4.632c13.435 2.838 9.389 18.656 9.389 18.656Z" fill="#2772f0"/><path data-name="Path" d="m164.767 133.681-19.257 18.992c-7.954-13.748-9.084-28.306-2.87-33.839 5.137-4.567 12.251-2.02 20.1 3.474Z" fill="#262424"/><path data-name="Path" d="M234.635 207.357c-4.852 2.425-9.817 4.146-13.984 4-2.277-.086-5.327-1.084-8.912-2.779-.204-4.349 3.728-9.908 11.121-10.357 9.06-.554 11.892 5.405 11.775 9.136Z" fill="#f5b544"/><path data-name="Path" d="M224.815 192.457a.533.533 0 0 1-.218-.051c-23.716-10.626-72.265-57.617-72.753-58.08a.536.536 0 1 1 .745-.769c.484.463 48.635 47.074 72.258 57.781l20.67-6.89a.536.536 0 1 1 .338 1.017l-20.869 6.948a.542.542 0 0 1-.171.044ZM251.837 194.405h-.063a.535.535 0 0 1-.463-.593c1.531-13.332-6.396-15.562-6.737-15.653a.536.536 0 0 1 .269-1.037c.093.023 9.173 2.51 7.531 16.812a.535.535 0 0 1-.537.471Z" fill="#262424"/><path data-name="Path" d="M231.114 258.56c-1.07 16.884-7.012 26.28-14.144 25.09a8.467 8.467 0 0 1-3.6-1.427c-3.868-2.712-4.516-8.425-5.1-13.078-.709-5.829-5.461-29.311-6.295-33.655s.834-10.36 5.764-10.524c3.331-.106 9.496 1.276 13.871 2.394 2.876.734 4.979 1.355 4.979 1.355a71.328 71.328 0 0 1 4.525 29.845Z" fill="#f5b544"/><path data-name="Path" d="M208.603 262.427a.535.535 0 0 1-.107-1.058 21.944 21.944 0 0 1 7.543-.107c.695-8.197-1.875-27.871-1.901-28.077a.535.535 0 0 1 1.061-.139c.113.852 2.742 20.966 1.853 28.908a.535.535 0 0 1-.644.463 21.474 21.474 0 0 0-7.691 0 .523.523 0 0 1-.114.01Z" fill="#262424"/><path data-name="Path" d="M231.115 258.563c-1.07 16.881-7.013 26.277-14.148 25.086a9.638 9.638 0 0 1-1.207-.278c3.1-.655 8.419-3.96 10.753-18.421a72.6 72.6 0 0 0-4.389-37.465c2.612.679 4.474 1.227 4.474 1.227a71.4 71.4 0 0 1 4.517 29.851Z" fill="#fff"/><path data-name="Shape" d="M216.878 284.178a10.216 10.216 0 0 1-1.271-.294.535.535 0 0 1 .044-1.034c2.876-.61 8.039-3.753 10.334-17.985a71.847 71.847 0 0 0-4.358-37.175.535.535 0 0 1 .631-.723 152.5 152.5 0 0 1 4.491 1.232.531.531 0 0 1 .34.3 72.66 72.66 0 0 1 4.558 30.109c-.727 11.471-3.784 20.149-8.388 23.8a8.082 8.082 0 0 1-5.074 1.883 7.935 7.935 0 0 1-1.307-.113Z" fill="#262424"/><path data-name="Path" d="m203.411 234.806-5.408-2.879-7.969-4.252 5.174-8.569 2.705 1.927 9.069 6.45s2.673 5.271-3.571 7.323Z" fill="#fff"/><path data-name="Shape" d="m203.158 235.283-13.379-7.136a.535.535 0 0 1-.206-.748l5.174-8.569a.534.534 0 0 1 .768-.159l11.772 8.376a.537.537 0 0 1 .167.194 6.165 6.165 0 0 1 .255 4.72 6.225 6.225 0 0 1-4.135 3.352.563.563 0 0 1-.164.032.539.539 0 0 1-.252-.062Z" fill="#262424"/><path data-name="Path" d="m198.003 231.929-7.969-4.252 5.174-8.569 2.705 1.927a18.683 18.683 0 0 1 .09 10.894ZM170.411 146.424a.544.544 0 0 1-.118-.014l-4.007-.889a.535.535 0 0 1-.389-.343l-3.928-11.061a.536.536 0 1 1 1.01-.359l3.826 10.781 3.724.827a.535.535 0 0 1-.118 1.058Z" fill="#262424"/><path data-name="Path" d="M203.233 159.091c-5.531 14.806-21.77 41.56-21.77 41.56l15.876 14.449c2.496 17.302-11.059 21.229-11.059 21.229s-17.37-9.317-26.983-15.575a43.5 43.5 0 0 1-5.3-3.868c-4.31-4.025-6.656-9.09-5.072-17.9a50.907 50.907 0 0 1 1.853-7.071c4.456-13.386 19.619-46.025 19.619-46.025s-10.695-26.977-1.248-33.533c11.058-7.671 28.178 8.384 32.462 15.517s7.15 16.411 1.622 31.217Z" fill="#2772f0"/><path data-name="Path" d="M187.129 191.53a.535.535 0 0 1-.463-.8c5.486-9.58 12.722-22.88 16.066-31.832 5.744-15.376 2.182-24.512-1.563-30.751-2.83-4.715-12.541-14.857-22.168-16.93a11.777 11.777 0 0 0-9.53 1.575c-8.994 6.253 1.335 32.632 1.44 32.886a.537.537 0 0 1-.012.422c-.046.1-4.616 9.945-9.414 20.89a.535.535 0 1 1-.98-.428 1198.93 1198.93 0 0 1 9.326-20.7c-1.07-2.768-10.308-27.479-.972-33.961a12.8 12.8 0 0 1 10.366-1.742c9.942 2.166 19.947 12.587 22.861 17.451 3.868 6.445 7.55 15.874 1.647 31.678-3.368 9.018-10.635 22.372-16.138 31.99a.537.537 0 0 1-.466.255Z" fill="#262424"/><path data-name="Path" d="M170.41 146.424a.535.535 0 0 1-.382-.908c.165-.166 4.114-4.142 13.482-7.707a.535.535 0 1 1 .38 1c-9.121 3.474-13.058 7.411-13.097 7.455a.535.535 0 0 1-.383.16Z" fill="#262424"/><path data-name="Path" d="M164.169 217.689a7.58 7.58 0 0 1-4.864 3.062 43.5 43.5 0 0 1-5.3-3.868c-4.311-4.025-6.657-9.09-5.069-17.903a6.144 6.144 0 0 1 4.976-3.504c11.241-.891 15.524 15.341 10.257 22.213Z" fill="#de9244"/><path data-name="Path" d="M189.677 216.167a.533.533 0 0 1-.306-.1l-20.333-14.265a.535.535 0 0 1-.192-.632c5.263-13.577 24.669-59.262 26.295-63.085-3.456-5.64-13.417-15.795-13.518-15.899a.536.536 0 1 1 .764-.75c.422.43 10.422 10.639 13.812 16.334a.537.537 0 0 1 .032.482c-.206.475-20.556 48.332-26.24 62.915l19.992 14.028a.535.535 0 0 1-.306.973ZM184.413 232.754a.535.535 0 0 1-.206-1.028c10.818-4.514 8.972-17.933 8.951-18.065a.535.535 0 1 1 1.059-.155c.021.144 1.978 14.38-9.6 19.222a.54.54 0 0 1-.204.026Z" fill="#262424"/><path data-name="Path" d="m51.321 69.629-8.71 2.61s-23.567-3.103-27.981-3.402-6.6 7.525-.792 9.91 23.218 9.065 27.032 9.15 18.542-3.6 18.542-3.6Z" fill="#fff"/><path data-name="Shape" d="M40.852 88.432c-3.9-.087-21.307-6.767-27.218-9.192a5.894 5.894 0 0 1-3.685-6.928c.585-2.509 2.513-4.151 4.718-4.01 4.271.292 25.924 3.129 27.906 3.392l8.61-2.578a.534.534 0 0 1 .623.255l8.085 14.67a.535.535 0 0 1-.338.779c-.609.146-14.516 3.613-18.56 3.613Z" fill="#262424"/><path data-name="Path" d="M99.587 49.135 49.05 69.3s.139 21.235 14.871 27.97l39.344-20.5s11.667-16.467-3.678-27.635Z" fill="#f5b544"/><path data-name="Path" d="M65.426 93.923a.535.535 0 0 1-.278-.076C53.251 86.635 53.397 70.254 53.397 70.09a.535.535 0 0 1 1.07.018c0 .156-.132 15.936 11.23 22.824a.535.535 0 0 1-.276.991Z" fill="#262424"/><path data-name="Path" d="m104.257 48.604 22.544 2.213 32.106-2.413s27.023 35.941 42.9 69.12c0 0-13.02 22.117-38.707 25.508s-36.745-5.174-36.745-5.174-2.856-21.4-12.131-36.025c-7.014-11.056-21.261-27.416-22.213-41.455a11.152 11.152 0 0 1 12.246-11.774Z" fill="#f5b544"/><path data-name="Path" d="M98.285 78.495a.535.535 0 0 1-.463-.271c-3.923-6.909-6-12.738-6.339-17.8a11.54 11.54 0 0 1 2.362-7.814.535.535 0 1 1 .848.653 10.47 10.47 0 0 0-2.143 7.089c.334 4.907 2.36 10.579 6.206 17.349a.535.535 0 0 1-.468.8ZM152.723 139.996a71.756 71.756 0 0 1-23.516-3.775.536.536 0 0 1 .389-1 72.684 72.684 0 0 0 36.921 2.346c19.063-3.834 31.049-21.706 31.171-21.887a.536.536 0 1 1 .894.591c-.12.183-12.358 18.426-31.854 22.349a71.047 71.047 0 0 1-14.005 1.376Z" fill="#262424"/><path data-name="Path" d="M123.587 47.786c-6.682.727-16.469 10.167-7.789 18.733a31.019 31.019 0 0 1 4.222-5.531 31.772 31.772 0 0 0 2.857 6.944s8.172-3.923 9.925-11.413-5.113-9.18-9.215-8.733Z" fill="#fff"/><path data-name="Shape" d="M122.41 68.209a31.273 31.273 0 0 1-2.645-6.186 31.85 31.85 0 0 0-3.5 4.759.536.536 0 0 1-.839.112c-4.172-4.106-3.957-8.08-3.046-10.693 1.727-4.965 7.123-8.511 11.149-8.956 2.6-.28 6.4.243 8.538 2.659 1.487 1.679 1.909 3.938 1.258 6.737-1.788 7.643-9.875 11.612-10.218 11.777a.526.526 0 0 1-.234.058.531.531 0 0 1-.463-.267Z" fill="#262424"/><path data-name="Path" d="m123.112 34.8 2.182 6.424 3.705 11.02c-2.726 3.912-6.193 5.5-10.582 4.169l-1.359-5.25-2.059-7.951Z" fill="#fff"/><path data-name="Shape" d="M118.275 56.934a.536.536 0 0 1-.364-.378l-3.419-13.201a.535.535 0 0 1 .132-.5l8.106-8.423a.535.535 0 0 1 .892.2l5.9 17.444a.532.532 0 0 1-.068.477c-2.257 3.232-4.979 4.858-8.114 4.858a10.644 10.644 0 0 1-3.065-.477Z" fill="#262424"/><path data-name="Path" d="M120.311 37.706c1.01 2.9 4.88 12.606-2.457 16.506l-2.843-10.994Z" fill="#262424"/><path data-name="Path" d="M104.777 39.806c1.48 5.3 4.169 11.473 10.459 9.347 7.482-2.528 11.51-8.83 10.31-16.16s-5.292-10.874-13.916-8.511a13.646 13.646 0 0 0-2.14.778c-4.806 2.235-6.617 6.855-5.452 11.702.22.876.458 1.844.739 2.844Z" fill="#fff"/><path data-name="Path" d="M113.338 50.224a6.184 6.184 0 0 1-3.52-.743c-3.666-2.02-5.236-7.439-6.42-12.363-1.493-6.211 1.747-11.547 8.062-13.277a.667.667 0 0 1 .352 1.283c-5.658 1.551-8.453 6.139-7.119 11.684.806 3.356 2.316 9.6 5.771 11.513a5.42 5.42 0 0 0 4.558.2 15.7 15.7 0 0 0 6.816-4.353.668.668 0 1 1 1 .885 17.243 17.243 0 0 1-7.381 4.734 8.6 8.6 0 0 1-2.119.437Z" fill="#262424"/><path data-name="Path" d="M128.648 33.5a23.016 23.016 0 0 1-1.982 3.474l-3.432.889-1.086-2.624s-3.177.354-3.983-1.232a.985.985 0 0 1-.053-.111 21.765 21.765 0 0 1-1.45-6.753s-5.51 3.671-8.7 4.579a7.492 7.492 0 0 1-3.97-.292c-2.759-.816-5.7-4.572-5.744-7.451v-.056c-.014-4.226 2.619-1.753 2.619-1.753s.037-3.411 2.066-4.006 3.884 2.216 3.884 2.216a33.1 33.1 0 0 1 12.043-2.616c8.217-.165 7.18 5.7 7.18 5.7s6.216.853 2.608 10.036Z" fill="#262424"/><path data-name="Path" d="M122.929 37.898a5.9 5.9 0 0 1 4.1-7.265 5.292 5.292 0 0 1 1.912-.132c4.037.466 4.373 9.655-5.227 10.387Z" fill="#fff"/><path data-name="Path" d="M123.714 41.424a.535.535 0 0 1-.039-1.07c5.385-.412 7.351-3.5 7.411-6.021.035-1.76-.889-3.147-2.2-3.3a4.762 4.762 0 0 0-1.721.12 5.309 5.309 0 0 0-3.887 4.981.528.528 0 0 1-.556.514.535.535 0 0 1-.514-.56 6.383 6.383 0 0 1 4.7-5.971 5.815 5.815 0 0 1 2.1-.146c1.869.216 3.189 2.063 3.145 4.382-.069 3.2-2.691 6.64-8.4 7.068h-.039Z" fill="#262424"/><path data-name="Path" d="M209.659 240.121s16.863-2.084 16.963-24.204-16-23.115-16-23.115l-49.6-.2s15.313 38.927 25.293 43.077 23.344 4.442 23.344 4.442Z" fill="#fff"/><path data-name="Shape" d="M209.648 240.656c-.134 0-13.584-.347-23.54-4.486-10.072-4.189-24.954-41.775-25.584-43.373a.535.535 0 0 1 .497-.732l49.6.2c.2 0 16.637 1.278 16.538 23.655s-17.261 24.711-17.435 24.732h-.065Z" fill="#262424"/><path data-name="Path" d="m192.537 205.345 23.414.695s5.327 9.979-1.285 19.454l-21.735-.1Z" fill="#fff"/><path data-name="Shape" d="M192.931 225.935a.534.534 0 0 1-.532-.528l-.406-20.054a.535.535 0 0 1 .16-.391.56.56 0 0 1 .392-.155l23.414.695a.531.531 0 0 1 .463.283c.056.1 5.413 10.38-1.318 20.021a.536.536 0 0 1-.437.231Z" fill="#262424"/><path data-name="Path" d="M210.615 192.8a20.006 20.006 0 0 0-8.99 18.078c.79 12.351 13.042 14.622 13.042 14.622l-41.9-.2-11.752-32.7Z" fill="#fff"/><path data-name="Shape" d="m214.667 226.038-41.9-.2a.54.54 0 0 1-.5-.355l-11.749-32.703a.535.535 0 0 1 .504-.715l49.6.2a.535.535 0 0 1 .268 1 19.608 19.608 0 0 0-8.726 17.585c.752 11.772 12.122 14.033 12.603 14.115a.536.536 0 0 1-.051 1.07Z" fill="#262424"/><path data-name="Path" d="M101.914 72.362a22.684 22.684 0 0 1 11.7 18.771 26.463 26.463 0 0 1-8.118 21.339l-18.474-.989s-4.894-32.796 14.892-39.121Z" fill="#fff"/><path data-name="Shape" d="M105.497 113.02h-.028l-18.474-.988a.535.535 0 0 1-.5-.463c-.051-.337-4.729-33.324 15.26-39.711a.527.527 0 0 1 .392.025 23.414 23.414 0 0 1 12.007 19.223 27.264 27.264 0 0 1-8.31 21.789.538.538 0 0 1-.344.125Z" fill="#262424"/><path data-name="Path" d="M97.989 94.986s1.186 11.066 7.508 17.488l-18.474-.989-2.372-17.388Z" fill="#fff"/><path data-name="Shape" d="m105.468 113.019-18.474-.987a.534.534 0 0 1-.5-.463L84.12 94.181a.536.536 0 0 1 .138-.438.54.54 0 0 1 .427-.17l13.338.89a.537.537 0 0 1 .5.478c.012.108 1.244 10.958 7.358 17.167a.535.535 0 0 1-.38.911Z" fill="#262424"/><path data-name="Path" d="M209.66 240.121h-101.3s-23.315-8.107-32.802-33.392-35.953-49.404-49.793-62.834-32.604-48.404-11.76-75.681l87.9 4.15s-17.331 11.812-10.732 35.05c4.908 17.3 19.563 30.355 38.728 45.573s32.204 30.627 39.123 49.391c6.473 17.575 22.993 36.527 40.636 37.743Z" fill="#fff"/><path data-name="Shape" d="M209.659 240.656H108.364a.511.511 0 0 1-.176-.03c-.231-.081-23.666-8.476-33.118-33.709-8.7-23.2-32.176-45.8-46.2-59.289l-3.476-3.342c-13.143-12.774-33.322-48.25-11.811-76.391a.547.547 0 0 1 .449-.209l87.9 4.15a.535.535 0 0 1 .275.977c-.165.117-16.934 11.873-10.523 34.458 4.977 17.544 20.4 30.9 38.544 45.3 20.258 16.073 32.743 31.845 39.3 49.613 6.343 17.223 22.578 36.182 40.171 37.393a.54.54 0 0 1-.019 1.079Z" fill="#262424"/><path data-name="Path" d="M17.039 86.763c-1.181.114-2.125 6.964-1.334 11.511s1.878 5.929 2.272 6.323 16.212 1.086 16.992.989-.4-5.04-.493-8.4.4-8 .4-8.694-16.304-1.875-17.837-1.729Z" fill="#f5b544"/><path data-name="Path" d="M44.211 98.149a2.281 2.281 0 0 0 2.145 2.227l31.46 1.881a2.492 2.492 0 0 0 2.636-2.633 2.492 2.492 0 0 0-2.374-2.353l-31.481-1.464a2.281 2.281 0 0 0-2.386 2.342Z" fill="#2772f0"/><path data-name="Path" d="M24.477 118.545c-1.133.185.556 6.063 3.089 9.859s4.152 4.891 4.695 5.191 16.575-.285 17.326-.428-2.33-4.243-3.717-7.085-2.68-6.814-2.944-7.41-16.988-.365-18.449-.127Z" fill="#f5b544"/><path data-name="Path" d="M56.375 126.259a2.281 2.281 0 0 0 2.145 2.228l31.455 1.88a2.492 2.492 0 0 0 2.636-2.633 2.492 2.492 0 0 0-2.372-2.341l-31.478-1.464a2.281 2.281 0 0 0-2.386 2.33Z" fill="#2772f0"/><path data-name="Path" d="M45.022 144.896c-1.133.185.556 6.063 3.089 9.859s4.152 4.891 4.695 5.191 16.575-.285 17.326-.428-2.33-4.243-3.717-7.085-2.68-6.814-2.944-7.41-16.981-.365-18.449-.127Z" fill="#f5b544"/><path data-name="Path" d="M76.915 152.622a2.281 2.281 0 0 0 2.233 2.14l31.5.618a2.492 2.492 0 0 0 2.529-2.737 2.492 2.492 0 0 0-2.462-2.247l-31.509-.206a2.281 2.281 0 0 0-2.291 2.432Z" fill="#2772f0"/><path data-name="Path" d="M68.856 172.632c-1.123.232.808 6.035 3.5 9.727s4.347 4.711 4.905 4.993 16.55-.973 17.293-1.146-2.5-4.143-4.009-6.925-2.962-6.698-3.245-7.272-16.985.322-18.444.623Z" fill="#f5b544"/><path data-name="Path" d="M101.045 177.556a2.281 2.281 0 0 0 2.316 2.045l31.5-.695a2.492 2.492 0 0 0 2.413-2.839 2.492 2.492 0 0 0-2.55-2.144l-31.497 1.108a2.281 2.281 0 0 0-2.182 2.525Z" fill="#2772f0"/><path data-name="Path" d="M86.342 198.084c-1.123.232.808 6.035 3.5 9.727s4.347 4.711 4.905 4.993 16.55-.973 17.293-1.146-2.5-4.148-4.009-6.927-2.962-6.698-3.245-7.272-16.985.324-18.444.625Z" fill="#f5b544"/><path data-name="Path" d="M118.531 203.01a2.281 2.281 0 0 0 2.316 2.045l31.5-.695a2.492 2.492 0 0 0 2.413-2.839 2.492 2.492 0 0 0-2.55-2.144l-31.497 1.108a2.281 2.281 0 0 0-2.182 2.525Z" fill="#2772f0"/><path data-name="Path" d="M105.027 220.711c-1.123.232.808 6.035 3.5 9.727s4.344 4.711 4.902 4.994 16.55-.973 17.293-1.146-2.5-4.143-4.009-6.925-2.959-6.698-3.242-7.273-16.985.311-18.444.623Z" fill="#f5b544"/><path data-name="Path" d="M137.216 225.628a2.281 2.281 0 0 0 2.316 2.045l31.5-.695a2.492 2.492 0 0 0 2.436-2.832 2.492 2.492 0 0 0-2.55-2.144l-31.497 1.108a2.281 2.281 0 0 0-2.2 2.517Z" fill="#2772f0"/><path data-name="Path" d="M190.388 93.627s-1.78 9.632-17.303 9.81c-10.146.113-14.954-5.327-17.066-9.118-1.121-2.005-10.582-24.414-11.295-30.836s1.605-16.054 14.176-15.077c11.638.912 29.133 39.855 31.266 44.721a.551.551 0 0 0 .051.113.422.422 0 0 1 .028.058c.072.178.12.292.127.322Z" fill="#f5b544"/><path data-name="Path" d="M172.771 103.975c-10.422 0-15.26-5.871-17.224-9.4-1.095-1.958-10.628-24.46-11.348-31.03-.232-2-.579-8.845 4.169-12.9a.536.536 0 0 1 .694.818c-4.342 3.705-4.002 10.093-3.793 11.962.695 6.272 10.16 28.718 11.23 30.636 2.258 4.051 6.911 8.847 16.281 8.847h.313c8.539-.1 12.775-3.113 14.822-5.623a.535.535 0 1 1 .829.676c-2.193 2.689-6.688 5.915-15.64 6.021h-.333Z" fill="#262424"/><path data-name="Path" d="M156.724 89.702a.535.535 0 0 1-.384-.906c.11-.113 11.218-11.323 28.136-4.764a.536.536 0 0 1-.387 1c-16.237-6.301-26.865 4.399-26.981 4.51a.535.535 0 0 1-.384.16Z" fill="#262424"/><path data-name="Path" d="M190.389 93.627s-1.447 7.835-13.113 9.5a33.5 33.5 0 0 1-4.187.306c-10.147.109-14.955-5.332-17.067-9.123a21.374 21.374 0 0 1 8.747-6.429 26.615 26.615 0 0 1 9.16-1.867 30.385 30.385 0 0 1 3.045.044c9.31.586 12.43 5.48 13.2 7.071a.551.551 0 0 0 .051.113.422.422 0 0 1 .028.058 2.67 2.67 0 0 1 .127.322Z" fill="#f5b544"/><path data-name="Path" d="M172.771 103.975c-10.422 0-15.262-5.871-17.226-9.4a.535.535 0 0 1 .049-.593 21.8 21.8 0 0 1 8.964-6.587 27.257 27.257 0 0 1 9.336-1.915 30.934 30.934 0 0 1 3.1.044c4.377.276 7.946 1.505 10.6 3.659a.535.535 0 0 1-.674.831 17.187 17.187 0 0 0-9.982-3.423 30.316 30.316 0 0 0-3-.042 26.182 26.182 0 0 0-8.961 1.838 20.818 20.818 0 0 0-8.3 5.984c2.346 4.025 7.064 8.618 16.416 8.532a33.16 33.16 0 0 0 4.12-.3c5.954-.852 9.106-3.365 10.7-5.327a.535.535 0 0 1 .829.676c-1.716 2.105-5.1 4.8-11.383 5.7a34.276 34.276 0 0 1-4.257.313h-.329Z" fill="#262424"/><path data-name="Path" d="M178.031 100.862a5.73 5.73 0 0 1-.757 2.27c-2.17 3.775-8.954 6.9-20.913 4.979-9.728-1.563-25.259-7.99-34.218-11.957-4.232-1.869-7-3.189-7-3.189l1.749-6.2h1.141c6.279.065 36.71.391 46.734 1.121a26.615 26.615 0 0 1 9.162-1.872 30.383 30.383 0 0 1 3.045.044l.408 5.044.6 7.557.021.232a8.847 8.847 0 0 1 .028 1.971Z" fill="#fff"/><path data-name="Shape" d="M156.267 108.64c-9.9-1.59-25.772-8.2-34.35-12-4.19-1.85-6.985-3.179-7.013-3.189a.536.536 0 0 1-.285-.632l1.758-6.2a.535.535 0 0 1 .514-.39h1.158c10.91.11 37.217.442 46.643 1.111a27.292 27.292 0 0 1 9.221-1.869 30.985 30.985 0 0 1 3.1.044.535.535 0 0 1 .5.491l1.031 12.815a9.331 9.331 0 0 1 .028 2.084 6.262 6.262 0 0 1-.827 2.48c-1.764 3.071-6.429 5.845-14.53 5.845a43.835 43.835 0 0 1-6.948-.59Z" fill="#262424"/><path data-name="Path" d="M122.143 96.152c-4.232-1.869-7-3.189-7-3.189l1.749-6.2h1.141ZM177.375 91.1a52.491 52.491 0 0 0-12.608-3.205 26.615 26.615 0 0 1 9.162-1.881 30.385 30.385 0 0 1 3.045.044Z" fill="#262424"/><path data-name="Path" d="M108.019 79.743s-7.46 1.135-8.31-.73 2.427-4.631 9.801-4.588 6.084 4.305 6.084 4.305 3.275 2.4 2.527 8.981-2.659 9.395-11.443 8.774-7.156-12.006-6.4-13.949 7.741-2.793 7.741-2.793Z" fill="#fff"/><path data-name="Shape" d="M106.64 97.015a7.211 7.211 0 0 1-5.934-3.349c-2.514-3.971-1.448-9.978-.928-11.327a3.977 3.977 0 0 1 2.337-1.776c-1.375-.144-2.529-.521-2.897-1.329a2.173 2.173 0 0 1 .232-2.131c1.026-1.581 4.205-3.242 10.051-3.215 3.01.022 5.039.725 6.039 2.084a3.473 3.473 0 0 1 .623 2.548c.815.764 3.129 3.474 2.471 9.243-.69 6.2-2.416 9.338-9.748 9.338-.691 0-1.446-.027-2.246-.086Z" fill="#262424"/><path data-name="Path" d="M16.698 67.964s4.417 6.119 6.341 5.419 1.621-4.984-3.59-10.209-7.334-1.338-7.334-1.338-4.009-.649-8.178 4.495-4.845 8.476 1.753 14.315 13.578-3.3 14.433-5.2-3.425-7.482-3.425-7.482Z" fill="#fff"/><path data-name="Shape" d="M5.336 81.048C-1.612 74.904-.783 71.3 3.52 65.994c3.657-4.5 7.212-4.759 8.338-4.708a3.472 3.472 0 0 1 2.253-1.337c1.682-.234 3.609.718 5.725 2.846 4.125 4.144 5.155 7.588 4.746 9.427a2.171 2.171 0 0 1-1.353 1.662c-.836.3-1.913-.255-2.978-1.137a4 4 0 0 1 .368 2.911c-.593 1.318-4.136 6.286-8.731 7.275a7.329 7.329 0 0 1-1.552.174 7.47 7.47 0 0 1-5-2.059Z" fill="#262424"/><path data-name="Path" d="m191.014 47.845-22.819-14.083a3.655 3.655 0 0 1-.889-5.447L182.76 9.748a3.655 3.655 0 0 1 4.731-.772l17.025 10.506a3.655 3.655 0 0 1 1.429 4.569l-9.665 22.145a3.655 3.655 0 0 1-5.266 1.649Z" fill="#fff"/><path data-name="Shape" d="m190.735 48.296-22.828-14.078a4.191 4.191 0 0 1-1.019-6.253l15.459-18.569a4.208 4.208 0 0 1 5.417-.883l17.025 10.506a4.208 4.208 0 0 1 1.64 5.241l-9.665 22.143a4.172 4.172 0 0 1-6.029 1.9Z" fill="#262424"/><path data-name="Path" d="m189.177 13.24 5.171-8.376a6.33 6.33 0 0 1 10.774 6.645l-5.172 8.379a.844.844 0 1 0 1.436.887l5.172-8.379a8.018 8.018 0 1 0-13.636-8.422l-5.174 8.379a.844.844 0 1 0 1.436.887h-.007ZM269.234 121.075a8.6 8.6 0 0 0-8.6 8.6 8.6 8.6 0 0 0-8.6-8.6 8.6 8.6 0 0 0 8.6-8.6 8.6 8.6 0 0 0 8.6 8.6ZM245.941 145.567a3.474 3.474 0 0 0-3.474 3.474 3.474 3.474 0 0 0-3.474-3.474 3.474 3.474 0 0 0 3.474-3.474 3.474 3.474 0 0 0 3.474 3.474ZM74.018 16.997a6.452 6.452 0 0 0-6.448 6.448 6.452 6.452 0 0 0-6.452-6.448 6.452 6.452 0 0 0 6.452-6.452 6.452 6.452 0 0 0 6.448 6.452Z" fill="#2772f0"/><path data-name="Path" d="M40.24 192.6a7.874 7.874 0 0 0-7.874 7.874 7.874 7.874 0 0 0-7.875-7.874 7.874 7.874 0 0 0 7.874-7.874 7.874 7.874 0 0 0 7.874 7.874Z" fill="#88c0c2"/><circle cx="3.75" cy="3.75" r="3.75" transform="translate(198.791 72.362)" fill="#f5b544"/><circle data-name="Oval" cx="2.14" cy="2.14" r="2.14" transform="translate(226.598 124.664)" fill="#f5b544"/><circle data-name="Oval" cx="3.21" cy="3.21" r="3.21" transform="translate(1.137 220.477)" fill="#f5b544"/><circle data-name="Oval" cx="4.102" cy="4.102" r="4.102" transform="translate(1.85 35.835)" fill="#f5b544"/><circle data-name="Oval" cx="2.14" cy="2.14" r="2.14" transform="translate(51.794 48.32)" fill="#f5b544"/></g></g></svg>