<?xml version="1.0" encoding="utf-8"?>
<!-- Generator: Adobe Illustrator 27.5.0, SVG Export Plug-In . SVG Version: 6.00 Build 0)  -->
<svg version="1.1" id="Layer_1" xmlns="http://www.w3.org/2000/svg" xmlns:xlink="http://www.w3.org/1999/xlink" x="0px" y="0px"
	 viewBox="0 0 3000 2000" style="enable-background:new 0 0 3000 2000;" xml:space="preserve">
<style type="text/css">
	.st0{opacity:0.36;clip-path:url(#XMLID_00000088128458627786303880000001044823359417314462_);fill:#AAC1E5;}
	.st1{clip-path:url(#XMLID_00000088128458627786303880000001044823359417314462_);fill:#AAC1E5;}
	.st2{fill:#51517A;}
	.st3{fill:#39395D;}
	.st4{fill:#F15E3F;}
	.st5{fill:#EFCD76;}
	.st6{fill:#191A35;}
	.st7{clip-path:url(#XMLID_00000101093012201162356260000011650047102823000760_);fill:#F48272;}
	.st8{clip-path:url(#XMLID_00000091722533141602609940000005734807123414550938_);}
	.st9{clip-path:url(#XMLID_00000080929505618215730650000010798698838679179660_);fill:#F48272;}
	.st10{clip-path:url(#XMLID_00000091722533141602609940000005734807123414550938_);fill:#DE4A30;}
	.st11{fill:#F9B5A7;}
	.st12{clip-path:url(#XMLID_00000138534597429781860270000007206539069961128879_);fill:#F48272;}
	.st13{clip-path:url(#XMLID_00000020378596923959043320000006552569245530349699_);fill:#F48272;}
	.st14{clip-path:url(#XMLID_00000098213803409256516840000012600020764429795759_);fill:#F48272;}
	.st15{fill:#F48272;}
	.st16{fill:#7C95CC;}
	.st17{fill:#AAC1E5;}
	.st18{fill:#FFFFFF;}
	.st19{fill:#E4EDF8;}
	.st20{clip-path:url(#XMLID_00000050653931187724992510000000868572381594134170_);fill:#F9B5A7;}
	.st21{clip-path:url(#XMLID_00000050653931187724992510000000868572381594134170_);fill:#DE4A30;}
	.st22{clip-path:url(#XMLID_00000116197401399589466710000016920368388842843022_);fill:#191A35;}
	.st23{clip-path:url(#XMLID_00000029750246118858474810000000392053703018969525_);}
	.st24{opacity:0.55;clip-path:url(#XMLID_00000169519589298138052110000015241891122294121650_);fill:#4E70B6;}
	.st25{fill:#4E70B6;}
	.st26{clip-path:url(#XMLID_00000168818026832000478380000008013153986043729056_);fill:#F48272;}
	.st27{clip-path:url(#XMLID_00000164505138120700329460000017352826359900421023_);fill:#F48272;}
	.st28{clip-path:url(#XMLID_00000119820523561987070750000002134775552468158875_);fill:#F48272;}
	.st29{clip-path:url(#XMLID_00000182503879778757283510000016609945769074164875_);fill:#F48272;}
</style>
<g>
	<defs>
		<path id="XMLID_91_" d="M2661.01,1678.66H236.47L203.5,986.34c-3.88-81.42,24.53-161.04,78.92-221.75
			c82.13-91.67,209.87-246.31,319.64-361.31c92.95-97.37,228.39-141.89,360.96-118.43L2221.6,507.51
			c209.59,34.14,351.7,103.08,449.31,253.52c47.67,60.58,69.76,137.4,61.93,214.09L2661.01,1678.66z"/>
	</defs>
	<use xlink:href="#XMLID_91_"  style="overflow:visible;fill:#E4EDF8;"/>
	<clipPath id="XMLID_00000147219735595647693730000008630229805028288658_">
		<use xlink:href="#XMLID_91_"  style="overflow:visible;"/>
	</clipPath>
	<polygon style="opacity:0.36;clip-path:url(#XMLID_00000147219735595647693730000008630229805028288658_);fill:#AAC1E5;" points="
		199.97,1336.21 477.97,1336.21 477.97,1004.22 911.73,1004.22 911.73,1282.86 1484.22,1282.86 1484.22,1738.82 217.55,1738.82 	"/>
	<polyline style="clip-path:url(#XMLID_00000147219735595647693730000008630229805028288658_);fill:#AAC1E5;" points="
		1365.74,1678.35 1365.74,987.92 1198.62,987.92 1198.62,1465.26 1112.28,1465.26 1112.28,1678.66 1365.74,1678.66 	"/>
	<polygon style="opacity:0.36;clip-path:url(#XMLID_00000147219735595647693730000008630229805028288658_);fill:#AAC1E5;" points="
		2700.87,1348.07 2310.4,1348.07 2310.4,1168.27 2131.06,1168.27 2131.06,1705.1 2811.56,1705.1 	"/>
</g>
<g>
	<g>
		<g>
			<rect x="1278.13" y="969.42" class="st2" width="311.96" height="546.23"/>
			<rect x="1590.1" y="969.42" class="st3" width="132.76" height="546.23"/>
		</g>
		<rect x="1310.45" y="1008.46" class="st3" width="247.33" height="55.41"/>
		<path class="st4" d="M1514.19,1038.41c0.39-22.59,34-22.59,34.38,0C1548.19,1061.01,1514.58,1061,1514.19,1038.41z"/>
		<path class="st4" d="M1467.04,1038.41c0.39-22.59,34-22.59,34.38,0C1501.03,1061.01,1467.42,1061,1467.04,1038.41z"/>
		<g>
			<rect x="1349.91" y="1015.03" class="st2" width="10.75" height="44.02"/>
			<rect x="1333.75" y="1015.03" class="st2" width="10.75" height="44.02"/>
			<rect x="1317.59" y="1015.03" class="st2" width="10.75" height="44.02"/>
		</g>
		<g>
			<rect x="1398.06" y="1015.03" class="st2" width="10.75" height="44.02"/>
			<rect x="1381.9" y="1015.03" class="st2" width="10.75" height="44.02"/>
			<rect x="1365.74" y="1015.03" class="st2" width="10.75" height="44.02"/>
		</g>
		<g>
			<rect x="1446.21" y="1015.03" class="st2" width="10.75" height="44.02"/>
			<rect x="1430.05" y="1015.03" class="st2" width="10.75" height="44.02"/>
			<rect x="1413.89" y="1015.03" class="st2" width="10.75" height="44.02"/>
		</g>
		<rect x="1317.59" y="1031.21" class="st5" width="10.75" height="27.85"/>
		<rect x="1333.75" y="1039.7" class="st5" width="10.75" height="19.35"/>
		<rect x="1349.91" y="1036.16" class="st5" width="10.75" height="22.89"/>
		<rect x="1366.06" y="1039.7" class="st5" width="10.75" height="19.35"/>
		<rect x="1381.9" y="1039.7" class="st5" width="10.75" height="19.35"/>
		<rect x="1398.06" y="1028.02" class="st5" width="10.75" height="31.03"/>
		<rect x="1413.89" y="1039.7" class="st5" width="10.75" height="19.35"/>
		<rect x="1430.05" y="1039.7" class="st5" width="10.75" height="19.35"/>
		<rect x="1446.21" y="1039.7" class="st5" width="10.75" height="19.35"/>
		<rect x="1310.45" y="1090.4" class="st3" width="247.33" height="55.41"/>
		<path class="st4" d="M1514.19,1120.35c0.39-22.59,34-22.59,34.38,0C1548.19,1142.94,1514.58,1142.94,1514.19,1120.35z"/>
		<path class="st4" d="M1467.04,1120.35c0.39-22.59,34-22.59,34.38,0C1501.03,1142.94,1467.42,1142.94,1467.04,1120.35z"/>
		<g>
			<rect x="1349.91" y="1096.97" class="st2" width="10.75" height="44.02"/>
			<rect x="1333.75" y="1096.97" class="st2" width="10.75" height="44.02"/>
			<rect x="1317.59" y="1096.97" class="st2" width="10.75" height="44.02"/>
		</g>
		<g>
			<rect x="1398.06" y="1096.97" class="st2" width="10.75" height="44.02"/>
			<rect x="1381.9" y="1096.97" class="st2" width="10.75" height="44.02"/>
			<rect x="1365.74" y="1096.97" class="st2" width="10.75" height="44.02"/>
		</g>
		<g>
			<rect x="1446.21" y="1096.97" class="st2" width="10.75" height="44.02"/>
			<rect x="1430.05" y="1096.97" class="st2" width="10.75" height="44.02"/>
			<rect x="1413.89" y="1096.97" class="st2" width="10.75" height="44.02"/>
		</g>
		<rect x="1317.59" y="1133.01" class="st5" width="10.75" height="7.98"/>
		<rect x="1333.75" y="1121.63" class="st5" width="10.75" height="19.35"/>
		<rect x="1349.91" y="1118.1" class="st5" width="10.75" height="22.89"/>
		<rect x="1365.74" y="1116.63" class="st5" width="10.75" height="24.36"/>
		<rect x="1381.9" y="1121.63" class="st5" width="10.75" height="19.35"/>
		<rect x="1398.06" y="1109.96" class="st5" width="10.75" height="31.03"/>
		<rect x="1413.89" y="1121.63" class="st5" width="10.75" height="19.35"/>
		<rect x="1430.05" y="1130.24" class="st5" width="10.75" height="10.75"/>
		<rect x="1446.21" y="1121.63" class="st5" width="10.75" height="19.35"/>
		<rect x="1310.45" y="1172.34" class="st3" width="247.33" height="55.41"/>
		<path class="st4" d="M1514.19,1202.29c0.39-22.59,34-22.59,34.38,0C1548.19,1224.88,1514.58,1224.88,1514.19,1202.29z"/>
		<path class="st4" d="M1467.04,1202.29c0.39-22.59,34-22.59,34.38,0C1501.03,1224.88,1467.42,1224.88,1467.04,1202.29z"/>
		<g>
			<rect x="1349.91" y="1178.91" class="st2" width="10.75" height="44.02"/>
			<rect x="1333.75" y="1178.91" class="st2" width="10.75" height="44.02"/>
			<rect x="1317.59" y="1178.91" class="st2" width="10.75" height="44.02"/>
		</g>
		<g>
			<rect x="1398.06" y="1178.91" class="st2" width="10.75" height="44.02"/>
			<rect x="1381.9" y="1178.91" class="st2" width="10.75" height="44.02"/>
			<rect x="1365.74" y="1178.91" class="st2" width="10.75" height="44.02"/>
		</g>
		<g>
			<rect x="1446.21" y="1178.91" class="st2" width="10.75" height="44.02"/>
			<rect x="1430.05" y="1178.91" class="st2" width="10.75" height="44.02"/>
			<rect x="1413.89" y="1178.91" class="st2" width="10.75" height="44.02"/>
		</g>
		<rect x="1317.59" y="1195.08" class="st5" width="10.75" height="27.85"/>
		<rect x="1333.75" y="1203.57" class="st5" width="10.75" height="19.35"/>
		<rect x="1349.91" y="1200.04" class="st5" width="10.75" height="22.89"/>
		<rect x="1365.74" y="1185.46" class="st2" width="10.75" height="37.47"/>
		<rect x="1381.9" y="1203.57" class="st5" width="10.75" height="19.35"/>
		<rect x="1398.06" y="1197.06" class="st5" width="10.75" height="25.87"/>
		<rect x="1413.89" y="1203.57" class="st5" width="10.75" height="19.35"/>
		<rect x="1430.05" y="1203.57" class="st5" width="10.75" height="19.35"/>
		<rect x="1446.21" y="1203.57" class="st5" width="10.75" height="19.35"/>
		<rect x="1310.45" y="1254.27" class="st3" width="247.33" height="55.41"/>
		<path class="st4" d="M1514.19,1284.23c0.39-22.59,34-22.59,34.38,0C1548.19,1306.82,1514.58,1306.82,1514.19,1284.23z"/>
		<path class="st4" d="M1467.04,1284.23c0.39-22.59,34-22.59,34.38,0C1501.03,1306.82,1467.42,1306.82,1467.04,1284.23z"/>
		<g>
			<rect x="1349.91" y="1260.85" class="st2" width="10.75" height="44.02"/>
			<rect x="1333.75" y="1260.85" class="st2" width="10.75" height="44.02"/>
			<rect x="1317.59" y="1260.85" class="st2" width="10.75" height="44.02"/>
		</g>
		<g>
			<rect x="1398.06" y="1260.85" class="st2" width="10.75" height="44.02"/>
			<rect x="1381.9" y="1260.85" class="st2" width="10.75" height="44.02"/>
			<rect x="1365.74" y="1260.85" class="st2" width="10.75" height="44.02"/>
		</g>
		<g>
			<rect x="1446.21" y="1260.85" class="st2" width="10.75" height="44.02"/>
			<rect x="1430.05" y="1260.85" class="st2" width="10.75" height="44.02"/>
			<rect x="1413.89" y="1260.85" class="st2" width="10.75" height="44.02"/>
		</g>
		<rect x="1317.59" y="1277.02" class="st5" width="10.75" height="27.85"/>
		<rect x="1333.75" y="1295.19" class="st5" width="10.75" height="9.68"/>
		<rect x="1349.91" y="1294.12" class="st5" width="10.75" height="10.75"/>
		<rect x="1365.74" y="1285.51" class="st5" width="10.75" height="19.35"/>
		<rect x="1381.9" y="1285.51" class="st5" width="10.75" height="19.35"/>
		<rect x="1398.06" y="1273.84" class="st5" width="10.75" height="31.03"/>
		<rect x="1413.89" y="1293.42" class="st5" width="10.75" height="11.44"/>
		<rect x="1430.05" y="1285.51" class="st5" width="10.75" height="19.35"/>
		<rect x="1446.21" y="1285.51" class="st5" width="10.75" height="19.35"/>
		<rect x="1310.45" y="1336.21" class="st3" width="247.33" height="55.41"/>
		<path class="st4" d="M1514.19,1366.17c0.39-22.59,34-22.59,34.38,0C1548.19,1388.76,1514.58,1388.76,1514.19,1366.17z"/>
		<path class="st2" d="M1467.04,1366.17c0.39-22.59,34-22.59,34.38,0C1501.03,1388.76,1467.42,1388.76,1467.04,1366.17z"/>
		<g>
			<rect x="1349.91" y="1342.79" class="st2" width="10.75" height="44.02"/>
			<rect x="1333.75" y="1342.79" class="st2" width="10.75" height="44.02"/>
			<rect x="1317.59" y="1342.79" class="st2" width="10.75" height="44.02"/>
		</g>
		<g>
			<rect x="1398.06" y="1342.79" class="st2" width="10.75" height="44.02"/>
			<rect x="1381.9" y="1342.79" class="st2" width="10.75" height="44.02"/>
			<rect x="1365.74" y="1342.79" class="st2" width="10.75" height="44.02"/>
		</g>
		<g>
			<rect x="1446.21" y="1342.79" class="st2" width="10.75" height="44.02"/>
			<rect x="1430.05" y="1342.79" class="st2" width="10.75" height="44.02"/>
			<rect x="1413.89" y="1342.79" class="st2" width="10.75" height="44.02"/>
		</g>
		<rect x="1317.59" y="1358.96" class="st5" width="10.75" height="27.85"/>
		<rect x="1333.75" y="1367.45" class="st5" width="10.75" height="19.35"/>
		<rect x="1349.91" y="1363.92" class="st5" width="10.75" height="22.89"/>
		<rect x="1366.06" y="1367.45" class="st5" width="10.75" height="19.35"/>
		<rect x="1381.9" y="1367.45" class="st5" width="10.75" height="19.35"/>
		<rect x="1398.06" y="1355.78" class="st5" width="10.75" height="31.03"/>
		<rect x="1413.89" y="1367.45" class="st5" width="10.75" height="19.35"/>
		<rect x="1430.05" y="1367.45" class="st5" width="10.75" height="19.35"/>
		<rect x="1446.21" y="1367.45" class="st5" width="10.75" height="19.35"/>
		<g>
			<rect x="1310.45" y="1413" class="st3" width="68.65" height="11.54"/>
			<rect x="1310.45" y="1433.36" class="st3" width="68.65" height="11.54"/>
			<rect x="1310.45" y="1453.72" class="st3" width="68.65" height="11.54"/>
		</g>
		<g>
			<rect x="1399.79" y="1413" class="st3" width="68.65" height="11.54"/>
			<rect x="1399.79" y="1433.36" class="st3" width="68.65" height="11.54"/>
			<rect x="1399.79" y="1453.72" class="st3" width="68.65" height="11.54"/>
		</g>
		<g>
			<rect x="1489.13" y="1413" class="st3" width="68.65" height="11.54"/>
			<rect x="1489.13" y="1433.36" class="st3" width="68.65" height="11.54"/>
			<rect x="1489.13" y="1453.72" class="st3" width="68.65" height="11.54"/>
		</g>
		<g>
			<rect x="1622.15" y="1008.46" class="st2" width="68.65" height="11.58"/>
			<rect x="1622.15" y="1028.89" class="st2" width="68.65" height="11.58"/>
			<rect x="1622.15" y="1049.33" class="st2" width="68.65" height="11.58"/>
		</g>
		<g>
			<rect x="1622.15" y="1091.14" class="st2" width="68.65" height="11.58"/>
			<rect x="1622.15" y="1111.57" class="st2" width="68.65" height="11.58"/>
			<rect x="1622.15" y="1132.01" class="st2" width="68.65" height="11.58"/>
		</g>
		<g>
			<rect x="1622.15" y="1173.82" class="st2" width="68.65" height="11.58"/>
			<rect x="1622.15" y="1194.25" class="st2" width="68.65" height="11.58"/>
			<rect x="1622.15" y="1214.69" class="st2" width="68.65" height="11.58"/>
		</g>
		<g>
			<rect x="1622.15" y="1255.76" class="st2" width="68.65" height="11.58"/>
			<rect x="1622.15" y="1276.19" class="st2" width="68.65" height="11.58"/>
			<rect x="1622.15" y="1296.63" class="st2" width="68.65" height="11.58"/>
		</g>
		<g>
			<rect x="1622.15" y="1336.49" class="st2" width="68.65" height="11.58"/>
			<rect x="1622.15" y="1356.93" class="st2" width="68.65" height="11.58"/>
			<rect x="1622.15" y="1377.37" class="st2" width="68.65" height="11.58"/>
		</g>
	</g>
	<g>
		<g>
			<rect x="1752.72" y="969.42" class="st2" width="311.96" height="546.23"/>
			<rect x="2064.68" y="969.42" class="st3" width="132.76" height="546.23"/>
		</g>
		<rect x="1785.04" y="1008.46" class="st3" width="247.33" height="55.41"/>
		<path class="st4" d="M1988.78,1038.41c0.39-22.59,34-22.59,34.38,0C2022.77,1061.01,1989.16,1061,1988.78,1038.41z"/>
		<path class="st4" d="M1941.62,1038.41c0.39-22.59,34-22.59,34.38,0C1975.62,1061.01,1942.01,1061,1941.62,1038.41z"/>
		<g>
			<rect x="1824.49" y="1015.03" class="st2" width="10.75" height="44.02"/>
			<rect x="1808.33" y="1015.03" class="st2" width="10.75" height="44.02"/>
			<rect x="1792.17" y="1015.03" class="st2" width="10.75" height="44.02"/>
		</g>
		<g>
			<rect x="1872.65" y="1015.03" class="st2" width="10.75" height="44.02"/>
			<rect x="1856.49" y="1015.03" class="st2" width="10.75" height="44.02"/>
			<rect x="1840.33" y="1015.03" class="st2" width="10.75" height="44.02"/>
		</g>
		<g>
			<rect x="1920.8" y="1015.03" class="st2" width="10.75" height="44.02"/>
			<rect x="1904.64" y="1015.03" class="st2" width="10.75" height="44.02"/>
			<rect x="1888.48" y="1015.03" class="st2" width="10.75" height="44.02"/>
		</g>
		<rect x="1792.17" y="1031.21" class="st5" width="10.75" height="27.85"/>
		<rect x="1808.33" y="1039.7" class="st5" width="10.75" height="19.35"/>
		<rect x="1824.49" y="1036.16" class="st5" width="10.75" height="22.89"/>
		<rect x="1840.65" y="1039.7" class="st5" width="10.75" height="19.35"/>
		<rect x="1856.49" y="1039.7" class="st5" width="10.75" height="19.35"/>
		<rect x="1872.65" y="1028.02" class="st5" width="10.75" height="31.03"/>
		<rect x="1888.48" y="1039.7" class="st5" width="10.75" height="19.35"/>
		<rect x="1904.64" y="1039.7" class="st5" width="10.75" height="19.35"/>
		<rect x="1920.8" y="1039.7" class="st5" width="10.75" height="19.35"/>
		<rect x="1785.04" y="1090.4" class="st3" width="247.33" height="55.41"/>
		<path class="st4" d="M1988.78,1120.35c0.39-22.59,34-22.59,34.38,0C2022.77,1142.94,1989.16,1142.94,1988.78,1120.35z"/>
		<path class="st4" d="M1941.62,1120.35c0.39-22.59,34-22.59,34.38,0C1975.62,1142.94,1942.01,1142.94,1941.62,1120.35z"/>
		<g>
			<rect x="1824.49" y="1096.97" class="st2" width="10.75" height="44.02"/>
			<rect x="1808.33" y="1096.97" class="st2" width="10.75" height="44.02"/>
			<rect x="1792.17" y="1096.97" class="st2" width="10.75" height="44.02"/>
		</g>
		<g>
			<rect x="1872.65" y="1096.97" class="st2" width="10.75" height="44.02"/>
			<rect x="1856.49" y="1096.97" class="st2" width="10.75" height="44.02"/>
			<rect x="1840.33" y="1096.97" class="st2" width="10.75" height="44.02"/>
		</g>
		<g>
			<rect x="1920.8" y="1096.97" class="st2" width="10.75" height="44.02"/>
			<rect x="1904.64" y="1096.97" class="st2" width="10.75" height="44.02"/>
			<rect x="1888.48" y="1096.97" class="st2" width="10.75" height="44.02"/>
		</g>
		<rect x="1792.17" y="1133.01" class="st5" width="10.75" height="7.98"/>
		<rect x="1808.33" y="1121.63" class="st5" width="10.75" height="19.35"/>
		<rect x="1824.49" y="1118.1" class="st5" width="10.75" height="22.89"/>
		<rect x="1840.33" y="1116.63" class="st5" width="10.75" height="24.36"/>
		<rect x="1856.49" y="1121.63" class="st5" width="10.75" height="19.35"/>
		<rect x="1872.65" y="1109.96" class="st5" width="10.75" height="31.03"/>
		<rect x="1888.48" y="1121.63" class="st5" width="10.75" height="19.35"/>
		<rect x="1904.64" y="1130.24" class="st5" width="10.75" height="10.75"/>
		<rect x="1920.8" y="1121.63" class="st5" width="10.75" height="19.35"/>
		<rect x="1785.04" y="1172.34" class="st3" width="247.33" height="55.41"/>
		<path class="st4" d="M1988.78,1202.29c0.39-22.59,34-22.59,34.38,0C2022.77,1224.88,1989.16,1224.88,1988.78,1202.29z"/>
		<path class="st4" d="M1941.62,1202.29c0.39-22.59,34-22.59,34.38,0C1975.62,1224.88,1942.01,1224.88,1941.62,1202.29z"/>
		<g>
			<rect x="1824.49" y="1178.91" class="st2" width="10.75" height="44.02"/>
			<rect x="1808.33" y="1178.91" class="st2" width="10.75" height="44.02"/>
			<rect x="1792.17" y="1178.91" class="st2" width="10.75" height="44.02"/>
		</g>
		<g>
			<rect x="1872.65" y="1178.91" class="st2" width="10.75" height="44.02"/>
			<rect x="1856.49" y="1178.91" class="st2" width="10.75" height="44.02"/>
			<rect x="1840.33" y="1178.91" class="st2" width="10.75" height="44.02"/>
		</g>
		<g>
			<rect x="1920.8" y="1178.91" class="st2" width="10.75" height="44.02"/>
			<rect x="1904.64" y="1178.91" class="st2" width="10.75" height="44.02"/>
			<rect x="1888.48" y="1178.91" class="st2" width="10.75" height="44.02"/>
		</g>
		<rect x="1792.17" y="1195.08" class="st5" width="10.75" height="27.85"/>
		<rect x="1808.33" y="1203.57" class="st5" width="10.75" height="19.35"/>
		<rect x="1824.49" y="1200.04" class="st5" width="10.75" height="22.89"/>
		<rect x="1840.33" y="1185.46" class="st2" width="10.75" height="37.47"/>
		<rect x="1856.49" y="1203.57" class="st5" width="10.75" height="19.35"/>
		<rect x="1872.65" y="1197.06" class="st5" width="10.75" height="25.87"/>
		<rect x="1888.48" y="1203.57" class="st5" width="10.75" height="19.35"/>
		<rect x="1904.64" y="1203.57" class="st5" width="10.75" height="19.35"/>
		<rect x="1920.8" y="1203.57" class="st5" width="10.75" height="19.35"/>
		<rect x="1785.04" y="1254.27" class="st3" width="247.33" height="55.41"/>
		<path class="st4" d="M1988.78,1284.23c0.39-22.59,34-22.59,34.38,0C2022.77,1306.82,1989.16,1306.82,1988.78,1284.23z"/>
		<path class="st4" d="M1941.62,1284.23c0.39-22.59,34-22.59,34.38,0C1975.62,1306.82,1942.01,1306.82,1941.62,1284.23z"/>
		<g>
			<rect x="1824.49" y="1260.85" class="st2" width="10.75" height="44.02"/>
			<rect x="1808.33" y="1260.85" class="st2" width="10.75" height="44.02"/>
			<rect x="1792.17" y="1260.85" class="st2" width="10.75" height="44.02"/>
		</g>
		<g>
			<rect x="1872.65" y="1260.85" class="st2" width="10.75" height="44.02"/>
			<rect x="1856.49" y="1260.85" class="st2" width="10.75" height="44.02"/>
			<rect x="1840.33" y="1260.85" class="st2" width="10.75" height="44.02"/>
		</g>
		<g>
			<rect x="1920.8" y="1260.85" class="st2" width="10.75" height="44.02"/>
			<rect x="1904.64" y="1260.85" class="st2" width="10.75" height="44.02"/>
			<rect x="1888.48" y="1260.85" class="st2" width="10.75" height="44.02"/>
		</g>
		<rect x="1792.17" y="1277.02" class="st5" width="10.75" height="27.85"/>
		<rect x="1808.33" y="1295.19" class="st5" width="10.75" height="9.68"/>
		<rect x="1824.49" y="1294.12" class="st5" width="10.75" height="10.75"/>
		<rect x="1840.33" y="1285.51" class="st5" width="10.75" height="19.35"/>
		<rect x="1856.49" y="1285.51" class="st5" width="10.75" height="19.35"/>
		<rect x="1872.65" y="1273.84" class="st5" width="10.75" height="31.03"/>
		<rect x="1888.48" y="1293.42" class="st5" width="10.75" height="11.44"/>
		<rect x="1904.64" y="1285.51" class="st5" width="10.75" height="19.35"/>
		<rect x="1920.8" y="1285.51" class="st5" width="10.75" height="19.35"/>
		<rect x="1785.04" y="1336.21" class="st3" width="247.33" height="55.41"/>
		<path class="st4" d="M1988.78,1366.17c0.39-22.59,34-22.59,34.38,0C2022.77,1388.76,1989.16,1388.76,1988.78,1366.17z"/>
		<path class="st2" d="M1941.62,1366.17c0.39-22.59,34-22.59,34.38,0C1975.62,1388.76,1942.01,1388.76,1941.62,1366.17z"/>
		<g>
			<rect x="1824.49" y="1342.79" class="st2" width="10.75" height="44.02"/>
			<rect x="1808.33" y="1342.79" class="st2" width="10.75" height="44.02"/>
			<rect x="1792.17" y="1342.79" class="st2" width="10.75" height="44.02"/>
		</g>
		<g>
			<rect x="1872.65" y="1342.79" class="st2" width="10.75" height="44.02"/>
			<rect x="1856.49" y="1342.79" class="st2" width="10.75" height="44.02"/>
			<rect x="1840.33" y="1342.79" class="st2" width="10.75" height="44.02"/>
		</g>
		<g>
			<rect x="1920.8" y="1342.79" class="st2" width="10.75" height="44.02"/>
			<rect x="1904.64" y="1342.79" class="st2" width="10.75" height="44.02"/>
			<rect x="1888.48" y="1342.79" class="st2" width="10.75" height="44.02"/>
		</g>
		<rect x="1792.17" y="1358.96" class="st5" width="10.75" height="27.85"/>
		<rect x="1808.33" y="1367.45" class="st5" width="10.75" height="19.35"/>
		<rect x="1824.49" y="1363.92" class="st5" width="10.75" height="22.89"/>
		<rect x="1840.65" y="1367.45" class="st5" width="10.75" height="19.35"/>
		<rect x="1856.49" y="1367.45" class="st5" width="10.75" height="19.35"/>
		<rect x="1872.65" y="1355.78" class="st5" width="10.75" height="31.03"/>
		<rect x="1888.48" y="1367.45" class="st5" width="10.75" height="19.35"/>
		<rect x="1904.64" y="1367.45" class="st5" width="10.75" height="19.35"/>
		<rect x="1920.8" y="1367.45" class="st5" width="10.75" height="19.35"/>
		<g>
			<rect x="1785.04" y="1413" class="st3" width="68.65" height="11.54"/>
			<rect x="1785.04" y="1433.36" class="st3" width="68.65" height="11.54"/>
			<rect x="1785.04" y="1453.72" class="st3" width="68.65" height="11.54"/>
		</g>
		<g>
			<rect x="1874.38" y="1413" class="st3" width="68.65" height="11.54"/>
			<rect x="1874.38" y="1433.36" class="st3" width="68.65" height="11.54"/>
			<rect x="1874.38" y="1453.72" class="st3" width="68.65" height="11.54"/>
		</g>
		<g>
			<rect x="1963.72" y="1413" class="st3" width="68.65" height="11.54"/>
			<rect x="1963.72" y="1433.36" class="st3" width="68.65" height="11.54"/>
			<rect x="1963.72" y="1453.72" class="st3" width="68.65" height="11.54"/>
		</g>
		<g>
			<rect x="2096.74" y="1008.46" class="st2" width="68.65" height="11.58"/>
			<rect x="2096.74" y="1028.89" class="st2" width="68.65" height="11.58"/>
			<rect x="2096.74" y="1049.33" class="st2" width="68.65" height="11.58"/>
		</g>
		<g>
			<rect x="2096.74" y="1091.14" class="st2" width="68.65" height="11.58"/>
			<rect x="2096.74" y="1111.57" class="st2" width="68.65" height="11.58"/>
			<rect x="2096.74" y="1132.01" class="st2" width="68.65" height="11.58"/>
		</g>
		<g>
			<rect x="2096.74" y="1173.82" class="st2" width="68.65" height="11.58"/>
			<rect x="2096.74" y="1194.25" class="st2" width="68.65" height="11.58"/>
			<rect x="2096.74" y="1214.69" class="st2" width="68.65" height="11.58"/>
		</g>
		<g>
			<rect x="2096.74" y="1255.76" class="st2" width="68.65" height="11.58"/>
			<rect x="2096.74" y="1276.19" class="st2" width="68.65" height="11.58"/>
			<rect x="2096.74" y="1296.63" class="st2" width="68.65" height="11.58"/>
		</g>
		<g>
			<rect x="2096.74" y="1336.49" class="st2" width="68.65" height="11.58"/>
			<rect x="2096.74" y="1356.93" class="st2" width="68.65" height="11.58"/>
			<rect x="2096.74" y="1377.37" class="st2" width="68.65" height="11.58"/>
		</g>
	</g>
	<rect x="1211.39" y="1515.65" class="st2" width="1067.86" height="162.71"/>
	<rect x="1998.04" y="1515.65" class="st3" width="281.21" height="162.71"/>
	<rect x="1278.13" y="1514.41" class="st3" width="719.91" height="2.48"/>
</g>
<g>
	<g>
		<path class="st3" d="M2414.89,1260.22c-3.05,18.99-46.84,189.53-43.14,204.44c0,0,5.03,161.48,5.03,161.48h48.42l23.34-155.98
			c-1.73-5.08,67.07-200.85,69.28-209.94H2414.89z"/>
		<polygon class="st3" points="2561.26,1260.22 2588.35,1626.14 2539.93,1626.14 2447.31,1260.22 		"/>
		<path class="st6" d="M2477.54,1379.68l-16.76-66.2c0,0-19.89,92.64-1.45,120.17L2477.54,1379.68z"/>
		<g>
			<defs>
				<path id="XMLID_90_" d="M2332.09,1044.95c-26.08,3.52-134.89-23.36-161.89-28.96l-4.58,23.97
					c31.09,12.11,132.5,54.71,164.71,56.48L2332.09,1044.95z"/>
			</defs>
			<use xlink:href="#XMLID_90_"  style="overflow:visible;fill:#F9B5A7;"/>
			<clipPath id="XMLID_00000116915609887011845920000016858232534979041960_">
				<use xlink:href="#XMLID_90_"  style="overflow:visible;"/>
			</clipPath>
			<polygon style="clip-path:url(#XMLID_00000116915609887011845920000016858232534979041960_);fill:#F48272;" points="
				2324.19,1040.45 2309.26,1102.71 2344.34,1103.17 2347.7,1040.47 			"/>
		</g>
		<g>
			<defs>
				<path id="XMLID_88_" d="M2602.8,1117.94l-88.93-68.65c-0.83-0.68-1.68-1.32-2.54-1.96l0,0.01
					c-13.38-10.64-32.24-13.32-49.46-12.58c-14.87,4.53-112.17,4.36-129.55,4.01l-2.4,69.95l67.64,7.47l14.47,144.03h153.66
					l-21.1-110.29L2602.8,1117.94z"/>
			</defs>
			<use xlink:href="#XMLID_88_"  style="overflow:visible;fill:#F15E3F;"/>
			<clipPath id="XMLID_00000069372709998605395650000007090847157888808123_">
				<use xlink:href="#XMLID_88_"  style="overflow:visible;"/>
			</clipPath>
			<g style="clip-path:url(#XMLID_00000069372709998605395650000007090847157888808123_);">
				<defs>
					<path id="XMLID_89_" d="M2417.6,1034.75c13.33,42.83,79.45,54.62,96.72,5.58l-45.34-9.67L2417.6,1034.75z"/>
				</defs>
				<use xlink:href="#XMLID_89_"  style="overflow:visible;fill:#F9B5A7;"/>
				<clipPath id="XMLID_00000071547103955165528700000009298051815816945569_">
					<use xlink:href="#XMLID_89_"  style="overflow:visible;"/>
				</clipPath>
				<path style="clip-path:url(#XMLID_00000071547103955165528700000009298051815816945569_);fill:#F48272;" d="M2424.29,1034.75
					c0,0,10.49,35.95,54.87,39.01c-24.11,5.22-61.29-8.12-68.86-38.03L2424.29,1034.75"/>
			</g>
			<path style="clip-path:url(#XMLID_00000069372709998605395650000007090847157888808123_);fill:#DE4A30;" d="M2330.32,1096.44
				c0,0,41.54,8.33,95.76,0c48.34,116.51,14.51,97.77,137.32,135.69c0,0,8.71,34.82,5.14,33.63c-3.56-1.19-172.6-0.79-172.6-0.79
				l-7.46-146l-63.32-11.08L2330.32,1096.44"/>
		</g>
		<g>
			<g>
				<path class="st3" d="M2598.8,1201.58h-157.88l17.27-95.54c0.72-4,4.21-6.91,8.27-6.91h145.88c2.6,0,4.56,2.35,4.1,4.9
					L2598.8,1201.58z"/>
				<path class="st2" d="M2594.41,1212.43c-2.04-1.95-245.79,3.78-245.34-2.03c0.61-1.82-1.53-8.97,2.03-8.82c0,0,247.69,0,247.69,0
					C2597.9,1204.1,2598.78,1212.72,2594.41,1212.43z"/>
				<path class="st2" d="M2542.5,1156.82c-6.81,19.54-25.28,13.18-18.63-6.41C2530.68,1130.88,2549.16,1137.23,2542.5,1156.82z"/>
			</g>
			<path class="st4" d="M2373.4,1310.54h-216.97c-7.1,0-12.87-5.77-12.87-12.87v-283.66c7.72-9.63,0.45,284.12,2.87,283.66
				c0,5.52,4.48,10.01,10,10.01h216.97c5.52,0,10.01-4.49,10.01-10.01v-89.86c0-0.79,0.64-1.43,1.43-1.43
				c0.79,0,1.43,0.64,1.43,1.43v89.86C2386.27,1304.77,2380.49,1310.54,2373.4,1310.54z"/>
			<path class="st11" d="M2541.18,1212.52c13.94-12.15,13.95-12.56,35.55-11.46c6.05,0.65-4.24,13.59-6.87,14.67
				c-3,2.01-6.85,4.2-9.25,4.03c-4.39-0.31-31.86-7.24-30.64-7.24S2541.18,1212.52,2541.18,1212.52z"/>
		</g>
		<g>
			<defs>
				<path id="XMLID_87_" d="M2415.49,950.99l-15.98,48.97c-2.88,8.84,2.93,18.13,12.14,19.4l25.36,3.5l5.17,34.59l39.29-2.33
					l-25.52-104.13H2415.49z"/>
			</defs>
			<use xlink:href="#XMLID_87_"  style="overflow:visible;fill:#F9B5A7;"/>
			<clipPath id="XMLID_00000111161857778644626180000002502028420129156252_">
				<use xlink:href="#XMLID_87_"  style="overflow:visible;"/>
			</clipPath>
			<path style="clip-path:url(#XMLID_00000111161857778644626180000002502028420129156252_);fill:#F48272;" d="M2398.77,1012.02
				c0,0,19.81,5.14,42.24-2.17c0,0-4.9,8.52-3.52,15.35c1.38,6.83,0,0,0,0S2401.88,1024.33,2398.77,1012.02z"/>
			<path style="clip-path:url(#XMLID_00000111161857778644626180000002502028420129156252_);fill:#F48272;" d="M2402.67,967.23
				c0.83,0.4,16.07,16.19,56.82,3.45l-46.56-24.94L2402.67,967.23z"/>
		</g>
		<g>
			<g>
				<defs>
					<path id="XMLID_86_" d="M2388.6,1626.14v15.61c0,0,4.97,15.29,16.02,15.29c11.06,0,11.52-3.41,11.52-3.41l2.51-27.49H2388.6z"
						/>
				</defs>
				<use xlink:href="#XMLID_86_"  style="overflow:visible;fill:#F9B5A7;"/>
				<clipPath id="XMLID_00000071555813584978806680000008825806088941407661_">
					<use xlink:href="#XMLID_86_"  style="overflow:visible;"/>
				</clipPath>
				<path style="clip-path:url(#XMLID_00000071555813584978806680000008825806088941407661_);fill:#F48272;" d="M2420.6,1640.43
					c0,0-27.91-3.81-35.33-10.69l-0.35-6.61l36.2,0.79L2420.6,1640.43z"/>
			</g>
			<path class="st3" d="M2416.14,1653.63c0,0-22.94,5.88-27.7-13.2l-44.94,21.31c-6.44,3.06-10.28,9.82-9.58,16.92l0,0l78.66-1.06
				C2423.71,1677.32,2416.13,1659.55,2416.14,1653.63z"/>
		</g>
		<g>
			<g>
				<defs>
					<path id="XMLID_85_" d="M2547.97,1626.14c4.96,7.46,9.78,30.81,23.56,30.9c11.06,0,11.52-3.41,11.52-3.41l-5.03-27.49H2547.97z
						"/>
				</defs>
				<use xlink:href="#XMLID_85_"  style="overflow:visible;fill:#F9B5A7;"/>
				<clipPath id="XMLID_00000118366694638467936650000001459720308910110892_">
					<use xlink:href="#XMLID_85_"  style="overflow:visible;"/>
				</clipPath>
				<path style="clip-path:url(#XMLID_00000118366694638467936650000001459720308910110892_);fill:#F48272;" d="M2581.06,1640.43
					c0,0-27.91-3.81-35.33-10.69l-0.35-6.61l36.2,0.79L2581.06,1640.43z"/>
			</g>
			<path class="st3" d="M2583.04,1653.63c0,0-22.94,5.88-27.7-13.2l-44.94,21.31c-6.44,3.06-10.28,9.82-9.58,16.92l0,0l78.66-1.06
				C2590.61,1677.32,2583.03,1659.55,2583.04,1653.63z"/>
		</g>
		<path class="st11" d="M2173.96,1016.82c-4.45-2.68-13.91-16.03-20.22-12.76c-0.2,0.8-30.12,10.45-27.45,12.43
			c1.31,2.64,4.07,4.42,7.05,3.75c0,0,17.33-3.6,17.33-3.6l3.48,21.65l14.85,2.17L2173.96,1016.82z"/>
		<polygon class="st15" points="2132.91,1017.7 2141.48,1040.45 2155.49,1037.73 2151.38,1014.01 		"/>
	</g>
	<path class="st3" d="M2415.26,956.13c0,0,30.19,10.46,30.86,10.46c-1.88,6.51-6.89,16.81,1.87,23.33l4.13-10.26
		c0,0,12.8,13.33,0,20l19.29,16.34c15.22-18.5,11.42-34.39,9.97-56.21c-0.56-14.52-14.13-22.83-26.72-26.59
		c0,0-48.35-14.74-48.35-14.74S2390.53,950.47,2415.26,956.13z"/>
</g>
<g>
	<path class="st16" d="M1697.25,1118.64c-30.62,6.47-58.43-26.57-46.7-55.63c0,0,115.62-317.77,115.62-317.77
		c9.71-29.75,52.23-37.31,71.54-12.62c0,0,217.43,259,217.43,259c20.91,23.28,6.2,63.88-24.84,68.26
		C2030.3,1059.87,1697.25,1118.64,1697.25,1118.64z"/>
	<path class="st17" d="M1786.62,752.68c-148.31,447.39-225.44,353.76,239.9,285.76c15.3-2.7,21.93-20.94,11.95-32.84l-217.43-259
		C1811.05,734.71,1791.93,738.09,1786.62,752.68z"/>
	<path class="st18" d="M1829.55,999.07c19.48-27.73,61.42,1.47,42.41,29.27C1851.94,1055.5,1810.71,1027.59,1829.55,999.07z
		 M1783.46,838.87l70.06-12.36l16.02,140.86l-52.29,9.23L1783.46,838.87z"/>
</g>
<path class="st18" d="M1984.29,648.31h-351.91c9.55-20.28,27.8-31.31,50.2-30.7c7.96-67.6,102.45-83.77,132.46-22.71
	c21.39-9.44,49.62,3.46,56.49,25.8C1906.38,580.05,1970.27,597.6,1984.29,648.31z"/>
<path class="st18" d="M1581.98,541.56h-236.02c-0.24-20.53,21.43-29.3,39.1-29.86c3.18-0.24,6.57-0.44,9.15-2.31
	c34.5-64.3,130.17-54.45,145.18,18.69c6.68-9.31,19.5-13.72,30.5-10.49C1580.89,520.83,1581.4,530.12,1581.98,541.56z"/>
<g>
	<g>
		<g>
			<defs>
				<path id="XMLID_84_" d="M2192.86,794.07c-1.67,97.77-147.13,97.76-148.78,0C2045.75,696.3,2191.21,696.31,2192.86,794.07z"/>
			</defs>
			<use xlink:href="#XMLID_84_"  style="overflow:visible;fill:#AAC1E5;"/>
			<clipPath id="XMLID_00000168117315267791995820000005971561517834594708_">
				<use xlink:href="#XMLID_84_"  style="overflow:visible;"/>
			</clipPath>
		</g>
		<g>
			<path class="st19" d="M2139.56,861.13c-0.77,0-1.39-0.62-1.39-1.39v-42.9h-41.34v42.9c0,0.77-0.62,1.39-1.39,1.39
				s-1.39-0.62-1.39-1.39v-42.9h-23.61c-1.06,0.03-1.77-1.26-1.17-2.14c0,0,25-38.72,25-38.72c0.69-1.14,2.6-0.6,2.55,0.75
				c0,0,0,37.33,0,37.33h41.34v-37.33c-0.04-1.39,1.97-1.92,2.6-0.67c0,0,21.37,38.72,21.37,38.72c0.24,0.43,0.23,0.95-0.02,1.38
				c0.4,1.43-20.66,0.38-21.18,0.68v42.9C2140.95,860.51,2140.33,861.13,2139.56,861.13z M2140.95,814.07h17.64l-17.64-31.95V814.07
				z M2073,814.07h21.06v-32.63L2073,814.07z"/>
		</g>
		<path class="st3" d="M2134.18,903.74c-45.24,0.04-50.48,5.37-48.52-44.23h65.63C2150.36,874.23,2157.18,903.34,2134.18,903.74z"/>
		<rect x="2085.66" y="865.69" class="st2" width="65.63" height="6.17"/>
		<rect x="2085.66" y="876.4" class="st2" width="65.63" height="6.17"/>
	</g>
	<g>
		<path class="st17" d="M2202.85,843.74l-11.95-7.05c0.88-1.49,1.72-3.03,2.51-4.57l12.36,6.29
			C2204.85,840.22,2203.87,842.01,2202.85,843.74z M2033.12,842.05c-0.99-1.76-1.94-3.57-2.82-5.38l12.49-6.04
			c0.75,1.56,1.57,3.11,2.42,4.62L2033.12,842.05z M2215.91,803.63l-13.81-1.34c0.17-1.72,0.28-3.47,0.34-5.21l13.86,0.49
			C2216.24,799.59,2216.11,801.63,2215.91,803.63z M2020.86,801.69c-0.15-2.01-0.25-4.05-0.28-6.06l13.87-0.22
			c0.03,1.73,0.11,3.48,0.24,5.21L2020.86,801.69z M2197.82,766.35c-0.57-1.63-1.2-3.26-1.87-4.85l12.79-5.38
			c0.78,1.85,1.51,3.76,2.18,5.66L2197.82,766.35z M2039.69,764.77l-13-4.84c0.7-1.89,1.48-3.79,2.3-5.63l12.67,5.64
			C2040.96,761.52,2040.29,763.14,2039.69,764.77z M2178.8,735.58c-1.2-1.24-2.46-2.46-3.74-3.63l9.35-10.25
			c1.49,1.36,2.95,2.78,4.36,4.22L2178.8,735.58z M2059.35,734.36l-9.76-9.86c1.43-1.42,2.92-2.81,4.44-4.13l9.14,10.44
			C2061.86,731.95,2060.58,733.14,2059.35,734.36z M2148.6,715.61c-1.62-0.62-3.27-1.2-4.92-1.72l4.16-13.23
			c1.93,0.6,3.86,1.28,5.75,2L2148.6,715.61z M2089.92,715.02l-4.71-13.05c1.9-0.68,3.84-1.32,5.77-1.88l3.89,13.32
			C2093.21,713.89,2091.55,714.43,2089.92,715.02z"/>
	</g>
</g>
<g>
	<g>
		<defs>
			<path id="XMLID_83_" d="M765.62,1100.11l-97.39-42.56l0,0.02c-8.47-3.98-17.9-6.21-27.81-6.21c-30.29-2.1-63.85,1.73-80.5,29.66
				l0,0l-65.51,84.63l50.22,35.69l-5.02,91.75h177.57l-8.69-135.76l31.97,11.82L765.62,1100.11z"/>
		</defs>
		<use xlink:href="#XMLID_83_"  style="overflow:visible;fill:#F15E3F;"/>
		<clipPath id="XMLID_00000054982031642192993540000005151047743918113471_">
			<use xlink:href="#XMLID_83_"  style="overflow:visible;"/>
		</clipPath>
		<path style="clip-path:url(#XMLID_00000054982031642192993540000005151047743918113471_);fill:#F9B5A7;" d="M579.41,1054.74
			c20.66,21.01,74.42,34.79,95.3-1.82l-41.4-10.19l-28.15,1.77L579.41,1054.74z"/>
		<polygon style="clip-path:url(#XMLID_00000054982031642192993540000005151047743918113471_);fill:#DE4A30;" points="
			752.59,1156.31 691.44,1110.22 659.12,1291.49 736.68,1288.34 720.53,1177.11 752.59,1189.39 		"/>
		<path style="clip-path:url(#XMLID_00000054982031642192993540000005151047743918113471_);fill:#DE4A30;" d="M523.56,1191.78
			l44.74-85.87c0,0,5.99,194.9,4.79,194.9c-1.2,0-45.94-2.4-45.94-2.4L523.56,1191.78z"/>
	</g>
	<g>
		<defs>
			<path id="XMLID_82_" d="M750.78,1436.03l-52.2-143.01l5.78,0l-21.24-235.99l-18.65-4.09l0.3,76.35l-72.73-2.39l-3.46-73.13
				l-18.75,5.01l-17.98,234.33l0,0l-106.71,173.53l-60.7,162.63h55.32l82.87-125.8l107.45-117.09l31.28,59.89l-37.02,183h63.85
				C689.46,1618.04,763.24,1442.51,750.78,1436.03z"/>
		</defs>
		<use xlink:href="#XMLID_82_"  style="overflow:visible;fill:#39395D;"/>
		<clipPath id="XMLID_00000047748307428460783160000006378482922700102573_">
			<use xlink:href="#XMLID_82_"  style="overflow:visible;"/>
		</clipPath>
		<path style="clip-path:url(#XMLID_00000047748307428460783160000006378482922700102573_);fill:#191A35;" d="M551.85,1293.09
			c0,0,51.09,102.03,186.03,96.11l-20.7-96.11l-170.23-34.37L551.85,1293.09"/>
		<path style="clip-path:url(#XMLID_00000047748307428460783160000006378482922700102573_);fill:#191A35;" d="M586.71,1143.47
			c0.15,10.27-15.98,10.27-15.83,0C570.73,1133.21,586.86,1133.21,586.71,1143.47z"/>
		<path style="clip-path:url(#XMLID_00000047748307428460783160000006378482922700102573_);fill:#191A35;" d="M677.65,1144.71
			c0.15,10.27-15.98,10.27-15.83,0C661.67,1134.44,677.8,1134.44,677.65,1144.71z"/>
		<path style="clip-path:url(#XMLID_00000047748307428460783160000006378482922700102573_);fill:#191A35;" d="M682.25,1246.59
			c-1.27-0.08-113.54-6.77-114.82-6.85l8.97-70.45l99.26,1.98L682.25,1246.59z M569.61,1237.94l110.53,6.59l-6.26-71.36l-95.79-1.91
			L569.61,1237.94z"/>
	</g>
	<g>
		<g>
			<g>
				<defs>
					<path id="XMLID_80_" d="M1081.08,1018.68L644.66,868.63c-28.73-9.88-44.02-41.18-34.14-69.91l145.02-421.64
						c9.88-28.73,41.19-44.01,69.92-34.13l436.43,150.06c28.73,9.88,44.02,41.18,34.14,69.91L1151,984.55
						C1141.12,1013.28,1109.82,1028.56,1081.08,1018.68z"/>
				</defs>
				<use xlink:href="#XMLID_80_"  style="overflow:visible;fill:#4E70B6;"/>
				<clipPath id="XMLID_00000072254375881980904640000008978599326800468662_">
					<use xlink:href="#XMLID_80_"  style="overflow:visible;"/>
				</clipPath>
				<g style="clip-path:url(#XMLID_00000072254375881980904640000008978599326800468662_);">
					<path id="XMLID_81_" class="st17" d="M1123.13,1045.96L686.71,895.9c-28.73-9.88-44.02-41.18-34.14-69.91l145.02-421.64
						c9.88-28.73,41.19-44.01,69.92-34.13l436.43,150.06c28.73,9.88,44.02,41.18,34.14,69.91l-145.02,421.64
						C1183.17,1040.56,1151.87,1055.84,1123.13,1045.96z"/>
				</g>
			</g>
			<g>
				<g>
					<defs>
						<path id="XMLID_79_" d="M930.94,655.75l50.61,17.4l154.23-157.69c8.33-8.52,3.93-22.88-7.75-25.27
							C912.45,441.34,934.64,446.66,930.94,655.75z M955.79,683.05L798.08,528.85c-8.52-8.33-22.89-3.93-25.27,7.75
							c-48.87,215.56-43.55,193.36,165.58,197.06L955.79,683.05z M1016.31,726.22l-50.61-17.4L811.46,866.5
							c-8.33,8.52-3.93,22.88,7.75,25.27C1034.8,940.63,1012.61,935.31,1016.31,726.22z M1174.44,845.37
							c48.92-215.69,43.42-193.33-165.58-197.06l-17.41,50.6l157.71,154.21C1157.69,861.45,1172.06,857.05,1174.44,845.37z"/>
					</defs>
					<use xlink:href="#XMLID_79_"  style="overflow:visible;fill:#7C95CC;"/>
					<clipPath id="XMLID_00000129924064990459623600000000483008545287703206_">
						<use xlink:href="#XMLID_79_"  style="overflow:visible;"/>
					</clipPath>
					<path style="opacity:0.55;clip-path:url(#XMLID_00000129924064990459623600000000483008545287703206_);fill:#4E70B6;" d="
						M1064.21,723.21c-36.78,101.28-188.34,49.15-155.03-53.31C945.96,568.62,1097.52,620.75,1064.21,723.21z"/>
				</g>
				<path class="st25" d="M1038.31,713.23c-30.69,84.51-157.16,41.01-129.36-44.48C939.63,584.24,1066.1,627.73,1038.31,713.23z"/>
			</g>
		</g>
		
			<rect x="759.07" y="930.07" transform="matrix(0.9457 0.3251 -0.3251 0.9457 404.0902 -197.6041)" class="st25" width="68.4" height="360.28"/>
		<path class="st16" d="M872.82,1383.28l-311.04-106.95c9.46-20.57,13.23-71.81,47.77-60.58c0,0,262.87,90.38,262.87,90.38
			C906.58,1318.61,878.03,1361.18,872.82,1383.28z"/>
	</g>
	<g>
		<defs>
			<path id="XMLID_78_" d="M658.56,1309.61c0,0,14.31-5.77,14.31-7.55s-30.9-2.34-30.9-2.34
				c-28.14-28.79-108.7-113.64-143.86-131.45l-9.39,13.85c-13.18,18.61-7.25,46.61,12.35,58.27c17.57,9.72,129.56,84.9,147.88,86.36
				c5.85,1.53,36.49-7.9,36.49-7.9L658.56,1309.61z"/>
		</defs>
		<use xlink:href="#XMLID_78_"  style="overflow:visible;fill:#F9B5A7;"/>
		<clipPath id="XMLID_00000039103107027917175040000012301396699487452600_">
			<use xlink:href="#XMLID_78_"  style="overflow:visible;"/>
		</clipPath>
		<path style="clip-path:url(#XMLID_00000039103107027917175040000012301396699487452600_);fill:#F48272;" d="M472.62,1185.97
			c0,0,46.01,27.03,80.26,17.61l-58.47-50.32L472.62,1185.97z"/>
	</g>
	<path class="st11" d="M831.64,1139.59l-10.11-6.41l-88.09,98.92c0,0-29.66,11.59-26.25,12.43c3.42,0.84,12.99,3.06,12.99,3.06
		l-5.84,7.22l-16.25,7.62c-1.61,0.76-1.47,3.09,0.22,3.65l19.79,6.56c5.9,1.96,12.31,1.71,18.04-0.69
		c8.19-2.59,16.97-16.72,22.46-22.76c0,0,74.93-55.08,74.93-55.08C852.04,1181.27,851.05,1151.13,831.64,1139.59z"/>
	<g>
		<path class="st3" d="M667.55,966.22c0,0,13.58,33-11.54,58.86l-3.46-58.86H667.55z"/>
		<g>
			<defs>
				<path id="XMLID_77_" d="M667.61,981.8c-1.31,0-2.52,1-3.52,2.69c-7.86-49.24-67.15-49.21-75,0.01
					c-5.45-7.68-9.68,2.53-9.69,12.32c-0.15,10.61,5.25,20.96,10.35,11.01c3.07,13.12,10.57,23.91,20.36,29.7v21.24h33.58v-21.62
					c9.48-5.87,16.73-16.46,19.74-29.29C673.97,1024.9,677.79,981.62,667.61,981.8z"/>
			</defs>
			<use xlink:href="#XMLID_77_"  style="overflow:visible;fill:#F9B5A7;"/>
			<clipPath id="XMLID_00000096737621004899261360000015155683183320562830_">
				<use xlink:href="#XMLID_77_"  style="overflow:visible;"/>
			</clipPath>
			<path style="clip-path:url(#XMLID_00000096737621004899261360000015155683183320562830_);fill:#F48272;" d="M591.7,991.37
				l26.53-23.74c0,0,6.55,8.28,32.94,11.38l-3.97-4.31c0,0,5.79,3.24,17.9-2.09c12.11-5.33,0,0,0,0l-30.32-20.16l-28.98,0.86
				L591.7,991.37"/>
			<path style="clip-path:url(#XMLID_00000096737621004899261360000015155683183320562830_);fill:#F48272;" d="M610.12,1037.53
				c0,0,18.18,5.07,33.58-0.39c15.4-5.45,0,0,0,0s-17.68,11.93-36.59,11.93L610.12,1037.53"/>
		</g>
		<path class="st3" d="M591.7,991.37c5.09-7.16,17.48-24.35,25.11-33.14c0,0,11.2,13,32.44,14.96l-13.26-11.45
			c0,0,20.49,13.41,38.72,10.85c-6.09-50.58-99.76-58.55-92.18,11.17C584.44,985.6,587.84,996.05,591.7,991.37z"/>
		<path class="st18" d="M617.1,1021.62c0,0,13.78-11.84,20.69-9.12C644.69,1015.22,617.1,1021.62,617.1,1021.62z"/>
	</g>
</g>
<g>
	<g>
		<defs>
			<path id="XMLID_76_" d="M400.99,1629.25l-4.29,12.49c0,0,4.97,15.29,16.02,15.29c11.06,0,11.52-3.41,11.52-3.41l10.19-24.38
				H400.99z"/>
		</defs>
		<use xlink:href="#XMLID_76_"  style="overflow:visible;fill:#F9B5A7;"/>
		<clipPath id="XMLID_00000183249434670822506670000001253499058042376602_">
			<use xlink:href="#XMLID_76_"  style="overflow:visible;"/>
		</clipPath>
		<path style="clip-path:url(#XMLID_00000183249434670822506670000001253499058042376602_);fill:#F48272;" d="M434.43,1642.16
			c0,0-33.64-5.54-41.06-12.43l-0.35-6.61l48.06,4.12L434.43,1642.16z"/>
	</g>
	<path class="st3" d="M424.24,1653.63c0,0-22.94,5.88-27.7-13.2l-44.94,21.31c-6.44,3.06-10.28,9.82-9.58,16.92l0,0l78.66-1.06
		C431.81,1677.32,424.23,1659.55,424.24,1653.63z"/>
</g>
<g>
	<g>
		<defs>
			<path id="XMLID_75_" d="M663.65,1629.25c-4.24,7.39-5.82,26.13-21.07,27.79c-11.06,0-11.52-3.41-11.52-3.41l3.38-24.38H663.65z"
				/>
		</defs>
		<use xlink:href="#XMLID_75_"  style="overflow:visible;fill:#F9B5A7;"/>
		<clipPath id="XMLID_00000001662217155634042430000001141573474983270302_">
			<use xlink:href="#XMLID_75_"  style="overflow:visible;"/>
		</clipPath>
		<path style="clip-path:url(#XMLID_00000001662217155634042430000001141573474983270302_);fill:#F48272;" d="M620.87,1642.16
			c0,0,37.86-6.02,45.28-12.91l-3.87-6.13l-48.06,4.12L620.87,1642.16z"/>
	</g>
	<path class="st3" d="M631.07,1653.63c0,0,22.94,5.88,27.7-13.2l44.94,21.31c6.44,3.06,10.28,9.82,9.58,16.92
		c0,0-78.66-1.06-78.66-1.06C623.5,1677.32,631.08,1659.55,631.07,1653.63z"/>
</g>
<g>
	<g>
		<path class="st18" d="M1424.64,940.97h-7.73c-0.41-22.75,18.76-22.91,19.31-43.53c-0.55-20.61-19.73-20.8-19.31-43.54
			c-0.41-22.74,18.76-22.92,19.31-43.53c-0.55-20.62-19.73-20.79-19.31-43.54c-0.41-22.74,18.76-22.93,19.31-43.54h7.73
			c0.41,22.75-18.76,22.92-19.31,43.54c0.55,20.61,19.73,20.8,19.31,43.54c0.41,22.74-18.76,22.92-19.31,43.53
			c0.55,20.62,19.73,20.79,19.31,43.54C1444.37,920.17,1425.2,920.36,1424.64,940.97z"/>
	</g>
	<g>
		<path class="st18" d="M1478.43,940.97h-7.73c-0.41-22.75,18.76-22.91,19.31-43.53c-0.55-20.61-19.73-20.8-19.31-43.54
			c-0.41-22.74,18.76-22.92,19.31-43.53c-0.55-20.62-19.73-20.79-19.31-43.54c-0.41-22.74,18.76-22.93,19.31-43.54h7.73
			c0.41,22.75-18.76,22.92-19.31,43.54c0.55,20.61,19.73,20.8,19.31,43.54c0.41,22.74-18.76,22.92-19.31,43.53
			c0.55,20.62,19.73,20.79,19.31,43.54C1498.16,920.17,1478.99,920.36,1478.43,940.97z"/>
	</g>
	<g>
		<path class="st18" d="M1532.22,940.97h-7.73c-0.41-22.75,18.76-22.91,19.31-43.53c-0.55-20.61-19.73-20.8-19.31-43.54
			c-0.41-22.74,18.76-22.92,19.31-43.53c-0.55-20.62-19.73-20.79-19.31-43.54c-0.41-22.74,18.76-22.93,19.31-43.54h7.73
			c0.41,22.75-18.76,22.92-19.31,43.54c0.55,20.61,19.73,20.8,19.31,43.54c0.41,22.74-18.76,22.92-19.31,43.53
			c0.55,20.62,19.73,20.79,19.31,43.54C1551.94,920.17,1532.77,920.36,1532.22,940.97z"/>
	</g>
</g>
<path class="st3" d="M2702.52,1682.94c-4.61-4.58-2509.54,8.78-2508.54-4.57C187.78,1673.73,2730.79,1661.3,2702.52,1682.94z"/>
</svg>
