<?xml version="1.0" encoding="utf-8"?>
<!-- Generator: Adobe Illustrator 27.5.0, SVG Export Plug-In . SVG Version: 6.00 Build 0)  -->
<svg version="1.1" id="Layer_1" xmlns="http://www.w3.org/2000/svg" xmlns:xlink="http://www.w3.org/1999/xlink" x="0px" y="0px"
	 viewBox="0 0 400 400" style="enable-background:new 0 0 400 400;" xml:space="preserve">
<style type="text/css">
	.st0{fill:#E1F1FB;}
	.st1{fill:none;stroke:#1E1550;stroke-width:0.5;stroke-linecap:round;stroke-miterlimit:10;}
	.st2{fill:#90CAEE;}
	.st3{fill:none;stroke:#FFFFFF;stroke-width:0.5;stroke-miterlimit:10;}
	.st4{fill:#1E1550;}
	.st5{fill:#FFFFFF;}
	.st6{fill:#A7D8F5;}
	.st7{fill:#3FB9E4;}
	.st8{fill:#F3725F;}
	.st9{fill:#74C2EC;}
	.st10{fill:#4E6BB3;}
	.st11{fill:#77C3EC;}
	.st12{opacity:0.35;fill:#90CAEE;}
	
		.st13{clip-path:url(#SVGID_00000057843329005214427560000017059887432513121938_);fill:none;stroke:#77C3EC;stroke-width:0.5;stroke-linecap:round;stroke-miterlimit:10;}
	
		.st14{clip-path:url(#SVGID_00000057843329005214427560000017059887432513121938_);fill:none;stroke:#77C3EC;stroke-width:0.5;stroke-miterlimit:10;}
	.st15{fill:none;stroke:#263C96;stroke-width:0.5;stroke-linecap:round;stroke-miterlimit:10;}
	.st16{fill:#1B1C27;}
	.st17{opacity:0.35;}
	.st18{fill:none;stroke:#4E6BB3;stroke-width:1.5236;stroke-linecap:round;stroke-miterlimit:10;}
	.st19{fill:#EE2228;}
	.st20{fill:none;stroke:#D72027;stroke-width:0.5;stroke-linecap:round;stroke-miterlimit:10;}
	.st21{fill:#FBC1A2;}
	.st22{fill:#F7977C;}
	.st23{fill:#546AB2;}
	.st24{fill:none;stroke:#156399;stroke-width:0.5;stroke-linecap:round;stroke-miterlimit:10;}
	.st25{fill:#FFFFFD;}
	.st26{fill:none;stroke:#F48787;stroke-width:0.5;stroke-linecap:round;stroke-miterlimit:10;}
	.st27{fill:none;stroke:#FFFFFF;stroke-width:0.5;stroke-linecap:round;stroke-miterlimit:10;}
	.st28{fill:none;stroke:#005786;stroke-width:0.5;stroke-linecap:round;stroke-miterlimit:10;}
</style>
<g>
	<path class="st0" d="M237.66,313.46H117.75c-32.32,0-61.34-21.12-71.68-52.84c-0.23-0.72-0.46-1.44-0.69-2.18
		c-8.95-28.97-13.81-62.72,15.94-107.83c29.75-45.11,9.34-87.43,47.59-102.84c38.24-15.4,69.27,3.8,112.83-14.9
		S352.4,15.26,357.71,91.19c5.31,75.92-15.94,72.62-7.44,97.93C358.77,214.43,387.45,320.06,237.66,313.46z"/>
	<ellipse class="st0" cx="125.56" cy="355.87" rx="80.73" ry="21.57"/>
</g>
<line class="st1" x1="43.85" y1="313.41" x2="372.58" y2="313.41"/>
<g>
	<path class="st2" d="M87.98,364.04l66.73,0.07c2.42,0,4.39-1.96,4.39-4.38l0.07-65.97l-71.12-0.08L87.98,364.04z"/>
	<path class="st2" d="M88.06,293.68l71.08,0.08l-22.38-17.84c-1.55-1.24-3.48-1.91-5.48-1.91l-59.51-0.06
		c-1.48,0-2.22,1.78-1.16,2.8L88.06,293.68z"/>
	<path class="st2" d="M68.07,340.79l-0.22-61.13c0.01-4.66,3.03-5.42,3.03-5.42l-0.55,1.15c-0.27,0.59,0.29,1.28,0.76,1.74
		l16.98,16.56l-0.08,70.35l-17.74-17.96C68.86,344.66,68.07,342.77,68.07,340.79z"/>
	<path class="st3" d="M107.84,293.7l-16.81-0.02c-1.64,0-2.97,1.33-2.97,2.96l-0.02,17.76"/>
	<line class="st3" x1="88.02" y1="325.63" x2="87.98" y2="361.07"/>
	<line class="st3" x1="77.56" y1="283.53" x2="87.96" y2="293.68"/>
	<path class="st3" d="M70.77,274.24l-0.55,1.15c-0.27,0.59,0.29,1.28,0.76,1.74l4.75,4.63"/>
</g>
<g>
	<path class="st4" d="M252.39,313.76h-89.61c-9.36,0-16.95-7.59-16.95-16.95V95.83c0-9.36,7.59-16.95,16.95-16.95h89.61
		c9.36,0,16.95,7.59,16.95,16.95v200.98C269.34,306.17,261.75,313.76,252.39,313.76z"/>
	<path class="st5" d="M254.04,307.94h-92.91c-5.49,0-9.94-4.45-9.94-9.94V94.65c0-5.49,4.45-9.94,9.94-9.94h92.91
		c5.49,0,9.94,4.45,9.94,9.94v203.34C263.98,303.49,259.53,307.94,254.04,307.94z"/>
	<path class="st4" d="M225.32,98.15h-35.47c-5.2,0-9.41-4.21-9.41-9.41V82.3c0-0.28,0.22-0.5,0.5-0.5h53.79v6.94
		C234.73,93.93,230.52,98.15,225.32,98.15z"/>
</g>
<g>
	<g>
		<g>
			<g>
				<g>
					<g>
						<g>
							<path class="st6" d="M179.24,71.28c0.09,14.83-11.87,26.93-26.7,27.01c-14.83,0.09-26.93-11.87-27.01-26.7
								c-0.09-14.83,11.87-26.93,26.7-27.01C167.06,44.49,179.15,56.45,179.24,71.28z"/>
						</g>
					</g>
				</g>
			</g>
			<g>
				<g>
					<g>
						<g>
							<path class="st7" d="M172.37,70.89c0.06,11.28-9.02,20.47-20.3,20.53c-11.28,0.07-20.47-9.02-20.53-20.3
								c-0.07-11.28,9.02-20.47,20.3-20.53C163.11,50.53,172.31,59.62,172.37,70.89z"/>
						</g>
					</g>
				</g>
			</g>
			<g>
				<g>
					<g>
						<g>
							<path class="st8" d="M172.95,71.74c0.06,11.12-8.9,20.19-20.03,20.26c-11.12,0.06-20.19-8.9-20.26-20.03
								c-0.06-11.12,8.9-20.19,20.03-20.26C163.82,51.65,172.89,60.62,172.95,71.74z"/>
						</g>
					</g>
				</g>
			</g>
			<g>
				<g>
					<g>
						<g>
							<path class="st9" d="M172.95,71.74c0.06,11.12-8.9,20.19-20.03,20.26c-11.12,0.06-20.19-8.9-20.26-20.03
								c-0.06-11.12,8.9-20.19,20.03-20.26C163.82,51.65,172.89,60.62,172.95,71.74z"/>
						</g>
					</g>
				</g>
			</g>
			<g>
				<g>
					<g>
						<g>
							<g>
								<g>
									<path class="st7" d="M153.6,70.11l-0.03-5.15c0.01,0,0.02,0,0.02,0c0.9,0.1,1.82,0.33,2.74,0.7
										c0.77,0.39,1.29,0.8,1.29,0.8l0.07-0.16l0.78-1.86l0.18-0.43l-0.92-0.96l-0.44,0.2c-1.13-0.56-2.42-0.99-3.74-1.06
										l-0.02-2.83l-0.89-0.71l0,0.71l-1.21,0.01l0.02,2.88c-3.98,0.41-5.86,2.69-5.84,5.29c0.02,3.55,3.06,4.45,5.9,5.12
										l0.03,5.11c-1.94-0.17-3.86-0.9-5.12-1.91l-1.13,2.59c1.33,1.14,3.76,1.94,6.27,2.08l0.01,2.14l-1,0.02l1,0.67l2.09-0.01
										l-0.02-2.86c4.01-0.43,5.91-2.69,5.89-5.29C159.53,71.65,156.44,70.78,153.6,70.11z M151.51,69.58
										c-1.48-0.43-2.58-0.98-2.59-2.21c-0.01-1.12,0.75-2.05,2.57-2.34L151.51,69.58z M153.57,64.95L153.57,64.95L153.57,64.95
										C153.57,64.95,153.57,64.95,153.57,64.95z M153.65,77.71l-0.03-4.52c1.53,0.43,2.66,1.01,2.67,2.26
										C156.29,76.55,155.51,77.42,153.65,77.71z"/>
								</g>
							</g>
						</g>
					</g>
				</g>
			</g>
			<g>
				<g>
					<g>
						<g>
							<g>
								<path class="st5" d="M152.79,79.8l0.02,2.86l-2.09,0.01l-0.02-2.83c-2.5-0.14-4.93-0.94-6.27-2.08l1.13-2.59
									c1.26,1.01,3.18,1.74,5.12,1.91l-0.03-5.11c-2.84-0.67-5.88-1.57-5.9-5.12c-0.01-2.6,1.86-4.89,5.84-5.29l-0.02-2.89
									l2.09-0.01l0.02,2.83c1.89,0.09,3.81,0.64,5.19,1.53l-1.03,2.58c-1.36-0.78-2.79-1.21-4.14-1.35l0.03,5.16
									c2.84,0.67,5.93,1.55,5.95,5.1C158.7,77.11,156.8,79.37,152.79,79.8z M150.64,68.89l-0.03-4.55
									c-1.81,0.29-2.57,1.22-2.57,2.34C148.05,67.9,149.15,68.46,150.64,68.89z M155.42,74.76c-0.01-1.25-1.13-1.83-2.67-2.26
									l0.03,4.52C154.64,76.73,155.43,75.85,155.42,74.76z"/>
							</g>
						</g>
					</g>
				</g>
			</g>
		</g>
		<g>
			<g>
				<g>
					<g>
						<g>
							<path class="st6" d="M225.16,46.37c0.05,9.4-7.52,17.06-16.92,17.11c-9.4,0.05-17.06-7.52-17.11-16.92
								c-0.05-9.4,7.52-17.06,16.92-17.11C217.45,29.4,225.11,36.97,225.16,46.37z"/>
						</g>
					</g>
				</g>
			</g>
			<g>
				<g>
					<g>
						<g>
							<path class="st7" d="M220.81,46.13c0.04,7.14-5.72,12.97-12.86,13.01c-7.14,0.04-12.97-5.72-13.01-12.86
								c-0.04-7.14,5.72-12.97,12.86-13.01C214.95,33.23,220.77,38.98,220.81,46.13z"/>
						</g>
					</g>
				</g>
			</g>
			<g>
				<g>
					<g>
						<g>
							<path class="st8" d="M221.18,46.66c0.04,7.05-5.64,12.79-12.69,12.83c-7.05,0.04-12.79-5.64-12.83-12.69
								c-0.04-7.05,5.64-12.79,12.69-12.83C215.39,33.94,221.14,39.62,221.18,46.66z"/>
						</g>
					</g>
				</g>
			</g>
			<g>
				<g>
					<g>
						<g>
							<path class="st9" d="M221.18,46.66c0.04,7.05-5.64,12.79-12.69,12.83c-7.05,0.04-12.79-5.64-12.83-12.69
								c-0.04-7.05,5.64-12.79,12.69-12.83C215.39,33.94,221.14,39.62,221.18,46.66z"/>
						</g>
					</g>
				</g>
			</g>
			<g>
				<g>
					<g>
						<g>
							<g>
								<g>
									<path class="st7" d="M208.92,45.63l-0.02-3.26c0.01,0,0.01,0,0.02,0c0.57,0.06,1.16,0.21,1.74,0.44
										c0.49,0.25,0.82,0.51,0.82,0.51l0.04-0.1l0.5-1.18l0.11-0.27l-0.59-0.61l-0.28,0.13c-0.72-0.35-1.53-0.63-2.37-0.67
										l-0.01-1.8l-0.56-0.45l0,0.45l-0.77,0l0.01,1.83c-2.52,0.26-3.71,1.7-3.7,3.35c0.01,2.25,1.94,2.82,3.74,3.25l0.02,3.24
										c-1.23-0.11-2.45-0.57-3.24-1.21l-0.72,1.64c0.85,0.72,2.38,1.23,3.97,1.32l0.01,1.36l-0.63,0.01l0.63,0.43l1.33-0.01
										l-0.01-1.81c2.54-0.27,3.74-1.7,3.73-3.35C212.68,46.61,210.72,46.05,208.92,45.63z M207.59,45.3
										c-0.94-0.27-1.64-0.62-1.64-1.4c0-0.71,0.48-1.3,1.63-1.48L207.59,45.3z M208.9,42.36L208.9,42.36L208.9,42.36
										C208.9,42.36,208.9,42.36,208.9,42.36z M208.95,50.45l-0.02-2.86c0.97,0.27,1.69,0.64,1.69,1.43
										C210.63,49.71,210.13,50.26,208.95,50.45z"/>
								</g>
							</g>
						</g>
					</g>
				</g>
			</g>
			<g>
				<g>
					<g>
						<g>
							<g>
								<path class="st5" d="M208.41,51.77l0.01,1.81l-1.33,0.01l-0.01-1.8c-1.59-0.09-3.13-0.6-3.97-1.32l0.72-1.64
									c0.8,0.64,2.01,1.1,3.24,1.21l-0.02-3.24c-1.8-0.43-3.73-1-3.74-3.25c-0.01-1.65,1.18-3.1,3.7-3.35l-0.01-1.83l1.33-0.01
									l0.01,1.8c1.2,0.06,2.41,0.41,3.29,0.97l-0.65,1.64c-0.86-0.5-1.77-0.77-2.63-0.86l0.02,3.27c1.8,0.43,3.76,0.98,3.77,3.23
									C212.15,50.07,210.95,51.5,208.41,51.77z M207.04,44.85l-0.02-2.88c-1.15,0.18-1.63,0.77-1.63,1.48
									C205.41,44.23,206.1,44.58,207.04,44.85z M210.07,48.57c0-0.79-0.72-1.16-1.69-1.43l0.02,2.86
									C209.58,49.82,210.08,49.27,210.07,48.57z"/>
							</g>
						</g>
					</g>
				</g>
			</g>
		</g>
	</g>
	<g>
		<path class="st2" d="M334.39,212.01h40.08c2.24,0,4.06-1.82,4.06-4.06v-41.43c0-2.24-1.82-4.06-4.06-4.06h-40.08
			c-2.24,0-4.06,1.82-4.06,4.06v41.43C330.33,210.19,332.15,212.01,334.39,212.01z"/>
		<path class="st10" d="M374.47,162.47h-40.08c-2.24,0-4.06,1.82-4.06,4.06v10.21h48.19v-10.21
			C378.53,164.28,376.71,162.47,374.47,162.47z"/>
		<path class="st0" d="M365.34,189.1h6.27c0.43,0,0.79-0.35,0.79-0.79v-6.27c0-0.43-0.35-0.79-0.79-0.79h-6.27
			c-0.43,0-0.79,0.35-0.79,0.79v6.27C364.56,188.75,364.91,189.1,365.34,189.1z"/>
		<path class="st5" d="M356.14,189.1h6.27c0.43,0,0.79-0.35,0.79-0.79v-6.27c0-0.43-0.35-0.79-0.79-0.79h-6.27
			c-0.43,0-0.79,0.35-0.79,0.79v6.27C355.36,188.75,355.71,189.1,356.14,189.1z"/>
		<g>
			<path class="st11" d="M342.96,166.17c-0.89,0-1.61-0.72-1.61-1.61v-5.69c0-0.89,0.72-1.61,1.61-1.61c0.89,0,1.61,0.72,1.61,1.61
				v5.69C344.57,165.45,343.85,166.17,342.96,166.17z"/>
		</g>
		<g>
			<path class="st11" d="M351.1,166.18c-0.89,0-1.61-0.72-1.61-1.61v-5.69c0-0.89,0.72-1.61,1.61-1.61c0.89,0,1.61,0.72,1.61,1.61
				v5.69C352.7,165.46,351.98,166.18,351.1,166.18z"/>
		</g>
		<g>
			<path class="st11" d="M358.85,166.18c-0.89,0-1.61-0.72-1.61-1.61v-5.69c0-0.89,0.72-1.61,1.61-1.61c0.89,0,1.61,0.72,1.61,1.61
				v5.69C360.45,165.46,359.74,166.18,358.85,166.18z"/>
		</g>
		<path class="st0" d="M346.88,189.1h6.27c0.43,0,0.79-0.35,0.79-0.79v-6.27c0-0.43-0.35-0.79-0.79-0.79h-6.27
			c-0.43,0-0.79,0.35-0.79,0.79v6.27C346.09,188.75,346.45,189.1,346.88,189.1z"/>
		<path class="st0" d="M337.68,189.1h6.27c0.43,0,0.79-0.35,0.79-0.79v-6.27c0-0.43-0.35-0.79-0.79-0.79h-6.27
			c-0.43,0-0.79,0.35-0.79,0.79v6.27C336.89,188.75,337.25,189.1,337.68,189.1z"/>
		<path class="st0" d="M365.28,197.83h6.27c0.43,0,0.79-0.35,0.79-0.79v-6.27c0-0.43-0.35-0.79-0.79-0.79h-6.27
			c-0.43,0-0.79,0.35-0.79,0.79v6.27C364.49,197.48,364.84,197.83,365.28,197.83z"/>
		<path class="st5" d="M356.08,197.83h6.27c0.43,0,0.79-0.35,0.79-0.79v-6.27c0-0.43-0.35-0.79-0.79-0.79h-6.27
			c-0.43,0-0.79,0.35-0.79,0.79v6.27C355.29,197.48,355.64,197.83,356.08,197.83z"/>
		<path class="st0" d="M346.81,197.83h6.27c0.43,0,0.79-0.35,0.79-0.79v-6.27c0-0.43-0.35-0.79-0.79-0.79h-6.27
			c-0.43,0-0.79,0.35-0.79,0.79v6.27C346.03,197.48,346.38,197.83,346.81,197.83z"/>
		<path class="st0" d="M337.62,197.83h6.27c0.43,0,0.79-0.35,0.79-0.79v-6.27c0-0.43-0.35-0.79-0.79-0.79h-6.27
			c-0.43,0-0.79,0.35-0.79,0.79v6.27C336.83,197.48,337.18,197.83,337.62,197.83z"/>
		<path class="st0" d="M365.21,206.64h6.27c0.43,0,0.79-0.35,0.79-0.79v-6.27c0-0.43-0.35-0.79-0.79-0.79h-6.27
			c-0.43,0-0.79,0.35-0.79,0.79v6.27C364.42,206.28,364.78,206.64,365.21,206.64z"/>
		<path class="st5" d="M356.01,206.64h6.27c0.43,0,0.79-0.35,0.79-0.79v-6.27c0-0.43-0.35-0.79-0.79-0.79h-6.27
			c-0.43,0-0.79,0.35-0.79,0.79v6.27C355.22,206.28,355.58,206.64,356.01,206.64z"/>
		<path class="st0" d="M346.75,206.64h6.27c0.43,0,0.79-0.35,0.79-0.79v-6.27c0-0.43-0.35-0.79-0.79-0.79h-6.27
			c-0.43,0-0.79,0.35-0.79,0.79v6.27C345.96,206.28,346.31,206.64,346.75,206.64z"/>
		<path class="st0" d="M337.55,206.64h6.27c0.43,0,0.79-0.35,0.79-0.79v-6.27c0-0.43-0.35-0.79-0.79-0.79h-6.27
			c-0.43,0-0.79,0.35-0.79,0.79v6.27C336.76,206.28,337.12,206.64,337.55,206.64z"/>
		<g>
			<path class="st11" d="M366.62,166.18c-0.89,0-1.61-0.72-1.61-1.61v-5.69c0-0.89,0.72-1.61,1.61-1.61c0.89,0,1.61,0.72,1.61,1.61
				v5.69C368.23,165.46,367.51,166.18,366.62,166.18z"/>
		</g>
	</g>
	<g>
		<path class="st12" d="M298.39,127.5H180.9c-3.82,0-6.91,3.09-6.91,6.91v1.08v60.06c0,3.82,3.09,6.91,6.91,6.91h117.49
			c3.82,0,6.91-3.09,6.91-6.91v-10.84v-50.3C305.3,130.59,302.21,127.5,298.39,127.5z"/>
		<g>
			<path class="st2" d="M294.51,200.07H178.7c-4.28,0-7.75-3.47-7.75-7.75v-59.47c0-4.28,3.47-7.75,7.75-7.75h115.82
				c4.28,0,7.75,3.47,7.75,7.75v59.47C302.26,196.6,298.79,200.07,294.51,200.07z"/>
			<path class="st11" d="M302.26,132.01c0-3.82-3.09-6.91-6.91-6.91H177.86c-3.82,0-6.91,3.09-6.91,6.91v1.08
				c14.38,0.65,42.25,5.37,61.69,30.32c22.38,28.73,52.45,25.92,69.62,18.9V132.01z"/>
			<path class="st5" d="M200.46,166.9h-15.76c-1.63,0-2.95-1.32-2.95-2.95V156c0-1.63,1.32-2.95,2.95-2.95h15.76
				c1.63,0,2.95,1.32,2.95,2.95v7.95C203.41,165.58,202.09,166.9,200.46,166.9z"/>
			<path class="st4" d="M293.1,138.49h-23.48c-0.67,0-1.22-0.55-1.22-1.22v-4.31c0-0.67,0.55-1.22,1.22-1.22h23.48
				c0.67,0,1.22,0.55,1.22,1.22v4.31C294.32,137.94,293.78,138.49,293.1,138.49z"/>
			<path class="st5" d="M203.59,178.6h-20.32c-1.27,0-2.3-1.03-2.3-2.3l0,0c0-1.27,1.03-2.3,2.3-2.3h20.32c1.27,0,2.3,1.03,2.3,2.3
				l0,0C205.88,177.57,204.86,178.6,203.59,178.6z"/>
			<path class="st5" d="M232.36,178.6h-20.32c-1.27,0-2.3-1.03-2.3-2.3l0,0c0-1.27,1.03-2.3,2.3-2.3h20.32c1.27,0,2.3,1.03,2.3,2.3
				l0,0C234.66,177.57,233.63,178.6,232.36,178.6z"/>
			<path class="st5" d="M261.34,178.6h-20.32c-1.27,0-2.3-1.03-2.3-2.3l0,0c0-1.27,1.03-2.3,2.3-2.3h20.32c1.27,0,2.3,1.03,2.3,2.3
				l0,0C263.64,177.57,262.62,178.6,261.34,178.6z"/>
			<path class="st5" d="M290.12,178.6h-20.32c-1.27,0-2.3-1.03-2.3-2.3l0,0c0-1.27,1.03-2.3,2.3-2.3h20.32c1.27,0,2.3,1.03,2.3,2.3
				l0,0C292.42,177.57,291.39,178.6,290.12,178.6z"/>
			<path class="st4" d="M210,194.11h-26.44c-0.77,0-1.4-0.63-1.4-1.4l0,0c0-0.77,0.63-1.4,1.4-1.4H210c0.77,0,1.4,0.63,1.4,1.4l0,0
				C211.4,193.49,210.78,194.11,210,194.11z"/>
			<path class="st4" d="M290.05,194.11H277c-0.77,0-1.4-0.63-1.4-1.4l0,0c0-0.77,0.63-1.4,1.4-1.4h13.04c0.77,0,1.4,0.63,1.4,1.4
				l0,0C291.44,193.49,290.82,194.11,290.05,194.11z"/>
			<g>
				<defs>
					<path id="SVGID_1_" d="M200.46,166.9h-15.76c-1.63,0-2.95-1.32-2.95-2.95V156c0-1.63,1.32-2.95,2.95-2.95h15.76
						c1.63,0,2.95,1.32,2.95,2.95v7.95C203.41,165.58,202.09,166.9,200.46,166.9z"/>
				</defs>
				<clipPath id="SVGID_00000049221084832917826260000002602977766836313002_">
					<use xlink:href="#SVGID_1_"  style="overflow:visible;"/>
				</clipPath>
				
					<path style="clip-path:url(#SVGID_00000049221084832917826260000002602977766836313002_);fill:none;stroke:#77C3EC;stroke-width:0.5;stroke-linecap:round;stroke-miterlimit:10;" d="
					M185.7,152.81c1.92,2.47,4.96,8.06-0.26,14.45"/>
				
					<line style="clip-path:url(#SVGID_00000049221084832917826260000002602977766836313002_);fill:none;stroke:#77C3EC;stroke-width:0.5;stroke-miterlimit:10;" x1="180.35" y1="159.85" x2="188.3" y2="159.85"/>
				
					<path style="clip-path:url(#SVGID_00000049221084832917826260000002602977766836313002_);fill:none;stroke:#77C3EC;stroke-width:0.5;stroke-linecap:round;stroke-miterlimit:10;" d="
					M198.86,152.81c-1.92,2.47-4.96,8.06,0.26,14.45"/>
				
					<line style="clip-path:url(#SVGID_00000049221084832917826260000002602977766836313002_);fill:none;stroke:#77C3EC;stroke-width:0.5;stroke-miterlimit:10;" x1="204.2" y1="159.85" x2="196.26" y2="159.85"/>
			</g>
		</g>
	</g>
	<g>
		<g>
			<path class="st5" d="M316.96,76.34c-5.89-6.17-6.32-8.33,2.87-17.37s7.75-21.53,7.75-21.53l-17.65-0.34v-0.02l-0.51,0.01
				l-0.51-0.01v0.02l-17.65,0.34c0,0-1.44,12.49,7.75,21.53c9.19,9.04,8.76,11.2,2.87,17.37c-5.89,6.17-13.92,12.2-13.64,23.54
				h20.66h1.01h20.66C330.89,88.54,322.85,82.51,316.96,76.34z"/>
			<path class="st10" d="M330.95,102.95h-43.04c-1.31,0-2.37-1.06-2.37-2.37l0,0c0-1.31,1.06-2.37,2.37-2.37h43.04
				c1.31,0,2.37,1.06,2.37,2.37l0,0C333.32,101.89,332.26,102.95,330.95,102.95z"/>
			<path class="st10" d="M330.95,39.38h-43.04c-1.31,0-2.37-1.06-2.37-2.37l0,0c0-1.31,1.06-2.37,2.37-2.37h43.04
				c1.31,0,2.37,1.06,2.37,2.37l0,0C333.32,38.32,332.26,39.38,330.95,39.38z"/>
		</g>
		<path class="st2" d="M301.25,55.72h16.7c0.56,0,0.87,0.62,0.51,1.03l-7.59,8.57c-0.1,0.11-0.16,0.26-0.16,0.4v25.92
			c0,0.35,0.3,0.63,0.66,0.63h14.19c0.29,0,0.54,0.18,0.63,0.44l0.95,2.85c0.13,0.4-0.18,0.82-0.63,0.82h-34.16
			c-0.43,0-0.75-0.39-0.64-0.79l0.79-2.87c0.08-0.28,0.34-0.47,0.64-0.47l14.66-0.05c0.36,0,0.66-0.28,0.66-0.63V65.86
			c0-0.15-0.05-0.29-0.15-0.4l-7.58-8.72C300.39,56.33,300.69,55.72,301.25,55.72z"/>
	</g>
	<g>
		<g id="_x3C_Group_x3E__00000129189239097836037190000007050095679799202437_">
			<path id="_x3C_Path_x3E__00000127004766677986551730000003523047634743146890_" class="st10" d="M305.46,279.74
				c0,0,0.15-19.62,12.28-21.03c12.13-1.4,16.31,2.2,17.97,2.86c1.66,0.67-2.71,1.56-6.41,5.18c-3.7,3.62-3.66,8.13-12,9.61
				c-8.34,1.48-11.45,7.62-11.45,7.62L305.46,279.74z"/>
			<path id="_x3C_Path_x3E__00000111154163654685330060000017324678429827178412_" class="st15" d="M305.85,283.99
				c0,0,3.89-20.13,22.69-20.95"/>
		</g>
		<g id="_x3C_Group_x3E__00000057841454533619677480000010332105292027553204_">
			<path id="_x3C_Path_x3E__00000023249338477839663100000012025947548543048616_" class="st10" d="M306.46,272.77
				c0,0,1.82-16.92-8.49-19.33c-10.31-2.41-14.27,0.28-15.76,0.68c-1.5,0.41,2.18,1.61,5.01,5.1c2.83,3.49,2.35,7.37,9.39,9.47
				c7.04,2.1,9.11,7.7,9.11,7.7L306.46,272.77z"/>
			<path id="_x3C_Path_x3E__00000169522446785322816250000014805843895233261489_" class="st15" d="M305.7,276.39
				c0,0-1.35-17.73-17.47-20.3"/>
		</g>
		<g>
			<g>
				<path class="st4" d="M307.58,234.11c0,0,0.02,0.07,0.04,0.19c0.03,0.14,0.06,0.33,0.1,0.58c0.04,0.26,0.1,0.57,0.16,0.94
					c0.05,0.38,0.1,0.81,0.16,1.29c0.21,1.94,0.37,4.78,0.17,8.28c-0.17,3.5-0.69,7.64-1.27,12.22c-0.59,4.58-1.1,9.64-1.18,14.97
					c-0.24,10.67,1.06,20.29,2.46,27.13c0.68,3.43,1.41,6.16,1.9,8.05c0.26,0.93,0.46,1.66,0.61,2.17c0.06,0.24,0.11,0.43,0.15,0.57
					c0.03,0.13,0.05,0.19,0.04,0.2c0,0-1.44-4.09-2.89-10.94c-1.45-6.84-2.78-16.48-2.55-27.18c0.08-5.34,0.6-10.41,1.2-15
					c0.6-4.58,1.14-8.71,1.33-12.2c0.22-3.49,0.09-6.32-0.09-8.26c-0.05-0.48-0.09-0.91-0.13-1.29c-0.05-0.37-0.1-0.68-0.13-0.94
					c-0.03-0.24-0.06-0.44-0.08-0.58C307.58,234.18,307.57,234.11,307.58,234.11z"/>
			</g>
		</g>
		<path class="st16" d="M318.92,292.84h-23c-0.62,0-1.13-0.5-1.13-1.13v-2.55c0-0.62,0.5-1.13,1.13-1.13h23
			c0.62,0,1.13,0.5,1.13,1.13v2.55C320.04,292.34,319.54,292.84,318.92,292.84z"/>
		<path class="st16" d="M313.83,313.16h-11.98c-0.97,0-1.79-0.7-1.96-1.65l-3.36-19.44h21.75l-2.49,19.35
			C315.68,312.42,314.83,313.16,313.83,313.16z"/>
		<g id="_x3C_Group_x3E__00000115516425068506358190000013653754119552492980_">
			<path id="_x3C_Path_x3E__00000147186917931563912930000002552327294493076893_" class="st10" d="M307.3,252.14
				c0,0,1.65-12.85,9.71-12.81c8.06,0.04,10.52,2.73,11.55,3.3c1.04,0.57-1.9,0.81-4.61,2.89c-2.71,2.08-3.04,5.04-8.63,5.35
				c-5.59,0.31-8.11,4.09-8.11,4.09L307.3,252.14z"/>
			<path id="_x3C_Path_x3E__00000035504799823082130360000001693996610431302034_" class="st15" d="M307.22,254.95
				c0,0,4.14-12.89,16.53-11.94"/>
		</g>
		<g id="_x3C_Group_x3E__00000059307280953920876490000003870961844426934919_">
			<path id="_x3C_Path_x3E__00000167366550571504357660000007572623739909767103_" class="st10" d="M308.89,242.43
				c0,0,2.99-12.61-4.56-15.42c-7.56-2.81-10.8-1.16-11.97-0.99c-1.17,0.17,1.49,1.43,3.3,4.33c1.8,2.9,1.07,5.79,6.18,8.05
				c5.12,2.26,6.14,6.69,6.14,6.69L308.89,242.43z"/>
			<path id="_x3C_Path_x3E__00000167355882994394677020000015208752568880680116_" class="st15" d="M307.98,245.09
				c0,0,0.68-13.52-11.25-17.01"/>
		</g>
	</g>
	<g>
		<path class="st10" d="M114.64,103.18c0-1.65-1.34-2.99-2.99-2.99H67.55c-1.65,0-2.99,1.34-2.99,2.99v23.84
			c0,1.65,1.34,2.99,2.99,2.99h36.35l3.42,4.66c1.07,1.45,2.91,1.32,3.75-0.27l2.96-5.58c0.38-0.5,0.61-1.12,0.61-1.8V103.18z"/>
		<path class="st5" d="M106.27,110.87H72.51c-0.53,0-0.95-0.43-0.95-0.95l0,0c0-0.53,0.43-0.95,0.95-0.95h33.76
			c0.53,0,0.95,0.43,0.95,0.95l0,0C107.22,110.44,106.8,110.87,106.27,110.87z"/>
		<path class="st5" d="M96.01,115.34h-23.5c-0.53,0-0.95-0.43-0.95-0.95l0,0c0-0.53,0.43-0.95,0.95-0.95h23.5
			c0.53,0,0.95,0.43,0.95,0.95l0,0C96.96,114.91,96.54,115.34,96.01,115.34z"/>
		<path class="st5" d="M101.71,119.91h-29.2c-0.53,0-0.95-0.43-0.95-0.95l0,0c0-0.53,0.43-0.95,0.95-0.95h29.2
			c0.53,0,0.95,0.43,0.95,0.95l0,0C102.66,119.48,102.24,119.91,101.71,119.91z"/>
	</g>
	<g>
		<g class="st17">
			<g>
				<g>
					<g>
						<path class="st2" d="M237.63,257.14c0.08,14.57-11.66,26.45-26.23,26.53c-14.57,0.08-26.45-11.66-26.53-26.23
							c-0.08-14.57,11.66-26.45,26.23-26.53C225.67,230.83,237.55,242.57,237.63,257.14z"/>
					</g>
				</g>
			</g>
		</g>
		<g>
			<g>
				<g>
					<g>
						<g>
							
								<ellipse transform="matrix(0.0553 -0.9985 0.9985 0.0553 -57.5817 450.0112)" class="st6" cx="209.02" cy="255.44" rx="26.65" ry="26.65"/>
						</g>
					</g>
				</g>
			</g>
			<g>
				<g>
					<g>
						<g>
							<path class="st7" d="M228.86,254.9c0.06,11.19-8.95,20.31-20.14,20.37c-11.19,0.06-20.31-8.95-20.37-20.14
								c-0.06-11.19,8.95-20.31,20.14-20.37C219.67,234.7,228.79,243.71,228.86,254.9z"/>
						</g>
					</g>
				</g>
			</g>
			<g>
				<g>
					<g>
						<g>
							<path class="st8" d="M229.43,255.74c0.06,11.04-8.83,20.04-19.87,20.1c-11.04,0.06-20.04-8.83-20.1-19.87
								c-0.06-11.04,8.83-20.04,19.87-20.1C220.37,235.81,229.37,244.7,229.43,255.74z"/>
						</g>
					</g>
				</g>
			</g>
			<g>
				<g>
					<g>
						<g>
							<path class="st9" d="M229.43,255.74c0.06,11.04-8.83,20.04-19.87,20.1c-11.04,0.06-20.04-8.83-20.1-19.87
								c-0.06-11.04,8.83-20.04,19.87-20.1C220.37,235.81,229.37,244.7,229.43,255.74z"/>
						</g>
					</g>
				</g>
			</g>
			<g>
				<g>
					<g>
						<g>
							<g>
								<g>
									<path class="st7" d="M210.23,254.12l-0.03-5.11c0.01,0,0.02,0,0.02,0c0.89,0.1,1.81,0.33,2.72,0.69
										c0.76,0.39,1.28,0.8,1.28,0.8l0.07-0.16l0.78-1.85l0.18-0.42l-0.92-0.95l-0.44,0.2c-1.12-0.55-2.4-0.98-3.71-1.05
										l-0.02-2.81l-0.88-0.7l0,0.71l-1.2,0.01l0.02,2.86c-3.95,0.4-5.81,2.67-5.8,5.25c0.02,3.52,3.04,4.42,5.86,5.08l0.03,5.07
										c-1.93-0.17-3.83-0.89-5.08-1.9L202,262.4c1.32,1.13,3.73,1.93,6.22,2.07l0.01,2.12l-0.99,0.02l0.99,0.67l2.08-0.01
										l-0.02-2.84c3.97-0.43,5.86-2.67,5.85-5.25C216.12,255.65,213.05,254.79,210.23,254.12z M208.15,253.6
										c-1.47-0.42-2.56-0.97-2.57-2.19c-0.01-1.11,0.75-2.03,2.55-2.32L208.15,253.6z M210.21,249L210.21,249L210.21,249
										C210.21,249,210.21,249,210.21,249z M210.28,261.67l-0.03-4.48c1.52,0.42,2.64,1,2.65,2.24
										C212.91,260.51,212.13,261.38,210.28,261.67z"/>
								</g>
							</g>
						</g>
					</g>
				</g>
			</g>
			<g>
				<g>
					<g>
						<g>
							<g>
								<path class="st5" d="M209.43,263.74l0.02,2.84l-2.08,0.01l-0.02-2.81c-2.48-0.14-4.9-0.93-6.22-2.07l1.13-2.56
									c1.25,1.01,3.15,1.73,5.08,1.9l-0.03-5.07c-2.82-0.67-5.84-1.56-5.86-5.08c-0.01-2.58,1.85-4.85,5.8-5.25l-0.02-2.86
									l2.08-0.01l0.02,2.81c1.88,0.09,3.78,0.64,5.15,1.52l-1.02,2.56c-1.35-0.78-2.77-1.2-4.11-1.34l0.03,5.12
									c2.82,0.67,5.89,1.54,5.91,5.06C215.29,261.07,213.41,263.31,209.43,263.74z M207.29,252.91l-0.03-4.51
									c-1.8,0.29-2.55,1.21-2.55,2.32C204.73,251.93,205.82,252.48,207.29,252.91z M212.04,258.73c-0.01-1.24-1.13-1.82-2.65-2.24
									l0.03,4.48C211.26,260.69,212.04,259.82,212.04,258.73z"/>
							</g>
						</g>
					</g>
				</g>
			</g>
		</g>
		<g>
			<circle class="st0" cx="229.21" cy="236.3" r="10.85"/>
			<path class="st18" d="M225.54,236.07l1.46,3.27c0.15,0.33,0.59,0.4,0.83,0.14l5.44-5.92"/>
			<circle class="st3" cx="229.18" cy="236.27" r="9"/>
		</g>
	</g>
</g>
<g>
	<path class="st19" d="M85.78,152.98c0,0,3.29-9.11,17.16-5.17c9.25,2.63,14.62,9.97,14.01,20.75c-0.65,11.39,6.55,7.89,2.36,24.35
		c-2.83,11.13,10.63,20.3-1.62,37.77c-9.92,14.15-66,6-65.43-18.42c0.27-11.53,9.89-6.14,10.48-24.74
		c0.25-7.89,15.28-5.26,13.26-17.23C75,164.33,79.77,152.22,85.78,152.98z"/>
	<path class="st20" d="M102.77,188.41c0,0,3.81,2.34,2.87,7.45c-0.95,5.11-1.37,9.93,3,13.65"/>
	<path class="st20" d="M112.97,176.53c0.94,4.11,2.71,6.85,0.26,12.42c-5.17,11.77,5.16,14.22,0.2,24.99
		c-1.78,3.86-2.49,7.2-2.86,10.11"/>
	<polygon class="st21" points="115.17,234.73 132.88,234.74 127.45,228.81 115.83,230.57 	"/>
	<path class="st20" d="M82.98,183.14c0,0-5.07,2.81-4.39,8.16c0.92,7.2-6.25,8.33-4.47,12.84"/>
	<path class="st20" d="M80.7,163.88c0,0-2.05,4.48-1.52,9c1.1,9.27-11.48,9.46-11.57,18.82c-0.06,5.85-4.94,9.42-8.1,12.81"/>
	<polygon id="_x3C_Path_x3E__00000020362313313429574110000009973829366033665680_" class="st22" points="167.19,341 167.15,351.8 
		157.18,351.88 155.6,343.08 	"/>
	<polygon id="_x3C_Path_x3E__00000137118393383351872080000006894182123488554369_" class="st22" points="137.39,344.39 
		136.41,356.17 125.64,357.15 123.87,348.28 	"/>
	<path class="st23" d="M92.91,264.62c11.46,6.15,35.31,18.34,48.84,20.79c1.11,0.2,1.98,1.07,2.14,2.19l8.24,56.15
		c0.15,1,0.86,1.83,1.83,2.12c3.13,0.93,10.23,2.11,15.73-3.76c0.5-0.54,0.77-1.25,0.72-1.99c-0.57-8.28-4.35-61.81-7.07-68.83
		c-2.77-7.15-41.43-14.66-46.14-15.55c-0.31-0.06-0.63-0.06-0.94,0l-22.59,4.03C91.25,260.19,90.73,263.45,92.91,264.62z"/>
	<path class="st23" d="M76.31,268.23c0.05,0.01-9.26,17.57,37.4,21.69c1.03,0.09,1.79,1,1.9,2.03l5.8,56.64
		c0.09,0.9,0.7,1.65,1.55,1.94c2.92,0.99,9.88,2.45,16.14-2.94c0.55-0.48,0.88-1.16,0.86-1.89c-0.23-8.27-1.79-61.94-4.22-69.07
		c-2.34-6.86-36.7-15.37-44.4-17.2c-0.92-0.22-1.87,0.15-2.41,0.93L76.31,268.23z"/>
	<path class="st24" d="M123.84,347.23"/>
	<path class="st24" d="M110.75,290.5"/>
	<path class="st25" d="M74.15,196.31c14.57-4.33,32.22-0.57,35.11,0.3c3.3,0.99,7.43,4.95,11.88,13.86
		c4.46,8.91,4.46,8.91,4.46,8.91l-8.91,2.64v34l0,0c-7.96,6.76-17.53,11.34-27.78,13.3l-12.04,2.15c-1.17,0.21-2.23-0.71-2.19-1.9
		l1.38-43.26l-15.12,0.8C60.94,227.12,60.23,200.46,74.15,196.31z"/>
	<path class="st21" d="M104.28,227.73l-27.16,7.47l-1.07-8.88l-12.62,0.57c0,0-2.84,21.93,4.66,22.4
		c11.37,0.71,40.66-13.68,40.66-13.68L104.28,227.73z"/>
	<path class="st21" d="M99.92,159.35c1.52-0.61,3.73-0.12,4.85,1.04c3.08,3.19,6.92,8.77,5.62,15.89c-1.51,8.23-3.46,13.36-8,13.28
		c-1.47-0.03-2.12,1.14-2.16,2.52l-0.28,4.3l0,0c-1.34,7.53-12.35,8.62-15.51,1.53l-0.52-1.16c-0.38-0.85-0.36-1.82,0.04-2.66
		c1.33-2.78,4.56-7.52,0.94-18.02c-0.25-0.72-1.35-3.18-0.65-4.9c0.6-1.48,2.52-1.69,3.74-0.67c0.27,0.23,0.63,0.27,1.31-0.21
		C91.67,168.65,91.88,162.59,99.92,159.35z"/>
	<path class="st19" d="M100.9,159.13c0,0,0.13,2.78,4.75,5.16c5.65,2.91,2.18,6.4,4.79,10.53c2.75,4.34,0.36-3.93,0.36-3.93
		l-0.8-9.44c-1.6-6.13-3.94-10.13-9.82-8.91c-3.15,0.66-6.2,1.85-7.84,3.96c-4.31,5.58-5.25,18.28-5.25,18.28s4.74,0.09,7.23-5.86
		C97.14,162.19,96.81,161.11,100.9,159.13z"/>
	<path class="st4" d="M127.57,235.35h-10.42c-1,0-1.8-0.81-1.8-1.8v-23.07c0-1,0.81-1.8,1.8-1.8h10.42c1,0,1.8,0.81,1.8,1.8v23.07
		C129.38,234.54,128.57,235.35,127.57,235.35z"/>
	<g>
		<g>
			<g>
				<g>
					<path class="st21" d="M137.09,226.54L137.09,226.54c-2.93-4.1-7.03-11.79-8.43-11.95c-0.75-0.08-0.99,0.57-0.66,2.13
						c0.98,4.62,2.58,5.52-1.75,4.78c-0.62-0.11-3.8-0.73-5.53-1.07c-1.28-0.25-2.4,1.02-1.88,2.22c0.14,0.32,0.37,0.68,0.72,1.06
						c0,0-1.02,2.88,1.71,3.59c0,0,0.32,3.27,2.38,3.41c0,0,2.19,1.36,6.8,3.27l0,0c2.1,1.4,4.91,0.99,6.52-0.96l0.35-0.43
						C138.8,230.82,138.7,228.2,137.09,226.54z"/>
				</g>
			</g>
		</g>
		<path class="st26" d="M120.04,223.75c1.52,0.47,3.84,1.19,5.29,1.12"/>
		<path class="st26" d="M121.65,227.36c0,0,2.68,1.03,4.58,0.88"/>
	</g>
	<g>
		<g>
			<g>
				<path class="st21" d="M104.28,227.73l3.3-2.39c2.38-4.74,6.76-13.32,7.56-12.9c0.88,0.46,1.11,1.41,0.52,3.3
					c-1.42,4.51-0.72,6.71,1.84,6.52c0.88-0.07,8.44-0.11,8.44-0.11s1.81,1.62-0.6,3.45c0,0,0.51,3.01-2.31,3.24
					c0,0-0.88,3.16-2.93,2.95c0,0-2.39,0.96-7.26,2.04l-4.06,1.79L104.28,227.73z"/>
			</g>
		</g>
	</g>
	<path class="st26" d="M124.85,225.54c-1.57,0.21-3.99,0.5-5.4,0.19"/>
	<path class="st26" d="M122.64,228.83c0,0-2.81,0.55-4.67,0.07"/>
	<g>
		<g>
			<g>
				<path class="st26" d="M115.13,212.44c0.88,0.46,1.11,1.41,0.52,3.3c-1.42,4.51-0.72,6.71,1.84,6.52
					c0.88-0.07,8.44-0.11,8.44-0.11s1.81,1.62-0.6,3.45c0,0,0.51,3.01-2.31,3.24c0,0-0.88,3.16-2.93,2.95c0,0-2.39,0.96-7.26,2.04"
					/>
			</g>
		</g>
	</g>
	<g>
		<g>
			<g>
				<path class="st26" d="M123.66,230.72c1.07,0.53,5.02,2.53,6.8,3.27l0,0"/>
			</g>
		</g>
	</g>
	<path class="st4" d="M168.14,349.94c0,0-3.19,2.58-12.19,1.2c0,0-0.63,5.63-3.09,8.58c-2.45,2.94,4.65,6.5,9.98,4.85
		c5.33-1.65,9.31,2.28,14.57,1.64c5.27-0.64,12.86-6.37,10.05-8.08c-2.82-1.71-12.82-1.64-15.32-5.56
		C170.67,350.27,168.14,349.94,168.14,349.94z"/>
	<path class="st27" d="M174.85,364.02c4.83,1.43,10.22-4.17,10.22-4.17"/>
	<path class="st27" d="M155.06,360.66c0,0,1.92,2.29,6.32,1.83c4.4-0.45,8.65,0.09,13.48,1.53"/>
	<path class="st4" d="M137.63,354.02c0,0-5.02,3.57-13.93,1.69c0,0,0.12,5.36-2.49,8.16c-2.61,2.8,4.28,6.75,9.69,5.4
		c5.41-1.35,9.16,2.8,14.46,2.45c5.29-0.34,13.2-5.64,10.48-7.5c-2.72-1.86-13.7-3.11-15.97-7.16
		C138.54,354.68,137.63,354.02,137.63,354.02z"/>
	<path class="st27" d="M142.93,369.39c4.74,1.7,10.43-3.59,10.43-3.59"/>
	<path class="st27" d="M123.35,364.93c0,0,1.78,2.39,6.21,2.18c4.42-0.21,8.63,0.58,13.37,2.28"/>
	<path class="st27" d="M137.24,287.27c-0.45-5.17-0.95-9.05-1.48-10.64c-1.34-3.93-13.22-8.41-24.56-11.86"/>
	<path class="st27" d="M136.92,315.17c-0.34-8.11-0.77-16.64-1.27-23.83"/>
	<path class="st27" d="M127.52,349.41c2.94-0.15,6.33-1.11,9.54-3.88c0.55-0.48,0.88-1.16,0.86-1.89
		c-0.07-2.67-0.29-10.06-0.62-19.09"/>
	<path class="st3" d="M116.27,255.73"/>
	<path class="st3" d="M124.15,276.27c0,0,0.29,7.45,8.91,10.07"/>
	<path class="st3" d="M153.64,270c0,0,1.75,6.86,9.05,10.66"/>
	<path class="st3" d="M155.6,343.08c0,0,6.8,0.21,12.35-4.02"/>
	<path class="st28" d="M82.24,197.7c0,0,1.53,8.93,12.99,6.6"/>
	<path class="st28" d="M101.25,198.33c0,0,0.1,2.49-3.18,4.48"/>
	<line class="st28" x1="63.03" y1="224.99" x2="72.5" y2="224.91"/>
	<line class="st28" x1="76.14" y1="226.14" x2="77.14" y2="219.8"/>
	<path class="st28" d="M90.54,265.15c-3.62,0.98-7.68,1.8-12.19,2.34"/>
	<path class="st28" d="M113.21,254.18c0,0-5.46,5.01-16.55,9.04"/>
	<path class="st28" d="M98.7,257.81c-2.4,0.91-4.9,1.53-7.35,1.61"/>
	<path class="st28" d="M113.07,248.99c0,0-4.15,3.69-9.72,6.68"/>
	<path class="st3" d="M92.18,271.31c0,0,3.07,6.57-2.04,11.39"/>
</g>
</svg>
