<?xml version="1.0" encoding="utf-8"?>
<!-- Generator: Adobe Illustrator 27.5.0, SVG Export Plug-In . SVG Version: 6.00 Build 0)  -->
<svg version="1.1" id="Layer_1" xmlns="http://www.w3.org/2000/svg" xmlns:xlink="http://www.w3.org/1999/xlink" x="0px" y="0px"
	 viewBox="0 0 1000 1000" style="enable-background:new 0 0 1000 1000;" xml:space="preserve">
<style type="text/css">
	.st0{fill:#383535;stroke:#383535;stroke-width:0.4997;stroke-miterlimit:10;}
	.st1{fill-rule:evenodd;clip-rule:evenodd;fill:#383535;stroke:#383535;stroke-width:0.4997;stroke-miterlimit:10;}
	.st2{fill-rule:evenodd;clip-rule:evenodd;fill:#4374BA;stroke:#4374BA;stroke-width:0.4997;stroke-miterlimit:10;}
	.st3{fill-rule:evenodd;clip-rule:evenodd;fill:#EF4747;}
	.st4{fill:none;stroke:#EF4747;stroke-width:0.4997;stroke-miterlimit:10;}
</style>
<g id="Layer_x0020_1">
	<polygon class="st0" points="619.29,459.54 619.08,939.2 752.01,806.07 752.01,413.45 950.39,413.45 950.39,295.85 738.63,295.85 	
		"/>
	<path class="st0" d="M119.62,362.59c13.8,13.55,29.33,24.79,46.58,33.72c17.26,8.94,34.79,16.14,52.64,21.62
		c17.83,5.48,35.08,9.79,51.76,12.97c16.68,3.18,31.36,5.9,44.01,8.21c18.98,3.47,37.24,7.21,54.79,11.25
		c17.54,4.04,32.78,8.93,45.73,14.7c11.97,5.34,23.24,13.52,30.78,21.56l92.35-82.55c0,0-5.55-6.22-6.96-7.59
		c-2.04-1.97-4.74-4.56-5.81-5.5c-2.2-1.94-4.84-4.25-5.81-5c-2.36-1.84-5.4-4.19-6.69-5.16c-2.9-2.16-6.35-4.71-6.96-5.09
		c-3.81-2.37-13.11-8.09-18.66-10.87c-17.26-8.64-34.65-15.56-52.2-20.75c-17.55-5.19-34.51-9.22-50.9-12.11
		c-16.4-2.88-30.64-5.77-42.71-8.65c-16.11-4.02-32.78-8.06-50.05-12.1c-17.25-4.04-33.07-8.93-47.45-14.7
		c-14.38-5.77-26.18-12.97-35.38-21.62c-9.21-8.65-13.8-19.32-13.8-31.99c0-12.68,3.89-23.49,11.67-32.43
		c7.78-8.93,17.57-16.28,29.37-22.04c11.81-5.77,24.34-9.95,37.59-12.54c13.24-2.59,25.06-3.89,35.43-3.89
		c30.52,0,59.61,5.48,87.27,16.42c27.65,10.94,56.45,26.78,86.4,47.51l81.24-81.24c-23.59-16.73-37.34-31.1-68.7-49.74
		c-16.99-10.1-34.42-18.46-52.29-25.09c-17.86-6.63-37.15-11.67-57.89-15.14c-20.73-3.47-44.35-5.2-70.84-5.2
		c-26.49,0-54.01,2.88-82.51,8.65c-28.52,5.77-54.44,15.71-77.78,29.83c-23.34,14.12-42.5,33.42-57.48,57.92
		c-14.97,24.51-22.46,55.19-22.46,92.08c0,25.35,4.17,47.4,12.5,66.14C94.73,332.91,105.81,349.04,119.62,362.59L119.62,362.59z"/>
	<path class="st1" d="M295.1,598.98l-105.27,90.47c-2.14-0.81-4.29-1.64-6.45-2.52c-20.72-8.36-40.28-18.32-58.7-29.88
		c-24.13-15.11-52.42-32.54-74.28-52.01l82.89-82.89c31.65,21.9,64.29,40.77,97.96,56.61C251.93,588.49,273.22,595.23,295.1,598.98
		L295.1,598.98z"/>
	<polygon class="st2" points="95.29,939.2 738.63,295.85 835.86,295.85 	"/>
	<g>
		<path class="st3" d="M922.78,59.56L271.72,710.62c-28.69-5.65-54.6-10.89-81.9-21.17L922.78,59.56L922.78,59.56z M295.1,598.98
			L922.78,59.56L295.1,598.98z"/>
		<path id="_1" class="st4" d="M922.78,59.56L271.72,710.62c-28.69-5.65-54.6-10.89-81.9-21.17L922.78,59.56L922.78,59.56z
			 M295.1,598.98L922.78,59.56"/>
	</g>
</g>
</svg>
