<?xml version="1.0" encoding="utf-8"?>
<!-- Generator: Adobe Illustrator 27.5.0, SVG Export Plug-In . SVG Version: 6.00 Build 0)  -->
<svg version="1.1" id="Layer_1" xmlns="http://www.w3.org/2000/svg" xmlns:xlink="http://www.w3.org/1999/xlink" x="0px" y="0px"
	 viewBox="0 0 1000 1000" style="enable-background:new 0 0 1000 1000;" xml:space="preserve">
<style type="text/css">
	.st0{fill:url(#SVGID_1_);}
	.st1{opacity:0.3;}
	.st2{fill:#8193CA;}
	.st3{fill:#98B1DC;}
	.st4{fill:#C0CFEB;}
	.st5{clip-path:url(#SVGID_00000065758896385763573550000010921023673331451583_);}
	.st6{fill:url(#SVGID_00000075161094986702889380000004277354107991490208_);}
	.st7{fill:url(#SVGID_00000152942739624091424780000002161053576373489576_);}
	.st8{fill:url(#SVGID_00000008858943095025458680000018387916421683197361_);}
	.st9{fill:url(#SVGID_00000041269602484942370290000008665143701483900561_);}
	.st10{fill:url(#SVGID_00000008115505147428396950000004759223605429714086_);}
	.st11{fill:url(#SVGID_00000025420348967527163300000007424995030951452052_);}
	.st12{fill:url(#SVGID_00000162349469701214516020000017030494418173344141_);}
	.st13{fill:url(#SVGID_00000084502361541489588020000016686826605135941781_);}
	.st14{fill:url(#SVGID_00000073695059369584586430000010154910809863122598_);}
	.st15{fill:url(#SVGID_00000127751447839393744520000004490813923913077420_);}
	.st16{fill:url(#SVGID_00000088822006961170468420000009852968868271353495_);}
	.st17{fill:url(#SVGID_00000038410985133442133100000000373184565875044027_);}
	.st18{fill:url(#SVGID_00000063626810114195349160000005848070351380857520_);}
	.st19{fill:url(#SVGID_00000129887084200142424020000005195801588259648676_);}
	.st20{fill:url(#SVGID_00000183961713053112466610000006927810277171425154_);}
	.st21{fill:url(#SVGID_00000131367359454652396400000012499775370326342055_);}
	.st22{fill:url(#SVGID_00000150066176119242084100000005044497963338721456_);}
	.st23{fill:url(#SVGID_00000183957807176051539950000007815791131398625716_);}
	.st24{fill:url(#SVGID_00000053523342001466158890000015085360572952201633_);}
	.st25{fill:url(#SVGID_00000036240415797063050660000017579953738230028963_);}
	.st26{fill:url(#SVGID_00000096028832762095032830000011570929452070317444_);}
	.st27{fill:url(#SVGID_00000114051397317377154570000013405322252133317519_);}
	.st28{fill:url(#SVGID_00000106116488333253756310000010407602669045543077_);}
	.st29{fill:url(#SVGID_00000083796647123837119360000007452233861292170631_);}
	.st30{fill:url(#SVGID_00000133517364311841546580000004812418423432670357_);}
	.st31{fill:url(#SVGID_00000101062863591989632900000009571541734987410603_);}
	.st32{fill:url(#SVGID_00000176732309416439297650000006285567205538066095_);}
	.st33{fill:url(#SVGID_00000028314612705551796370000000772458268353332631_);}
	.st34{fill:url(#SVGID_00000049935750226933612460000000276929926039519638_);}
	.st35{fill:url(#SVGID_00000008850854185827445000000015549490438571670965_);}
	.st36{fill:url(#SVGID_00000103225617400891393500000001171136750474982538_);}
	.st37{opacity:0.79;fill:#FFFFFF;}
	.st38{fill:url(#SVGID_00000173844639524984357160000002549326260924894364_);}
</style>
<g>
	<linearGradient id="SVGID_1_" gradientUnits="userSpaceOnUse" x1="1069.6708" y1="1188.2303" x2="282.1652" y2="210.1978">
		<stop  offset="0" style="stop-color:#DBE2F3"/>
		<stop  offset="1" style="stop-color:#EAEFF8"/>
	</linearGradient>
	<path class="st0" d="M853.02,802.53c-18.09,19.04-35.2,31.32-48.73,41.03c-158.95,114.05-347.04,80.81-387.01,72.69
		c-59.03-11.99-173.13-35.16-255.62-132.17C36.86,637.3,56.29,406.08,153.1,253.44c17.71-27.92,111.24-182.88,301.35-207.73
		C569.51,30.67,703.62,61,800.74,142.37C1004.61,313.17,990.1,658.22,853.02,802.53z"/>
	<g>
		<g>
			<g class="st1">
				<path class="st2" d="M346.61,228.38c1.84-0.56,3.84,0.36,4.6,2.17c1.67,3.96,3.18,8.06,4.51,12.17c0.65,2-0.45,4.15-2.45,4.79
					c-0.02,0.01-0.05,0.01-0.07,0.02c-1.98,0.6-4.08-0.5-4.72-2.47c-1.26-3.91-2.7-7.79-4.28-11.56c-0.81-1.94,0.1-4.17,2.03-4.98
					C346.35,228.47,346.48,228.42,346.61,228.38z M355.95,260.18c0.14-0.04,0.29-0.08,0.44-0.1c2.07-0.37,4.04,1.01,4.41,3.08
					c0.75,4.25,1.33,8.57,1.72,12.85c0.19,2.09-1.34,3.94-3.44,4.13c-2.09,0.19-3.94-1.35-4.13-3.44
					c-0.37-4.07-0.92-8.17-1.64-12.21C352.97,262.57,354.13,260.73,355.95,260.18z M358.07,293.25c0.41-0.12,0.84-0.18,1.29-0.16
					c2.1,0.1,3.72,1.89,3.61,3.99c-0.21,4.3-0.61,8.65-1.19,12.92c-0.28,2.08-2.2,3.54-4.28,3.26c-2.08-0.28-3.54-2.2-3.26-4.28
					c0.55-4.06,0.93-8.18,1.13-12.27C355.45,295.06,356.57,293.7,358.07,293.25z M352.74,325.97c0.67-0.2,1.4-0.22,2.13-0.02
					c2.02,0.57,3.2,2.67,2.63,4.69c-1.17,4.15-2.53,8.3-4.05,12.33c-0.74,1.96-2.93,2.96-4.9,2.22c-1.97-0.74-2.96-2.93-2.22-4.9
					c1.44-3.83,2.73-7.77,3.84-11.71C350.54,327.28,351.53,326.33,352.74,325.97z M340.24,356.68c0.94-0.28,1.99-0.21,2.92,0.3
					c1.85,1,2.53,3.31,1.52,5.16c-2.05,3.78-4.3,7.52-6.67,11.12c-1.15,1.76-3.51,2.24-5.27,1.08c-1.75-1.16-2.24-3.52-1.08-5.27
					c2.26-3.42,4.39-6.98,6.34-10.57C338.5,357.59,339.32,356.96,340.24,356.68z M321.26,383.85c1.22-0.37,2.59-0.12,3.62,0.78
					c1.58,1.39,1.73,3.79,0.35,5.37c-2.84,3.23-5.86,6.39-8.97,9.37c-1.52,1.46-3.93,1.4-5.38-0.11c-1.45-1.52-1.4-3.92,0.11-5.38
					c2.95-2.83,5.82-5.83,8.52-8.9C320,384.43,320.61,384.05,321.26,383.85z M190.42,432.84c0.5-0.15,1.05-0.2,1.6-0.13
					c4.05,0.54,8.18,0.92,12.27,1.11c2.1,0.1,3.72,1.88,3.62,3.98c-0.1,2.1-1.88,3.72-3.98,3.62c-4.31-0.2-8.66-0.59-12.93-1.17
					c-2.08-0.28-3.55-2.19-3.27-4.28C187.95,434.45,189.03,433.26,190.42,432.84z M296.75,406.13c1.51-0.46,3.21,0.06,4.18,1.42
					c1.23,1.7,0.85,4.08-0.86,5.31c-3.49,2.52-7.14,4.92-10.83,7.13c-1.81,1.07-4.14,0.49-5.22-1.31c-1.08-1.8-0.49-4.14,1.31-5.22
					c3.51-2.1,6.97-4.38,10.29-6.77C295.98,406.44,296.36,406.25,296.75,406.13z M223.56,433.51c0.24-0.07,0.49-0.12,0.75-0.15
					c4.07-0.38,8.18-0.94,12.22-1.66c2.07-0.37,4.05,1.01,4.42,3.07c0.37,2.07-1,4.05-3.07,4.42c-4.24,0.76-8.57,1.35-12.86,1.75
					c-2.09,0.19-3.95-1.34-4.14-3.44C220.7,435.67,221.86,434.02,223.56,433.51z M267.88,422.38c1.84-0.56,3.84,0.35,4.6,2.16
					c0.82,1.94-0.09,4.17-2.02,4.99c-3.96,1.67-8.05,3.2-12.15,4.53c-0.03,0.01-0.05,0.02-0.08,0.02c-1.98,0.6-4.08-0.49-4.72-2.47
					c-0.65-2,0.44-4.15,2.44-4.79c3.9-1.27,7.78-2.72,11.54-4.31C267.62,422.47,267.75,422.42,267.88,422.38z"/>
				<path class="st2" d="M164.37,426.91c0.72-0.22,1.51-0.23,2.27,0.02c1.87,0.61,3.77,1.18,5.68,1.72c2.02,0.57,3.2,2.67,2.63,4.69
					c-0.57,2.02-2.67,3.21-4.69,2.63c-2-0.56-4.01-1.17-5.97-1.81c-2-0.65-3.09-2.8-2.44-4.79
					C162.24,428.15,163.21,427.26,164.37,426.91z"/>
			</g>
			<g class="st1">
				<path class="st2" d="M76.81,350.82c1.76-0.53,3.69,0.28,4.52,1.98c0.86,1.76,1.77,3.54,2.7,5.28c1,1.85,0.3,4.16-1.55,5.15
					c-1.86,1-4.16,0.3-5.15-1.55c-0.98-1.83-1.94-3.7-2.84-5.56c-0.92-1.89-0.13-4.17,1.76-5.09
					C76.43,350.95,76.62,350.88,76.81,350.82z"/>
				<path class="st2" d="M167.06,144.15c1.68-0.51,3.37-0.99,5.07-1.44c2.03-0.54,4.11,0.67,4.65,2.7c0.54,2.03-0.68,4.12-2.7,4.66
					c-3.94,1.05-7.82,2.25-11.59,3.59c-1.98,0.7-4.16-0.33-4.86-2.31c-0.71-1.98,0.33-4.16,2.31-4.86
					C162.28,145.66,164.67,144.87,167.06,144.15z M191.86,138.89c0.2-0.06,0.42-0.11,0.63-0.13c4.21-0.53,8.49-0.88,12.73-1.05
					c2.1-0.08,3.87,1.55,3.95,3.65c0.08,2.1-1.55,3.88-3.65,3.95c-4.02,0.16-8.09,0.5-12.09,1c-2.08,0.26-3.99-1.22-4.25-3.3
					C188.95,141.14,190.11,139.42,191.86,138.89z M141.6,154.5c1.72-0.52,3.61,0.24,4.47,1.89c0.97,1.87,0.24,4.16-1.62,5.13
					c-3.57,1.85-7.1,3.89-10.51,6.04c-1.78,1.12-4.13,0.59-5.25-1.18c-1.12-1.78-0.59-4.13,1.18-5.25
					c3.59-2.27,7.31-4.41,11.07-6.36C141.15,154.66,141.37,154.57,141.6,154.5z M224.48,138.44c0.46-0.14,0.96-0.19,1.47-0.14
					c4.22,0.41,8.48,1.01,12.64,1.78c2.07,0.38,3.43,2.36,3.05,4.43c-0.38,2.07-2.36,3.44-4.43,3.05c-3.96-0.73-8-1.3-12.01-1.69
					c-2.09-0.2-3.62-2.07-3.42-4.16C221.95,140.14,223.05,138.88,224.48,138.44z M114.52,172.65c1.41-0.43,3-0.01,4.01,1.19
					c1.36,1.61,1.15,4.01-0.45,5.36c-3.07,2.59-6.07,5.35-8.92,8.2c-1.49,1.49-3.89,1.49-5.38,0c-1.49-1.49-1.49-3.89,0-5.38
					c3-3,6.16-5.91,9.39-8.64C113.57,173.04,114.03,172.8,114.52,172.65z M92.07,196.3c1.13-0.34,2.39-0.15,3.4,0.61
					c1.67,1.27,2,3.66,0.73,5.33c-2.44,3.21-4.76,6.56-6.92,9.96c-1.12,1.78-3.47,2.3-5.25,1.17c-1.77-1.13-2.3-3.48-1.17-5.25
					c2.27-3.58,4.72-7.1,7.29-10.48C90.65,196.98,91.33,196.53,92.07,196.3z M75.32,224.28c0.86-0.26,1.81-0.22,2.68,0.18
					c1.91,0.87,2.75,3.13,1.87,5.04c-1.68,3.67-3.23,7.44-4.59,11.23c-0.71,1.98-2.89,3-4.87,2.29c-1.98-0.71-3-2.89-2.29-4.87
					c1.44-3.98,3.06-7.96,4.83-11.82C73.43,225.31,74.31,224.59,75.32,224.28z M65.07,255.25c0.59-0.18,1.24-0.22,1.89-0.08
					c2.06,0.44,3.37,2.46,2.93,4.51c-0.84,3.94-1.52,7.97-2.02,11.96c-0.26,2.08-2.17,3.56-4.25,3.3c-2.09-0.26-3.56-2.16-3.3-4.25
					c0.53-4.21,1.24-8.44,2.12-12.59C62.74,256.7,63.78,255.64,65.07,255.25z M61.86,287.72c0.33-0.1,0.69-0.16,1.05-0.16
					c2.1-0.03,3.83,1.65,3.85,3.75c0.05,4.02,0.28,8.09,0.67,12.1c0.2,2.09-1.33,3.95-3.42,4.16c-2.09,0.2-3.95-1.33-4.16-3.42
					c-0.41-4.22-0.65-8.51-0.7-12.74C59.14,289.68,60.28,288.2,61.86,287.72z M65.87,320.09c0.07-0.02,0.15-0.04,0.23-0.06
					c2.04-0.48,4.09,0.78,4.58,2.83c0.68,2.89,1.46,5.79,2.32,8.62c0.31,1.03,0.63,2.05,0.96,3.06c0.65,2-0.44,4.15-2.44,4.8
					c-2.01,0.7-4.14-0.44-4.8-2.44c-0.35-1.07-0.68-2.14-1.01-3.22c-0.9-2.98-1.72-6.03-2.44-9.07
					C62.8,322.64,63.96,320.66,65.87,320.09z"/>
				<path class="st2" d="M256.48,145.22c0.72-0.22,1.52-0.22,2.29,0.03c1.96,0.65,3.93,1.35,5.88,2.08c1.97,0.74,2.96,2.94,2.22,4.9
					c-0.74,1.97-2.93,2.96-4.9,2.22c-1.85-0.7-3.73-1.36-5.59-1.98c-1.99-0.66-3.08-2.81-2.42-4.81
					C254.37,146.45,255.34,145.57,256.48,145.22z"/>
			</g>
			<g>
				<g>
					<path class="st3" d="M264.33,188.95c-0.63-0.42-1.46-0.4-2.06,0.05l-17.29,13.02c-9.45-3.59-19.54-5.7-29.93-6.09l-10.83-18.72
						c-0.38-0.66-1.13-1-1.88-0.86l-25.48,4.96c-0.74,0.15-1.32,0.75-1.42,1.5l-3.01,21.42c-9.49,4.27-18.05,10.01-25.46,16.88
						l-20.91-5.58c-0.73-0.2-1.51,0.1-1.93,0.72l-14.51,21.53c-0.42,0.63-0.4,1.46,0.05,2.06l13.02,17.29
						c-3.59,9.45-5.7,19.54-6.09,29.93l-18.72,10.83c-0.66,0.38-1,1.13-0.85,1.88l4.96,25.48c0.14,0.74,0.75,1.32,1.5,1.42
						l21.42,3.01c4.27,9.49,10.01,18.05,16.88,25.46l-5.58,20.91c-0.2,0.73,0.1,1.51,0.72,1.93l21.53,14.51
						c0.63,0.42,1.46,0.4,2.06-0.05l17.29-13.02c9.45,3.59,19.54,5.7,29.93,6.09l10.83,18.72c0.38,0.66,1.13,1,1.88,0.86l25.48-4.96
						c0.74-0.14,1.32-0.75,1.42-1.5l3.01-21.42c9.49-4.26,18.05-10.01,25.46-16.88l20.91,5.58c0.73,0.2,1.51-0.1,1.93-0.72
						l14.51-21.53c0.42-0.63,0.4-1.46-0.05-2.06l-13.02-17.29c3.59-9.45,5.7-19.54,6.09-29.93l18.72-10.83
						c0.66-0.38,1-1.13,0.85-1.88l-4.96-25.48c-0.15-0.74-0.75-1.32-1.5-1.42l-21.42-3.01c-4.27-9.49-10.01-18.05-16.88-25.46
						l5.58-20.91c0.2-0.73-0.1-1.51-0.72-1.93L264.33,188.95z"/>
				</g>
				<g>
					<path class="st4" d="M203.86,265.75c12.18-3.68,25.57,2.03,31.14,13.88c6.12,13.02,0.51,28.6-12.51,34.72
						c-6.31,2.97-13.39,3.3-19.95,0.94c-6.56-2.36-11.8-7.14-14.77-13.44c-6.12-13.02-0.51-28.6,12.51-34.72
						C201.46,266.57,202.66,266.11,203.86,265.75z M217.14,309.9c0.94-0.28,1.87-0.64,2.77-1.06c9.98-4.7,14.28-16.64,9.59-26.62
						c-4.7-9.98-16.64-14.29-26.62-9.59c-9.98,4.7-14.28,16.64-9.59,26.62c2.28,4.84,6.3,8.5,11.33,10.31
						C208.7,311.03,213.05,311.14,217.14,309.9z"/>
				</g>
				<g>
					<path class="st4" d="M192.45,229.82c2.09-0.63,4.23-1.16,6.4-1.59l0,0c0.68-0.13,1.37-0.26,2.06-0.37
						c3.39-0.55,6.83-0.83,10.24-0.83c0.05,0,0.09,0,0.14,0c0.13,0,0.26,0,0.4,0c0.26,0,0.51,0.01,0.77,0.01
						c0.68,0.01,1.24,0.47,1.43,1.08c0.05,0.15,0.07,0.31,0.06,0.47c-0.02,0.84-0.71,1.51-1.55,1.49
						c-4.32-0.09-8.69,0.29-12.97,1.13c-21.26,4.14-37.8,18.9-45.21,37.7c-4.12,10.46-5.41,22.16-3.1,33.98
						c0.4,2.07,0.91,4.11,1.51,6.11c4.06,13.42,12.54,24.95,24.32,32.89c13.54,9.12,29.82,12.43,45.84,9.31
						c33.09-6.45,54.75-38.6,48.31-71.68c-0.4-2.04-0.9-4.05-1.49-6.03c-2.59-8.56-7.02-16.46-13.01-23.12
						c-0.15-0.17-0.26-0.37-0.33-0.58c-0.17-0.55-0.01-1.16,0.44-1.57c0.63-0.56,1.59-0.51,2.15,0.11
						c6.29,6.99,10.94,15.29,13.66,24.28c0.63,2.07,1.15,4.19,1.57,6.33c6.77,34.73-15.99,68.49-50.71,75.25
						c-16.82,3.28-33.92-0.19-48.13-9.77c-12.37-8.34-21.28-20.44-25.54-34.53c-0.63-2.09-1.16-4.23-1.59-6.41
						c-3.28-16.82,0.19-33.92,9.77-48.13C166.25,242.98,178.36,234.08,192.45,229.82z"/>
				</g>
			</g>
		</g>
		<g>
			<g class="st1">
				<path class="st2" d="M441.91,94.85c0.97-0.29,2.06,0.07,2.65,0.97c1.09,1.67,2.15,3.4,3.14,5.13c0.64,1.13,0.25,2.56-0.88,3.21
					c-1.13,0.65-2.56,0.25-3.21-0.88c-0.94-1.65-1.95-3.3-2.99-4.89c-0.71-1.08-0.4-2.54,0.68-3.25
					C441.49,95.01,441.7,94.92,441.91,94.85z"/>
				<path class="st2" d="M450.36,110.83c1.14-0.34,2.38,0.22,2.85,1.35c1.32,3.17,2.5,6.45,3.49,9.73c0.21,0.69,0.41,1.39,0.61,2.09
					c0.35,1.25-0.46,2.52-1.63,2.9c-1.25,0.35-2.55-0.38-2.9-1.63c-0.19-0.67-0.38-1.34-0.58-2c-0.95-3.14-2.07-6.26-3.33-9.28
					c-0.5-1.2,0.07-2.57,1.26-3.07C450.21,110.88,450.29,110.85,450.36,110.83z M456.92,134.33c0.11-0.03,0.22-0.06,0.33-0.08
					c1.28-0.19,2.48,0.69,2.68,1.97c0.62,4.12,1,8.31,1.11,12.46c0.04,1.3-0.99,2.38-2.28,2.41c-1.3,0.04-2.38-0.99-2.41-2.28
					c-0.11-3.96-0.47-7.96-1.06-11.88C455.11,135.76,455.82,134.66,456.92,134.33z M457.59,158.72c0.29-0.09,0.59-0.12,0.91-0.09
					c1.29,0.13,2.24,1.28,2.11,2.57c-0.4,4.14-1.07,8.3-1.98,12.36c-0.28,1.27-1.54,2.06-2.81,1.78c-1.27-0.28-2.06-1.54-1.78-2.81
					c0.87-3.87,1.51-7.84,1.89-11.78C456.02,159.77,456.7,158.99,457.59,158.72z M452.24,182.53c0.47-0.14,0.98-0.14,1.47,0.04
					c1.22,0.44,1.86,1.79,1.42,3.01c-1.41,3.92-3.07,7.79-4.95,11.49c-0.59,1.16-2,1.62-3.16,1.04c-1.16-0.58-1.62-2-1.04-3.16
					c1.79-3.53,3.37-7.22,4.72-10.96C450.96,183.26,451.55,182.74,452.24,182.53z M441.23,204.31c0.65-0.2,1.38-0.11,1.99,0.3
					c1.08,0.72,1.36,2.18,0.64,3.26c-2.32,3.45-4.87,6.8-7.59,9.94c-0.85,0.99-2.33,1.09-3.31,0.24c-0.98-0.85-1.09-2.33-0.24-3.31
					c2.59-3,5.03-6.19,7.24-9.49C440.28,204.78,440.73,204.46,441.23,204.31z M425.28,222.76c0.84-0.25,1.8-0.02,2.42,0.67
					c0.87,0.96,0.79,2.45-0.17,3.32c-3.09,2.79-6.38,5.41-9.78,7.79c-1.07,0.74-2.53,0.48-3.27-0.58c-0.74-1.06-0.48-2.53,0.58-3.27
					c3.24-2.27,6.38-4.77,9.32-7.43C424.65,223.02,424.95,222.85,425.28,222.76z M405.3,236.74c1.05-0.32,2.22,0.14,2.75,1.15
					c0.61,1.15,0.17,2.57-0.98,3.18c-3.66,1.94-7.5,3.67-11.4,5.15c-1.22,0.44-2.57-0.15-3.03-1.36c-0.46-1.21,0.15-2.57,1.36-3.03
					c3.72-1.41,7.38-3.07,10.87-4.91C405.02,236.84,405.16,236.78,405.3,236.74z M370.46,247.57c0.13-0.04,0.27-0.07,0.41-0.08
					c3.4-0.4,6.84-1,10.23-1.77c0.51-0.11,1.02-0.23,1.52-0.36c1.26-0.31,2.53,0.46,2.84,1.72c0.31,1.26-0.46,2.57-1.72,2.84
					c-0.53,0.13-1.07,0.26-1.61,0.38c-3.53,0.81-7.14,1.43-10.71,1.85c-1.29,0.15-2.46-0.77-2.61-2.06
					C368.67,248.95,369.39,247.9,370.46,247.57z"/>
			</g>
			<g class="st1">
				<path class="st2" d="M328.89,54.59c1.23-0.37,2.53,0.31,2.92,1.54c0.39,1.24-0.29,2.56-1.53,2.95
					c-3.73,1.18-7.41,2.59-10.95,4.21c-1.18,0.52-2.58,0.02-3.11-1.16c-0.54-1.18-0.02-2.57,1.16-3.11
					c3.72-1.69,7.58-3.18,11.48-4.41C328.87,54.6,328.88,54.6,328.89,54.59z M340.55,51.66c0.08-0.02,0.16-0.04,0.25-0.06
					c4.02-0.76,8.13-1.28,12.21-1.55c1.3-0.08,2.41,0.89,2.5,2.19c0.09,1.3-0.9,2.41-2.19,2.5c-3.89,0.26-7.81,0.76-11.65,1.48
					c-1.27,0.24-2.5-0.6-2.74-1.87C338.7,53.16,339.42,52.01,340.55,51.66z M307.06,64.55c1-0.3,2.11,0.09,2.68,1.02
					c0.68,1.1,0.33,2.55-0.77,3.23c-3.33,2.05-6.57,4.31-9.61,6.74c-1.02,0.8-2.49,0.64-3.3-0.38c-0.81-1.01-0.64-2.49,0.38-3.3
					c3.2-2.54,6.59-4.91,10.08-7.06C306.69,64.68,306.87,64.6,307.06,64.55z M364.51,50.09c0.26-0.08,0.53-0.11,0.81-0.1
					c4.09,0.23,8.2,0.72,12.23,1.44c1.28,0.23,2.13,1.45,1.9,2.73c-0.23,1.27-1.45,2.12-2.73,1.89c-3.84-0.69-7.76-1.16-11.66-1.38
					c-1.3-0.07-2.29-1.18-2.21-2.48C362.9,51.19,363.59,50.37,364.51,50.09z M288.28,79.48c0.8-0.24,1.7-0.05,2.33,0.57
					c0.93,0.91,0.94,2.4,0.03,3.32c-2.74,2.78-5.33,5.75-7.71,8.85c-0.79,1.03-2.27,1.22-3.3,0.43c-1.03-0.79-1.22-2.27-0.43-3.3
					c2.5-3.24,5.22-6.36,8.08-9.27C287.57,79.79,287.92,79.59,288.28,79.48z M273.63,98.48c0.61-0.18,1.29-0.12,1.88,0.23
					c1.12,0.66,1.48,2.1,0.82,3.22c-2,3.36-3.8,6.87-5.38,10.44c-0.52,1.19-1.91,1.73-3.1,1.2c-1.19-0.52-1.72-1.91-1.2-3.1
					c1.65-3.74,3.54-7.42,5.63-10.94C272.6,99.01,273.09,98.65,273.63,98.48z M263.96,120.45c0.43-0.13,0.9-0.14,1.36,0
					c1.24,0.38,1.94,1.69,1.57,2.93c-1.13,3.74-2.05,7.58-2.71,11.42c-0.22,1.28-1.44,2.13-2.72,1.91
					c-1.28-0.22-2.14-1.44-1.91-2.72c0.7-4.02,1.66-8.05,2.85-11.98C262.62,121.24,263.23,120.67,263.96,120.45z"/>
				<path class="st2" d="M388.24,54.38c0.43-0.13,0.91-0.14,1.38,0.01c1.92,0.6,3.83,1.25,5.68,1.95c1.21,0.46,1.83,1.81,1.37,3.03
					c-0.46,1.21-1.81,1.83-3.03,1.37c-1.76-0.67-3.59-1.29-5.42-1.86c-1.24-0.39-1.93-1.7-1.55-2.94
					C386.92,55.16,387.52,54.6,388.24,54.38z"/>
			</g>
			<g>
				<g>
					<path class="st3" d="M395.15,84.01c-0.42-0.28-0.98-0.27-1.38,0.04l-11.57,8.72c-6.32-2.4-13.07-3.81-20.03-4.07l-7.25-12.53
						c-0.25-0.44-0.76-0.67-1.26-0.57l-17.05,3.32c-0.5,0.1-0.88,0.5-0.95,1l-2.01,14.33c-6.35,2.85-12.08,6.7-17.04,11.29
						l-13.99-3.74c-0.49-0.13-1.01,0.06-1.29,0.48l-9.71,14.41c-0.28,0.42-0.27,0.98,0.04,1.38l8.72,11.57
						c-2.4,6.32-3.81,13.07-4.07,20.03l-12.53,7.25c-0.44,0.25-0.67,0.76-0.57,1.26l3.32,17.05c0.1,0.5,0.5,0.88,1,0.95l14.33,2.01
						c2.85,6.35,6.7,12.08,11.29,17.04l-3.74,13.99c-0.13,0.49,0.06,1.01,0.48,1.29l14.41,9.71c0.42,0.28,0.98,0.27,1.38-0.04
						l11.57-8.72c6.32,2.4,13.07,3.81,20.03,4.07l7.25,12.53c0.25,0.44,0.76,0.67,1.26,0.57l17.05-3.32c0.5-0.1,0.88-0.5,0.95-1
						l2.01-14.33c6.35-2.85,12.08-6.7,17.04-11.29l13.99,3.74c0.49,0.13,1.01-0.06,1.29-0.48l9.71-14.41
						c0.28-0.42,0.27-0.98-0.04-1.38l-8.72-11.57c2.4-6.32,3.81-13.07,4.07-20.03l12.53-7.25c0.44-0.25,0.67-0.76,0.57-1.26
						l-3.32-17.05c-0.1-0.5-0.5-0.88-1-0.95l-14.33-2.01c-2.85-6.35-6.7-12.08-11.29-17.04l3.74-13.99
						c0.13-0.49-0.06-1.01-0.48-1.29L395.15,84.01z"/>
				</g>
				<g>
					<path class="st4" d="M354.62,135.09c3.63-1.1,7.5-1,11.13,0.31c4.47,1.61,8.04,4.86,10.06,9.16
						c4.17,8.87,0.35,19.48-8.52,23.65c-8.89,4.16-19.48,0.35-23.65-8.52c-2.02-4.3-2.25-9.12-0.64-13.59
						c1.61-4.47,4.86-8.04,9.16-10.06C352.96,135.65,353.79,135.34,354.62,135.09z M363.5,164.64c0.61-0.18,1.2-0.41,1.79-0.69
						c6.52-3.07,9.33-10.87,6.26-17.4c-1.49-3.16-4.11-5.55-7.4-6.74c-3.29-1.18-6.84-1.01-10,0.47l0,0
						c-3.16,1.49-5.55,4.12-6.74,7.4c-1.18,3.29-1.02,6.84,0.47,10C350.69,163.62,357.4,166.48,363.5,164.64z"/>
				</g>
				<g>
					<path class="st4" d="M346.71,110.07c1.42-0.43,2.88-0.79,4.37-1.08c2.96-0.58,5.98-0.85,8.98-0.82c0.14,0,0.27,0,0.41,0.01
						c1.04,0.02,1.92,0.72,2.2,1.67c0.07,0.23,0.1,0.48,0.1,0.73c-0.03,1.3-1.1,2.32-2.4,2.3c-2.81-0.06-5.63,0.19-8.39,0.73l0,0
						c-0.15,0.03-0.3,0.06-0.45,0.09c-6.53,1.34-12.48,4.25-17.45,8.44c-2.7,2.27-5.1,4.92-7.15,7.9c-0.02,0.02-0.03,0.05-0.05,0.07
						c-0.05,0.08-0.1,0.15-0.15,0.22c-5.91,8.76-8.05,19.31-6.03,29.68c0.26,1.34,0.59,2.66,0.98,3.95
						c2.63,8.69,8.12,16.15,15.75,21.3c8.77,5.91,19.3,8.04,29.68,6.02c10.37-2.02,19.34-7.96,25.25-16.72
						c5.91-8.76,8.05-19.31,6.03-29.68c-0.26-1.32-0.58-2.62-0.97-3.9c-1.68-5.54-4.55-10.66-8.42-14.97
						c-0.24-0.27-0.41-0.57-0.5-0.89c-0.25-0.84-0.02-1.8,0.68-2.43c0.97-0.87,2.45-0.79,3.32,0.18c4.34,4.82,7.55,10.55,9.42,16.75
						c0.43,1.43,0.79,2.89,1.08,4.36c2.26,11.61-0.13,23.4-6.74,33.21c-6.61,9.8-16.63,16.46-28.25,18.71
						c-11.61,2.26-23.4-0.13-33.2-6.74c-8.54-5.75-14.68-14.1-17.62-23.82c-0.44-1.44-0.8-2.92-1.1-4.42
						C311.72,138.43,325.25,116.55,346.71,110.07z"/>
				</g>
			</g>
		</g>
	</g>
	<g>
		<defs>
			<rect id="SVGID_00000026153986236252162770000014108354267990314885_" x="79.96" y="294.94" width="866.61" height="634.64"/>
		</defs>
		<clipPath id="SVGID_00000069391192252637341000000005001669908350922910_">
			<use xlink:href="#SVGID_00000026153986236252162770000014108354267990314885_"  style="overflow:visible;"/>
		</clipPath>
		<g style="clip-path:url(#SVGID_00000069391192252637341000000005001669908350922910_);">
			<g>
				
					<linearGradient id="SVGID_00000022540911219265179750000006605009003178756280_" gradientUnits="userSpaceOnUse" x1="355.3163" y1="1126.4979" x2="122.6986" y2="1852.266">
					<stop  offset="0" style="stop-color:#F9EE4A"/>
					<stop  offset="1" style="stop-color:#DA3D66"/>
				</linearGradient>
				
					<rect x="278.21" y="1154.48" style="fill:url(#SVGID_00000022540911219265179750000006605009003178756280_);" width="30.51" height="329.98"/>
				
					<linearGradient id="SVGID_00000068655290457914785960000005312591927165969835_" gradientUnits="userSpaceOnUse" x1="406.4912" y1="1129.3108" x2="166.4699" y2="1878.1783">
					<stop  offset="0" style="stop-color:#F9EE4A"/>
					<stop  offset="1" style="stop-color:#DA3D66"/>
				</linearGradient>
				<path style="fill:url(#SVGID_00000068655290457914785960000005312591927165969835_);" d="M427.09,1490.83H159.84v-17.36
					c0-1.38,1.12-2.51,2.51-2.51h262.24c1.38,0,2.51,1.12,2.51,2.51V1490.83z"/>
				
					<linearGradient id="SVGID_00000176738894715901635550000004825709502145309345_" gradientUnits="userSpaceOnUse" x1="304.5085" y1="1110.2134" x2="71.8909" y2="1835.9813">
					<stop  offset="0" style="stop-color:#F9EE4A"/>
					<stop  offset="1" style="stop-color:#DA3D66"/>
				</linearGradient>
				<path style="fill:url(#SVGID_00000176738894715901635550000004825709502145309345_);" d="M466.75,1143.03
					c0,18.05-14.77,32.81-32.81,32.81H163.55c-18.05,0-32.81-14.77-32.81-32.81v-29.67c0-18.05,14.77-32.81,32.81-32.81h270.39
					c18.05,0,32.81,14.77,32.81,32.81V1143.03z"/>
			</g>
			<g>
				<g>
					
						<linearGradient id="SVGID_00000007419235823253435760000009590234625033341059_" gradientUnits="userSpaceOnUse" x1="972.3032" y1="1308.5414" x2="954.2097" y2="1394.3558">
						<stop  offset="0" style="stop-color:#201B59"/>
						<stop  offset="1" style="stop-color:#2D2D84"/>
					</linearGradient>
					<path style="fill:url(#SVGID_00000007419235823253435760000009590234625033341059_);" d="M902.15,1434.33
						c13.68-6.64,118.52-43.96,144.71-83.83c-1.25-0.94-2.76-1.61-4.53-1.83c-29.62-3.57-88.78-7.11-141.19,11.57l-27.79,23.8
						c0,0-9.35,22.45,8.93,49.85C886.86,1436.35,893.93,1438.32,902.15,1434.33z"/>
					
						<linearGradient id="SVGID_00000071527701191172992260000005259474330862644142_" gradientUnits="userSpaceOnUse" x1="1001.8211" y1="1294.0554" x2="974.9395" y2="1372.1156">
						<stop  offset="0" style="stop-color:#66CDF3"/>
						<stop  offset="1" style="stop-color:#4A5AA8"/>
					</linearGradient>
					<path style="fill:url(#SVGID_00000071527701191172992260000005259474330862644142_);" d="M1046.86,1350.5
						c-26.19,39.87-131.03,77.19-144.71,83.83c-8.22,3.99-15.29,2.02-19.88-0.43c0.03,0.05,0.06,0.1,0.09,0.14
						c4.63,6.9,13.52,9.54,21.24,6.49c29.49-11.65,104.69-43.09,143.65-75.33C1052.21,1361.1,1051.37,1353.91,1046.86,1350.5z"/>
				</g>
				<g>
					
						<linearGradient id="SVGID_00000140014808361084065290000013811341976489044909_" gradientUnits="userSpaceOnUse" x1="948.2472" y1="1384.2283" x2="990.3369" y2="1556.0941">
						<stop  offset="0" style="stop-color:#201B59"/>
						<stop  offset="1" style="stop-color:#2D2D84"/>
					</linearGradient>
					<path style="fill:url(#SVGID_00000140014808361084065290000013811341976489044909_);" d="M898.53,1469.19
						c13.68-6.64,118.52-43.96,144.71-83.83c-1.25-0.94-2.76-1.61-4.53-1.83c-29.62-3.57-88.78-7.11-141.19,11.57l-27.79,23.8
						c0,0-9.35,22.45,8.93,49.85C883.24,1471.21,890.31,1473.18,898.53,1469.19z"/>
					
						<linearGradient id="SVGID_00000060026020149635841170000002894161234123480204_" gradientUnits="userSpaceOnUse" x1="951.3568" y1="1383.4669" x2="993.4464" y2="1555.3326">
						<stop  offset="0" style="stop-color:#66CDF3"/>
						<stop  offset="1" style="stop-color:#4A5AA8"/>
					</linearGradient>
					<path style="fill:url(#SVGID_00000060026020149635841170000002894161234123480204_);" d="M1043.24,1385.36
						c-26.19,39.87-131.03,77.19-144.71,83.83c-8.22,3.99-15.29,2.02-19.88-0.43c0.03,0.05,0.06,0.1,0.09,0.14
						c4.63,6.9,13.52,9.54,21.24,6.49c29.49-11.65,104.69-43.09,143.65-75.33C1048.59,1395.96,1047.75,1388.77,1043.24,1385.36z"/>
				</g>
				<g>
					
						<linearGradient id="SVGID_00000098923544881521982080000006208799012685173937_" gradientUnits="userSpaceOnUse" x1="1021.2727" y1="1150.2891" x2="861.6829" y2="1392.3041">
						<stop  offset="0" style="stop-color:#F9BABA"/>
						<stop  offset="1" style="stop-color:#F5928F"/>
					</linearGradient>
					<path style="fill:url(#SVGID_00000098923544881521982080000006208799012685173937_);" d="M879.43,1337.56
						c-4.02,9.93-12.77,22.1-31.59,32.19l27.39,19.07c10.25,0.3,16.83-2.65,21.05-6.36c6.01-5.3,6.8-14.43,1.96-20.81
						C892.01,1353.45,885.73,1345.43,879.43,1337.56z"/>
					
						<linearGradient id="SVGID_00000014610090695170172170000003023568065538475702_" gradientUnits="userSpaceOnUse" x1="763.2219" y1="964.6103" x2="595.4429" y2="1219.0441">
						<stop  offset="0" style="stop-color:#CB266E"/>
						<stop  offset="1" style="stop-color:#4C286E"/>
					</linearGradient>
					<path style="fill:url(#SVGID_00000014610090695170172170000003023568065538475702_);" d="M879.98,1328.91
						c-222.21-274.08-496.49-345.45-496.49-345.45l6.96,67.86l461.81,322.97c15.44-8.28,24.24-23.44,29.12-34.09
						C883.09,1336.47,882.56,1332.09,879.98,1328.91z"/>
				</g>
				<g>
					
						<linearGradient id="SVGID_00000094576345676791524230000000789732950733254320_" gradientUnits="userSpaceOnUse" x1="906.2855" y1="1385.4259" x2="434.9915" y2="1517.8696">
						<stop  offset="0" style="stop-color:#F9BABA"/>
						<stop  offset="1" style="stop-color:#F5928F"/>
					</linearGradient>
					<path style="fill:url(#SVGID_00000094576345676791524230000000789732950733254320_);" d="M873.47,1362.37
						c-1.19,9.48-6.67,26.26-28.87,40.2c8.38,6.45,16.47,12.95,24.21,19.49c3.11,2.63,7.21,3.73,11.2,2.92
						c7.64-1.56,19.34-6.37,22.81-21.17c0.88-3.76-0.08-7.72-2.56-10.68C895.64,1387.59,886.5,1376.83,873.47,1362.37z"/>
					
						<linearGradient id="SVGID_00000085215900879527245170000004698642002705370762_" gradientUnits="userSpaceOnUse" x1="832.7819" y1="1104.0637" x2="349.063" y2="1239.999">
						<stop  offset="0" style="stop-color:#CB266E"/>
						<stop  offset="1" style="stop-color:#4C286E"/>
					</linearGradient>
					<path style="fill:url(#SVGID_00000085215900879527245170000004698642002705370762_);" d="M875.18,1358.54
						c-69.3-75.96-239.89-241.35-427.26-310.01c-15.59-5.71-28.28-17.37-35.46-32.34l-28.03-58.43c0,0-136.63-32.02-220.81,56.13
						c0,0,5.13,83.84,110.86,114.49c98.7,28.61,391.16,144.78,563.65,274.96c3.96,2.99,9.45,3.13,13.36,0.09
						c13.71-10.64,22.31-23.92,25.96-33.27C879.02,1366.18,878.05,1361.69,875.18,1358.54z"/>
				</g>
				
					<linearGradient id="SVGID_00000032608360731464252420000005387197000429715118_" gradientUnits="userSpaceOnUse" x1="185.9864" y1="936.881" x2="547.5617" y2="616.6913">
					<stop  offset="0" style="stop-color:#5560AB"/>
					<stop  offset="1" style="stop-color:#4C57A6"/>
				</linearGradient>
				<path style="fill:url(#SVGID_00000032608360731464252420000005387197000429715118_);" d="M148.78,1012.76
					c0,0,27.87,12.2,75.65-9.89c47.78-22.09,177.7-24.29,177.7-24.29s-42.09-157.53,51.44-270.23c0,0,75.33,141.01,128.28,162.05
					l23.71,1.09V770.9c0,0-20.11-124.18-147.31-216.91l-39.61-35.7c0,0-139.27-28.08-233.97,138.05
					C89.97,822.47,148.78,1012.76,148.78,1012.76z"/>
				
					<linearGradient id="SVGID_00000010299316215544339970000011506623464357369263_" gradientUnits="userSpaceOnUse" x1="510.6808" y1="695.2913" x2="642.2513" y2="695.2913">
					<stop  offset="0" style="stop-color:#F9BABA"/>
					<stop  offset="1" style="stop-color:#F5928F"/>
				</linearGradient>
				<path style="fill:url(#SVGID_00000010299316215544339970000011506623464357369263_);" d="M613.58,578.39
					c1.33-6.98,1.82-23.31-15.02-43.21c-22.53-26.63-51.44-13.05-51.44-13.05c-25.61,14.34-36.43,61.18-36.43,61.18l27.08-14.45
					c4.1,11.91,44.1,24.76,44.1,24.76l0.22-0.08c0.39,25.91-0.24,101.46-18.61,154.01c-7.2,20.59-21.84,58.84,26.5,124.38
					l26.63-1.09C616.6,870.83,676.28,769.53,613.58,578.39z"/>
				<g>
					
						<linearGradient id="SVGID_00000088835910419731855230000008294094302032231324_" gradientUnits="userSpaceOnUse" x1="502.5004" y1="-294.8529" x2="625.8508" y2="-421.4071" gradientTransform="matrix(0.963 0.2697 -0.2697 0.963 -194.489 708.5505)">
						<stop  offset="0" style="stop-color:#F9BABA"/>
						<stop  offset="1" style="stop-color:#F5928F"/>
					</linearGradient>
					<path style="fill:url(#SVGID_00000088835910419731855230000008294094302032231324_);" d="M478.2,424.83l-74.16,104.72
						c-4.82,6.81-4.16,16.04,1.54,22.13c9.99,10.67,26.84,25.69,45.01,29.13c5.64,1.07,11.38-1.3,14.51-6.11l39.44-60.54
						C504.53,514.14,512.08,419.04,478.2,424.83z"/>
					
						<linearGradient id="SVGID_00000127751057897000627600000005051356376298930344_" gradientUnits="userSpaceOnUse" x1="-2772.6025" y1="826.6185" x2="-2928.7798" y2="1033.2281" gradientTransform="matrix(0.7999 -0.6002 0.6002 0.7999 2225.1414 -1949.451)">
						<stop  offset="0" style="stop-color:#F9BABA"/>
						<stop  offset="1" style="stop-color:#F5928F"/>
					</linearGradient>
					<path style="fill:url(#SVGID_00000127751057897000627600000005051356376298930344_);" d="M527.44,356.76
						c1.24,1.65,41.36,131.74,41.36,131.74l-74.77,21.33l-56.35-117.65C437.69,392.18,506.75,329.19,527.44,356.76z"/>
					
						<linearGradient id="SVGID_00000031199159717683779360000012681323364850090887_" gradientUnits="userSpaceOnUse" x1="-2891.8789" y1="875.8061" x2="-2705.324" y2="875.8061" gradientTransform="matrix(0.7999 -0.6002 0.6002 0.7999 2225.1414 -1949.451)">
						<stop  offset="0" style="stop-color:#201B59"/>
						<stop  offset="1" style="stop-color:#2D2D84"/>
					</linearGradient>
					<path style="fill:url(#SVGID_00000031199159717683779360000012681323364850090887_);" d="M467.36,411.49l23.8,61.63
						c0.52,1.34,1.23,2.59,2.13,3.71c3.99,5.01,15.61,16.82,28.48,4.18c9.75-9.57,18.93-18.38,27.69-22.77
						c7.71-3.88,17.05,0.35,19.51,8.62c3.69,12.4,9.49,33.7,12.52,54c1.1,7.34-3.71,14.27-10.97,15.79
						c-15.22,3.18-41.78,7.83-65.05,7.29c-5.16-0.12-9.79-3.16-12.08-7.79c-8.61-17.41-30.24-60.62-38.38-72.13
						c-7.48-10.58-24.38-10.52-32.99-9.71c-4,0.38-7.94-0.96-10.87-3.71c-6.87-6.45-16.07-19.45-2.97-35.59
						c4.56-5.62,4.18-13.6-0.84-18.81c-7.25-7.53-13.26-19.55-1.81-34.65c12.14-16,28.55-15.13,39.6-11.96
						c5.39,1.55,10.9-0.81,14.44-5.17c1.03-1.27,2.5-2.24,4.57-2.57c6.76-1.09,11.95-6.29,12.14-13.13
						c0.29-10.11,4.65-21.87,21.34-27.6c32.61-11.2,54.05,19.99,56.78,43.65c2.72,23.66-33.32,33.79-54.72,32.82
						c-14.83-0.68-25.76,12.92-31.08,21.33C466.22,402.69,465.76,407.34,467.36,411.49z"/>
					
						<linearGradient id="SVGID_00000005952053424182705190000015306604566304273538_" gradientUnits="userSpaceOnUse" x1="-3001.3396" y1="990.238" x2="-2876.074" y2="861.7188" gradientTransform="matrix(0.7999 -0.6002 0.6002 0.7999 2225.1414 -1949.451)">
						<stop  offset="0" style="stop-color:#F9BABA"/>
						<stop  offset="1" style="stop-color:#F5928F"/>
					</linearGradient>
					<path style="fill:url(#SVGID_00000005952053424182705190000015306604566304273538_);" d="M464.28,487.32
						c0,0-6.51-41.03-23.7-42.55c-17.19-1.52-33.45,13.05-15.75,35.66C446.85,508.58,464.28,487.32,464.28,487.32z"/>
				</g>
				
					<linearGradient id="SVGID_00000168803530792574524400000009052956967067274924_" gradientUnits="userSpaceOnUse" x1="94.8585" y1="833.9745" x2="456.4341" y2="513.7846">
					<stop  offset="0" style="stop-color:#5560AB"/>
					<stop  offset="1" style="stop-color:#4C57A6"/>
				</linearGradient>
				<path style="fill:url(#SVGID_00000168803530792574524400000009052956967067274924_);" d="M278.21,533.5
					c0,0-149.49,95.34-182.22,206.04c-32.73,110.69,40.52,132.47,110.26,142.28l5.25-84.53c0,0-48.85,0-17.69-46.2
					c31.17-46.2,114.91-77,114.91-77S520.92,473.87,278.21,533.5z"/>
				
					<linearGradient id="SVGID_00000124129696994259796980000002269337243522772105_" gradientUnits="userSpaceOnUse" x1="281.1563" y1="-128.3973" x2="255.0183" y2="507.6265">
					<stop  offset="0" style="stop-color:#201B59"/>
					<stop  offset="1" style="stop-color:#2D2D84"/>
				</linearGradient>
				<path style="fill:url(#SVGID_00000124129696994259796980000002269337243522772105_);" d="M211.5,799.22
					c-0.86,0-21.05-0.15-27.85-12.95c-4.65-8.74-1.76-20.94,8.57-36.25c31.16-46.19,112.4-76.47,115.85-77.74
					c1-0.37,2.11,0.15,2.47,1.14c0.37,1-0.14,2.1-1.14,2.47c-0.83,0.31-83.53,31.12-113.98,76.27c-9.47,14.04-12.28,24.9-8.37,32.28
					c5.71,10.77,24.27,10.92,24.46,10.92c1.06,0,1.92,0.86,1.92,1.93C213.42,798.36,212.56,799.22,211.5,799.22z"/>
				<g>
					
						<linearGradient id="SVGID_00000152245882076683945830000002381210314685450170_" gradientUnits="userSpaceOnUse" x1="1133.5861" y1="-1653.1019" x2="1217.2598" y2="-1653.1019" gradientTransform="matrix(0.0716 -0.9974 0.9974 0.0716 1947.6165 2143.2898)">
						<stop  offset="0" style="stop-color:#F9BABA"/>
						<stop  offset="1" style="stop-color:#F5928F"/>
					</linearGradient>
					<path style="fill:url(#SVGID_00000152245882076683945830000002381210314685450170_);" d="M206.25,881.82
						c0,0-21.84-36.1,6.92-79.22l193.06,31.96c0,0,92.41-15.64,96.83-15.32c4.42,0.32,64.73,37.47,64.73,37.47
						s-2.03,4.31-16.38,3.51c-14.35-0.79-4.93,1.74-4.93,1.74l-0.52,7.25c0,0-9.99,2.29-18.01-6.24
						c-8.01-8.53-30.29-12.65-30.29-12.65s-47.35,34.99-93.87,18.06L206.25,881.82z"/>
				</g>
			</g>
			<g>
				<g>
					
						<linearGradient id="SVGID_00000177444237260246734370000018105772986306841216_" gradientUnits="userSpaceOnUse" x1="475.6853" y1="1192.7535" x2="739.1141" y2="1192.7535">
						<stop  offset="0" style="stop-color:#ACDFE6"/>
						<stop  offset="1" style="stop-color:#ACDEE5"/>
					</linearGradient>
					<path style="fill:url(#SVGID_00000177444237260246734370000018105772986306841216_);" d="M487.15,1490.83
						c-1.51,0-3.05-0.31-4.53-0.96c-5.82-2.56-8.5-9.47-6-15.43l240.49-572.65c2.5-5.96,9.24-8.71,15.07-6.15
						c5.82,2.56,8.5,9.47,6,15.43l-240.49,572.65C495.82,1488.17,491.59,1490.83,487.15,1490.83z"/>
					
						<linearGradient id="SVGID_00000129921273896072475690000007523896224747261321_" gradientUnits="userSpaceOnUse" x1="506.1045" y1="1192.7524" x2="769.5333" y2="1192.7524">
						<stop  offset="0" style="stop-color:#ACDFE6"/>
						<stop  offset="1" style="stop-color:#ACDEE5"/>
					</linearGradient>
					<path style="fill:url(#SVGID_00000129921273896072475690000007523896224747261321_);" d="M758.07,1490.83
						c-4.44,0-8.67-2.66-10.54-7.11L507.04,911.07c-2.5-5.96,0.18-12.87,6-15.43c5.81-2.56,12.56,0.19,15.07,6.15l240.49,572.65
						c2.5,5.96-0.18,12.87-6,15.43C761.12,1490.52,759.58,1490.83,758.07,1490.83z"/>
				</g>
				
					<linearGradient id="SVGID_00000176751490951601063130000010765678947432002742_" gradientUnits="userSpaceOnUse" x1="200.0068" y1="1392.0809" x2="951.1711" y2="503.8209">
					<stop  offset="0" style="stop-color:#201B59"/>
					<stop  offset="1" style="stop-color:#2D2D84"/>
				</linearGradient>
				<path style="fill:url(#SVGID_00000176751490951601063130000010765678947432002742_);" d="M935.96,884.68
					c0.35-3.55-0.13-7.22-1.3-10.01c-1.17-2.79-2.91-4.4-4.75-4.4H306.76c-2.42,0-4.67,2.42-5.97,6.43
					c-1.3,4.01-1.48,9.04-0.46,13.36l6.75,28.73c1.55,6.58,4.9,10.79,8.58,10.79h609.98c3.43,0,6.38-4.78,7.03-11.4L935.96,884.68z"
					/>
			</g>
		</g>
	</g>
	<g>
		<path class="st4" d="M666.42,193.01c-81.58,38.95-135.18,120-71.83,116.22c118.93-7.1,38.66,59.14,101.21,57.19
			c62.55-1.95,159.37-15.29,222.73-80.94s1.77-81.34-23.91-78.8C810.08,215.05,921.96,71.01,666.42,193.01z"/>
		<path class="st4" d="M638.79,398.67c0.17,9.24,6.97,24.4,22.23,24.12c15.26-0.28,33.22-15.9,33.05-25.14
			c-0.17-9.24-12.68-16.5-27.95-16.22C650.85,381.72,638.62,389.44,638.79,398.67z"/>
		<path class="st4" d="M615.87,435.9c0.08,4.47,4.02,8.03,8.79,7.94c4.77-0.09,14.21-4.84,14.12-9.32c-0.08-4.47-6-8.95-10.77-8.86
			C623.24,425.76,615.79,431.43,615.87,435.9z"/>
	</g>
	<g>
		
			<linearGradient id="SVGID_00000136390002917547853810000006326734631202866074_" gradientUnits="userSpaceOnUse" x1="795.2542" y1="242.3752" x2="928.4172" y2="119.3443">
			<stop  offset="0" style="stop-color:#201B59"/>
			<stop  offset="1" style="stop-color:#2D2D84"/>
		</linearGradient>
		<path style="fill:url(#SVGID_00000136390002917547853810000006326734631202866074_);" d="M791.96,266.39
			c-0.12-1.55-1.71-2.89-4.39-3.97c2.91-1.61,4.52-3.33,4.39-5.02c-0.41-5.11-16.59-7.97-36.14-6.4c-19.55,1.58-35.06,7-34.65,12.11
			c0.12,1.55,1.71,2.89,4.39,3.97c-2.91,1.61-4.52,3.33-4.39,5.02c0.12,1.55,1.71,2.89,4.39,3.97c-2.91,1.61-4.52,3.33-4.39,5.02
			c0.12,1.55,1.71,2.89,4.39,3.97c-2.91,1.61-4.52,3.33-4.39,5.02c0.18,2.26,3.45,4.08,8.73,5.27c-0.07,1.67-0.03,3.5,0.13,5.52
			c0.76,9.41,11.35,16.8,25.36,16.8c14.01,0,26.13-10.06,26.27-19.51c0.03-2.31-0.06-4.35-0.27-6.16c6.7-2.24,10.78-4.97,10.57-7.62
			c-0.12-1.55-1.71-2.89-4.39-3.97c2.91-1.61,4.52-3.33,4.39-5.02c-0.12-1.55-1.71-2.89-4.39-3.97
			C790.49,269.8,792.1,268.08,791.96,266.39z"/>
		<g>
			
				<linearGradient id="SVGID_00000138570097028421251670000003774819969838362804_" gradientUnits="userSpaceOnUse" x1="719.1302" y1="376.7067" x2="908.6311" y2="-56.7487">
				<stop  offset="0" style="stop-color:#5560AB"/>
				<stop  offset="1" style="stop-color:#4C57A6"/>
			</linearGradient>
			<path style="fill:url(#SVGID_00000138570097028421251670000003774819969838362804_);" d="M746.78,297.37
				c-5.81,0-11.12-0.43-15.51-1.27c-0.25-0.05-0.42-0.29-0.37-0.55c0.05-0.25,0.29-0.42,0.55-0.37c6.87,1.31,16.04,1.6,25.83,0.82
				c8.01-0.65,15.5-1.94,21.66-3.74c0.25-0.07,0.51,0.07,0.58,0.32c0.07,0.25-0.07,0.51-0.32,0.58c-6.22,1.82-13.78,3.12-21.85,3.77
				C753.71,297.22,750.16,297.37,746.78,297.37z"/>
			
				<linearGradient id="SVGID_00000049906436600574905890000011645977362641616308_" gradientUnits="userSpaceOnUse" x1="716.6563" y1="375.6251" x2="906.1569" y2="-57.8298">
				<stop  offset="0" style="stop-color:#5560AB"/>
				<stop  offset="1" style="stop-color:#4C57A6"/>
			</linearGradient>
			<path style="fill:url(#SVGID_00000049906436600574905890000011645977362641616308_);" d="M746.87,288.38
				c-7.54,0-14.28-0.71-19.04-2.06c-0.25-0.07-0.39-0.33-0.32-0.58c0.07-0.25,0.33-0.39,0.58-0.32c6.78,1.93,17.68,2.53,29.18,1.6
				c11.37-0.92,21.98-3.23,28.38-6.17c0.24-0.11,0.51-0.01,0.62,0.23c0.11,0.24,0.01,0.51-0.23,0.62
				c-6.49,2.99-17.22,5.33-28.69,6.26C753.77,288.23,750.24,288.38,746.87,288.38z"/>
			
				<linearGradient id="SVGID_00000180356118784715927880000017534171596486526393_" gradientUnits="userSpaceOnUse" x1="712.8318" y1="373.9533" x2="902.3323" y2="-59.5011">
				<stop  offset="0" style="stop-color:#5560AB"/>
				<stop  offset="1" style="stop-color:#4C57A6"/>
			</linearGradient>
			<path style="fill:url(#SVGID_00000180356118784715927880000017534171596486526393_);" d="M746.78,279.4
				c-8.14,0-15.27-0.83-20.07-2.41c-0.25-0.08-0.38-0.35-0.3-0.59c0.08-0.25,0.35-0.38,0.59-0.3c6.68,2.2,17.99,2.92,30.27,1.93
				c11.37-0.92,21.98-3.23,28.38-6.17c0.24-0.11,0.51-0.01,0.62,0.23c0.11,0.24,0.01,0.51-0.23,0.62
				c-6.49,2.99-17.22,5.33-28.69,6.26C753.71,279.26,750.16,279.4,746.78,279.4z"/>
			
				<linearGradient id="SVGID_00000097462699795114975740000007867970079593593784_" gradientUnits="userSpaceOnUse" x1="710.979" y1="373.1431" x2="900.4794" y2="-60.3112">
				<stop  offset="0" style="stop-color:#5560AB"/>
				<stop  offset="1" style="stop-color:#4C57A6"/>
			</linearGradient>
			<path style="fill:url(#SVGID_00000097462699795114975740000007867970079593593784_);" d="M746.84,270.41
				c-6.46,0-12.34-0.52-16.9-1.54c-0.25-0.06-0.41-0.31-0.36-0.56c0.06-0.25,0.31-0.41,0.56-0.36c6.87,1.53,16.76,1.92,27.14,1.09
				c11.27-0.91,21.83-3.19,28.23-6.11c0.24-0.11,0.51,0,0.62,0.23c0.11,0.24,0,0.51-0.23,0.62c-6.5,2.96-17.17,5.27-28.54,6.19
				C753.76,270.27,750.22,270.41,746.84,270.41z"/>
		</g>
		
			<linearGradient id="SVGID_00000181808149538588751400000010541227370957171135_" gradientUnits="userSpaceOnUse" x1="758.0854" y1="86.7436" x2="746.6505" y2="320.3398">
			<stop  offset="0" style="stop-color:#F5928F"/>
			<stop  offset="1" style="stop-color:#F37064"/>
		</linearGradient>
		<path style="fill:url(#SVGID_00000181808149538588751400000010541227370957171135_);" d="M708.05,221.04
			c-2.37-8.41-6.41-16.27-11.84-23.11c-11.64-14.67-30.62-44.49-32.96-85.2c-3.4-59.21,49.12-88.86,97.04-84.83
			c47.92,4.02,95.21,39.7,90.03,94.79c-3.19,33.89-22.16,59.6-36.28,74.37c-8.97,9.38-15.37,20.86-18.83,33.36
			c-4.24,15.3-14.33,34.38-38.3,35.54C725.88,267.46,712.99,238.54,708.05,221.04z"/>
		
			<linearGradient id="SVGID_00000089560569667676021000000008075346310001487505_" gradientUnits="userSpaceOnUse" x1="976.1177" y1="22.1719" x2="700.0491" y2="263.9359">
			<stop  offset="0" style="stop-color:#E1483D"/>
			<stop  offset="1" style="stop-color:#E9625A"/>
		</linearGradient>
		<path style="fill:url(#SVGID_00000089560569667676021000000008075346310001487505_);" d="M764.83,254.15L781.6,145.1
			c0.35-2.25,1.46-3.77,2.48-3.38c1.02,0.39,1.57,2.53,1.22,4.78c-0.01,0.06-0.02,0.13-0.03,0.19l-19.1,108.04
			c-0.14,0.81-0.56,1.33-0.92,1.15C764.89,255.7,764.71,254.94,764.83,254.15z"/>
		
			<linearGradient id="SVGID_00000169529392664770638350000000026050560210871712_" gradientUnits="userSpaceOnUse" x1="960.5415" y1="4.3857" x2="684.4733" y2="246.1494">
			<stop  offset="0" style="stop-color:#E1483D"/>
			<stop  offset="1" style="stop-color:#E9625A"/>
		</linearGradient>
		<path style="fill:url(#SVGID_00000169529392664770638350000000026050560210871712_);" d="M747.43,255.02l-16.77-109.06
			c-0.35-2.25-1.46-3.77-2.48-3.38c-1.02,0.39-1.57,2.53-1.22,4.78c0.01,0.06,0.02,0.13,0.03,0.19l19.1,108.04
			c0.14,0.81,0.56,1.33,0.92,1.15C747.37,256.57,747.55,255.8,747.43,255.02z"/>
		<path class="st37" d="M781.48,135.73c-0.43-0.68-1.41-0.94-2.2-0.57l-9.34,4.36l-3.24-9.23c-0.17-0.48-0.57-0.91-1.14-1.14
			c-1.07-0.44-2.36-0.05-2.87,0.88l-0.02,0.03l-7.68,14l-7.13-19.93l-0.01-0.03c-0.17-0.49-0.54-0.92-1.08-1.22
			c-1.19-0.65-2.77-0.34-3.53,0.69l-10.73,14.78c-0.44,0.61-0.29,1.42,0.38,1.86c0.71,0.48,1.73,0.37,2.28-0.25l9.45-10.54
			l8.51,18.96l0.01,0.01c0.14,0.3,0.39,0.57,0.75,0.73c0.8,0.37,1.8,0.12,2.23-0.58l8.21-13.18l3.09,6.67l0.03,0.06
			c0.02,0.05,0.05,0.1,0.08,0.14c0.43,0.68,1.41,0.94,2.2,0.57l11.08-5.18C781.61,137.27,781.9,136.42,781.48,135.73z"/>
		<path class="st37" d="M814.41,182.5c-0.34,0-0.68-0.1-0.97-0.32c-0.73-0.54-0.88-1.56-0.34-2.29c2.87-3.86,5.49-7.85,7.81-11.86
			c0.45-0.78,1.45-1.05,2.23-0.6c0.78,0.45,1.05,1.45,0.6,2.23c-2.38,4.12-5.07,8.21-8.01,12.18
			C815.4,182.27,814.9,182.5,814.41,182.5z"/>
		<path class="st37" d="M828.2,158.83c-0.22,0-0.44-0.04-0.65-0.14c-0.83-0.36-1.21-1.32-0.85-2.15
			c17.78-40.94,2.43-75.45,2.28-75.8c-0.37-0.82-0.01-1.79,0.81-2.16c0.82-0.38,1.79-0.02,2.16,0.8
			c0.16,0.36,16.13,36.13-2.25,78.46C829.43,158.46,828.83,158.83,828.2,158.83z"/>
	</g>
	<g>
		<g>
			<g>
				<path class="st3" d="M815.85,558.5c-13.23-31.54-61.18-127.17-145.99-97.63c-1.25,0.43-1.1,2.25,0.2,2.49
					c18.7,3.47,87.99,20.97,143.57,96.39C814.53,560.98,816.44,559.9,815.85,558.5z"/>
				<path class="st3" d="M815.13,560.47c-19.07-17.97-75.84-87.5-151.23-55.72c-0.83,0.35-0.66,1.58,0.23,1.67
					c18.63,1.97,111.15,13.69,150.64,55.58C815.81,563.11,816.24,561.52,815.13,560.47z"/>
				<path class="st3" d="M813.33,552.58c-1.81-23.77-12.43-113.53-70.24-132.05c-0.42-0.14-0.78,0.35-0.53,0.71
					c6.96,9.82,57.64,82.4,69.86,131.48C812.57,553.27,813.38,553.14,813.33,552.58z"/>
				<path class="st3" d="M819.09,579.82c0.51,0.28,1-0.38,0.59-0.79c-10.21-10.17-52.49-47.56-106.17-29.15
					C652.7,570.74,759.18,547.31,819.09,579.82z"/>
				<path class="st3" d="M817.68,561.19c-0.12,1.78-2.65,1.99-3.05,0.25c-6.41-28.2-20-105.95,19.55-125.72
					C881.01,412.32,824.04,469,817.68,561.19z"/>
				<path class="st3" d="M814.95,561c6.65-17.31,32.26-71.07,85.57-42.03c0.9,0.49,0.61,1.86-0.42,1.92
					c-11.99,0.75-51.87,5.93-83.43,41.13C815.91,562.87,814.55,562.06,814.95,561z"/>
				<path class="st3" d="M816.39,565.34c2.45-10.69,15.2-32.13,80.09-12.49c0.39,0.12,0.29,0.7-0.12,0.66
					c-12.75-1.32-55.84-4.25-76.96,13.68C818.06,568.34,816,567.08,816.39,565.34z"/>
			</g>
			<path class="st3" d="M835.07,857.97l0.02-2.19l0-2.35l-0.03-4.71l-0.06-9.43l-0.27-18.85c-0.17-12.57-0.42-25.13-0.68-37.69
				c-0.57-25.12-1.29-50.23-2.44-75.31c-1.13-25.08-2.68-50.14-5.09-75.1c-1.24-12.48-2.73-24.92-4.74-37.28
				c-1.97-12.36-4.52-24.65-8.65-36.46l1.12-0.46c2.46,5.83,4.61,11.8,6.23,17.91l1.27,4.57c0.4,1.53,0.74,3.07,1.11,4.61l1.1,4.61
				l0.97,4.63c2.51,12.38,4.44,24.86,5.96,37.38c1.56,12.51,2.71,25.07,3.74,37.63c0.96,12.56,1.68,25.14,2.31,37.72
				c0.54,12.58,0.95,25.17,1.25,37.75c0.2,12.59,0.39,25.17,0.32,37.76c-0.01,12.59-0.2,25.17-0.52,37.75l-0.67,18.87l-0.41,9.43
				l-0.28,4.72l-0.16,2.36c-0.07,0.79-0.09,1.53-0.24,2.52L835.07,857.97z"/>
			<g>
				<path class="st3" d="M857,635.74c8.87-21.13,40.98-85.19,97.8-65.4c0.84,0.29,0.74,1.51-0.13,1.67
					c-12.53,2.32-58.95,14.05-96.17,64.57C857.89,637.41,856.61,636.69,857,635.74z"/>
				<path class="st3" d="M857.49,637.07c12.77-12.04,50.8-58.61,101.31-37.33c0.55,0.23,0.44,1.06-0.16,1.12
					c-12.48,1.32-74.46,9.17-100.91,37.23C857.03,638.83,856.75,637.77,857.49,637.07z"/>
				<path class="st3" d="M858.69,631.78c1.21-15.93,8.33-76.05,47.05-88.46c0.28-0.09,0.52,0.23,0.35,0.47
					c-4.67,6.58-38.61,55.2-46.8,88.08C859.2,632.24,858.66,632.16,858.69,631.78z"/>
				<path class="st3" d="M854.84,650.03c-0.34,0.18-0.67-0.26-0.4-0.53c6.84-6.81,35.16-31.86,71.12-19.53
					C966.3,643.94,894.97,628.25,854.84,650.03z"/>
				<path class="st3" d="M855.78,637.55c0.08,1.19,1.78,1.33,2.04,0.17c4.29-18.89,13.4-70.97-13.1-84.22
					C813.36,537.82,851.52,575.79,855.78,637.55z"/>
				<path class="st3" d="M857.61,637.42c-4.45-11.6-21.61-47.61-57.32-28.15c-0.6,0.33-0.41,1.25,0.28,1.29
					c8.03,0.51,34.75,3.97,55.89,27.55C856.96,638.67,857.88,638.13,857.61,637.42z"/>
				<path class="st3" d="M856.64,640.33c-1.64-7.16-10.18-21.53-53.65-8.37c-0.26,0.08-0.19,0.47,0.08,0.44
					c8.54-0.89,37.4-2.85,51.55,9.16C855.53,642.34,856.91,641.49,856.64,640.33z"/>
			</g>
			<path class="st3" d="M848.27,858.35c-0.13-0.79-0.13-1.33-0.18-1.92l-0.11-1.77l-0.2-3.53c-0.13-2.35-0.22-4.7-0.31-7.05
				L847,829.97c-0.31-9.41-0.33-18.82-0.39-28.23c-0.02-9.41-0.04-18.83,0.14-28.24c0.2-9.41,0.42-18.83,0.83-28.24
				c0.42-9.41,0.92-18.82,1.58-28.22c0.72-9.4,1.56-18.8,2.72-28.16l0.91-7.02l1.07-7c0.76-4.66,1.55-9.32,2.57-13.95
				c0.46-2.32,0.99-4.63,1.57-6.92c0.29-1.15,0.56-2.3,0.87-3.44l0.99-3.42c1.28-4.56,2.91-9.04,4.84-13.37l1.12,0.46
				c-1.43,4.45-2.72,8.92-3.66,13.5l-0.73,3.42c-0.23,1.15-0.41,2.3-0.62,3.45l-0.63,3.45l-0.55,3.46
				c-0.36,2.31-0.72,4.62-1.01,6.94c-0.3,2.32-0.67,4.63-0.91,6.96c-0.56,4.65-1.05,9.3-1.54,13.96
				c-1.79,18.65-3.1,37.37-4.02,56.12c-0.91,18.75-1.54,37.52-2.02,56.3c-0.25,9.39-0.32,18.79-0.52,28.18l-0.17,14.09l-0.04,7.05
				l-0.01,3.52l0.02,3.35L848.27,858.35z"/>
			<g>
				<path class="st3" d="M793.96,674.82c-11.33-18.49-50.08-73.69-94.3-45.75c-0.65,0.41-0.35,1.54,0.42,1.55
					c10.97,0.15,52.2,3.64,92.78,45.23C793.52,676.54,794.46,675.65,793.96,674.82z"/>
				<path class="st3" d="M793.79,676.15c-12.96-9.27-53.49-47.01-92.13-18.69c-0.42,0.31-0.18,1.07,0.34,1.03
					c10.75-0.79,64.37-3.5,91.77,18.66C794.5,677.74,794.55,676.69,793.79,676.15z"/>
				<path class="st3" d="M791.81,671.36c-3.93-14.83-20.92-70.4-55.79-75.78c-0.25-0.04-0.4,0.3-0.21,0.5
					c5.13,5.45,42.6,45.78,55.51,75.47C791.47,671.88,791.91,671.71,791.81,671.36z"/>
				<path class="st3" d="M798.4,687.95c0.32,0.12,0.52-0.35,0.24-0.56c-7.01-5.31-35.43-24.32-63.45-6.82
					C703.43,700.39,760.62,673.95,798.4,687.95z"/>
				<path class="st3" d="M795.32,676.33c0.15,1.14-1.25,1.55-1.69,0.49c-7.07-17.12-24.26-64.78-4.37-81.6
					C812.81,575.31,787.62,617.36,795.32,676.33z"/>
				<path class="st3" d="M793.76,676.5c1.63-11.67,9.49-48.45,43.12-35.91c0.57,0.21,0.57,1.11,0,1.26
					c-6.67,1.79-28.53,9.42-42.02,35.11C794.53,677.58,793.66,677.22,793.76,676.5z"/>
				<path class="st3" d="M795.1,679.09c0.07-7.03,4.64-21.97,43.65-16.65c0.23,0.03,0.25,0.41,0.01,0.43
					c-7.35,0.56-32.02,3.42-41.73,17.06C796.41,680.8,795.09,680.23,795.1,679.09z"/>
			</g>
			<path class="st3" d="M841.22,862.01l-1.1-5.8l-1.17-5.94l-2.41-11.88l-4.98-23.72c-1.69-7.9-3.44-15.79-5.24-23.66
				c-1.75-7.88-3.57-15.75-5.44-23.6c-3.77-15.7-7.88-31.31-12.34-46.8l-1.7-5.8l-1.76-5.78c-1.18-3.85-2.38-7.69-3.71-11.49
				c-2.67-7.58-5.44-15.14-9.16-22.25l1.04-0.62c2.2,3.43,4.18,7.02,5.91,10.7c0.89,1.83,1.77,3.67,2.53,5.56
				c0.81,1.87,1.58,3.75,2.3,5.65c2.98,7.56,5.63,15.24,8,23c4.76,15.51,8.65,31.25,12.33,47.01c1.82,7.89,3.58,15.79,5.28,23.7
				c1.63,7.93,3.21,15.86,4.73,23.81c1.52,7.95,3.01,15.9,4.34,23.88l1.98,11.97l0.93,6l0.44,3.01l0.21,1.51
				c0.06,0.51,0.15,0.96,0.18,1.66L841.22,862.01z"/>
		</g>
		<g>
			
				<linearGradient id="SVGID_00000103252904153380965980000004218291719008610446_" gradientUnits="userSpaceOnUse" x1="865.8246" y1="938.7649" x2="846.6492" y2="837.6587">
				<stop  offset="0" style="stop-color:#5560AB"/>
				<stop  offset="1" style="stop-color:#4C57A6"/>
			</linearGradient>
			<path style="fill:url(#SVGID_00000103252904153380965980000004218291719008610446_);" d="M813.13,783.39h51.65
				c3.39,0,5.89,5.1,5.13,10.45c-3.3,23.19-7.27,46.73-15.37,70.61c-1.5,4.41-4.35,7.18-7.45,7.18h-16.85
				c-3.06,0-5.87-2.72-7.32-7.09c-6.49-19.54-12.74-42.84-15.82-69.28C806.37,789.1,809.26,783.39,813.13,783.39z"/>
		</g>
	</g>
</g>
</svg>
