<?xml version="1.0" encoding="utf-8"?>
<!-- Generator: Adobe Illustrator 27.5.0, SVG Export Plug-In . SVG Version: 6.00 Build 0)  -->
<svg version="1.1" id="Layer_1" xmlns="http://www.w3.org/2000/svg" xmlns:xlink="http://www.w3.org/1999/xlink" x="0px" y="0px"
	 viewBox="0 0 400 400" style="enable-background:new 0 0 400 400;" xml:space="preserve">
<style type="text/css">
	.st0{fill:#BDD1EC;}
	.st1{opacity:0.45;}
	.st2{fill:#63B575;}
	.st3{fill:none;stroke:#005E31;stroke-width:1.0165;stroke-miterlimit:10;}
	.st4{fill:#92B2DE;}
	.st5{opacity:0.27;}
	.st6{fill:url(#SVGID_1_);}
	.st7{fill:url(#SVGID_00000062873326091787455200000005708501772229887891_);}
	.st8{fill:url(#SVGID_00000077315475914640592370000005191534113430973861_);}
	.st9{fill:url(#SVGID_00000094581944726218741620000013336507797715591809_);}
	.st10{fill:#FFFFFF;}
	.st11{fill:none;stroke:#3368B2;stroke-width:0.8022;stroke-miterlimit:10;}
	.st12{fill:none;stroke:#FFFFFF;stroke-width:0.7567;stroke-miterlimit:10;}
	.st13{fill:#1F4285;}
	.st14{fill:none;stroke:#3368B2;stroke-width:1.1128;stroke-miterlimit:10;}
	.st15{opacity:0.2;fill:url(#SVGID_00000016760054430148341240000017925810925272759459_);}
	.st16{fill:#3368B2;}
	.st17{opacity:0.2;fill:url(#SVGID_00000160879783382928216780000000475796284189680286_);}
	.st18{opacity:0.2;fill:url(#SVGID_00000147934173959090095380000015624019008397339284_);}
	.st19{fill:#010101;}
	.st20{fill:url(#SVGID_00000013156813737692874370000010390487813284573106_);}
	.st21{fill:#F69793;}
	.st22{fill:none;stroke:#FFFFFF;stroke-width:0.5274;stroke-miterlimit:10;}
	.st23{opacity:0.2;}
	.st24{fill:url(#SVGID_00000023975965321492878040000005929230468844251560_);}
	.st25{fill:#F15F29;}
	.st26{fill:#FFC441;}
	.st27{opacity:0.2;fill:url(#SVGID_00000092451692325464592120000001133593603561020307_);}
	.st28{opacity:0.79;fill:#010101;}
</style>
<g>
	<path class="st0" d="M220.9,13.54c81.04,0,138.18,44.35,154.13,138.03c15.34,90.11,3.57,235.46-166.26,235.46
		C38.94,387.03-2.49,270.06,53.2,177.02C96.15,105.28,99.97,13.54,220.9,13.54z"/>
	<g class="st1">
		<path class="st2" d="M319.51,330.86c-3.96-6.27-10.54,0-10.54,0s30.97-39.19,29.65-47.28c-1.32-8.09-11.86,1.24-11.86,1.24
			s14.23-41.76,5.67-41.39c-8.57,0.37-22.14,37.03-22.14,37.03s-1.37-10.75-9.22-9.06c-10.7,2.3-11.2,52-11.2,52
			s-3.29-8.09-11.1-3.73c-6.82,3.81-6.72,47.84-6.59,58.88c16.05-4.5,27.19-9.98,39.24-17.47
			C315.76,353.25,320.98,333.2,319.51,330.86z"/>
		<line class="st3" x1="326.41" y1="258.76" x2="284.53" y2="370.87"/>
	</g>
	<g class="st1">
		<path class="st2" d="M102.32,330.04c4.19-6.12,10.54,0.39,10.54,0.39s-29.49-40.32-27.87-48.35c1.62-8.04,11.81,1.69,11.81,1.69
			s-12.66-42.26-4.12-41.57s20.74,37.83,20.74,37.83s1.77-10.69,9.56-8.71c10.6,2.7,9.25,52.38,9.25,52.38s3.59-7.96,11.23-3.32
			c6.68,4.06,4.81,49.67,4.26,60.7c-16.27-4.59-27.39-6.36-40.43-13C103.23,360.08,100.76,332.32,102.32,330.04z"/>
		<line class="st3" x1="98.11" y1="257.73" x2="135.78" y2="371.32"/>
	</g>
	<path class="st4" d="M107.8,68.39l100.44,93.83c38.74,36.19,97.58,40.19,140.86,9.58l26.21-18.53c0,0,0-0.01,0-0.01
		C359.76,58.42,302.42,13.54,220.9,13.54C160.43,13.54,129.24,36.48,107.8,68.39z"/>
	<g>
		<g class="st5">
			<linearGradient id="SVGID_1_" gradientUnits="userSpaceOnUse" x1="297.5287" y1="141.5924" x2="297.5287" y2="80.25">
				<stop  offset="0.129" style="stop-color:#010101"/>
				<stop  offset="1" style="stop-color:#FFFFFF"/>
			</linearGradient>
			<path class="st6" d="M302.93,131.4c0,2.98-2.42,5.4-5.4,5.4c-2.98,0-5.4-2.42-5.4-5.4c0-2.98,2.42-5.4,5.4-5.4
				C300.51,126,302.93,128.42,302.93,131.4z"/>
			<g>
				
					<linearGradient id="SVGID_00000084520180790294800110000004680958239114703268_" gradientUnits="userSpaceOnUse" x1="297.5276" y1="141.5923" x2="297.5276" y2="80.2502">
					<stop  offset="0.129" style="stop-color:#010101"/>
					<stop  offset="1" style="stop-color:#FFFFFF"/>
				</linearGradient>
				<path style="fill:url(#SVGID_00000084520180790294800110000004680958239114703268_);" d="M284.23,127.47
					c-0.46,0-0.92-0.08-1.37-0.25c-2.04-0.76-3.09-3.03-2.33-5.08c2.62-7.08,9.45-11.83,17-11.83c7.54,0,14.37,4.75,17,11.82
					c0.76,2.04-0.28,4.32-2.33,5.08c-2.05,0.76-4.32-0.28-5.08-2.33c-1.48-3.99-5.33-6.66-9.59-6.66c-4.26,0-8.11,2.68-9.59,6.67
					C287.35,126.48,285.84,127.47,284.23,127.47z"/>
			</g>
			<g>
				
					<linearGradient id="SVGID_00000162354425717435280130000012238826599126147204_" gradientUnits="userSpaceOnUse" x1="297.5312" y1="141.5925" x2="297.5312" y2="80.2502">
					<stop  offset="0.129" style="stop-color:#010101"/>
					<stop  offset="1" style="stop-color:#FFFFFF"/>
				</linearGradient>
				<path style="fill:url(#SVGID_00000162354425717435280130000012238826599126147204_);" d="M320.96,117.82
					c-1.32,0-2.61-0.66-3.36-1.86c-4.35-6.99-11.86-11.16-20.08-11.16c-8.21,0-15.72,4.17-20.07,11.15
					c-1.15,1.85-3.59,2.41-5.44,1.26c-1.85-1.15-2.41-3.59-1.26-5.44c5.8-9.31,15.81-14.87,26.78-14.87
					c10.96,0,20.98,5.56,26.78,14.88c1.15,1.85,0.59,4.29-1.27,5.44C322.4,117.63,321.68,117.82,320.96,117.82z"/>
			</g>
			<g>
				
					<linearGradient id="SVGID_00000042717957428378273310000003465111134799980189_" gradientUnits="userSpaceOnUse" x1="297.5312" y1="141.5923" x2="297.5312" y2="80.25">
					<stop  offset="0.129" style="stop-color:#010101"/>
					<stop  offset="1" style="stop-color:#FFFFFF"/>
				</linearGradient>
				<path style="fill:url(#SVGID_00000042717957428378273310000003465111134799980189_);" d="M330.68,108.56
					c-1.23,0-2.44-0.57-3.21-1.64c-6.92-9.61-18.12-15.35-29.94-15.35c-11.82,0-23.01,5.74-29.94,15.34
					c-1.27,1.77-3.74,2.17-5.51,0.9c-1.77-1.27-2.17-3.74-0.89-5.51c8.4-11.66,21.99-18.62,36.35-18.62
					c14.36,0,27.95,6.96,36.35,18.63c1.28,1.77,0.87,4.24-0.89,5.52C332.28,108.32,331.48,108.56,330.68,108.56z"/>
			</g>
		</g>
		<g>
			<path class="st10" d="M301.45,128.28c0,2.98-2.42,5.4-5.4,5.4c-2.98,0-5.4-2.42-5.4-5.4c0-2.98,2.42-5.4,5.4-5.4
				C299.03,122.88,301.45,125.29,301.45,128.28z"/>
			<g>
				<path class="st10" d="M282.75,124.34c-0.46,0-0.92-0.08-1.37-0.25c-2.04-0.76-3.09-3.03-2.33-5.08
					c2.62-7.08,9.45-11.83,17-11.83c7.54,0,14.37,4.75,17,11.82c0.76,2.04-0.28,4.32-2.33,5.08c-2.05,0.76-4.32-0.28-5.08-2.33
					c-1.48-3.99-5.33-6.66-9.59-6.66c-4.26,0-8.11,2.68-9.59,6.67C285.87,123.35,284.36,124.34,282.75,124.34z"/>
			</g>
			<g>
				<path class="st10" d="M319.48,114.69c-1.32,0-2.61-0.66-3.36-1.86c-4.35-6.99-11.86-11.16-20.08-11.16
					c-8.21,0-15.72,4.17-20.07,11.15c-1.15,1.85-3.59,2.41-5.44,1.26c-1.85-1.15-2.41-3.59-1.26-5.44
					c5.8-9.31,15.81-14.87,26.78-14.87c10.96,0,20.98,5.56,26.78,14.88c1.15,1.85,0.59,4.29-1.27,5.44
					C320.92,114.5,320.19,114.69,319.48,114.69z"/>
			</g>
			<g>
				<path class="st10" d="M329.2,105.43c-1.23,0-2.44-0.57-3.21-1.64c-6.92-9.61-18.12-15.35-29.94-15.35
					c-11.82,0-23.01,5.74-29.94,15.34c-1.27,1.77-3.74,2.17-5.51,0.89c-1.77-1.27-2.17-3.74-0.89-5.51
					c8.4-11.66,21.99-18.62,36.35-18.62c14.36,0,27.95,6.96,36.35,18.63c1.28,1.77,0.87,4.24-0.89,5.52
					C330.8,105.19,330,105.43,329.2,105.43z"/>
			</g>
		</g>
	</g>
	<g>
		<path class="st2" d="M71.57,326.43c3.69-6.43,10.53-0.44,10.53-0.44S49.52,288.14,50.5,280c0.98-8.14,11.9,0.75,11.9,0.75
			s-15.97-41.12-7.4-41.11c8.57,0.01,23.68,36.07,23.68,36.07s0.92-10.8,8.84-9.44c10.79,1.85,13.38,51.49,13.38,51.49
			s2.95-8.22,10.94-4.2c6.98,3.52,8.73,49.13,9.06,60.17c-17.93-6.77-28.9-13.15-41.24-21.14C74.96,344.92,70.2,328.83,71.57,326.43
			z"/>
		<line class="st3" x1="61.65" y1="254.68" x2="108.2" y2="364.93"/>
	</g>
	<g>
		<line class="st11" x1="168.77" y1="54.58" x2="168.77" y2="59.85"/>
		<line class="st11" x1="168.77" y1="64.98" x2="168.77" y2="70.25"/>
		<line class="st11" x1="176.61" y1="62.41" x2="171.33" y2="62.41"/>
		<line class="st11" x1="166.21" y1="62.41" x2="160.93" y2="62.41"/>
	</g>
	<g>
		<line class="st12" x1="329.32" y1="205.72" x2="329.32" y2="211"/>
		<line class="st12" x1="329.32" y1="216.12" x2="329.32" y2="221.4"/>
		<line class="st12" x1="337.15" y1="213.56" x2="331.88" y2="213.56"/>
		<line class="st12" x1="326.75" y1="213.56" x2="321.48" y2="213.56"/>
	</g>
	<g>
		<line class="st12" x1="122.17" y1="123.56" x2="122.17" y2="128.84"/>
		<line class="st12" x1="122.17" y1="133.96" x2="122.17" y2="139.24"/>
		<line class="st12" x1="130.01" y1="131.4" x2="124.73" y2="131.4"/>
		<line class="st12" x1="119.61" y1="131.4" x2="114.33" y2="131.4"/>
	</g>
	<g>
		<g>
			<g>
				<path class="st13" d="M256.18,258.88h-37.42h-37.42l-30.48,122.9c13.15,2.58,27.43,4.26,42.87,4.93l25.04-70.34l24.36,68.44
					c15.49-2.09,29.35-5.62,41.72-10.36L256.18,258.88z"/>
				<line class="st14" x1="180.59" y1="290.18" x2="156.95" y2="382.9"/>
				<line class="st14" x1="256.62" y1="290.18" x2="278.43" y2="375.7"/>
				
					<linearGradient id="SVGID_00000093158948629527988890000003689630750016910750_" gradientUnits="userSpaceOnUse" x1="218.7598" y1="270.7515" x2="218.7598" y2="367.856">
					<stop  offset="0.129" style="stop-color:#010101"/>
					<stop  offset="1" style="stop-color:#FFFFFF"/>
				</linearGradient>
				<path style="opacity:0.2;fill:url(#SVGID_00000093158948629527988890000003689630750016910750_);" d="M256.18,258.88h-37.42
					h-37.42l-15.53,62.59c32.88-4.22,52.95-32.03,52.95-32.03s20.06,27.8,52.95,32.03L256.18,258.88z"/>
				<path class="st16" d="M265.92,144.42l-6.49,31.31l29.49,49.84l-36.74,30.69l8.41,14.51l43.33-28.71
					c6.74-4.47,9.39-13.05,6.38-20.55C300.9,198.11,280.34,150.68,265.92,144.42z"/>
				
					<linearGradient id="SVGID_00000158708713198392071880000003787350628425592476_" gradientUnits="userSpaceOnUse" x1="256.4955" y1="154.1432" x2="298.5488" y2="206.4761">
					<stop  offset="0.129" style="stop-color:#010101"/>
					<stop  offset="1" style="stop-color:#FFFFFF"/>
				</linearGradient>
				<path style="opacity:0.2;fill:url(#SVGID_00000158708713198392071880000003787350628425592476_);" d="M265.92,144.42
					l-6.49,31.31l15.34,25.93l15.26-25.07C281.89,161,273.14,147.55,265.92,144.42z"/>
				<path class="st16" d="M171.45,144.42c-19.26,8.36-40.99,100.51-40.99,100.51l26.68-12.65l20.8-56.54L171.45,144.42z"/>
				
					<linearGradient id="SVGID_00000098196838769052232460000005868030407196087206_" gradientUnits="userSpaceOnUse" x1="184.6133" y1="160.6942" x2="130.8818" y2="203.6061">
					<stop  offset="0.129" style="stop-color:#010101"/>
					<stop  offset="1" style="stop-color:#FFFFFF"/>
				</linearGradient>
				<path style="opacity:0.2;fill:url(#SVGID_00000098196838769052232460000005868030407196087206_);" d="M168.8,200.58l9.14-24.84
					l-6.49-31.31c-5.42,2.35-11.04,11.35-16.31,23.06L168.8,200.58z"/>
				<path class="st13" d="M262.22,249.1l3.85-104.68c0,0-26.96-5.97-47.31-5.97s-47.31,5.97-47.31,5.97l3.85,104.68l-9.9,59.08
					c33.01-1.66,53.37-29.9,53.37-29.9s20.36,28.24,53.36,29.9L262.22,249.1z"/>
				<path class="st13" d="M262.22,249.1l3.85-104.68c0,0-26.96-5.97-47.31-5.97s-47.31,5.97-47.31,5.97l3.85,104.68l-9.9,59.08
					c33.01-1.66,53.37-29.9,53.37-29.9s20.36,28.24,53.36,29.9L262.22,249.1z"/>
				<g>
					<path class="st19" d="M199.5,107.61l-2.49-9.15c0,0-6.11-3.92-7.57-7.84c-3.9-10.46,12.07-23.8,28.56-20.96
						c16.02,2.76,16.69,10.05,16.69,10.05s8.19,1.71,7.71,10.19c-0.48,8.48-6.34,18.88-6.34,18.88L199.5,107.61z"/>
					
						<linearGradient id="SVGID_00000032608416362151566130000012676329893786135943_" gradientUnits="userSpaceOnUse" x1="225.4653" y1="141.8467" x2="225.164" y2="126.7849" gradientTransform="matrix(0.9792 0.2027 -0.2027 0.9792 24.2373 -43.0148)">
						<stop  offset="0.194" style="stop-color:#F69793"/>
						<stop  offset="1" style="stop-color:#F37A73"/>
					</linearGradient>
					<polygon style="fill:url(#SVGID_00000032608416362151566130000012676329893786135943_);" points="229.35,141.5 207.77,142.06 
						207.41,118.92 228.99,118.59 					"/>
					<path class="st21" d="M239.13,102.61c-1.98-0.24-3.52,0.67-4.54,1.59c0.06-1.77,0.07-3.61-0.02-5.6c0,0-17.77-0.33-22.16-11.86
						c-3.04,8.65-10.9,12.37-10.9,12.37c-0.03,2.1,0.04,4.04,0.17,5.89c-1.04-0.97-2.71-2.06-4.9-1.73
						c-3.77,0.57,0.42,15.09,6.54,11.17c0,0,0,0,0,0c2.71,8.76,8.28,14.93,15.19,14.82c6.87-0.11,12.23-6.42,14.69-15.17
						C239.28,117.26,242.86,103.06,239.13,102.61z"/>
				</g>
				<path class="st16" d="M218.76,210.54l13.82-71.22c-4.64-0.51-9.42-0.87-13.82-0.87c-4.4,0-9.18,0.35-13.82,0.87L218.76,210.54z"
					/>
				<polyline class="st22" points="235.35,142.47 248.38,153.28 236.24,171.35 247.34,182.75 218.76,224.45 190.17,182.75 
					201.28,171.35 189.14,153.28 202.17,142.47 				"/>
				<line class="st22" x1="218.76" y1="224.45" x2="218.76" y2="270.77"/>
				<circle class="st10" cx="226.11" cy="234.49" r="3.23"/>
				<circle class="st10" cx="226.11" cy="253.04" r="3.23"/>
				<path class="st21" d="M252.85,246.94h10.5c2.21,0,4.07,1.67,4.31,3.87l1.67,15.3c0.27,2.52-1.7,4.71-4.23,4.71l-6.16-0.03
					c-2.44-0.01-4.57-1.67-5.17-4.04l-4.02-15.83C249.24,248.91,250.76,246.94,252.85,246.94z"/>
			</g>
		</g>
		<g class="st23">
			
				<linearGradient id="SVGID_00000116194707393422295810000016237738890278458806_" gradientUnits="userSpaceOnUse" x1="127.3256" y1="183.6409" x2="127.3256" y2="325.0304">
				<stop  offset="0.129" style="stop-color:#010101"/>
				<stop  offset="1" style="stop-color:#FFFFFF"/>
			</linearGradient>
			<path style="fill:url(#SVGID_00000116194707393422295810000016237738890278458806_);" d="M124.04,160.69
				c-17.02,16.84-43.91,26.85-53.4,30.01c-2.02,0.67-3.29,2.61-3.06,4.65l5.75,52.31c1.74,15.8,9.49,30.43,21.76,41.08l24.63,21.35
				c4.33,3.75,10.9,3.75,15.23,0l24.63-21.35c12.27-10.64,20.02-25.27,21.76-41.08l5.75-52.31c0.23-2.05-1.04-3.98-3.06-4.65
				c-9.49-3.16-36.38-13.17-53.4-30.01C128.81,158.9,125.85,158.9,124.04,160.69z"/>
		</g>
		<g>
			<path class="st25" d="M118.88,155.83c-17.02,16.84-43.91,26.85-53.4,30.01c-2.02,0.67-3.29,2.61-3.06,4.65l5.75,52.31
				c1.74,15.8,9.49,30.43,21.76,41.08l24.63,21.35c4.33,3.75,10.9,3.75,15.23,0l24.63-21.35c12.27-10.64,20.02-25.27,21.76-41.08
				l5.75-52.31c0.23-2.05-1.04-3.98-3.06-4.65c-9.49-3.16-36.38-13.17-53.4-30.01C123.65,154.04,120.69,154.04,118.88,155.83z"/>
			<path class="st26" d="M122.17,299.07c-0.38,0-1.11-0.08-1.74-0.62L95.81,277.1c-10.58-9.17-17.22-21.7-18.71-35.28l-5.35-48.66
				c11.85-4.22,34.1-13.45,50.42-28.11c16.32,14.66,38.57,23.9,50.42,28.11l-5.34,48.66c-1.49,13.58-8.14,26.11-18.72,35.28
				l-24.63,21.35C123.28,298.99,122.55,299.07,122.17,299.07z"/>
			
				<linearGradient id="SVGID_00000114069789041283264210000007443750916592845497_" gradientUnits="userSpaceOnUse" x1="116.2442" y1="232.0631" x2="134.7816" y2="232.0631">
				<stop  offset="0.129" style="stop-color:#010101"/>
				<stop  offset="1" style="stop-color:#FFFFFF"/>
			</linearGradient>
			<path style="opacity:0.2;fill:url(#SVGID_00000114069789041283264210000007443750916592845497_);" d="M122.17,165.05v134.02h0
				c0.38,0,1.11-0.08,1.74-0.62l24.63-21.35c10.58-9.17,17.23-21.7,18.72-35.28l5.34-48.66
				C160.74,188.95,138.5,179.71,122.17,165.05L122.17,165.05z"/>
			<g>
				<path class="st28" d="M134.19,221.47c0-7.43-6.74-13.28-14.43-11.78c-4.78,0.93-8.59,4.84-9.42,9.64
					c-0.78,4.48,0.94,8.6,3.99,11.23c0.85,0.73,1.23,1.87,0.95,2.95l-4.27,16.32c-0.43,1.64,0.81,3.25,2.51,3.25h8.65h8.77
					c1.64,0,2.84-1.55,2.43-3.14l-4.3-16.43c-0.28-1.07,0.08-2.2,0.92-2.93C132.56,228.38,134.19,225.12,134.19,221.47z"/>
				<path class="st19" d="M129.45,221.47c0-5.82-4.14-10.68-9.65-11.78c-5.5,1.1-9.65,5.95-9.65,11.78c0,3.65,1.63,6.91,4.2,9.11
					c0.84,0.72,1.2,1.85,0.92,2.92l-4.3,16.44c-0.42,1.59,0.78,3.14,2.43,3.14h4.03h4.74h4.87c1.21,0,2.1-1.15,1.79-2.32l-4.5-17.19
					c-0.29-1.11,0.09-2.27,0.95-3.02C127.84,228.34,129.45,225.09,129.45,221.47z"/>
			</g>
		</g>
	</g>
	<g>
		<path class="st2" d="M343.43,321.91c-3.96-6.27-10.54,0-10.54,0s30.97-39.19,29.65-47.28c-1.32-8.09-11.86,1.24-11.86,1.24
			s14.23-41.76,5.67-41.39c-8.57,0.37-22.14,37.03-22.14,37.03s-1.37-10.75-9.22-9.06c-10.7,2.3-11.2,52-11.2,52
			s-3.29-8.09-11.1-3.73c-6.82,3.81-6.72,47.84-6.59,58.88c16.72-8,30.39-18.41,41.46-30.53
			C341.9,331.24,344.9,324.25,343.43,321.91z"/>
		<line class="st3" x1="350.34" y1="249.81" x2="308.45" y2="361.92"/>
	</g>
</g>
</svg>
