<?xml version="1.0" encoding="utf-8"?>
<!-- Generator: Adobe Illustrator 27.5.0, SVG Export Plug-In . SVG Version: 6.00 Build 0)  -->
<svg version="1.1" id="Layer_1" xmlns="http://www.w3.org/2000/svg" xmlns:xlink="http://www.w3.org/1999/xlink" x="0px" y="0px"
	 viewBox="0 0 400 400" style="enable-background:new 0 0 400 400;" xml:space="preserve">
<style type="text/css">
	.st0{fill:#F3FAFE;}
	.st1{fill:#E9ECF1;}
	.st2{fill:#9CACD8;}
	.st3{fill:#FFFFFF;}
	.st4{fill:#BCC7E6;}
	.st5{fill:#304982;}
	.st6{fill:#4D6BB3;}
	.st7{fill:#A5C2E6;}
	.st8{fill:#E3E9F6;}
	.st9{fill:#405B9F;}
	.st10{fill:#FCC65B;}
	.st11{fill:#F39B51;}
	.st12{fill:#FEE5A6;}
	.st13{fill:#FBB37E;}
	.st14{fill:#FCC49D;}
	.st15{fill:#F9A77E;}
	.st16{fill:#758EC8;}
	.st17{fill:#6779BA;}
	.st18{fill:#384363;}
	.st19{fill:#334C88;}
	.st20{fill:#FBBA8E;}
	.st21{fill:#5E75B9;}
	.st22{fill:#7D94CB;}
</style>
<g>
	<g>
		<g>
			<path class="st0" d="M120.77,274.47c-34.32,0.13-67.37-22.72-77.68-53.72c-3.89-11.69-4.05-26.1,5.46-34.41
				c7.4-6.47,18.3-7.3,28.23-8.88c9.93-1.59,20.99-5.34,24.59-14.25c2.7-6.69,0.27-14.11-0.32-21.24
				c-1.46-17.7,10.02-35.69,27.24-42.71s38.91-2.55,51.49,10.62c4.98,5.22,8.54,11.51,13.1,17.06s10.62,10.56,17.98,11.58
				c12.69,1.75,23.21-8.45,34.53-14.17c20.96-10.6,49.71-4.41,63.76,13.73c5.81,7.5,9.31,16.65,16.33,23.15
				c6.83,6.33,16.27,9.46,23.83,14.99c17.07,12.48,21.95,36.57,13.92,55.52c-8.02,18.96-26.98,32.57-47.71,38.22
				c-20.73,5.64-43.03,4.06-63.95-0.89c-8.38-1.98-16.98-4.51-25.5-3.15c-8.94,1.43-16.44,6.93-24.32,11.18
				c-28.18,15.2-65.25,14.25-92.52-2.38L120.77,274.47z"/>
		</g>
	</g>
	<g>
		<g>
			<g>
				<g>
					<path class="st1" d="M355,306.38c0,4.08-69.4,7.39-155.01,7.39c-85.61,0-155.01-3.31-155.01-7.39c0-4.08,69.4-7.39,155.01-7.39
						C285.59,298.99,355,302.3,355,306.38z"/>
				</g>
			</g>
		</g>
	</g>
	<g>
		<g>
			<g>
				<g>
					<g>
						<g>
							<g>
								<g>
									<g>
										<path class="st2" d="M45.41,190.22c0,0.15-0.01,0.3-0.01,0.46c-0.55,18.7,1.37,33.27,4.62,44.63l9.64,5.99l-7.92-1.23
											l-0.23-0.03c4.3,12.48,10.24,20.55,15.86,25.73c3.49,3.23,6.86,5.35,9.62,6.72c0.18,0.09,0.36,0.18,0.54,0.26
											c0.44,0.21,0.88,0.4,1.29,0.58l5.3,0.28c0.07-0.25,0.14-0.49,0.21-0.74c0.05-0.15,0.09-0.31,0.13-0.46
											c0.06-0.2,0.11-0.41,0.16-0.61c6.26-24.14-1.63-43.39-11.94-57.11c-0.03-0.05-0.06-0.09-0.1-0.14
											c-3.59-4.76-7.47-8.86-11.14-12.26l-2.34,5.97l-0.34-8.36c-6.39-5.52-11.71-8.74-13.02-9.5
											C45.51,190.28,45.41,190.22,45.41,190.22z"/>
									</g>
								</g>
							</g>
						</g>
					</g>
				</g>
			</g>
		</g>
		<g>
			<g>
				<g>
					<g>
						<g>
							<g>
								<g>
									<g>
										<g>
											<polygon class="st3" points="45.22,190.31 45.39,190.68 56.28,213.47 56.47,213.87 59.44,220.08 59.54,220.29 69,240.1 
												69.02,240.13 84.43,272.41 84.67,272.89 85.04,273.66 85.5,273.68 85.13,272.92 84.6,271.8 69.38,239.94 69.1,239.35 
												45.72,190.4 45.59,190.13 											"/>
										</g>
									</g>
								</g>
							</g>
						</g>
					</g>
				</g>
			</g>
		</g>
		<g>
			<g>
				<g>
					<g>
						<g>
							<g>
								<g>
									<g>
										
											<rect x="52.58" y="207.51" transform="matrix(0.5668 -0.8238 0.8238 0.5668 -154.8513 136.9024)" class="st3" width="0.36" height="16.38"/>
									</g>
								</g>
							</g>
						</g>
					</g>
				</g>
			</g>
		</g>
		<g>
			<g>
				<g>
					<g>
						<g>
							<g>
								<g>
									<g>
										
											<rect x="51.03" y="203.77" transform="matrix(0.5666 -0.824 0.824 0.5666 -151.0045 133.3025)" class="st3" width="0.36" height="12.84"/>
									</g>
								</g>
							</g>
						</g>
					</g>
				</g>
			</g>
		</g>
		<g>
			<g>
				<g>
					<g>
						<g>
							<g>
								<g>
									<g>
										
											<rect x="57.93" y="227.17" transform="matrix(0.1286 -0.9917 0.9917 0.1286 -163.7293 268.3622)" class="st3" width="25.82" height="0.36"/>
									</g>
								</g>
							</g>
						</g>
					</g>
				</g>
			</g>
		</g>
		<g>
			<g>
				<g>
					<g>
						<g>
							<g>
								<g>
									<g>
										<path class="st4" d="M86.23,277.75c0,0-12.56,5.94-30.44-4.72l5.8-2.75l-9.46,0.38c-6.98-4.88-14.63-12.32-22.58-23.51
											l2.21-1.05l-2.87,0.11c-1.34-1.91-2.69-3.94-4.04-6.07c0,0,5.25-0.47,12.75,0.4l3.85,5.22l-1.09-4.84
											C55.71,243.24,78.04,251.28,86.23,277.75z"/>
									</g>
								</g>
							</g>
						</g>
					</g>
				</g>
			</g>
		</g>
		<g>
			<g>
				<g>
					<g>
						<g>
							<g>
								<g>
									<g>
										<g>
											
												<rect x="55.82" y="222.26" transform="matrix(0.5046 -0.8634 0.8634 0.5046 -195.3031 176.3556)" class="st3" width="0.4" height="72.2"/>
										</g>
									</g>
								</g>
							</g>
						</g>
					</g>
				</g>
			</g>
		</g>
		<g>
			<g>
				<g>
					<g>
						<g>
							<g>
								<g>
									<g>
										
											<rect x="32.13" y="250.05" transform="matrix(0.9947 -0.1026 0.1026 0.9947 -25.4691 5.0747)" class="st3" width="8.97" height="0.37"/>
									</g>
								</g>
							</g>
						</g>
					</g>
				</g>
			</g>
		</g>
		<g>
			<g>
				<g>
					<g>
						<g>
							<g>
								<g>
									<g>
										
											<rect x="34.87" y="252.93" transform="matrix(0.9845 -0.1754 0.1754 0.9845 -43.7799 10.9687)" class="st3" width="10.57" height="0.37"/>
									</g>
								</g>
							</g>
						</g>
					</g>
				</g>
			</g>
		</g>
		<g>
			<g>
				<g>
					<g>
						<g>
							<g>
								<g>
									<g>
										<g>
											<path class="st5" d="M71.55,254.84l0.31-0.35c-5.23-4.65-11.6-8.28-18.93-10.78l-0.15,0.45
												C60.05,246.64,66.36,250.23,71.55,254.84z"/>
										</g>
									</g>
								</g>
							</g>
						</g>
					</g>
				</g>
			</g>
		</g>
	</g>
	<g>
		<g>
			<g>
				<g>
					<g>
						<g>
							<g>
								<g>
									<path class="st6" d="M83.47,139.55v161.03c0,2.25,1.82,4.07,4.07,4.07h79.15c2.25,0,4.07-1.82,4.07-4.07V139.55
										c0-2.25-1.82-4.07-4.07-4.07H87.54C85.29,135.48,83.47,137.3,83.47,139.55z"/>
								</g>
							</g>
						</g>
					</g>
				</g>
			</g>
		</g>
		<g>
			<g>
				<g>
					<g>
						<g>
							<g>
								<g>
									<path class="st7" d="M79.72,139.55v161.03c0,2.25,1.82,4.07,4.07,4.07h79.15c2.25,0,4.07-1.82,4.07-4.07V139.55
										c0-2.25-1.82-4.07-4.07-4.07H83.79C81.54,135.48,79.72,137.3,79.72,139.55z"/>
								</g>
							</g>
						</g>
					</g>
				</g>
			</g>
		</g>
		<g>
			<g>
				<g>
					<g>
						<g>
							<g>
								<g>
									<path class="st8" d="M86.01,155.54v127.63c0,2.6,1.97,4.71,4.4,4.71h66.5c2.43,0,4.4-2.11,4.4-4.71V155.54
										c0-2.6-1.97-4.71-4.4-4.71h-66.5C87.98,150.83,86.01,152.94,86.01,155.54z"/>
								</g>
							</g>
						</g>
					</g>
				</g>
			</g>
		</g>
		<g>
			<g>
				<g>
					<g>
						<g>
							<g>
								<g>
									<path class="st3" d="M84.11,283.18V155.54c0-3.12,2.45-5.65,5.46-5.65h68.2c3.01,0,5.46,2.53,5.46,5.65v127.63
										c0,3.11-2.45,5.65-5.46,5.65h-68.2C86.56,288.82,84.11,286.29,84.11,283.18z M89.57,151.78c-1.97,0-3.57,1.69-3.57,3.76
										v127.63c0,2.08,1.6,3.76,3.57,3.76h68.2c1.97,0,3.57-1.69,3.57-3.76V155.54c0-2.08-1.6-3.76-3.57-3.76H89.57z"/>
								</g>
							</g>
						</g>
					</g>
				</g>
			</g>
		</g>
		<g>
			<g>
				<g>
					<g>
						<g>
							<g>
								<g>
									<path class="st9" d="M162.94,304.99H98.43v-0.66h64.52c2.06,0,3.74-1.68,3.74-3.74V139.55c0-2.06-1.68-3.74-3.74-3.74
										H83.79v-0.66h79.15c2.43,0,4.4,1.97,4.4,4.4v161.03C167.35,303.01,165.37,304.99,162.94,304.99z"/>
								</g>
							</g>
							<g>
								<g>
									<rect x="79.39" y="145.27" class="st9" width="0.66" height="38.27"/>
								</g>
							</g>
						</g>
					</g>
				</g>
			</g>
		</g>
	</g>
	<g>
		<g>
			<g>
				<g>
					<g>
						<g>
							<path class="st10" d="M210.45,126.55c-11.12,0.31-19.88,9.59-19.57,20.71c0.31,11.12,9.59,19.89,20.71,19.57
								c11.12-0.31,19.89-9.59,19.57-20.71C230.85,134.99,221.58,126.23,210.45,126.55z M227.23,146.23
								c0.12,4.33-1.45,8.45-4.43,11.6c-2.97,3.15-6.99,4.95-11.33,5.07c-8.94,0.25-16.42-6.81-16.67-15.76
								c-0.12-4.33,1.45-8.45,4.42-11.6c2.87-3.04,6.72-4.82,10.88-5.05c0.15-0.01,0.3-0.01,0.45-0.02
								c8.79-0.25,16.17,6.58,16.65,15.31C227.22,145.93,227.23,146.08,227.23,146.23z"/>
						</g>
					</g>
				</g>
			</g>
		</g>
		<g>
			<g>
				<g>
					<g>
						<g>
							<path class="st11" d="M227.21,145.79c0.01,0.15,0.02,0.29,0.02,0.44c0.12,4.33-1.45,8.45-4.43,11.6
								c-2.97,3.15-6.99,4.95-11.33,5.07c-8.94,0.25-16.42-6.81-16.67-15.76c-0.12-4.33,1.45-8.45,4.42-11.6
								c2.87-3.04,6.72-4.82,10.88-5.05c0.15-0.01,0.3-0.01,0.45-0.02C219.36,130.23,226.73,137.06,227.21,145.79z"/>
						</g>
					</g>
				</g>
			</g>
		</g>
		<g>
			<g>
				<g>
					<g>
						<g>
							<g>
								<path class="st10" d="M210.68,159.13l-0.17-3.05c-1.75,0.07-3.59-0.38-4.69-1.07l0.61-2.06c1.13,0.66,2.73,1.15,4.42,1.06
									c2.14-0.12,3.52-1.44,3.43-3.16c-0.09-1.66-1.33-2.62-3.61-3.4c-3.14-1.04-5.12-2.32-5.27-4.94
									c-0.14-2.5,1.54-4.5,4.29-5.11l-0.17-3.05l1.87-0.1l0.16,2.93c1.81-0.04,3.08,0.37,3.98,0.84l-0.64,2.03
									c-0.65-0.33-1.93-0.92-3.86-0.81c-2.32,0.13-3.12,1.57-3.05,2.77c0.09,1.57,1.25,2.29,3.93,3.23
									c3.18,1.09,4.83,2.58,4.98,5.26c0.13,2.38-1.4,4.71-4.48,5.39l0.17,3.14L210.68,159.13z"/>
							</g>
						</g>
					</g>
				</g>
			</g>
		</g>
		<g>
			<g>
				<g>
					<g>
						<g>
							<path class="st5" d="M226.32,141.77c-0.04-0.13-0.09-0.26-0.13-0.39c-1.53-4.37-4.86-7.85-9.15-9.57l0.16-0.41
								c4.41,1.77,7.83,5.35,9.39,9.81c0.06,0.16,0.1,0.29,0.14,0.43L226.32,141.77z"/>
						</g>
					</g>
				</g>
			</g>
		</g>
		<g>
			<g>
				<g>
					<g>
						<g>
							<path class="st5" d="M217.04,131.81c-3.45-1.39-7.3-1.53-10.83-0.39l-0.13-0.42c3.63-1.17,7.59-1.02,11.13,0.4L217.04,131.81
								z"/>
						</g>
					</g>
				</g>
			</g>
		</g>
		<g>
			<g>
				<g>
					<g>
						<g>
							<path class="st5" d="M225.7,154.18l-0.39-0.2c0.97-1.89,1.56-3.91,1.73-6l0.44,0.04C227.3,150.16,226.7,152.24,225.7,154.18z
								"/>
						</g>
					</g>
				</g>
			</g>
		</g>
		<g>
			<g>
				<g>
					<g>
						<g>
							<g>
								<path class="st5" d="M223.28,131c-1.63-1.28-3.44-2.29-5.37-3l0.16-0.44c1.98,0.73,3.83,1.77,5.5,3.07L223.28,131z"/>
							</g>
						</g>
					</g>
				</g>
			</g>
		</g>
		<g>
			<g>
				<g>
					<g>
						<g>
							<g>
								<path class="st5" d="M223.31,162.95l-0.28-0.38c5.13-3.88,8.08-10.03,7.9-16.45c-0.11-3.99-1.4-7.8-3.71-11.03l0.38-0.27
									c2.37,3.31,3.69,7.21,3.8,11.29C231.58,152.68,228.56,158.98,223.31,162.95z"/>
							</g>
						</g>
					</g>
				</g>
			</g>
		</g>
	</g>
	<g>
		<g>
			<g>
				<g>
					<g>
						<g>
							<g>
								<path class="st10" d="M259.25,163.93c-9.37-0.75-17.57,6.23-18.32,15.6c-0.75,9.37,6.23,17.57,15.6,18.32
									c9.37,0.75,17.57-6.23,18.32-15.6C275.6,172.88,268.62,164.68,259.25,163.93z M271.54,181.98
									c-0.29,3.65-1.99,6.96-4.78,9.33c-2.78,2.37-6.32,3.52-9.97,3.23c-7.53-0.61-13.16-7.22-12.55-14.75
									c0.29-3.65,1.98-6.96,4.77-9.33c2.69-2.29,6.08-3.44,9.59-3.25c0.13,0.01,0.25,0.02,0.38,0.03c7.4,0.59,12.97,7,12.58,14.37
									C271.56,181.73,271.55,181.86,271.54,181.98z"/>
							</g>
						</g>
					</g>
				</g>
			</g>
			<g>
				<g>
					<g>
						<g>
							<g>
								<path class="st11" d="M271.56,181.61c-0.01,0.12-0.01,0.25-0.02,0.37c-0.29,3.65-1.99,6.96-4.78,9.33
									c-2.78,2.37-6.32,3.52-9.97,3.23c-7.53-0.61-13.16-7.22-12.55-14.75c0.29-3.65,1.98-6.96,4.77-9.33
									c2.69-2.29,6.08-3.44,9.59-3.25c0.13,0.01,0.25,0.02,0.38,0.03C266.39,167.83,271.95,174.24,271.56,181.61z"/>
							</g>
						</g>
					</g>
				</g>
			</g>
			<g>
				<g>
					<g>
						<g>
							<g>
								<g>
									<path class="st10" d="M256.47,191.3l0.14-2.57c-1.48-0.1-2.98-0.64-3.84-1.33l0.7-1.67c0.88,0.66,2.18,1.21,3.61,1.29
										c1.81,0.1,3.09-0.88,3.16-2.34c0.07-1.4-0.87-2.32-2.72-3.18c-2.54-1.16-4.09-2.41-3.97-4.63c0.11-2.11,1.7-3.64,4.06-3.9
										l0.14-2.57l1.58,0.08l-0.13,2.47c1.53,0.13,2.55,0.59,3.27,1.07l-0.73,1.65c-0.52-0.33-1.53-0.95-3.16-1.04
										c-1.96-0.1-2.76,1.03-2.82,2.05c-0.07,1.33,0.84,2.04,3.01,3.07c2.57,1.21,3.82,2.6,3.7,4.87
										c-0.11,2.01-1.61,3.82-4.25,4.12l-0.14,2.65L256.47,191.3z"/>
								</g>
							</g>
						</g>
					</g>
				</g>
			</g>
			<g>
				<g>
					<g>
						<g>
							<g>
								<path class="st5" d="M271.18,178.16c-0.02-0.11-0.05-0.23-0.07-0.34c-0.89-3.81-3.37-7.03-6.81-8.87l0.17-0.33
									c3.54,1.89,6.09,5.2,6.99,9.09c0.03,0.14,0.06,0.25,0.08,0.37L271.18,178.16z"/>
							</g>
						</g>
					</g>
				</g>
			</g>
			<g>
				<g>
					<g>
						<g>
							<g>
								<path class="st5" d="M264.3,168.95c-2.77-1.48-5.98-1.95-9.06-1.32l-0.07-0.36c3.16-0.65,6.46-0.16,9.31,1.36L264.3,168.95z
									"/>
							</g>
						</g>
					</g>
				</g>
			</g>
			<g>
				<g>
					<g>
						<g>
							<g>
								<path class="st5" d="M269.53,188.52l-0.31-0.2c0.99-1.5,1.66-3.14,2-4.88l0.36,0.07
									C271.24,185.29,270.54,186.98,269.53,188.52z"/>
							</g>
						</g>
					</g>
				</g>
			</g>
			<g>
				<g>
					<g>
						<g>
							<g>
								<g>
									<path class="st5" d="M269.62,168.84c-1.25-1.22-2.68-2.23-4.24-3.01l0.18-0.36c1.6,0.8,3.05,1.83,4.34,3.08L269.62,168.84z
										"/>
								</g>
							</g>
						</g>
					</g>
				</g>
			</g>
			<g>
				<g>
					<g>
						<g>
							<g>
								<g>
									<path class="st5" d="M266.72,195.66l-0.2-0.34c4.66-2.79,7.7-7.68,8.13-13.09c0.27-3.36-0.46-6.68-2.11-9.6l0.35-0.2
										c1.69,2.99,2.44,6.39,2.16,9.83C274.6,187.8,271.49,192.81,266.72,195.66z"/>
								</g>
							</g>
						</g>
					</g>
				</g>
			</g>
		</g>
		<g>
			<g>
				<g>
					<g>
						<path class="st12" d="M246.49,171.09c0.75,0.74,1.14,1.63,1.28,2.64l0,0c0.7-0.74,1.54-1.24,2.58-1.41l0,0
							c-0.75-0.74-1.15-1.64-1.29-2.64l0,0C248.37,170.42,247.53,170.92,246.49,171.09z"/>
					</g>
				</g>
			</g>
		</g>
	</g>
	<g>
		<g>
			<path class="st13" d="M177.84,227.68c5.54-0.85,25.65-8.54,25.65-8.54s-1.48-2.87-6.8-2.11c-5.33,0.76-18.93,4.23-18.93,4.23
				L177.84,227.68z"/>
		</g>
	</g>
	<g>
		<g>
			<g>
				<g>
					<g>
						<g>
							<path class="st10" d="M180.54,180.81c-11.67-0.39-21.44,8.75-21.84,20.42c-0.39,11.67,8.75,21.45,20.42,21.84
								c11.67,0.39,21.45-8.75,21.84-20.42C201.36,190.98,192.21,181.2,180.54,180.81z M196.84,202.51
								c-0.15,4.54-2.07,8.75-5.39,11.86c-3.32,3.1-7.64,4.73-12.19,4.58c-9.37-0.32-16.75-8.2-16.43-17.58
								c0.15-4.54,2.06-8.75,5.38-11.86c3.2-2.99,7.35-4.62,11.72-4.59c0.16,0,0.31,0.01,0.47,0.01c9.22,0.31,16.5,7.94,16.45,17.11
								C196.85,202.2,196.85,202.36,196.84,202.51z"/>
						</g>
					</g>
				</g>
			</g>
		</g>
		<g>
			<g>
				<g>
					<g>
						<g>
							<path class="st11" d="M196.85,202.05c0,0.15,0,0.31-0.01,0.46c-0.15,4.54-2.07,8.75-5.39,11.86
								c-3.32,3.1-7.64,4.73-12.19,4.58c-9.38-0.32-16.75-8.2-16.43-17.58c0.15-4.54,2.06-8.75,5.38-11.86
								c3.2-2.99,7.35-4.62,11.72-4.59c0.16,0,0.31,0.01,0.47,0.01C189.63,185.24,196.91,192.88,196.85,202.05z"/>
						</g>
					</g>
				</g>
			</g>
		</g>
		<g>
			<g>
				<g>
					<g>
						<g>
							<g>
								<path class="st10" d="M178.68,214.95l0.02-3.2c-1.84-0.04-3.74-0.63-4.84-1.43l0.77-2.12c1.14,0.77,2.78,1.38,4.56,1.39
									c2.25,0.01,3.78-1.28,3.79-3.08c0.01-1.74-1.22-2.83-3.56-3.79c-3.23-1.29-5.21-2.76-5.2-5.52c0.02-2.63,1.9-4.62,4.82-5.07
									l0.02-3.2l1.97,0.01l-0.02,3.08c1.9,0.08,3.2,0.59,4.11,1.14l-0.81,2.09c-0.66-0.38-1.96-1.09-3.99-1.1
									c-2.44-0.02-3.37,1.44-3.38,2.71c-0.01,1.65,1.16,2.48,3.91,3.64c3.26,1.35,4.89,3.01,4.88,5.83
									c-0.02,2.5-1.77,4.84-5.04,5.36l-0.02,3.3L178.68,214.95z"/>
							</g>
						</g>
					</g>
				</g>
			</g>
		</g>
		<g>
			<g>
				<g>
					<g>
						<g>
							<path class="st5" d="M196.18,197.79c-0.03-0.14-0.07-0.28-0.11-0.41c-1.32-4.67-4.58-8.53-8.96-10.62l0.2-0.42
								c4.5,2.14,7.85,6.11,9.2,10.88c0.05,0.17,0.09,0.31,0.12,0.45L196.18,197.79z"/>
						</g>
					</g>
				</g>
			</g>
		</g>
		<g>
			<g>
				<g>
					<g>
						<g>
							<path class="st5" d="M187.1,186.75c-3.52-1.68-7.54-2.07-11.32-1.11l-0.11-0.45c3.88-0.99,8.01-0.58,11.63,1.14L187.1,186.75
								z"/>
						</g>
					</g>
				</g>
			</g>
		</g>
		<g>
			<g>
				<g>
					<g>
						<g>
							<path class="st5" d="M194.72,210.73l-0.4-0.24c1.14-1.92,1.88-3.99,2.2-6.17l0.46,0.07
								C196.66,206.63,195.9,208.77,194.72,210.73z"/>
						</g>
					</g>
				</g>
			</g>
		</g>
		<g>
			<g>
				<g>
					<g>
						<g>
							<g>
								<path class="st5" d="M193.7,186.31c-1.62-1.44-3.45-2.62-5.43-3.49l0.2-0.45c2.03,0.89,3.9,2.1,5.56,3.57L193.7,186.31z"/>
							</g>
						</g>
					</g>
				</g>
			</g>
		</g>
		<g>
			<g>
				<g>
					<g>
						<g>
							<g>
								<path class="st5" d="M191.66,219.77l-0.27-0.41c5.62-3.73,9.11-9.98,9.33-16.72c0.14-4.19-0.96-8.26-3.18-11.79l0.42-0.26
									c2.27,3.61,3.39,7.79,3.25,12.07C200.98,209.55,197.41,215.95,191.66,219.77z"/>
							</g>
						</g>
					</g>
				</g>
			</g>
		</g>
	</g>
	<g>
		<g>
			<path class="st14" d="M185.4,216.69c0,0-0.5-5.87-8.96-6.26c-6.55-0.3-8.71-3.89-14.12-4.4c-5.22-0.49-10.57,2.11-10.57,2.11
				s-2.64,1.06-5.27,1.32c-5.12,0.5-9.02-1.82-9.02-1.82l0.08,18.09c0,0,13.78-1.18,16.65-0.51c2.87,0.68,16.31,6.51,21.85,5.66
				c5.54-0.85,25.65-8.54,25.65-8.54s-1.23-3.38-6.55-2.62c-5.33,0.76-10.06,2.45-11.67,2.54c-1.61,0.08-3.04-0.51-3.04-0.51
				l-12.76-5.33C173.99,217.09,179.95,217.26,185.4,216.69z"/>
		</g>
	</g>
	<g>
		<g>
			<path class="st9" d="M113.95,216.39c0,4.65,0.19,9.13,0.54,13.3c0,0.03,0,0.06,0.01,0.09c1.35,15.99,5.04,27.47,9.4,27.47
				c4.5,0,8.3-12.27,9.53-29.11v-0.18l0.22-19.59v-0.16c-0.92-18.66-4.94-32.7-9.75-32.7c-4.68,0-8.6,13.29-9.66,31.19
				c0,0.03,0,0.06,0,0.08C114.05,209.88,113.95,213.09,113.95,216.39z"/>
		</g>
	</g>
	<g>
		<g>
			<g>
				<g>
					<path class="st9" d="M135.17,232.63c-1.91,17.21-6.72,28.62-12.16,28.62c-4.64,0-8.82-8.1-11.17-21.65l0.6-0.08
						c2.27,13.07,6.32,21.19,10.57,21.19c5.02,0,9.67-11.41,11.54-28.01L135.17,232.63z"/>
				</g>
			</g>
		</g>
		<g>
			<g>
				<g>
					<path class="st9" d="M110.24,225.23c-0.16-2.87-0.25-5.85-0.25-8.84c0-3.48,0.12-7.01,0.36-10.48c0-0.01,0-0.03,0-0.05l0-0.04
						c0.33-4.8,0.89-9.35,1.65-13.52l0.6,0.09c-0.76,4.15-1.31,8.68-1.64,13.46c0,0.01,0,0.03,0,0.05l0,0.04
						c-0.24,3.46-0.36,6.98-0.36,10.45c0,2.98,0.08,5.95,0.25,8.81L110.24,225.23z"/>
				</g>
			</g>
		</g>
		<g>
			<g>
				<g>
					<path class="st9" d="M135.25,200.96l-0.6,0.02c-1.8-16.99-6.51-28.9-11.64-28.9c-3.2,0-6.38,4.69-8.71,12.88l-0.59-0.13
						c2.44-8.57,5.74-13.29,9.29-13.29c3.03,0,5.85,3.37,8.16,9.73C133.02,186.39,134.44,193.27,135.25,200.96z"/>
				</g>
			</g>
		</g>
	</g>
	<g>
		<g>
			<g>
				<g>
					<g>
						<path class="st12" d="M194.19,140.44c1.6,0.81,2.71,2.07,3.46,3.63l0,0c0.75-1.57,1.86-2.82,3.47-3.64l0,0
							c-1.6-0.81-2.71-2.07-3.47-3.63l0,0C196.89,138.37,195.79,139.63,194.19,140.44z"/>
					</g>
				</g>
			</g>
		</g>
		<g>
			<g>
				<g>
					<g>
						<path class="st12" d="M199.69,149.96c0.93,0.47,1.57,1.2,2.01,2.11l0,0c0.44-0.91,1.08-1.64,2.01-2.11l0,0
							c-0.93-0.47-1.58-1.2-2.01-2.11l0,0C201.27,148.76,200.62,149.49,199.69,149.96z"/>
					</g>
				</g>
			</g>
		</g>
	</g>
	<g>
		<g>
			<path class="st15" d="M137.49,211.4l0.07,14.34c0,0,2.27-0.19,5.15-0.38c-0.15-3.31-0.72-11.64-2.76-15.55
				C139.44,208.83,138.57,209.58,137.49,211.4z"/>
		</g>
	</g>
	<g>
		<g>
			<path class="st5" d="M178.64,217.25c-3.17,0-6.7-0.21-10.9-0.64l0.05-0.44c5.12,0.53,9.22,0.72,12.91,0.61l0.01,0.44
				C180.04,217.24,179.35,217.25,178.64,217.25z"/>
		</g>
	</g>
	<g>
		<g>
			<path class="st5" d="M183.18,222.5c-1.49,0-2.75-0.51-2.8-0.53l-5.2-2.17l0.17-0.41l5.2,2.17c0.01,0.01,1.42,0.57,2.95,0.49
				c0.66-0.03,1.9-0.36,3.47-0.77c2.15-0.56,5.09-1.32,8.18-1.77c5.44-0.77,6.78,2.73,6.79,2.76l-0.41,0.15
				c-0.05-0.13-1.24-3.2-6.31-2.48c-3.07,0.44-5.99,1.2-8.13,1.76c-1.6,0.42-2.86,0.74-3.56,0.78
				C183.4,222.5,183.29,222.5,183.18,222.5z"/>
		</g>
	</g>
	<g>
		<g>
			<path class="st5" d="M147.93,210.48l-0.24-0.37c3.17-2.09,7.96-3.45,8-3.46l0.12,0.42C155.77,207.09,151.05,208.43,147.93,210.48
				z"/>
		</g>
	</g>
	<g>
		<g>
			<path class="st16" d="M140.34,224.5c-0.15,1.36-0.36,2.73-0.6,4.12l-4.32,0.44l-1.35,0.14l-0.76,0.08l-18.43,1.9
				c0-0.04,0-0.07-0.01-0.1c-0.38-5.09-0.58-10.55-0.58-16.24c0-3.81,0.09-7.51,0.26-11.08c0.01-0.21,0.02-0.41,0.03-0.62
				c0-0.03,0-0.06,0-0.09h0.02l18.92,1.75l0.66,0.06l1.45,0.13l4.08,0.37C140.89,211.56,141.11,217.94,140.34,224.5z"/>
		</g>
	</g>
	<g>
		<g>
			<path class="st17" d="M140.34,224.5c-0.16,1.36-0.37,2.73-0.63,4.12l-4.49,0.44l-1.15,0.11l-1.03,0.1l-18.16,1.8l-0.09,0.01
				c-0.04-0.48-0.09-0.97-0.13-1.46c0-0.03,0-0.06-0.01-0.1c-0.36-4.19-0.56-8.69-0.56-13.37c0-3.32,0.11-6.55,0.29-9.65
				c0-0.03,0-0.05,0-0.08c0.05-0.9,0.12-1.79,0.18-2.67c0.01-0.21,0.02-0.41,0.03-0.62h0.02l1.98,0.18
				c0.37,4.19,1.69,15.17,5.37,18.18c2.56,2.09,7.96,2.73,12.24,2.9c3.39,0.13,6.08-0.04,6.08-0.04L140.34,224.5z"/>
		</g>
	</g>
	<g>
		<g>
			<g>
				<g>
					<g>
						<path class="st18" d="M298.63,160.97c0,0-1.64-1.24-0.73-2.95c0.66-1.24,2.86-1.71,2.86-1.71c-0.66,0.85-0.95,3.31-1.62,4.15
							L298.63,160.97z"/>
					</g>
				</g>
			</g>
		</g>
		<g>
			<g>
				<g>
					<g>
						<g>
							<g>
								<path class="st14" d="M304.1,177.83c0,0,2.48-5.52-0.33-9.62l5.04-2.78c0,0,1.56,8.24,5.15,15.3
									C311.24,183.14,304.5,183.06,304.1,177.83z"/>
							</g>
						</g>
					</g>
				</g>
			</g>
			<g>
				<g>
					<g>
						<g>
							<g>
								<path class="st18" d="M303.77,168.21c0.99,1.44,1.32,3.06,1.34,4.55c2.41-1.69,4.37-5.47,4.37-5.47L303.77,168.21z"/>
							</g>
						</g>
					</g>
				</g>
			</g>
			<g>
				<g>
					<g>
						<g>
							<g>
								<path class="st14" d="M309.97,168.07c-0.9,1.15-4.86,4.45-7.59,4.09c-3.44-0.45-5.51-12.89-2.63-15.25
									c1.55-1.27,5.85-1.05,8.28,1.79C310.45,161.54,311.17,166.54,309.97,168.07z"/>
							</g>
						</g>
					</g>
				</g>
			</g>
		</g>
		<g>
			<g>
				<g>
					<g>
						<g>
							<path class="st18" d="M288.8,292.4c9.62,4.19,18.4,0,18.4,0l-9.48-2.91L288.8,292.4z"/>
						</g>
					</g>
				</g>
			</g>
		</g>
		<g>
			<g>
				<g>
					<g>
						<g>
							<path class="st18" d="M335.92,287.56c0,0-5.93,7.47-17.75,5.49l0.19-7.36L335.92,287.56z"/>
						</g>
					</g>
				</g>
			</g>
		</g>
		<g>
			<g>
				<g>
					<g>
						<g>
							<g>
								<path class="st14" d="M336.22,292.62l-2.87-6.33l-6.92,2.35l3.67,5.84C331.67,296.76,336.19,295.46,336.22,292.62z"/>
							</g>
						</g>
					</g>
				</g>
			</g>
		</g>
		<g>
			<g>
				<g>
					<g>
						<g>
							<g>
								<path class="st14" d="M300.55,297.36l1.26-6.91h-7.31l-0.35,6.71C294.91,299.81,299.6,300.04,300.55,297.36z"/>
							</g>
						</g>
					</g>
				</g>
			</g>
		</g>
		<g>
			<g>
				<g>
					<g>
						<g>
							<path class="st9" d="M335.92,287.56c-5.17,3.02-11.08,4.86-17.75,5.49c0,0-25.1-36.38-19.69-79.93h18.4
								C316.88,213.12,312.4,246.78,335.92,287.56z"/>
						</g>
					</g>
				</g>
			</g>
		</g>
		<g>
			<g>
				<g>
					<g>
						<path class="st19" d="M303.81,262.4c2.91,8.98,6.37,16.44,9.16,21.76l5.96-41.04c-1.12-5.62-1.75-10.64-2.07-14.88l-1.88-7.28
							L303.81,262.4z"/>
					</g>
				</g>
			</g>
		</g>
		<g>
			<g>
				<g>
					<g>
						<g>
							<path class="st9" d="M288.59,292.47c5.79,0.78,11.89,0.86,18.4,0l10.1-59.63c0,0,4.36-4.62,5.45-11.3
								c0.33-1.99,0.36-4.16-0.1-6.44c-0.12-0.63-0.28-1.26-0.48-1.91l-0.63-0.09l-7.54-1.04l-1.78-0.25l-13.79-1.91L288.59,292.47z
								"/>
						</g>
					</g>
				</g>
			</g>
		</g>
		<g>
			<g>
				<g>
					<path class="st19" d="M301.51,214.01c4.56,5.42,16.39,7.08,21.03,7.53c0.33-1.99,0.36-4.16-0.1-6.44l-1.12-2l0,0l-7.54-1.04
						l-1.78-0.25L301.51,214.01z"/>
				</g>
			</g>
		</g>
		<g>
			<g>
				<g>
					<g>
						<g>
							<g>
								<g>
									<path class="st4" d="M296.46,212.66c1.08,0.66,2.29,1.26,3.59,1.8c1.74,0.72,3.63,1.34,5.58,1.86
										c9.42,2.55,20.04,2.97,20.04,2.97c-3.97-13.27-0.62-25.39-3.4-34.96c-1.89-6.49-7.98-9.51-7.98-9.51
										c-2.06,1.37-7.44,3.83-9.72,1.76c-0.29-0.26-0.74-0.23-0.98,0.08c-9.49,12.3-6.67,18.08-6.59,27.21
										C297.03,207.93,296.46,212.66,296.46,212.66z"/>
								</g>
							</g>
						</g>
					</g>
				</g>
			</g>
		</g>
		<g>
			<g>
				<g>
					<g>
						<g>
							
								<rect x="290.42" y="255.42" transform="matrix(0.1588 -0.9873 0.9873 0.1588 11.3852 524.6854)" class="st3" width="46.38" height="0.48"/>
						</g>
					</g>
				</g>
			</g>
		</g>
		<g>
			<g>
				<g>
					<g>
						<path class="st18" d="M298.71,158.21c-0.43-1.36,0.43-1.94,1.42-2.98c1.01-1.06,2.61-1.13,3.99-0.85
							c1.28,0.26,2.54,0.78,3.48,1.72c1.64,1.65,2.01,6.11-0.88,6.25C302.16,162.56,299.45,160.56,298.71,158.21z"/>
					</g>
				</g>
			</g>
		</g>
		<g>
			<g>
				<g>
					<g>
						<path class="st18" d="M308.66,165.33c-0.62-1.86-2.14-2.99-3.3-4.58l-6.15-3.83c1.51-2.29,6.24-4.1,9.34-2.97
							c3.31,1.21,5.23,4.61,6.99,9.71c1.04,3.02,2.94,4.97,3.9,5.88c8.83,8.4,9.14,17,3.76,20.37c-4.03,2.52-7.3,1.08-9.27-0.32
							C307.93,185.32,307.95,169.65,308.66,165.33z"/>
					</g>
				</g>
			</g>
		</g>
		<g>
			<g>
				<g>
					<g>
						<path class="st18" d="M302.97,163.58c1.86,0.28,3.59-0.28,3.69-0.31l-0.11-0.34c-0.03,0.01-3.06,0.99-5.31-0.31
							c-1.17-0.68-1.93-1.86-2.27-3.51l-0.35,0.07c0.36,1.76,1.18,3.02,2.45,3.75C301.67,163.28,302.32,163.48,302.97,163.58z"/>
					</g>
				</g>
			</g>
		</g>
		<g>
			<g>
				<g>
					<g>
						<path class="st14" d="M306.51,164.04c-0.13,0.88,0.47,1.71,1.35,1.84c0.88,0.13,1.71-0.47,1.84-1.35
							c0.13-0.88-0.47-1.71-1.35-1.84C307.47,162.55,306.65,163.16,306.51,164.04z"/>
					</g>
				</g>
			</g>
		</g>
		<g>
			<g>
				<g>
					<g>
						<g>
							<g>
								<path class="st18" d="M323.77,304.65l8.61,0.01c0.25,0,0.48-0.1,0.65-0.28l8.04-8.43c0.31-0.32,0.3-0.83-0.01-1.14
									l-3.69-3.56c-0.45-0.45-1.5-0.35-1.46,0.29c0.24,3.08-3.42,3.61-5.66,3.12c-0.28-0.06-0.57,0.11-0.65,0.39
									c-0.32,1.16-0.73,3.81-1.26,4.52c-0.94,1.25-2.35,1.54-3.46,2.11C322.89,302.71,323.77,304.65,323.77,304.65z"/>
							</g>
						</g>
					</g>
				</g>
			</g>
			<g>
				<g>
					<g>
						<g>
							<path class="st3" d="M330.93,299.44c-1.46,0.38-2.21-0.82-2.22-0.84l0.28-0.17c0.03,0.04,0.64,1,1.86,0.69L330.93,299.44z"/>
						</g>
					</g>
				</g>
			</g>
			<g>
				<g>
					<g>
						<g>
							<path class="st3" d="M330.02,300.95c-1.41,0.27-2.09-0.74-2.12-0.79l0.28-0.18c0.02,0.04,0.6,0.87,1.78,0.64L330.02,300.95z"
								/>
						</g>
					</g>
				</g>
			</g>
			<g>
				<g>
					<g>
						<g>
							<path class="st3" d="M334.95,295.5c-1.17,0.51-2.47,0.43-2.49,0.43l0.02-0.33c0.03,0,3.27,0.19,3.9-2.11l0.32,0.09
								C336.43,294.59,335.71,295.17,334.95,295.5z"/>
						</g>
					</g>
				</g>
			</g>
			<g>
				<g>
					<g>
						<g>
							
								<rect x="330.93" y="299.52" transform="matrix(0.7004 -0.7137 0.7137 0.7004 -113.3335 329.3481)" class="st3" width="9.5" height="0.33"/>
						</g>
					</g>
				</g>
			</g>
		</g>
		<g>
			<g>
				<g>
					<g>
						<g>
							<g>
								<g>
									<g>
										<g>
											<path class="st18" d="M302.01,304.59l-18.78,0.07c-0.65,0-1.18-0.55-1.13-1.2c0-0.01,0-0.02,0-0.02
												c0.01-0.14,0.03-0.29,0.05-0.44c0.06-0.5,0.2-1,0.43-1.31c0.89-1.18,2.61-1.73,5.69-2.96c1.93-0.78,3.57-1.8,4.29-2.28
												c0.23-0.16,0.54-0.12,0.74,0.08c3.73,3.62,6.01,2.84,6.68,1.34c0.52-1.14,1.26-0.91,1.46-0.57
												c0.63,1.04,0.98,4.11,1.13,5.65c0.02,0.16,0.03,0.32,0.04,0.44c0.02,0.29,0.04,0.46,0.04,0.46
												C302.72,304.22,302.42,304.59,302.01,304.59z"/>
										</g>
									</g>
								</g>
							</g>
						</g>
					</g>
				</g>
			</g>
			<g>
				<g>
					<g>
						<g>
							<g>
								<path class="st3" d="M289.34,300.68c-1.34-0.64-1.14-2.02-1.14-2.03l0.32,0.05c-0.01,0.05-0.15,1.16,0.96,1.69
									L289.34,300.68z"/>
							</g>
						</g>
					</g>
				</g>
				<g>
					<g>
						<g>
							<g>
								<path class="st3" d="M287.69,301.24c-1.23-0.69-1.1-1.88-1.1-1.93l0.32,0.04c0,0.04-0.1,1.03,0.93,1.61L287.69,301.24z"/>
							</g>
						</g>
					</g>
				</g>
				<g>
					<g>
						<g>
							<g>
								<path class="st3" d="M298.29,300.38c-1.26,0-2.4-0.56-2.41-0.57l0.15-0.29c0.03,0.02,2.88,1.44,4.34-0.39l0.25,0.2
									C299.98,300.13,299.11,300.38,298.29,300.38z"/>
							</g>
						</g>
					</g>
				</g>
			</g>
			<g>
				<g>
					<g>
						<g>
							<g>
								
									<rect x="289.38" y="303.15" transform="matrix(1 -3.698697e-03 3.698697e-03 1 -1.1198 1.0926)" class="st3" width="10.94" height="0.33"/>
							</g>
						</g>
					</g>
				</g>
				<g>
					<g>
						<g>
							<g>
								
									<rect x="285.39" y="303.18" transform="matrix(1 -3.732423e-03 3.732423e-03 1 -1.1302 1.0721)" class="st3" width="2.59" height="0.33"/>
							</g>
						</g>
					</g>
				</g>
			</g>
		</g>
		<g>
			<g>
				<path class="st2" d="M300.06,214.45c1.74,0.72,3.63,1.34,5.58,1.86c2.73-3.05,8.72-8.55,9.28-21.35L300.06,214.45z"/>
			</g>
		</g>
		<g>
			<g>
				<g>
					<path class="st4" d="M294.03,217.64c17.81-4.04,20.88-22.68,20.88-22.68s-2.94-8.2-6.54-8.5l-0.1-0.01
						c-3.6-0.3-6.71,2.46-6.88,6.07c-0.32,6.47-1.59,14.51-9.64,19.27L294.03,217.64z"/>
				</g>
			</g>
		</g>
		<g>
			<g>
				<g>
					<path class="st5" d="M291.86,211.99l-0.22-0.38c7.42-4.4,8.44-11.53,9.34-17.82c0.06-0.44,0.12-0.87,0.19-1.29
						c0.33-2.19,1.44-7.55,4.78-9.95l0.26,0.36c-3.2,2.3-4.28,7.52-4.6,9.66c-0.06,0.42-0.12,0.85-0.19,1.29
						C300.54,199.93,299.46,207.49,291.86,211.99z"/>
				</g>
			</g>
		</g>
		<g>
			<g>
				<path class="st5" d="M309.69,207.46l-0.33-0.29c3.07-3.51,5.21-11.17,5.23-11.25l0.42,0.12
					C314.92,196.35,312.83,203.87,309.69,207.46z"/>
			</g>
		</g>
		<g>
			<g>
				<path class="st3" d="M304.67,221.88c-0.15-0.08-3.7-1.88-4.16-5.11l0.44-0.06c0.43,2.99,3.89,4.76,3.92,4.77L304.67,221.88z"/>
			</g>
		</g>
		<g>
			<g>
				<g>
					<path class="st20" d="M287.25,217.57c0.04,0.15-3.12,0.8-2.94,1.31c0.25,0.67,2.78-0.53,2.92-0.24
						c0.07,0.15-0.9,0.41-1.46,0.64c-0.31,0.13-0.26,0.4-0.03,0.42c2.34,0.22,5.66-2.19,6.05-2.27c0.68-0.14,1.33-0.29,1.97-0.45
						l-1.69-4.33c-0.32,0.22-0.65,0.43-0.99,0.63c-0.43,0.25-1.62,0.97-2.11,0.98c-0.46,0.01-2.95-0.24-2.95,0.3
						c0,0.56,1.75,0.37,1.67,0.81c-0.05,0.27-3.47,0.69-3.22,1.32c0.16,0.41,2.2-0.13,2.21,0.11c0,0.22-2.64,0.36-2.43,0.98
						C284.47,218.44,287.17,217.27,287.25,217.57z"/>
				</g>
			</g>
		</g>
	</g>
	<g>
		<g>
			<g>
				<g>
					<path class="st21" d="M236.02,251l-5.35,21.29c-0.01,0.06,0,0.12,0.03,0.17c0.03,0.05,0.08,0.08,0.13,0.1c0,0,0,0,0,0
						l6.38,1.61c0.06,0.02,0.12,0,0.18-0.03c0.05-0.03,0.09-0.09,0.09-0.15l3.21-21.82c0.01-0.11-0.05-0.22-0.16-0.25l-4.24-1.06
						C236.17,250.81,236.05,250.88,236.02,251z"/>
				</g>
			</g>
		</g>
		<g>
			<g>
				<path class="st18" d="M235.39,250.75l-0.64-0.16l0.93-3.69c0.54-2.16-0.94-4.4-3.31-5l-0.98-0.24c-1.15-0.29-2.33-0.15-3.34,0.4
					c-0.99,0.54-1.69,1.41-1.95,2.44l-0.93,3.69l-0.64-0.16l0.93-3.69c0.31-1.22,1.11-2.23,2.27-2.86c1.15-0.62,2.5-0.78,3.81-0.46
					l0.98,0.24c2.72,0.68,4.42,3.28,3.79,5.8L235.39,250.75z"/>
			</g>
		</g>
		<g>
			<g>
				<g>
					<path class="st16" d="M209.42,266.92c-0.02,0.06-0.01,0.12,0.01,0.18c0.03,0.05,0.08,0.09,0.14,0.11l21.25,5.33
						c0.11,0.03,0.22-0.03,0.26-0.14l7.48-20.75c0.02-0.06,0.02-0.13-0.01-0.18c-0.03-0.05-0.08-0.09-0.14-0.11l-21.25-5.34
						c-0.11-0.03-0.22,0.03-0.26,0.14L209.42,266.92z"/>
				</g>
			</g>
		</g>
		<g>
			<g>
				<path class="st18" d="M232.58,251.89l-0.64-0.16l1.36-5.42c0.54-2.16-0.94-4.4-3.31-5l-0.97-0.24c-1.15-0.29-2.33-0.15-3.34,0.4
					c-0.99,0.54-1.69,1.41-1.95,2.44l-1.36,5.42l-0.64-0.16l1.36-5.42c0.31-1.22,1.11-2.23,2.27-2.86c1.15-0.62,2.5-0.78,3.81-0.46
					l0.97,0.24c2.72,0.68,4.42,3.28,3.79,5.8L232.58,251.89z"/>
			</g>
		</g>
	</g>
	<g>
		<g>
			<g>
				<g>
					<path class="st22" d="M261,223.31l-11.21,35.64c-0.04,0.11,0.03,0.24,0.14,0.27l8.59,2.7c0.06,0.02,0.12,0.01,0.18-0.02
						c0.05-0.03,0.09-0.08,0.1-0.14l8.34-36.53c0.03-0.11-0.05-0.24-0.15-0.26l-5.72-1.81c-0.05-0.02-0.12-0.01-0.17,0.01
						C261.06,223.21,261.01,223.25,261,223.31z"/>
				</g>
			</g>
		</g>
		<g>
			<g>
				<g>
					<path class="st9" d="M259.3,222.79l-0.55-0.17l1.52-4.85c0.44-1.41,0.31-2.91-0.38-4.23c-0.69-1.32-1.84-2.29-3.25-2.73
						l-1.18-0.37c-2.92-0.92-6.04,0.71-6.96,3.63l-1.53,4.85l-0.55-0.17l1.53-4.85c0.49-1.55,1.56-2.83,3.01-3.59
						c1.45-0.76,3.11-0.91,4.67-0.42l1.18,0.37c1.55,0.49,2.83,1.56,3.58,3.01c0.76,1.45,0.91,3.11,0.42,4.67L259.3,222.79z"/>
				</g>
			</g>
		</g>
		<g>
			<g>
				<g>
					<path class="st2" d="M221.21,249.93c-0.02,0.06-0.02,0.12,0.01,0.18c0.02,0.05,0.07,0.1,0.13,0.12c0,0,0,0,0,0l28.58,8.99
						c0.11,0.04,0.23-0.02,0.27-0.12l14.08-34.72c0.02-0.06,0.02-0.12,0-0.18c-0.03-0.06-0.07-0.08-0.13-0.12l-28.59-8.99
						c-0.11-0.04-0.23,0.02-0.27,0.13L221.21,249.93z"/>
				</g>
			</g>
		</g>
		<g>
			<g>
				<g>
					<path class="st9" d="M255.72,224.16l-0.55-0.17l2.24-7.12c0.92-2.92-0.71-6.04-3.63-6.96l-1.18-0.37
						c-2.92-0.92-6.04,0.71-6.96,3.63l-2.24,7.12l-0.55-0.17l2.24-7.12c1.01-3.22,4.46-5.02,7.68-4l1.18,0.37
						c1.55,0.49,2.83,1.56,3.59,3.01c0.76,1.45,0.91,3.11,0.42,4.67L255.72,224.16z"/>
				</g>
			</g>
		</g>
	</g>
	<g>
		<g>
			<g>
				<g>
					<path class="st11" d="M225.81,226.99l4.69,21.44c0.02,0.06,0.05,0.11,0.1,0.14c0.05,0.03,0.11,0.04,0.16,0.03c0,0,0,0,0,0
						l6.43-1.41c0.06-0.01,0.11-0.05,0.14-0.11c0.03-0.05,0.04-0.12,0.02-0.18l-6.85-20.97c-0.04-0.1-0.14-0.17-0.26-0.15
						l-4.27,0.94C225.86,226.75,225.78,226.87,225.81,226.99z"/>
				</g>
			</g>
		</g>
		<g>
			<g>
				<g>
					<path class="st9" d="M214.26,229.43l-0.81-3.71c-0.27-1.21,0-2.47,0.75-3.54c0.75-1.06,1.88-1.8,3.18-2.09l0.98-0.22
						c1.31-0.29,2.64-0.08,3.76,0.57c1.13,0.66,1.9,1.69,2.16,2.9l0.81,3.71l-0.56,0.12l-0.81-3.71c-0.23-1.06-0.9-1.95-1.89-2.53
						c-1-0.58-2.19-0.76-3.35-0.5l-0.98,0.22c-1.17,0.26-2.17,0.92-2.84,1.86c-0.66,0.94-0.89,2.03-0.66,3.09l0.81,3.71
						L214.26,229.43z"/>
				</g>
			</g>
		</g>
		<g>
			<g>
				<g>
					<path class="st10" d="M209.09,253.1c0.01,0.06,0.04,0.12,0.09,0.16c0.05,0.03,0.11,0.05,0.17,0.04l21.4-4.69
						c0.11-0.02,0.18-0.12,0.17-0.24l-2.55-21.91c-0.01-0.07-0.04-0.12-0.09-0.16c-0.05-0.03-0.11-0.04-0.17-0.04l-21.4,4.69
						c-0.11,0.02-0.18,0.13-0.17,0.24L209.09,253.1z"/>
				</g>
			</g>
		</g>
		<g>
			<g>
				<g>
					<path class="st9" d="M212.24,231.7l-1.2-5.46c-0.27-1.21,0-2.47,0.75-3.54c0.75-1.06,1.88-1.8,3.18-2.09l0.98-0.22
						c1.31-0.29,2.64-0.09,3.76,0.57c1.13,0.66,1.9,1.69,2.16,2.9l1.2,5.46l-0.56,0.12l-1.2-5.46c-0.23-1.06-0.9-1.95-1.89-2.53
						c-1-0.58-2.19-0.76-3.35-0.5l-0.98,0.22c-1.17,0.26-2.17,0.92-2.84,1.86c-0.66,0.94-0.89,2.03-0.66,3.09l1.2,5.46L212.24,231.7
						z"/>
				</g>
			</g>
		</g>
	</g>
	<g>
		<g>
			<g>
				<g>
					<path class="st9" d="M255.14,292.09h-52.98v-0.66h52.98c1.05,0,1.97-0.62,2.39-1.62c0.35-0.82,0.39-2.04-0.55-3.01l-9.08-12.13
						l0.53-0.39l9.05,12.1c0.94,0.97,1.2,2.4,0.65,3.69C257.61,291.31,256.46,292.09,255.14,292.09z"/>
				</g>
			</g>
		</g>
		<g>
			<g>
				<g>
					<path class="st18" d="M208.04,299.92c0,2.62,2.12,4.74,4.74,4.74c2.62,0,4.74-2.12,4.74-4.74c0-2.62-2.12-4.74-4.74-4.74
						C210.16,295.18,208.04,297.3,208.04,299.92z"/>
				</g>
			</g>
			<g>
				<g>
					<g>
						<path class="st16" d="M208.39,292.22l2.85,8.34c0.24,0.69,0.88,1.13,1.58,1.13c0.18,0,0.36-0.03,0.54-0.09
							c0.87-0.3,1.34-1.25,1.04-2.12l-2.48-7.26H208.39z"/>
					</g>
				</g>
			</g>
			<g>
				<g>
					<path class="st18" d="M211.65,300.02c0,0.62,0.51,1.13,1.13,1.13c0.62,0,1.13-0.51,1.13-1.13s-0.51-1.13-1.13-1.13
						C212.15,298.89,211.65,299.39,211.65,300.02z"/>
				</g>
			</g>
		</g>
		<g>
			<g>
				<g>
					<circle class="st18" cx="247.52" cy="299.92" r="4.74"/>
				</g>
			</g>
			<g>
				<g>
					<g>
						<path class="st16" d="M243.13,292.22l2.85,8.34c0.24,0.69,0.88,1.13,1.58,1.13c0.18,0,0.36-0.03,0.54-0.09
							c0.87-0.3,1.34-1.25,1.04-2.12l-2.48-7.26H243.13z"/>
					</g>
				</g>
			</g>
			<g>
				<g>
					<path class="st18" d="M246.39,300.02c0,0.62,0.51,1.13,1.13,1.13c0.62,0,1.13-0.51,1.13-1.13s-0.51-1.13-1.13-1.13
						C246.89,298.89,246.39,299.39,246.39,300.02z"/>
				</g>
			</g>
		</g>
		<g>
			<g>
				<g>
					<polygon class="st9" points="267.79,239.23 267.17,238.99 275.84,216.88 284.66,216.08 284.72,216.74 276.3,217.5 					"/>
				</g>
			</g>
		</g>
		<g>
			<g>
				<g>
					<g>
						<path class="st9" d="M250,274.77c-0.07,0-0.14,0-0.21,0l-46.19-1.66c-3.25-0.12-5.91-2.89-6.2-6.46l-2.23-27.51l0.33-0.03
							l74.73-6.42l-14.28,37.71C254.95,273.04,252.58,274.77,250,274.77z M195.88,239.74l2.18,26.85c0.26,3.23,2.66,5.75,5.57,5.85
							l46.19,1.66c2.38,0.1,4.59-1.49,5.51-3.93l13.91-36.73L195.88,239.74z"/>
					</g>
				</g>
			</g>
			<g>
				<g>
					<g>
						<g>
							
								<rect x="197.73" y="261.53" transform="matrix(0.9995 -0.0325 0.0325 0.9995 -8.4001 7.46)" class="st9" width="54.63" height="0.66"/>
						</g>
					</g>
				</g>
				<g>
					<g>
						<g>
							
								<rect x="197.08" y="248.7" transform="matrix(0.9982 -0.0597 0.0597 0.9982 -14.4665 14.1033)" class="st9" width="63.19" height="0.66"/>
						</g>
					</g>
				</g>
			</g>
			<g>
				<g>
					<g>
						
							<rect x="227.95" y="253.72" transform="matrix(0.3164 -0.9486 0.9486 0.3164 -71.0204 409.5416)" class="st9" width="41.42" height="0.66"/>
					</g>
				</g>
			</g>
			<g>
				<g>
					<g>
						
							<rect x="208.99" y="238.38" transform="matrix(0.9975 -0.0702 0.0702 0.9975 -17.4337 15.3303)" class="st9" width="0.66" height="34.46"/>
					</g>
				</g>
			</g>
			<g>
				<g>
					<g>
						
							<rect x="216.17" y="254.28" transform="matrix(0.1993 -0.9799 0.9799 0.1993 -61.003 434.5585)" class="st9" width="38.49" height="0.66"/>
					</g>
				</g>
			</g>
			<g>
				<g>
					<g>
						
							<rect x="204.03" y="254.83" transform="matrix(0.06 -0.9982 0.9982 0.06 -45.6773 461.8186)" class="st9" width="36.67" height="0.66"/>
					</g>
				</g>
			</g>
		</g>
		<g>
			<g>
				<path class="st18" d="M281.69,219.35l4.32-0.42c1.34-0.13,2.32-1.33,2.2-2.66l0,0c-0.13-1.34-1.33-2.32-2.66-2.2l-4.32,0.42
					c-1.34,0.13-2.32,1.33-2.2,2.66l0,0C279.15,218.49,280.35,219.48,281.69,219.35z"/>
			</g>
		</g>
	</g>
	<g>
		<g>
			<g>
				<g>
					<g>
						<g>
							<path class="st5" d="M107.94,108.61l-0.4-0.24c4.77-7.95,12.44-13.34,24.16-16.97l0.14,0.45
								C120.24,95.44,112.64,100.76,107.94,108.61z"/>
						</g>
					</g>
				</g>
			</g>
		</g>
		<g>
			<g>
				<g>
					<g>
						<g>
							<path class="st5" d="M100.49,112.38l-0.44-0.16c6.15-16.91,21.94-22.34,36.58-25.41l0.1,0.46
								C122.21,90.32,106.56,95.68,100.49,112.38z"/>
						</g>
					</g>
				</g>
			</g>
		</g>
	</g>
	<g>
		<g>
			<g>
				<g>
					<g>
						<g>
							<path class="st5" d="M368.2,190.95c-5.27-10.94-11.66-17.66-20.12-21.15l0.18-0.44c8.57,3.54,15.04,10.33,20.36,21.38
								L368.2,190.95z"/>
						</g>
					</g>
				</g>
			</g>
		</g>
		<g>
			<g>
				<g>
					<g>
						<g>
							<path class="st5" d="M374.31,196.33c-5.16-13.9-12.79-28.58-30.2-32.12l0.09-0.46c17.63,3.58,25.34,18.4,30.55,32.42
								L374.31,196.33z"/>
						</g>
					</g>
				</g>
			</g>
		</g>
	</g>
	<g>
		<g>
			<g>
				<g>
					<g>
						<g>
							<g>
								<path class="st11" d="M109.35,307.13c0,1.22,8.93,2.21,19.95,2.21s19.95-0.99,19.95-2.21c0-0.02,0-0.04-0.01-0.07v-5.96
									h-39.87v5.95C109.36,307.08,109.35,307.1,109.35,307.13z"/>
							</g>
						</g>
					</g>
				</g>
				<g>
					<g>
						<g>
							<g>
								<ellipse class="st10" cx="129.3" cy="301.16" rx="19.95" ry="2.21"/>
							</g>
						</g>
					</g>
				</g>
			</g>
			<g>
				<g>
					<g>
						<g>
							<g>
								<path class="st11" d="M104.64,299.94c0,1.22,8.93,2.21,19.95,2.21s19.95-0.99,19.95-2.21c0-0.02,0-0.04-0.01-0.07v-5.96
									h-39.87v5.95C104.65,299.89,104.64,299.91,104.64,299.94z"/>
							</g>
						</g>
					</g>
				</g>
				<g>
					<g>
						<g>
							<g>
								<ellipse class="st10" cx="124.59" cy="293.96" rx="19.95" ry="2.21"/>
							</g>
						</g>
					</g>
				</g>
			</g>
			<g>
				<g>
					<g>
						<g>
							<g>
								<path class="st11" d="M109.35,292.74c0,1.22,8.93,2.21,19.95,2.21s19.95-0.99,19.95-2.21c0-0.02,0-0.04-0.01-0.07v-5.96
									h-39.87v5.95C109.36,292.69,109.35,292.72,109.35,292.74z"/>
							</g>
						</g>
					</g>
				</g>
				<g>
					<g>
						<g>
							<g>
								<ellipse class="st10" cx="129.3" cy="286.77" rx="19.95" ry="2.21"/>
							</g>
						</g>
					</g>
				</g>
			</g>
			<g>
				<g>
					<g>
						<g>
							<g>
								<g>
									<path class="st5" d="M129.3,309.57c8.11,0,20.18-0.65,20.18-2.44h-0.47c0,0.69-6.77,1.97-19.71,1.97
										c-0.47,0-0.94,0-1.4-0.01l0,0.47C128.36,309.57,128.83,309.57,129.3,309.57z"/>
								</g>
							</g>
						</g>
					</g>
				</g>
				<g>
					<g>
						<g>
							<g>
								<g>
									<path class="st5" d="M121.39,309.39l0.02-0.47c-2.02-0.1-3.87-0.23-5.51-0.39l-0.05,0.47
										C117.5,309.16,119.36,309.3,121.39,309.39z"/>
								</g>
							</g>
						</g>
					</g>
				</g>
			</g>
			<g>
				<g>
					<g>
						<g>
							<g>
								<g>
									<path class="st5" d="M137.17,301.85c7.5-0.68,7.5-1.63,7.5-1.94h-0.47c0,0.23-1.27,0.94-7.07,1.47L137.17,301.85z"/>
								</g>
							</g>
						</g>
					</g>
				</g>
				<g>
					<g>
						<g>
							<g>
								<g>
									<path class="st5" d="M124.49,302.35c2.24,0,4.44-0.04,6.55-0.12l-0.02-0.47c-3.75,0.14-7.9,0.16-11.77,0.04l-0.01,0.47
										C120.94,302.33,122.71,302.35,124.49,302.35z"/>
								</g>
							</g>
						</g>
					</g>
				</g>
				<g>
					<g>
						<g>
							<g>
								<g>
									<path class="st5" d="M114.28,302.04l0.03-0.47c-2.13-0.14-3.98-0.32-5.51-0.54l-0.07,0.47
										C110.27,301.72,112.14,301.9,114.28,302.04z"/>
								</g>
							</g>
						</g>
					</g>
				</g>
			</g>
			<g>
				<g>
					<g>
						<g>
							<g>
								<g>
									<path class="st5" d="M142.72,288.65c6.65-0.68,6.65-1.53,6.65-1.86h-0.47c0,0.01-0.17,0.77-6.22,1.39L142.72,288.65z"/>
								</g>
							</g>
						</g>
					</g>
				</g>
				<g>
					<g>
						<g>
							<g>
								<g>
									<path class="st5" d="M129.18,289.23c2.29,0,4.54-0.04,6.67-0.13l-0.02-0.47c-2.12,0.08-4.36,0.13-6.65,0.13
										c-4.09,0-8.03-0.14-11.37-0.39l-0.04,0.47C121.13,289.1,125.07,289.23,129.18,289.23z"/>
								</g>
							</g>
						</g>
					</g>
				</g>
			</g>
			<g>
				<g>
					<g>
						<g>
							<g>
								<path class="st11" d="M102.28,285.55c0,1.22,8.93,2.21,19.95,2.21c11.02,0,19.95-0.99,19.95-2.21c0-0.02,0-0.04-0.01-0.07
									v-5.96H102.3v5.95C102.29,285.5,102.28,285.52,102.28,285.55z"/>
							</g>
						</g>
					</g>
				</g>
				<g>
					<g>
						<g>
							<g>
								<path class="st10" d="M102.29,279.58c0,1.22,8.93,2.21,19.95,2.21c11.02,0,19.95-0.99,19.95-2.21
									c0-1.22-8.93-2.21-19.95-2.21C111.22,277.37,102.29,278.36,102.29,279.58z"/>
							</g>
						</g>
					</g>
				</g>
				<g>
					<g>
						<g>
							<g>
								<path class="st11" d="M105.99,279.58c0,0.82,7.27,1.48,16.25,1.48c8.97,0,16.25-0.66,16.25-1.48
									c0-0.82-7.27-1.48-16.25-1.48C113.26,278.09,105.99,278.76,105.99,279.58z"/>
							</g>
						</g>
					</g>
				</g>
			</g>
		</g>
		<g>
			<g>
				<g>
					<g>
						<g>
							<path class="st10" d="M76.4,271.77c-11.12-0.3-20.39,8.47-20.69,19.6c-0.3,11.12,8.47,20.39,19.6,20.69
								c11.12,0.3,20.39-8.47,20.69-19.6C96.3,281.33,87.53,272.07,76.4,271.77z M92.07,292.35c-0.12,4.33-1.92,8.35-5.06,11.33
								c-3.14,2.98-7.26,4.56-11.59,4.44c-8.94-0.24-16.01-7.71-15.77-16.65c0.12-4.33,1.91-8.35,5.06-11.33
								c3.03-2.87,6.98-4.44,11.14-4.44c0.15,0,0.3,0,0.45,0.01c8.79,0.24,15.78,7.47,15.78,16.21
								C92.07,292.05,92.07,292.2,92.07,292.35z"/>
						</g>
					</g>
				</g>
			</g>
			<g>
				<g>
					<g>
						<g>
							<path class="st11" d="M92.07,291.91c0,0.15,0,0.3,0,0.44c-0.12,4.33-1.92,8.36-5.06,11.33c-3.14,2.98-7.26,4.56-11.59,4.44
								c-8.94-0.24-16.01-7.71-15.77-16.66c0.12-4.33,1.91-8.36,5.06-11.33c3.03-2.87,6.98-4.44,11.14-4.44c0.15,0,0.3,0,0.45,0.01
								C85.09,275.93,92.07,283.17,92.07,291.91z"/>
						</g>
					</g>
				</g>
			</g>
			<g>
				<g>
					<g>
						<g>
							<g>
								<path class="st10" d="M74.83,304.31v-3.05c-1.75-0.03-3.57-0.57-4.62-1.33l0.73-2.02c1.09,0.72,2.66,1.3,4.35,1.3
									c2.15,0,3.6-1.24,3.6-2.96c0-1.66-1.18-2.69-3.41-3.6c-3.08-1.21-4.99-2.6-4.99-5.23c0-2.51,1.78-4.41,4.56-4.86v-3.05h1.87
									v2.93c1.81,0.06,3.05,0.54,3.93,1.06l-0.76,1.99c-0.63-0.36-1.87-1.03-3.81-1.03c-2.33,0-3.2,1.39-3.2,2.6
									c0,1.57,1.12,2.36,3.75,3.44c3.11,1.27,4.68,2.84,4.68,5.53c0,2.39-1.66,4.62-4.77,5.14v3.14H74.83z"/>
							</g>
						</g>
					</g>
				</g>
			</g>
			<g>
				<g>
					<g>
						<g>
							<path class="st5" d="M91.41,287.85c-0.03-0.13-0.07-0.26-0.11-0.39c-1.29-4.45-4.42-8.11-8.61-10.07l0.19-0.4
								c4.3,2.01,7.52,5.77,8.84,10.32c0.05,0.16,0.09,0.3,0.12,0.43L91.41,287.85z"/>
						</g>
					</g>
				</g>
			</g>
			<g>
				<g>
					<g>
						<g>
							<path class="st5" d="M82.69,277.39c-3.37-1.58-7.2-1.93-10.79-0.99l-0.11-0.43c3.69-0.96,7.63-0.6,11.09,1.02L82.69,277.39z"
								/>
						</g>
					</g>
				</g>
			</g>
			<g>
				<g>
					<g>
						<g>
							<path class="st5" d="M90.09,300.2l-0.38-0.22c1.08-1.83,1.77-3.82,2.06-5.9l0.44,0.06C91.91,296.28,91.2,298.32,90.09,300.2z
								"/>
						</g>
					</g>
				</g>
			</g>
			<g>
				<g>
					<g>
						<g>
							<g>
								<path class="st5" d="M88.97,276.92c-1.56-1.36-3.31-2.47-5.2-3.29l0.19-0.43c1.94,0.84,3.73,1.97,5.32,3.37L88.97,276.92z"
									/>
							</g>
						</g>
					</g>
				</g>
			</g>
			<g>
				<g>
					<g>
						<g>
							<g>
								<path class="st5" d="M87.23,308.83l-0.26-0.39c5.33-3.59,8.62-9.57,8.8-15.99c0.11-3.99-0.96-7.87-3.1-11.22l0.4-0.25
									c2.19,3.43,3.28,7.4,3.17,11.49C96.05,299.04,92.69,305.15,87.23,308.83z"/>
							</g>
						</g>
					</g>
				</g>
			</g>
		</g>
	</g>
	<g>
		<g>
			<g>
				<g>
					<g>
						<g>
							<g>
								<g>
									<path class="st5" d="M136.24,142.86h-22c-0.22,0-0.39-0.18-0.39-0.39c0-0.22,0.18-0.39,0.39-0.39h22
										c0.22,0,0.39,0.18,0.39,0.39C136.63,142.69,136.46,142.86,136.24,142.86z"/>
								</g>
							</g>
						</g>
					</g>
				</g>
			</g>
		</g>
	</g>
	<g>
		<g>
			<g>
				<g>
					<g>
						<path class="st12" d="M63.81,280.5c1.6,0.81,2.71,2.07,3.46,3.63l0,0c0.75-1.57,1.86-2.82,3.47-3.64l0,0
							c-1.6-0.81-2.71-2.07-3.47-3.63l0,0C66.51,278.43,65.41,279.68,63.81,280.5z"/>
					</g>
				</g>
			</g>
		</g>
		<g>
			<g>
				<g>
					<g>
						<path class="st12" d="M83.68,302.07c0.93,0.47,1.57,1.2,2.01,2.11l0,0c0.44-0.91,1.08-1.64,2.01-2.11l0,0
							c-0.93-0.47-1.58-1.2-2.01-2.11l0,0C85.26,300.87,84.61,301.6,83.68,302.07z"/>
					</g>
				</g>
			</g>
		</g>
		<g>
			<g>
				<g>
					<g>
						<path class="st12" d="M62.43,298.33c0.93,0.47,1.57,1.2,2.01,2.11l0,0c0.44-0.91,1.08-1.64,2.01-2.11l0,0
							c-0.93-0.47-1.58-1.2-2.01-2.11l0,0C64,297.12,63.36,297.85,62.43,298.33z"/>
					</g>
				</g>
			</g>
		</g>
	</g>
</g>
</svg>
