<?xml version="1.0" encoding="utf-8"?>
<!-- Generator: Adobe Illustrator 27.5.0, SVG Export Plug-In . SVG Version: 6.00 Build 0)  -->
<svg version="1.1" id="Layer_1" xmlns="http://www.w3.org/2000/svg" xmlns:xlink="http://www.w3.org/1999/xlink" x="0px" y="0px"
	 viewBox="0 0 1000 1000" style="enable-background:new 0 0 1000 1000;" xml:space="preserve">
<style type="text/css">
	.st0{fill:url(#SVGID_1_);}
	.st1{fill:url(#SVGID_00000077302771116928043180000015551098200846483875_);}
	.st2{fill:#8193CA;}
	.st3{fill:url(#SVGID_00000075136280658875277850000007532953953416990606_);}
	.st4{fill:#98B1DC;}
	.st5{fill:url(#SVGID_00000118374346393342621510000015538322473389283771_);}
	.st6{fill:#FFFFFF;}
	.st7{opacity:0.7;fill:url(#SVGID_00000136376394922546740260000010893873380730355876_);}
	.st8{opacity:0.7;fill:url(#SVGID_00000164511960194200789400000008590300347157641642_);}
	.st9{opacity:0.7;fill:url(#SVGID_00000062167672363465952010000007761703499966988672_);}
	.st10{opacity:0.7;fill:url(#SVGID_00000011031296777760044570000012560640233539595453_);}
	.st11{opacity:0.64;}
	.st12{fill:url(#SVGID_00000142890662654497624000000017086611701890545305_);}
	.st13{fill:url(#SVGID_00000101102925801549042000000001912515342218255015_);}
	.st14{fill:url(#SVGID_00000065757397792001729250000006163424514777748638_);}
	.st15{fill:url(#SVGID_00000081606760370342105480000011778226424231055518_);}
	.st16{fill:url(#SVGID_00000092455823722719793600000018106395094014478512_);}
	.st17{fill:url(#SVGID_00000155119480754427749830000016361076127166562969_);}
	.st18{fill:url(#SVGID_00000114058952673744153220000009240434701312874398_);}
	.st19{fill:url(#SVGID_00000024689474018938363880000009576401055470512532_);}
	.st20{fill:url(#SVGID_00000151508551722428355560000006287230239386415264_);}
	.st21{fill:url(#SVGID_00000036957716953099395320000010724377392304150932_);}
	.st22{fill:url(#SVGID_00000080189016352667161190000008638159690063954878_);}
	.st23{fill:url(#SVGID_00000024689957899968347390000007605292181486498959_);}
	.st24{fill:url(#SVGID_00000108300576767133882920000013536057327783603631_);}
	.st25{fill:url(#SVGID_00000142150676164576083000000011008856119907707817_);}
	.st26{fill:url(#SVGID_00000091729298354016698860000006283000852622087068_);}
	.st27{fill:url(#SVGID_00000016787442651180082810000010939229951446260924_);}
	.st28{fill:url(#SVGID_00000044178051000381154230000009856240960608487595_);}
	.st29{fill:url(#SVGID_00000009575147797435643680000018055910014473071795_);}
	.st30{fill:url(#SVGID_00000003087051179930033340000015327664574144781471_);}
	.st31{fill:url(#SVGID_00000179641188742673912670000013921808621257935264_);}
	.st32{fill:url(#SVGID_00000040544769242529327330000009822463645144620169_);}
	.st33{fill:url(#SVGID_00000109021535519941781490000007030899059210421652_);}
	.st34{fill:url(#SVGID_00000173848404153037911750000004963086034838486659_);}
	.st35{fill:url(#SVGID_00000109751311389067082820000004256310054374788265_);}
	.st36{fill:url(#SVGID_00000050662271400682768960000011468603745483081882_);}
	.st37{fill:url(#SVGID_00000086660135830204474900000009970602890467475645_);}
	.st38{fill:url(#SVGID_00000175315093851534803310000000618541000048003250_);}
	.st39{fill:url(#SVGID_00000163051271988080967280000016467388697551087235_);}
	.st40{fill:url(#SVGID_00000074429512197424243980000010326823041401549976_);}
	.st41{fill:url(#SVGID_00000179631187276997674910000016422234584170822039_);}
	.st42{fill:url(#SVGID_00000002352183540924499410000007158281385502813358_);}
	.st43{fill:url(#SVGID_00000131355875313643068180000012755858207390409913_);}
	.st44{fill:url(#SVGID_00000005969053832013492500000011104231566496515737_);}
	.st45{fill:url(#SVGID_00000016069814215718312570000016195132215788005004_);}
	.st46{fill:url(#SVGID_00000065063711740515168190000017626065704966635188_);}
	.st47{fill:url(#SVGID_00000174581938250634517450000005467872914367004070_);}
	.st48{fill:url(#SVGID_00000114757693923474145690000012319688879084341900_);}
	.st49{fill:url(#SVGID_00000077290354949197058670000017571156922384554888_);}
	.st50{fill:url(#SVGID_00000073703484929036606290000010331642242920803464_);}
	.st51{fill:url(#SVGID_00000175295941005606171300000006716664245178512829_);}
	.st52{fill:url(#SVGID_00000173127424807629238450000018388082432185525152_);}
	.st53{fill:url(#SVGID_00000100356864881637163210000016349462785140243861_);}
	.st54{fill:url(#SVGID_00000057145460115309788660000009489491591537364620_);}
	.st55{fill:url(#SVGID_00000144304757136673133270000008439344960184530311_);}
	.st56{fill:url(#SVGID_00000100356691636288648960000008121486482691861691_);}
	.st57{fill:url(#SVGID_00000175315288825128274700000012661355067269200784_);}
	.st58{fill:url(#SVGID_00000076588485048786867610000017129051122084581556_);}
	.st59{fill:url(#SVGID_00000170262520122900874340000003268957918500133048_);}
	.st60{fill:url(#SVGID_00000144329721433675949580000015639181013144844183_);}
	.st61{fill:url(#SVGID_00000014634148077224538220000009923730007971012267_);}
	.st62{fill:url(#SVGID_00000119075884655083265400000012568481815354082973_);}
	.st63{fill:url(#SVGID_00000080180355604679879090000006251123415106706361_);}
	.st64{fill:url(#SVGID_00000116954622951164303280000002393593737988605069_);}
	.st65{fill:url(#SVGID_00000076565256625162394770000003156387084164216234_);}
	.st66{fill:url(#SVGID_00000139973107915517528840000011866936077790023297_);}
	.st67{fill:url(#SVGID_00000083090109843655107260000010410810562084559269_);}
	.st68{fill:url(#SVGID_00000159433648434575153950000017781783673544918716_);}
	.st69{fill:url(#SVGID_00000052101981455593645520000009745923676261772471_);}
	.st70{fill:url(#SVGID_00000068661216651257192840000010379584879193074601_);}
	.st71{fill:url(#SVGID_00000134209940472308980560000009609672642812195515_);}
	.st72{fill:url(#SVGID_00000063627315087416028870000003014467142536520845_);}
	.st73{fill:url(#SVGID_00000006672732118174930560000015630022502426014138_);}
	.st74{fill:url(#SVGID_00000126325720449566008100000006015695145630459794_);}
	.st75{fill:url(#SVGID_00000033338007811113124850000003123071875228055432_);}
	.st76{fill:url(#SVGID_00000146500847918429846970000009282615402025727674_);}
	.st77{fill:url(#SVGID_00000058569164552120264090000018015026624909638303_);}
	.st78{fill:url(#SVGID_00000147183809278545515590000012596670925003216266_);}
	.st79{fill:url(#SVGID_00000041281978749805803760000017004988917714280364_);}
	.st80{fill:#C0CFEB;}
	.st81{fill:url(#SVGID_00000064331491775516978070000015779470100697251508_);}
	.st82{opacity:0.3;}
	.st83{fill:url(#SVGID_00000021079739221186720680000010344339127609589156_);}
	.st84{fill:url(#SVGID_00000168075278936147828130000002295125706290872710_);}
	.st85{fill:url(#SVGID_00000170273119238401419270000018139761417240326802_);}
	.st86{fill:url(#SVGID_00000176031270302698499280000015339533912036369086_);}
</style>
<g>
	<linearGradient id="SVGID_1_" gradientUnits="userSpaceOnUse" x1="1010.0206" y1="959.8907" x2="344.2452" y2="377.3377">
		<stop  offset="0" style="stop-color:#DBE2F3"/>
		<stop  offset="1" style="stop-color:#EAEFF8"/>
	</linearGradient>
	<path class="st0" d="M896.87,657.34c-86.04,202.6-315.25,316.1-514.02,285.48c-32.34-4.98-121.01-19.82-199.52-89.83
		C32.21,718.22-0.11,451.35,121.8,263.28C210.53,126.4,369.59,48.8,520.72,52.68c32.55,0.84,157.32,5.99,266.96,96.4
		c16.1,13.28,51.62,44.84,83.64,94.9C946.49,361.53,952.95,525.31,896.87,657.34z"/>
	<g>
		
			<linearGradient id="SVGID_00000116916054124328889080000002757833654690193292_" gradientUnits="userSpaceOnUse" x1="117.9851" y1="475.1031" x2="283.7037" y2="510.1965">
			<stop  offset="0" style="stop-color:#5560AB"/>
			<stop  offset="1" style="stop-color:#4C57A6"/>
		</linearGradient>
		<path style="fill:url(#SVGID_00000116916054124328889080000002757833654690193292_);" d="M101.99,340.18l60.38,66.09
			c-37.78,28.5-61.48,84.42,1.76,150.92L79.11,598.4C19.52,494.05,27.94,411.6,101.99,340.18z"/>
		<path class="st2" d="M66.43,574.43l58.58,0.94l10.52-57.69c32.17,66.08,108.21,93.7,195.21,65.51l43.93,81.67
			C249.1,722.1,122,692.72,66.43,574.43z"/>
		
			<linearGradient id="SVGID_00000183936077914315774110000014814796302225909931_" gradientUnits="userSpaceOnUse" x1="710.6672" y1="229.929" x2="699.0232" y2="436.6128">
			<stop  offset="0" style="stop-color:#5560AB"/>
			<stop  offset="1" style="stop-color:#4C57A6"/>
		</linearGradient>
		<path style="fill:url(#SVGID_00000183936077914315774110000014814796302225909931_);" d="M557.69,487.13
			c47.48-93.86,172.81-128.48,262.94-77.08l91.35-30.24c-106.7-142.33-300.57-115.33-421.01,26.9L557.69,487.13z"/>
		<path class="st4" d="M768.42,586.48l38.76,90.54c141.42-58.91,184.22-258.37,56.53-346.25l0.93,58.66l-60.09,12.5
			C893.05,443.93,853.62,562.91,768.42,586.48z"/>
		<path class="st2" d="M515.98,612.1c133.98,96.36,251.22,108.92,344.7,32.35l-65.79-23.38l18.31-58.6
			c-82.04,56.94-158.28,38.41-231.47-19.89L515.98,612.1z"/>
		<path class="st2" d="M101.99,340.18l0,63.47l60.38,2.61c39.15-25.4,95.84-23.35,167.21-0.51l41.47-91.94
			C262.61,267.38,173.7,278.46,101.99,340.18z"/>
		
			<linearGradient id="SVGID_00000006673516785431581420000002921254074185378194_" gradientUnits="userSpaceOnUse" x1="380.1946" y1="313.7303" x2="674.5883" y2="830.3812">
			<stop  offset="0" style="stop-color:#5560AB"/>
			<stop  offset="1" style="stop-color:#4C57A6"/>
		</linearGradient>
		<path style="fill:url(#SVGID_00000006673516785431581420000002921254074185378194_);" d="M329.58,405.76l-33.92-70.65l75.39-21.29
			c48.97,25.54,88.41,56.83,119.91,92.9c34.67,76.36,82.26,141.52,141.76,169.34l-78.1,0.82L566.65,645
			c-30.6-18.33-60.13-38.89-86.11-61.32l-58.65-104.27C401.44,448.35,372.91,423.06,329.58,405.76z"/>
		<path class="st4" d="M490.96,406.71c-22.94,24.53-37.96,60.69-59.52,86.39c-34.38,40.98-77.26,93.94-154.64,100.82l63.17,32.68
			l-37.61,61.66c126.19-25.08,214.47-107.39,255.31-201.15v-90.23L490.96,406.71z"/>
	</g>
	<g>
		<path class="st2" d="M512.38,144.25l307.13-1.34c2.94-0.03,5.33,2.36,5.31,5.29l-0.66,107.51c-0.02,2.96-2.46,5.32-5.42,5.23
			c-27.08-0.81-304.67-4.37-309.97-4.15c-5.25,0.22-2.4-84.68-1.61-107.46C507.27,146.51,509.57,144.28,512.38,144.25z"/>
		<path class="st6" d="M818.92,256.78l-0.04,0c-17.31-0.52-183.18-2.59-262.9-3.58c-23.31-0.29-39.85-0.5-44.27-0.56l-0.41-0.01
			l-0.07-0.41c-1.88-10.63-1.85-46.16,0.09-102.75c0.02-0.59,0.5-1.06,1.09-1.06l307.13-1.34c0.3,0,0.58,0.12,0.79,0.33
			c0.21,0.21,0.32,0.48,0.32,0.78l-0.66,107.51C820.01,256.29,819.52,256.78,818.92,256.78z M512.15,251.65
			c4.96,0.07,21.22,0.27,43.85,0.55c79.72,0.99,245.6,3.07,262.91,3.58l0.03,0c0.03,0,0.08-0.05,0.08-0.11l0.66-107.51l-0.11-0.6
			l0,0.5l-307.13,1.34c-0.06,0-0.1,0.04-0.1,0.1C510.4,205.33,510.34,240.61,512.15,251.65z"/>
		
			<linearGradient id="SVGID_00000098194481233648495160000007528947378747132340_" gradientUnits="userSpaceOnUse" x1="525.5243" y1="172.0149" x2="647.5042" y2="172.0149">
			<stop  offset="0" style="stop-color:#DBE2F3"/>
			<stop  offset="1" style="stop-color:#EAEFF8"/>
		</linearGradient>
		<path style="opacity:0.7;fill:url(#SVGID_00000098194481233648495160000007528947378747132340_);" d="M525.52,172.01
			L525.52,172.01c0,2.91,0.97,5.26,2.17,5.26h117.65c1.2,0,2.17-2.36,2.17-5.26l0,0c0-2.91-0.97-5.26-2.17-5.26H527.69
			C526.49,166.75,525.52,169.11,525.52,172.01z"/>
		
			<linearGradient id="SVGID_00000078761886842020511960000012306083842041353382_" gradientUnits="userSpaceOnUse" x1="525.5243" y1="189.9597" x2="647.5042" y2="189.9597">
			<stop  offset="0" style="stop-color:#DBE2F3"/>
			<stop  offset="1" style="stop-color:#EAEFF8"/>
		</linearGradient>
		<path style="opacity:0.7;fill:url(#SVGID_00000078761886842020511960000012306083842041353382_);" d="M525.52,189.96
			L525.52,189.96c0,2.91,0.97,5.26,2.17,5.26h117.65c1.2,0,2.17-2.36,2.17-5.26l0,0c0-2.91-0.97-5.26-2.17-5.26H527.69
			C526.49,184.7,525.52,187.05,525.52,189.96z"/>
		
			<linearGradient id="SVGID_00000147213487084204796060000011196372688185922191_" gradientUnits="userSpaceOnUse" x1="525.5243" y1="207.9046" x2="647.5042" y2="207.9046">
			<stop  offset="0" style="stop-color:#DBE2F3"/>
			<stop  offset="1" style="stop-color:#EAEFF8"/>
		</linearGradient>
		<path style="opacity:0.7;fill:url(#SVGID_00000147213487084204796060000011196372688185922191_);" d="M525.52,207.9L525.52,207.9
			c0,2.91,0.97,5.26,2.17,5.26h117.65c1.2,0,2.17-2.36,2.17-5.26l0,0c0-2.91-0.97-5.26-2.17-5.26H527.69
			C526.49,202.64,525.52,205,525.52,207.9z"/>
		
			<linearGradient id="SVGID_00000031915140971879150820000004340952388467052203_" gradientUnits="userSpaceOnUse" x1="525.5243" y1="225.8493" x2="647.5042" y2="225.8493">
			<stop  offset="0" style="stop-color:#DBE2F3"/>
			<stop  offset="1" style="stop-color:#EAEFF8"/>
		</linearGradient>
		<path style="opacity:0.7;fill:url(#SVGID_00000031915140971879150820000004340952388467052203_);" d="M525.52,225.85
			L525.52,225.85c0,2.91,0.97,5.26,2.17,5.26h117.65c1.2,0,2.17-2.36,2.17-5.26l0,0c0-2.91-0.97-5.26-2.17-5.26H527.69
			C526.49,220.59,525.52,222.94,525.52,225.85z"/>
		<g>
			<circle class="st6" cx="677.31" cy="175.72" r="20.46"/>
			<circle class="st6" cx="728.17" cy="175.72" r="20.46"/>
			<circle class="st6" cx="779.03" cy="176.39" r="20.46"/>
			<g>
				<path class="st2" d="M689.47,171.4c0.63,1.54,0.99,3.23,0.99,4.99c0,7.26-5.89,13.15-13.15,13.15
					c-7.26,0-13.15-5.89-13.15-13.15c0-7.26,5.89-13.15,13.15-13.15c0.22,0,0.44,0.01,0.66,0.02v-3.33
					c-0.22-0.01-0.44-0.01-0.66-0.01c-9.1,0-16.47,7.38-16.47,16.47c0,9.1,7.38,16.47,16.47,16.47c9.1,0,16.47-7.38,16.47-16.47
					c0-2.24-0.45-4.38-1.26-6.32L689.47,171.4z"/>
				<path class="st2" d="M734.95,187.51c-2.03,1.28-4.43,2.02-7,2.02c-7.26,0-13.15-5.89-13.15-13.15c0-7.26,5.89-13.15,13.15-13.15
					c0.22,0,0.44,0.01,0.66,0.02v-3.33c-0.22-0.01-0.44-0.01-0.66-0.01c-9.1,0-16.47,7.38-16.47,16.47c0,9.1,7.38,16.47,16.47,16.47
					c3.18,0,6.14-0.9,8.66-2.46L734.95,187.51z"/>
				<path class="st2" d="M790,183.78c-2.37,3.47-6.35,5.75-10.87,5.75c-7.26,0-13.15-5.89-13.15-13.15
					c0-7.26,5.89-13.15,13.15-13.15c0.22,0,0.44,0.01,0.66,0.02v-3.33c-0.22-0.01-0.44-0.01-0.66-0.01
					c-9.1,0-16.47,7.38-16.47,16.47c0,9.1,7.38,16.47,16.47,16.47c5.63,0,10.6-2.82,13.57-7.13L790,183.78z"/>
			</g>
			<g class="st11">
				
					<linearGradient id="SVGID_00000149341995989196026220000001607115770054826164_" gradientUnits="userSpaceOnUse" x1="656.8463" y1="208.6473" x2="697.7761" y2="208.6473">
					<stop  offset="0" style="stop-color:#DBE2F3"/>
					<stop  offset="1" style="stop-color:#EAEFF8"/>
				</linearGradient>
				<path style="fill:url(#SVGID_00000149341995989196026220000001607115770054826164_);" d="M693.99,204.86h-33.35
					c-2.09,0-3.79,1.7-3.79,3.79s1.7,3.79,3.79,3.79h33.35c2.09,0,3.79-1.7,3.79-3.79S696.08,204.86,693.99,204.86z"/>
				
					<linearGradient id="SVGID_00000058561697494898843930000004435393344726376634_" gradientUnits="userSpaceOnUse" x1="707.7075" y1="208.6473" x2="748.6371" y2="208.6473">
					<stop  offset="0" style="stop-color:#DBE2F3"/>
					<stop  offset="1" style="stop-color:#EAEFF8"/>
				</linearGradient>
				<path style="fill:url(#SVGID_00000058561697494898843930000004435393344726376634_);" d="M744.85,204.86H711.5
					c-2.09,0-3.79,1.7-3.79,3.79s1.7,3.79,3.79,3.79h33.35c2.09,0,3.79-1.7,3.79-3.79S746.94,204.86,744.85,204.86z"/>
				
					<linearGradient id="SVGID_00000036966752638980123950000017791607042476192150_" gradientUnits="userSpaceOnUse" x1="758.5686" y1="208.6473" x2="799.4982" y2="208.6473">
					<stop  offset="0" style="stop-color:#DBE2F3"/>
					<stop  offset="1" style="stop-color:#EAEFF8"/>
				</linearGradient>
				<path style="fill:url(#SVGID_00000036966752638980123950000017791607042476192150_);" d="M762.36,212.44h33.35
					c2.09,0,3.79-1.7,3.79-3.79s-1.7-3.79-3.79-3.79h-33.35c-2.09,0-3.79,1.7-3.79,3.79S760.27,212.44,762.36,212.44z"/>
				
					<linearGradient id="SVGID_00000060015672579742736550000005472521301090674828_" gradientUnits="userSpaceOnUse" x1="656.8463" y1="231.5988" x2="697.7761" y2="231.5988">
					<stop  offset="0" style="stop-color:#DBE2F3"/>
					<stop  offset="1" style="stop-color:#EAEFF8"/>
				</linearGradient>
				<path style="fill:url(#SVGID_00000060015672579742736550000005472521301090674828_);" d="M693.99,216.65h-33.35
					c-2.09,0-3.79,1.7-3.79,3.79v22.32c0,2.09,1.7,3.79,3.79,3.79h33.35c2.09,0,3.79-1.7,3.79-3.79v-22.32
					C697.78,218.35,696.08,216.65,693.99,216.65z"/>
				
					<linearGradient id="SVGID_00000173851135995721716710000016091056692136110265_" gradientUnits="userSpaceOnUse" x1="707.7075" y1="231.5988" x2="748.6371" y2="231.5988">
					<stop  offset="0" style="stop-color:#DBE2F3"/>
					<stop  offset="1" style="stop-color:#EAEFF8"/>
				</linearGradient>
				<path style="fill:url(#SVGID_00000173851135995721716710000016091056692136110265_);" d="M744.85,216.65H711.5
					c-2.09,0-3.79,1.7-3.79,3.79v22.32c0,2.09,1.7,3.79,3.79,3.79h33.35c2.09,0,3.79-1.7,3.79-3.79v-22.32
					C748.64,218.35,746.94,216.65,744.85,216.65z"/>
				
					<linearGradient id="SVGID_00000077322091382990178800000008588305098149745814_" gradientUnits="userSpaceOnUse" x1="758.5686" y1="231.5988" x2="799.4982" y2="231.5988">
					<stop  offset="0" style="stop-color:#DBE2F3"/>
					<stop  offset="1" style="stop-color:#EAEFF8"/>
				</linearGradient>
				<path style="fill:url(#SVGID_00000077322091382990178800000008588305098149745814_);" d="M795.71,216.65h-33.35
					c-2.09,0-3.79,1.7-3.79,3.79v22.32c0,2.09,1.7,3.79,3.79,3.79h33.35c2.09,0,3.79-1.7,3.79-3.79v-22.32
					C799.5,218.35,797.8,216.65,795.71,216.65z"/>
			</g>
		</g>
	</g>
	<g>
		<g>
			
				<linearGradient id="SVGID_00000118358645349137801820000010024601427421716927_" gradientUnits="userSpaceOnUse" x1="5423.5483" y1="889.1027" x2="5270.2095" y2="1055.8928" gradientTransform="matrix(1 9.500000e-03 -9.500000e-03 1 -4986.8232 -50.6022)">
				<stop  offset="0" style="stop-color:#201B59"/>
				<stop  offset="1" style="stop-color:#2D2D84"/>
			</linearGradient>
			<path style="fill:url(#SVGID_00000118358645349137801820000010024601427421716927_);" d="M379.69,901.99
				c0,0-1.67,8.98-2.54,17.87c-0.34,3.48,2.32,6.52,5.8,6.7c11.85,0.61,37.19,1.81,46.29,1.49c1.37-0.05,2.28-1.44,1.78-2.72l0,0
				c-0.41-1.07-1.22-1.94-2.26-2.43l-41.69-19.65L379.69,901.99z"/>
			
				<linearGradient id="SVGID_00000147914482405295399210000004532047553365843593_" gradientUnits="userSpaceOnUse" x1="5373.7769" y1="901.4889" x2="5387.3975" y2="901.4889" gradientTransform="matrix(1 9.500000e-03 -9.500000e-03 1 -4986.8232 -50.6022)">
				<stop  offset="0" style="stop-color:#F9BABA"/>
				<stop  offset="1" style="stop-color:#F5928F"/>
			</linearGradient>
			<path style="fill:url(#SVGID_00000147914482405295399210000004532047553365843593_);" d="M378.44,896.69l1.17,10.77
				c0,0,7.3,3.48,12.35-0.31l-2.92-12.01L378.44,896.69z"/>
			
				<linearGradient id="SVGID_00000042699601042516736300000014593936351590878621_" gradientUnits="userSpaceOnUse" x1="5435.6309" y1="700.4683" x2="5305.145" y2="877.325" gradientTransform="matrix(1 9.500000e-03 -9.500000e-03 1 -4986.8232 -50.6022)">
				<stop  offset="0" style="stop-color:#201B59"/>
				<stop  offset="1" style="stop-color:#2D2D84"/>
			</linearGradient>
			<path style="fill:url(#SVGID_00000042699601042516736300000014593936351590878621_);" d="M381.33,694.53
				c-0.58,2.8-4.3,140.11,9.8,201.79c0.23,1.01-0.29,2.04-1.25,2.42c-2.26,0.9-6.69,2.19-11.98,2.32c-1.64,0.04-3.1-1.04-3.54-2.62
				c-4.06-14.32-23.48-86.05-25.46-154.42c-2.2-76.39,0.02-2.6,0.02-2.6l2.17-47.19L381.33,694.53z"/>
			
				<linearGradient id="SVGID_00000042709172642091293950000014426590726229305510_" gradientUnits="userSpaceOnUse" x1="5389.1494" y1="857.4722" x2="5235.8037" y2="1024.2693" gradientTransform="matrix(1 9.500000e-03 -9.500000e-03 1 -4986.8232 -50.6022)">
				<stop  offset="0" style="stop-color:#201B59"/>
				<stop  offset="1" style="stop-color:#2D2D84"/>
			</linearGradient>
			<path style="fill:url(#SVGID_00000042709172642091293950000014426590726229305510_);" d="M331.47,906.22
				c0,0-2.57,4.51-5.13,16.55c-0.46,2.17,1.04,4.27,3.25,4.51c3.91,0.42,9.93,0.97,14.76,0.99c2.22,0.01,3.98-1.91,3.73-4.13
				c-0.49-4.41-2.09-11.65-7.18-17.32L331.47,906.22z"/>
			
				<linearGradient id="SVGID_00000012439353091526600480000016664224750998909056_" gradientUnits="userSpaceOnUse" x1="5324.6875" y1="900.7885" x2="5336.4473" y2="900.7885" gradientTransform="matrix(1 9.500000e-03 -9.500000e-03 1 -4986.8232 -50.6022)">
				<stop  offset="0" style="stop-color:#F9BABA"/>
				<stop  offset="1" style="stop-color:#F5928F"/>
			</linearGradient>
			<path style="fill:url(#SVGID_00000012439353091526600480000016664224750998909056_);" d="M329.39,892.36l2.83,16.29
				c0,0,2.93,2.22,8.77,0.69l-1.26-17.51L329.39,892.36z"/>
			
				<linearGradient id="SVGID_00000011732635150094168900000003875185542778199178_" gradientUnits="userSpaceOnUse" x1="5412.3745" y1="683.3101" x2="5281.8901" y2="860.1649" gradientTransform="matrix(1 9.500000e-03 -9.500000e-03 1 -4986.8232 -50.6022)">
				<stop  offset="0" style="stop-color:#201B59"/>
				<stop  offset="1" style="stop-color:#2D2D84"/>
			</linearGradient>
			<path style="fill:url(#SVGID_00000011732635150094168900000003875185542778199178_);" d="M323.18,698.19
				c-12.7,72.34,0.9,179.11,5.62,200.02c0.29,1.28,1.31,2.27,2.6,2.5c2.2,0.39,5.81,0.72,9.39-0.29c1.23-0.35,2.11-1.45,2.17-2.73
				c0.82-16.87,0.62-120.46,12.2-161.28c0.59-2.07,1.87-3.87,3.64-5.1l21.86-15.23l1.9-24.94L323.18,698.19z"/>
			<g>
				
					<linearGradient id="SVGID_00000085968132220566809710000003908313213149751727_" gradientUnits="userSpaceOnUse" x1="4369.4106" y1="1142.2737" x2="4393.3071" y2="1027.1373" gradientTransform="matrix(-1 0 0 1 4859.6606 0)">
					<stop  offset="0" style="stop-color:#F5928F"/>
					<stop  offset="1" style="stop-color:#F37064"/>
				</linearGradient>
				<path style="fill:url(#SVGID_00000085968132220566809710000003908313213149751727_);" d="M401,561.63
					c-35.97-0.94-75.77,8.73-75.77,8.73c-11.32,62.48-3.16,134.74-3.16,134.74c27.78,7.57,59.32-3.9,59.32-3.9
					c4.88-26.11,27.18-99.52,27.18-99.52c17.6-2.01,32.13-6.95,44.12-13.54c-9-10.63-13.16-24.09-14.94-32.04
					C424.98,559.93,412.09,561.92,401,561.63z"/>
				
					<linearGradient id="SVGID_00000009580834784602451860000001955109343574673834_" gradientUnits="userSpaceOnUse" x1="5429.8408" y1="546.1407" x2="5499.4292" y2="546.1407" gradientTransform="matrix(1 9.500000e-03 -9.500000e-03 1 -4986.8232 -50.6022)">
					<stop  offset="0" style="stop-color:#F9BABA"/>
					<stop  offset="1" style="stop-color:#F5928F"/>
				</linearGradient>
				<path style="fill:url(#SVGID_00000009580834784602451860000001955109343574673834_);" d="M507.78,509.64
					c-3.49-4.3-7.99-2.33-7.99-2.33c-5.51,22.31-33.44,40.18-62.05,48.78c1.79,7.95,5.95,21.41,14.94,32.04
					C500.28,561.97,507.78,509.64,507.78,509.64z"/>
			</g>
			<g>
				
					<linearGradient id="SVGID_00000183211882256581006020000001463089681518649506_" gradientUnits="userSpaceOnUse" x1="504.5494" y1="533.4488" x2="512.5148" y2="480.5875">
					<stop  offset="0" style="stop-color:#F9BABA"/>
					<stop  offset="1" style="stop-color:#F5928F"/>
				</linearGradient>
				<path style="fill:url(#SVGID_00000183211882256581006020000001463089681518649506_);" d="M506.91,510.72
					c0.36,1.18-3.94,2.93-6.42-1.9c-0.07-2.31-1.37-12.19,0.02-14.06c7.43-9.93,21.77-22.33,21.77-22.33
					c2.38,2.39,0.38,4.7,0.38,4.7l-6.97,7.12c1.42,2.62,3.16,4.84,3.95,8c0.6,2.39,0.2,4.94-1.03,7.11
					c-1.23,2.17-2.91,4.99-4.49,7.19C511.13,510.73,506.91,510.72,506.91,510.72z"/>
				
					<linearGradient id="SVGID_00000114044165382884424680000011393282432817462656_" gradientUnits="userSpaceOnUse" x1="5499.0952" y1="499.0959" x2="5518.5796" y2="469.1393" gradientTransform="matrix(1 9.500000e-03 -9.500000e-03 1 -4986.8232 -50.6022)">
					<stop  offset="0" style="stop-color:#F9BABA"/>
					<stop  offset="1" style="stop-color:#F5928F"/>
				</linearGradient>
				<path style="fill:url(#SVGID_00000114044165382884424680000011393282432817462656_);" d="M512.64,488.89l-6.34,5.27l-2.02,5.29
					l5.55,6.27c0,0,1.98-10.51,3.41-12.77C514.65,490.68,513.93,489.57,512.64,488.89z"/>
			</g>
			
				<linearGradient id="SVGID_00000133514864248692057300000017607301103810304187_" gradientUnits="userSpaceOnUse" x1="4434.9536" y1="1155.8762" x2="4458.8496" y2="1040.7399" gradientTransform="matrix(-1 0 0 1 4859.6606 0)">
				<stop  offset="0" style="stop-color:#F5928F"/>
				<stop  offset="1" style="stop-color:#F37064"/>
			</linearGradient>
			<path style="fill:url(#SVGID_00000133514864248692057300000017607301103810304187_);" d="M338.7,605.32l-13.47-34.97
				c0,0-33.83,22.51-39.63,51.41c6.35,0.53,17.88,2.29,29.14,8.11C317.36,616.23,338.7,605.32,338.7,605.32z"/>
			
				<linearGradient id="SVGID_00000018917295214651767370000012655663238395218346_" gradientUnits="userSpaceOnUse" x1="5277.5674" y1="644.7012" x2="5365.6294" y2="644.7012" gradientTransform="matrix(1 9.500000e-03 -9.500000e-03 1 -4986.8232 -50.6022)">
				<stop  offset="0" style="stop-color:#F9BABA"/>
				<stop  offset="1" style="stop-color:#F5928F"/>
			</linearGradient>
			<path style="fill:url(#SVGID_00000018917295214651767370000012655663238395218346_);" d="M367.75,638.38
				c0,0-37.94,20.96-50.49,2.63c-2.61-3.81-3.2-7.57-2.52-11.15c-11.26-5.82-22.8-7.58-29.14-8.11c-1.75,8.71-0.96,18,4.08,27.43
				c21.91,41.01,82.97-1.46,82.97-1.46L367.75,638.38z"/>
			
				<linearGradient id="SVGID_00000104693124019806848900000007394491823948276881_" gradientUnits="userSpaceOnUse" x1="5345.1899" y1="550.5594" x2="5380.0083" y2="550.5594" gradientTransform="matrix(1 9.500000e-03 -9.500000e-03 1 -4986.8232 -50.6022)">
				<stop  offset="0" style="stop-color:#F9BABA"/>
				<stop  offset="1" style="stop-color:#F5928F"/>
			</linearGradient>
			<path style="fill:url(#SVGID_00000104693124019806848900000007394491823948276881_);" d="M364.83,532.07l-11.76,33
				c-0.19,0.55,0.02,1.16,0.53,1.44c3.1,1.75,14.3,6.85,27.93-1.61c1.42-0.88,2.39-2.33,2.62-3.99l3.98-28.62L364.83,532.07z"/>
			<g>
				
					<linearGradient id="SVGID_00000137841243784035619200000003739788895129141167_" gradientUnits="userSpaceOnUse" x1="-1937.5382" y1="1726.7207" x2="-1950.5493" y2="1683.8073" gradientTransform="matrix(0.7523 -0.6588 0.6588 0.7523 716.4926 -2046.4657)">
					<stop  offset="0" style="stop-color:#F9BABA"/>
					<stop  offset="1" style="stop-color:#F5928F"/>
				</linearGradient>
				<path style="fill:url(#SVGID_00000137841243784035619200000003739788895129141167_);" d="M390.03,501.65
					c0,0,12.35,23.78,10.64,33.33c-1.7,9.54-17.28,8.71-30.81,0.82l-9.26-25.64L390.03,501.65z"/>
				
					<linearGradient id="SVGID_00000083085285947339340410000017566855993750255807_" gradientUnits="userSpaceOnUse" x1="-1949.2759" y1="1651.9502" x2="-1938.3923" y2="1714.0266" gradientTransform="matrix(0.7523 -0.6588 0.6588 0.7523 716.4926 -2046.4657)">
					<stop  offset="0" style="stop-color:#201B59"/>
					<stop  offset="1" style="stop-color:#2D2D84"/>
				</linearGradient>
				<path style="fill:url(#SVGID_00000083085285947339340410000017566855993750255807_);" d="M370.59,523.25
					c0.56-0.24,0.77-0.91,0.44-1.42c-0.99-1.55-2.85-4.71-3.43-7.46c0,0-2.25-1.47,5.78-3.31c8.03-1.84,20.01-4.7,22.58-11.5
					c2.51-6.63-3.76-23.41-14.15-10.18c-0.4,0.5-1.16,0.51-1.55,0c-1.66-2.21-6.04-6.79-12.21-4.1c-5.77,2.52-6.46,6.73-6.4,8.85
					c0.02,0.62-0.55,1.1-1.16,0.98c-2.9-0.58-9.87-1.12-13.19,6c-2.74,5.87-1.03,9.22,0.55,10.86c0.51,0.53,0.28,1.4-0.43,1.61
					c-1.92,0.57-4.4,2.16-4.19,6.64c0.28,6.19,7.2,5.71,9.17,5.45c0.32-0.04,0.65,0.07,0.86,0.31c1.67,1.88,9.2,9.89,17.42,10.92
					c0.71,0.09,1.27-0.61,1.04-1.29l-3.46-10.39c-0.16-0.48,0.07-1.01,0.54-1.21L370.59,523.25z"/>
				
					<linearGradient id="SVGID_00000098208945940808184860000010665161194993556153_" gradientUnits="userSpaceOnUse" x1="-1950.8384" y1="1726.5204" x2="-1962.5447" y2="1687.9104" gradientTransform="matrix(0.7523 -0.6588 0.6588 0.7523 716.4926 -2046.4657)">
					<stop  offset="0" style="stop-color:#F9BABA"/>
					<stop  offset="1" style="stop-color:#F5928F"/>
				</linearGradient>
				<path style="fill:url(#SVGID_00000098208945940808184860000010665161194993556153_);" d="M372.01,524.73c0,0-8.89-6.23-9.6-1.06
					c-0.7,5.17,7.99,7.57,12.32,5.68L372.01,524.73z"/>
			</g>
			<g>
				<g>
					
						<linearGradient id="SVGID_00000028311448091262598760000003359112340841288894_" gradientUnits="userSpaceOnUse" x1="5101.9565" y1="588.2812" x2="5150.5488" y2="790.7499" gradientTransform="matrix(1 0 0 1 -4705.6621 0)">
						<stop  offset="0" style="stop-color:#201B59"/>
						<stop  offset="1" style="stop-color:#2D2D84"/>
					</linearGradient>
					<path style="fill:url(#SVGID_00000028311448091262598760000003359112340841288894_);" d="M360,671.52l20.67-72.17
						c0.23-0.82,0.93-1.42,1.78-1.52c3.74-0.44,14.59-1.66,27.12-2.72c15.09-1.28,32.61-2.31,43.08-1.43
						c1.49,0.12,2.39,1.7,1.73,3.04c-5.95,12.05-30.45,61.05-42.71,77.1c-0.41,0.53-1.03,0.84-1.7,0.84l-47.95-0.45
						C360.61,674.2,359.61,672.86,360,671.52z"/>
					
						<linearGradient id="SVGID_00000150796592334833040860000005785715226487587487_" gradientUnits="userSpaceOnUse" x1="5068.6597" y1="641.8449" x2="5096.1909" y2="641.8449" gradientTransform="matrix(1 0 0 1 -4705.6621 0)">
						<stop  offset="0" style="stop-color:#F9BABA"/>
						<stop  offset="1" style="stop-color:#F5928F"/>
					</linearGradient>
					<path style="fill:url(#SVGID_00000150796592334833040860000005785715226487587487_);" d="M364.99,654.08
						c0,0-2.88-11.84-1.72-16.04c1.16-4.2,3.41-9.6,10.91-8.4c7.5,1.2,16.35,4.36,16.35,4.36s-0.45,5.47-6.15,3.71l3.53,2.73
						c0,0-0.51,4.38-5.32,2.04l3.29,3.63c0,0-2.07,3.6-5.61,1.29C376.73,645.09,375.04,655.51,364.99,654.08z"/>
				</g>
				<path class="st4" d="M408.19,616.65c0,3.35,2.72,6.07,6.07,6.07c3.35,0,6.07-2.72,6.07-6.07c0-3.35-2.72-6.07-6.07-6.07
					C410.9,610.59,408.19,613.3,408.19,616.65z"/>
				
					<linearGradient id="SVGID_00000071554460819947641840000000323243476528816001_" gradientUnits="userSpaceOnUse" x1="381.4553" y1="609.323" x2="440.5317" y2="609.323">
					<stop  offset="0" style="stop-color:#DBE2F3"/>
					<stop  offset="1" style="stop-color:#EAEFF8"/>
				</linearGradient>
				<path style="fill:url(#SVGID_00000071554460819947641840000000323243476528816001_);" d="M383,620.65l-1.55-0.46l4.21-14.27
					c0.69-2.32,2.56-4.07,4.9-4.56c13.34-2.78,48.46-3.35,49.95-3.37l0.03,1.61c-0.36,0-36.46,0.59-49.64,3.34
					c-1.75,0.37-3.16,1.68-3.68,3.43L383,620.65z"/>
			</g>
		</g>
		<g>
			<path class="st2" d="M138.43,822.62c-2.2,3.26-10.96,77.06-12.33,104.32c-0.09,1.84,1.38,3.38,3.23,3.38l0,0
				c1.59,0,2.95-1.16,3.19-2.73l16.01-102.62L138.43,822.62z"/>
			<path class="st2" d="M208.82,822.62c2.2,3.26,10.96,77.06,12.33,104.32c0.09,1.84-1.38,3.38-3.23,3.38l0,0
				c-1.59,0-2.95-1.16-3.19-2.73l-16.01-102.62L208.82,822.62z"/>
			<path class="st2" d="M125.19,816.86l-0.01,0.8c-0.05,5.79,4.94,10.54,11.18,10.65l74.02,1.26c6.16,0.1,11.29-4.34,11.59-10.04
				l0.04-0.74c0.31-5.94-4.74-10.95-11.16-11.07l-74.05-1.33C130.46,806.28,125.24,810.98,125.19,816.86z"/>
		</g>
		<g>
			<g>
				<path class="st2" d="M281.11,924.26c-13.16,0-18.98-1.13-21.58-2.16c0.51,2.16,2.43,3.87,4.86,3.87h46.55
					c1.57,0,2.56-1.5,2.18-2.86C307.82,923.53,296.55,924.26,281.11,924.26z"/>
				
					<linearGradient id="SVGID_00000075860828356466611840000011680274687647889834_" gradientUnits="userSpaceOnUse" x1="300.8822" y1="820.826" x2="286.2176" y2="922.1454">
					<stop  offset="0" style="stop-color:#5560AB"/>
					<stop  offset="1" style="stop-color:#4C57A6"/>
				</linearGradient>
				<path style="fill:url(#SVGID_00000075860828356466611840000011680274687647889834_);" d="M313.12,923.11
					c-0.08-0.27-0.19-0.54-0.38-0.79c-3.55-4.53-10.67-11.64-20.36-11.5c-14.19,0.2-19.14,1.74-30.17,0.09l-2.6,8.63
					c-0.26,0.88-0.27,1.76-0.08,2.57c2.6,1.03,8.42,2.16,21.58,2.16C296.55,924.26,307.82,923.53,313.12,923.11z"/>
			</g>
			
				<linearGradient id="SVGID_00000121961168728451169240000010371284372822479539_" gradientUnits="userSpaceOnUse" x1="262.2108" y1="907.8566" x2="276.7329" y2="907.8566">
				<stop  offset="0" style="stop-color:#F9BABA"/>
				<stop  offset="1" style="stop-color:#F5928F"/>
			</linearGradient>
			<path style="fill:url(#SVGID_00000121961168728451169240000010371284372822479539_);" d="M265.41,901.6l-3.19,10.86
				c0,0,7.08,3.22,13.3,0.64l1.22-9.41L265.41,901.6z"/>
			<g>
				<path class="st2" d="M361.88,917.41c-10.26,8.24-15.5,11.01-18.17,11.84c1.74,1.36,4.3,1.48,6.2-0.05l36.29-29.16
					c1.22-0.98,1.06-2.77-0.08-3.59C382.25,900.13,373.91,907.75,361.88,917.41z"/>
				
					<linearGradient id="SVGID_00000126287996343989625050000016122601538139812523_" gradientUnits="userSpaceOnUse" x1="373.5196" y1="831.3385" x2="358.8549" y2="932.6586">
					<stop  offset="0" style="stop-color:#5560AB"/>
					<stop  offset="1" style="stop-color:#4C57A6"/>
				</linearGradient>
				<path style="fill:url(#SVGID_00000126287996343989625050000016122601538139812523_);" d="M386.12,896.47
					c-0.23-0.17-0.48-0.3-0.79-0.38c-5.59-1.29-15.57-2.35-23.04,3.83c-10.94,9.05-13.84,13.34-23.47,18.97l3.35,8.32
					c0.34,0.85,0.89,1.53,1.54,2.05c2.67-0.83,7.91-3.6,18.17-11.84C373.91,907.75,382.25,900.13,386.12,896.47z"/>
			</g>
			
				<linearGradient id="SVGID_00000080177186266981874330000015611078488752765345_" gradientUnits="userSpaceOnUse" x1="427.7005" y1="701.5562" x2="264.7794" y2="822.1176">
				<stop  offset="0" style="stop-color:#201B59"/>
				<stop  offset="1" style="stop-color:#2D2D84"/>
			</linearGradient>
			<path style="fill:url(#SVGID_00000080177186266981874330000015611078488752765345_);" d="M197.08,777.84
				c0,0,78.78,6.43,94.94,14.04c16.16,7.61-13.19,114.23-13.19,114.23s-4.4,2.12-14.19-0.93c0,0,10.04-78.68,2.57-95.75
				l-85.29-13.95L197.08,777.84z"/>
			
				<linearGradient id="SVGID_00000102513858054645910660000007159108839276615553_" gradientUnits="userSpaceOnUse" x1="330.9944" y1="909.0789" x2="348.3317" y2="909.0789">
				<stop  offset="0" style="stop-color:#F9BABA"/>
				<stop  offset="1" style="stop-color:#F5928F"/>
			</linearGradient>
			<path style="fill:url(#SVGID_00000102513858054645910660000007159108839276615553_);" d="M330.99,903.91
				c0.73,0.67,7.83,14.98,7.83,14.98s7.9-1.71,9.51-6.71l-7.11-12.92L330.99,903.91z"/>
			
				<linearGradient id="SVGID_00000076591180973319141540000011797085168600253363_" gradientUnits="userSpaceOnUse" x1="266.1772" y1="826.0914" x2="472.5542" y2="683.8">
				<stop  offset="0" style="stop-color:#201B59"/>
				<stop  offset="1" style="stop-color:#2D2D84"/>
			</linearGradient>
			<path style="fill:url(#SVGID_00000076591180973319141540000011797085168600253363_);" d="M149.63,777.18
				c0,0-2.57,6.18-2.46,14.39c0.14,11.35,9.27,20.56,20.61,21.13l93.13,4.25c1.97,0.09,3.63,1.45,4.12,3.36
				c2.19,8.46,12.88,34.46,65.17,86.33c1.39,1.38,3.56,1.61,5.21,0.57l7.44-4.7c0.78-0.49,1.03-1.52,0.56-2.32l-54.22-92.59
				c-2.85-4.7-7.43-8.1-12.75-9.46l-79.37-20.29L149.63,777.18z"/>
			
				<linearGradient id="SVGID_00000007427477870535491180000012409644297631063991_" gradientUnits="userSpaceOnUse" x1="234.6915" y1="664.7679" x2="243.239" y2="643.2133">
				<stop  offset="0" style="stop-color:#F9BABA"/>
				<stop  offset="1" style="stop-color:#F5928F"/>
			</linearGradient>
			<path style="fill:url(#SVGID_00000007427477870535491180000012409644297631063991_);" d="M241.41,632.54
				c0,0-9.98,17.64-20.15,26.18l21.02,11.73c0,0,4.74-18.67,15.56-24.14L241.41,632.54z"/>
			
				<linearGradient id="SVGID_00000072269517866931988960000003193090742479328410_" gradientUnits="userSpaceOnUse" x1="292.2502" y1="600.4016" x2="265.0953" y2="669.9178">
				<stop  offset="0" style="stop-color:#F5928F"/>
				<stop  offset="1" style="stop-color:#F37064"/>
			</linearGradient>
			<path style="fill:url(#SVGID_00000072269517866931988960000003193090742479328410_);" d="M147.94,777.84c0,0,25.14,6.13,49.14,0
				c0,0,33.58-45.14,46.57-57.42c0,0,20.72,32.7,66.84,37.33l2.57-5.75c0,0-36.72-16.93-48.02-42.93
				c-11.3-26.01-15.84-37.1-26.13-43.89c-6.4-4.23-10.24-7.11-12.22-8.69c-1.09-0.86-2.58-0.96-3.77-0.24
				C212.01,662.9,160.66,698.07,147.94,777.84z"/>
			
				<linearGradient id="SVGID_00000113350358195805166470000008410523617477442709_" gradientUnits="userSpaceOnUse" x1="242.272" y1="504.9401" x2="234.1259" y2="770.5004">
				<stop  offset="0" style="stop-color:#E1483D"/>
				<stop  offset="1" style="stop-color:#E9625A"/>
			</linearGradient>
			<path style="fill:url(#SVGID_00000113350358195805166470000008410523617477442709_);" d="M242.28,719.77
				c-0.48,0-0.96-0.22-1.28-0.63c-8.01-10.44-12.47-21.95-12.65-22.43c-0.32-0.83,0.1-1.76,0.93-2.08c0.83-0.32,1.76,0.1,2.08,0.93
				c0.04,0.11,4.49,11.57,12.2,21.62c0.54,0.71,0.41,1.72-0.3,2.26C242.97,719.67,242.63,719.77,242.28,719.77z"/>
			
				<linearGradient id="SVGID_00000101071303424707905490000011197757225754951856_" gradientUnits="userSpaceOnUse" x1="307.7163" y1="748.5952" x2="347.7635" y2="748.5952">
				<stop  offset="0" style="stop-color:#F9BABA"/>
				<stop  offset="1" style="stop-color:#F5928F"/>
			</linearGradient>
			<path style="fill:url(#SVGID_00000101071303424707905490000011197757225754951856_);" d="M307.72,748.99l5.19-1.38l15.76-3.65
				c1.9-0.44,3.89-0.1,5.54,0.93l13.55,8.53l-37.43-0.06L307.72,748.99z"/>
			<g>
				
					<linearGradient id="SVGID_00000009581537227993107580000001742599072661386670_" gradientUnits="userSpaceOnUse" x1="2161.1516" y1="1163.1802" x2="2118.2354" y2="1196.0177" gradientTransform="matrix(0.9914 -0.1306 0.1306 0.9914 -2033.6887 -249.9983)">
					<stop  offset="0" style="stop-color:#F9BABA"/>
					<stop  offset="1" style="stop-color:#F5928F"/>
				</linearGradient>
				<path style="fill:url(#SVGID_00000009581537227993107580000001742599072661386670_);" d="M257.25,606.09
					c0,0,9.7,16.12,11.38,25.02c1.68,8.91,4.38,14.48-5.75,17.65c-10.14,3.17-19.56-0.84-25.47-9.16c0,0-9.23-12.8-8.31-18.66
					C230,615.09,257.25,606.09,257.25,606.09z"/>
				
					<linearGradient id="SVGID_00000049184738213597175040000014687714799324875909_" gradientUnits="userSpaceOnUse" x1="2131.001" y1="1137.2583" x2="2169.863" y2="1187.293" gradientTransform="matrix(0.9914 -0.1306 0.1306 0.9914 -2033.6887 -249.9983)">
					<stop  offset="0" style="stop-color:#201B59"/>
					<stop  offset="1" style="stop-color:#2D2D84"/>
				</linearGradient>
				<path style="fill:url(#SVGID_00000049184738213597175040000014687714799324875909_);" d="M240.09,632.71l1.31-0.17
					c0,0-6.87-10.37-2.37-12.95c4.49-2.57,22.8-8.89,25.98-16.1c3.06-6.95-1.52-14.8-7.05-16.44c-0.35-0.1-0.72,0.1-0.85,0.45
					l-0.32,0.88c-0.22,0.6-1.06,0.62-1.32,0.04l0,0c-0.24-0.56-1.04-0.58-1.29-0.03c-0.98,2.16-3.92,5.85-12.72,8.7
					c-12.49,4.05-20.27,10.35-19.31,19.22c0.06,0.56-0.5,0.95-1.01,0.72c-1.02-0.45-2.57-0.52-4.37,1.44
					c-3.13,3.42-0.68,10.9,7.86,16.19c0.41,0.25,0.48,0.82,0.12,1.13c-1.28,1.09-3.07,3.53,2.7,5.71c5.91,2.22,9.13,1.47,10.32,0.99
					c0.32-0.13,0.5-0.46,0.44-0.8l-1.52-7.78c-0.08-0.4,0.2-0.79,0.6-0.84L240.09,632.71z"/>
				
					<linearGradient id="SVGID_00000034784696459236942770000013426689792690584212_" gradientUnits="userSpaceOnUse" x1="2155.8281" y1="1156.2235" x2="2112.9124" y2="1189.0607" gradientTransform="matrix(0.9914 -0.1306 0.1306 0.9914 -2033.6887 -249.9983)">
					<stop  offset="0" style="stop-color:#F9BABA"/>
					<stop  offset="1" style="stop-color:#F5928F"/>
				</linearGradient>
				<path style="fill:url(#SVGID_00000034784696459236942770000013426689792690584212_);" d="M240.63,634.31
					c0,0-4.28-10.55-8.77-6.84c-4.49,3.71,4.15,11.9,8.14,11.79L240.63,634.31z"/>
			</g>
		</g>
		<g>
			<g>
				
					<linearGradient id="SVGID_00000164483784961174426770000003261659352111186110_" gradientUnits="userSpaceOnUse" x1="477.5703" y1="-5946.4395" x2="370.467" y2="-5842.8911" gradientTransform="matrix(-1.388 -0.0686 -0.0685 1.3855 -8018.7314 -141.2176)">
					<stop  offset="0" style="stop-color:#201B59"/>
					<stop  offset="1" style="stop-color:#2D2D84"/>
				</linearGradient>
				<path style="fill:url(#SVGID_00000164483784961174426770000003261659352111186110_);" d="M293.26,760.76c0.06,0,0.12,0,0.18,0
					l79.96-0.08c1.98,0,3.58-1.6,3.57-3.58c0-1.97-1.61-3.6-3.58-3.57l-79.96,0.08c-1.98,0-3.58,1.6-3.57,3.58
					C289.86,759.11,291.37,760.67,293.26,760.76z"/>
			</g>
			<g>
				
					<linearGradient id="SVGID_00000169557108807232388160000008899539314908026035_" gradientUnits="userSpaceOnUse" x1="-2006.8925" y1="-5699.9185" x2="-2113.9912" y2="-5596.375" gradientTransform="matrix(0.6475 -1.2297 -1.2274 -0.6463 6635.2061 -9369.1816)">
					<stop  offset="0" style="stop-color:#201B59"/>
					<stop  offset="1" style="stop-color:#2D2D84"/>
				</linearGradient>
				<path style="fill:url(#SVGID_00000169557108807232388160000008899539314908026035_);" d="M404.36,682.46
					c-0.03,0.05-0.06,0.11-0.08,0.16l-33.64,72.54c-0.83,1.79-0.06,3.92,1.73,4.75c1.79,0.83,3.95,0.06,4.75-1.74l33.64-72.54
					c0.83-1.79,0.06-3.92-1.73-4.75C407.29,680.08,405.25,680.78,404.36,682.46z"/>
			</g>
		</g>
		<g>
			<g>
				<rect x="605.3" y="833.66" class="st2" width="8.44" height="91.26"/>
				<path class="st2" d="M646.48,926.68h-73.91l0,0c0-3.03,2.46-5.49,5.49-5.49h62.93C644.02,921.19,646.48,923.65,646.48,926.68
					L646.48,926.68z"/>
				<path class="st2" d="M657.45,830.49c0,4.99-4.08,9.08-9.08,9.08h-74.78c-4.99,0-9.08-4.08-9.08-9.08v-8.21
					c0-4.99,4.08-9.08,9.08-9.08h74.78c4.99,0,9.08,4.08,9.08,9.08V830.49z"/>
			</g>
			<g>
				
					<linearGradient id="SVGID_00000078748140267418098110000009314935726162733982_" gradientUnits="userSpaceOnUse" x1="517.4239" y1="847.6788" x2="577.4289" y2="847.6788">
					<stop  offset="0" style="stop-color:#F9BABA"/>
					<stop  offset="1" style="stop-color:#F5928F"/>
				</linearGradient>
				<path style="fill:url(#SVGID_00000078748140267418098110000009314935726162733982_);" d="M547.22,772.81
					c0,0-12.54,1.94-26.64,11.37c-2.22,1.48-3.44,4.07-3.1,6.72c1.69,13.37,8.63,56.66,31.52,98.93c1.21,2.23,1.55,4.82,1.02,7.3
					l-3.98,18.51l-7.37,6.91h19l12.65-34.23l-5.41-1.71c-4.19-1.33-7.07-5.18-7.15-9.58l-0.63-36.72
					c0.54-16.36-10.03-27.64-10.03-27.64l30.34-1.48L547.22,772.81z"/>
				
					<linearGradient id="SVGID_00000121243837579656898720000007216576889593372837_" gradientUnits="userSpaceOnUse" x1="554.1387" y1="886.7781" x2="545.3129" y2="1022.1066">
					<stop  offset="0" style="stop-color:#5560AB"/>
					<stop  offset="1" style="stop-color:#4C57A6"/>
				</linearGradient>
				<path style="fill:url(#SVGID_00000121243837579656898720000007216576889593372837_);" d="M531.25,925.89
					c-1.73,2.26,18.62,5.25,28.9,0.3c0,0,14.25-24.8,14.25-37.56c0,0-1.13-2.6-9.5-2.01c0,0-4.79,29.36-9.84,32.65
					c-5.05,3.29-14.14,0.33-14.14,0.33S533.8,922.55,531.25,925.89z"/>
				
					<linearGradient id="SVGID_00000070824003449276810150000017106719329532837271_" gradientUnits="userSpaceOnUse" x1="446.968" y1="851.7778" x2="573.5906" y2="851.7778">
					<stop  offset="0" style="stop-color:#F9BABA"/>
					<stop  offset="1" style="stop-color:#F5928F"/>
				</linearGradient>
				<path style="fill:url(#SVGID_00000070824003449276810150000017106719329532837271_);" d="M573.59,813.21
					c-0.16-0.28-32.66-3.91-32.66-3.91s1.06,9.88-2.26,23.49c-3.32,13.6-51.04,72.54-51.04,72.54l5,15.86
					c-15.47,5.39-30.69,6.25-45.66,2.75l31.01-18.61c0,0,29.02-98.89,46.8-116.54l32.58-11.27L573.59,813.21z"/>
				
					<linearGradient id="SVGID_00000121980596891134380450000007298892716126305431_" gradientUnits="userSpaceOnUse" x1="525.0985" y1="785.7232" x2="666.9521" y2="785.7232">
					<stop  offset="0" style="stop-color:#201B59"/>
					<stop  offset="1" style="stop-color:#2D2D84"/>
				</linearGradient>
				<path style="fill:url(#SVGID_00000121980596891134380450000007298892716126305431_);" d="M646.48,755.67
					c0,0,18.73,27.85,20.26,40.56c1.54,12.7-5.13,17.87-24.78,18.72c-19.65,0.85-72.1,0.84-72.1,0.84l-44.77-38.26
					c0,0,32.62-11.64,41.11-14.93C574.69,759.3,646.48,755.67,646.48,755.67z"/>
				
					<linearGradient id="SVGID_00000027571976768035338800000003081080748219258542_" gradientUnits="userSpaceOnUse" x1="468.9709" y1="881.2238" x2="460.1451" y2="1016.5523">
					<stop  offset="0" style="stop-color:#5560AB"/>
					<stop  offset="1" style="stop-color:#4C57A6"/>
				</linearGradient>
				<path style="fill:url(#SVGID_00000027571976768035338800000003081080748219258542_);" d="M490.74,915.85
					c0,0,5.39,5.22,1.75,11.02c0,0-42.67,7.56-54.26,4.13c0,0,2.41-5.49,15.45-11.74l-0.96,0.74c-1.22,0.94-0.5,2.88,1.03,2.8
					C462.34,922.31,480.13,920.73,490.74,915.85z"/>
			</g>
			<g>
				
					<linearGradient id="SVGID_00000129189733168777603910000005074395747288806018_" gradientUnits="userSpaceOnUse" x1="625.0196" y1="548.7949" x2="604.1319" y2="658.5293">
					<stop  offset="0" style="stop-color:#201B59"/>
					<stop  offset="1" style="stop-color:#2D2D84"/>
				</linearGradient>
				<path style="fill:url(#SVGID_00000129189733168777603910000005074395747288806018_);" d="M565.37,579.04
					c38.28-6.51,56.3,24.71,54.98,31.27c-0.17,0.87,0.65,1.61,1.5,1.38c4.39-1.18,14.1-2.67,20.12,4.87
					c5.31,6.66,1.34,12.94-1.89,16.39c-0.78,0.83-0.12,2.19,1.01,2.04c8.08-1.02,25.64-1.26,28.51,15.18
					c2.68,15.34-8,19.66-14.33,20.88c-1.07,0.21-1.32,1.61-0.4,2.2c3.16,2,6.82,6.14,5.34,14.31
					c-2.32,12.81-27.43,11.76-30.36,11.59c-0.19-0.01-0.36-0.06-0.52-0.16l-40.22-22.94c-0.31-0.18-0.53-0.49-0.59-0.84l-8.12-46.89
					c-0.07-0.38,0.05-0.77,0.32-1.04l-26.22-37C544.98,588.88,564.92,579.11,565.37,579.04z"/>
				
					<linearGradient id="SVGID_00000067212760110014199340000009398101599886112703_" gradientUnits="userSpaceOnUse" x1="764.572" y1="340.7039" x2="684.1938" y2="536.2183">
					<stop  offset="0" style="stop-color:#F5928F"/>
					<stop  offset="1" style="stop-color:#F37064"/>
				</linearGradient>
				<path style="fill:url(#SVGID_00000067212760110014199340000009398101599886112703_);" d="M595.84,751.98
					c0,0-21.81-20.76-32.54-34.52c-5.8-7.43-7.62-17.22-4.94-26.26c4.9-16.51,13.61-33.61,14.4-36.27
					c1.22-4.08,25.67-3.91,25.67-3.91s48.11,31.23,67.02,84.12l-21.23,6.61c0,0-12.56-21.08-24.97-34.47
					c0,0,21.48,28.37,22.23,39.99L595.84,751.98z"/>
				
					<linearGradient id="SVGID_00000059279730989650832980000013741704465704873094_" gradientUnits="userSpaceOnUse" x1="590.4533" y1="686.0856" x2="581.9059" y2="631.2402">
					<stop  offset="0" style="stop-color:#F9BABA"/>
					<stop  offset="1" style="stop-color:#F5928F"/>
				</linearGradient>
				<path style="fill:url(#SVGID_00000059279730989650832980000013741704465704873094_);" d="M569.8,632.13
					c0.26,0.85,6.64,22,7.14,22.44c0.5,0.44,13.99,1.16,20.35-3.18l-15.76-30.82L569.8,632.13z"/>
				<g>
					
						<linearGradient id="SVGID_00000050645196994054145390000006982627775323715501_" gradientUnits="userSpaceOnUse" x1="-1704.0797" y1="4402.1572" x2="-1648.1333" y2="4440.1587" gradientTransform="matrix(0.6042 -0.7968 0.7968 0.6042 -1934.052 -3389.6465)">
						<stop  offset="0" style="stop-color:#F9BABA"/>
						<stop  offset="1" style="stop-color:#F5928F"/>
					</linearGradient>
					<path style="fill:url(#SVGID_00000050645196994054145390000006982627775323715501_);" d="M544.22,604.95
						c0,0-3.08,12.12,5.45,28.42c8.53,16.3,18.19,16.28,23.47,11.07c5.28-5.22,11.79-14.07,10.24-29.83
						C581.84,598.85,548.68,589.53,544.22,604.95z"/>
					
						<linearGradient id="SVGID_00000103235333928626347180000007138218050787869859_" gradientUnits="userSpaceOnUse" x1="-1666.7594" y1="4356.7036" x2="-1687.6473" y2="4466.439" gradientTransform="matrix(0.6042 -0.7968 0.7968 0.6042 -1934.052 -3389.6465)">
						<stop  offset="0" style="stop-color:#201B59"/>
						<stop  offset="1" style="stop-color:#2D2D84"/>
					</linearGradient>
					<path style="fill:url(#SVGID_00000103235333928626347180000007138218050787869859_);" d="M571.58,615.46
						c0,0-14.16-21.64-27.43-4.61l-0.24,6.19c0,0-15.55-1.85-12.83-16.1c2.72-14.26,16.16-23.17,33.46-16.99
						c17.3,6.18,27.22,12.51,28.34,24.91c1.12,12.4-8.75,9.68-8.75,9.68s-3.22-8.73-7.79-9.64c-4.58-0.91-3.39,5.9-3.39,5.9
						L571.58,615.46z"/>
					
						<linearGradient id="SVGID_00000010305313326202758400000018151073107456550575_" gradientUnits="userSpaceOnUse" x1="-1700.726" y1="4397.2197" x2="-1644.7799" y2="4435.2212" gradientTransform="matrix(0.6042 -0.7968 0.7968 0.6042 -1934.052 -3389.6465)">
						<stop  offset="0" style="stop-color:#F9BABA"/>
						<stop  offset="1" style="stop-color:#F5928F"/>
					</linearGradient>
					<path style="fill:url(#SVGID_00000010305313326202758400000018151073107456550575_);" d="M575.21,615.17
						c0,0-7.34-11.08,0.18-12.73c7.52-1.65,6.36,10.8,5.54,15.4L575.21,615.17z"/>
				</g>
				
					<linearGradient id="SVGID_00000102530142478305551060000013443278519588308647_" gradientUnits="userSpaceOnUse" x1="625.5518" y1="748.3588" x2="744.4984" y2="748.3588">
					<stop  offset="0" style="stop-color:#F9BABA"/>
					<stop  offset="1" style="stop-color:#F5928F"/>
				</linearGradient>
				<path style="fill:url(#SVGID_00000102530142478305551060000013443278519588308647_);" d="M551.42,753.52l16.02-15.44l22.16,9.36
					c0,0,22.06,3.42,34.69,0c12.63-3.42,12.63-3.42,12.63-3.42l28.53-8.88l4.48,12.66c1.14,3.22-0.01,6.79-2.79,8.76
					c-2.47,1.75-5.36,3.68-7.21,4.49c-3.76,1.64-92.63-1.14-92.63-1.14L551.42,753.52z"/>
			</g>
			<g>
				
					<linearGradient id="SVGID_00000101071557328721050720000005719879745269186722_" gradientUnits="userSpaceOnUse" x1="560.7512" y1="888.4725" x2="485.8734" y2="908.9946" gradientTransform="matrix(0.9988 -0.0494 0.0494 0.9988 23.842 -123.5958)">
					<stop  offset="0" style="stop-color:#201B59"/>
					<stop  offset="1" style="stop-color:#2D2D84"/>
				</linearGradient>
				<path style="fill:url(#SVGID_00000101071557328721050720000005719879745269186722_);" d="M612.04,760.8
					c-0.07,0-0.14,0.01-0.21,0l-92.93-0.1c-2.3,0-4.16-1.87-4.16-4.16c0-2.3,1.87-4.2,4.16-4.16l92.93,0.1
					c2.3,0,4.16,1.87,4.16,4.16C615.99,758.88,614.24,760.69,612.04,760.8z"/>
				
					<linearGradient id="SVGID_00000064329744280645052380000000560578325812457112_" gradientUnits="userSpaceOnUse" x1="526.4673" y1="687.7377" x2="473.3381" y2="743.892">
					<stop  offset="0" style="stop-color:#201B59"/>
					<stop  offset="1" style="stop-color:#2D2D84"/>
				</linearGradient>
				<path style="fill:url(#SVGID_00000064329744280645052380000000560578325812457112_);" d="M435.35,676.42h77.4
					c5.71,0,10.91,3.29,13.34,8.46l35.78,75.87h-96.18c-3.68,0-6.99-2.25-8.34-5.67l-27.75-70.21
					C428,680.82,430.99,676.42,435.35,676.42z"/>
				<path class="st4" d="M489.88,715.32c1.68,5.21,0.44,10.27-2.77,11.3c-3.21,1.03-7.16-2.36-8.84-7.57
					c-1.68-5.21-0.44-10.27,2.77-11.3C484.24,706.73,488.2,710.11,489.88,715.32z"/>
			</g>
		</g>
		<g>
			<g>
				
					<linearGradient id="SVGID_00000132787339965230636290000002818611793590394255_" gradientUnits="userSpaceOnUse" x1="-10122.0459" y1="1013.2543" x2="-10121.2607" y2="1096.413" gradientTransform="matrix(-1 0 0 1 -9429.2793 0)">
					<stop  offset="0" style="stop-color:#201B59"/>
					<stop  offset="1" style="stop-color:#2D2D84"/>
				</linearGradient>
				<path style="fill:url(#SVGID_00000132787339965230636290000002818611793590394255_);" d="M718,915.18c0,0,0.98,5.42,1.36,11.85
					c0.16,2.74-1.87,5.12-4.6,5.39c-9.51,0.92-31.17,2.63-44.99,0.63c-1.94-0.28-2.71-2.66-1.27-3.99
					c5.7-5.31,19.47-15.64,42.13-17.9L718,915.18z"/>
				
					<linearGradient id="SVGID_00000116957191385361898170000009634087624377670332_" gradientUnits="userSpaceOnUse" x1="-10142.0908" y1="920.387" x2="-10146.4053" y2="886.653" gradientTransform="matrix(-1 0 0 1 -9429.2793 0)">
					<stop  offset="0" style="stop-color:#F9BABA"/>
					<stop  offset="1" style="stop-color:#F5928F"/>
				</linearGradient>
				<path style="fill:url(#SVGID_00000116957191385361898170000009634087624377670332_);" d="M722.73,902.97l-4.81,11.79
					c-0.66,1.62-2.3,2.62-4.03,2.44c-1.18-0.12-2.57-0.35-3.93-0.76c-2.71-0.82-4.24-3.7-3.43-6.42l3.63-12.14L722.73,902.97z"/>
				
					<linearGradient id="SVGID_00000058558302030001022880000001345306834747059361_" gradientUnits="userSpaceOnUse" x1="-10234.3984" y1="1014.3137" x2="-10233.6143" y2="1097.4719" gradientTransform="matrix(-1 0 0 1 -9429.2793 0)">
					<stop  offset="0" style="stop-color:#201B59"/>
					<stop  offset="1" style="stop-color:#2D2D84"/>
				</linearGradient>
				<path style="fill:url(#SVGID_00000058558302030001022880000001345306834747059361_);" d="M804.95,924.57
					c0,0-9.63,8.06-13.38,18.39c-1.03,2.84,1.15,5.84,4.17,5.84h19.82c2.9,0,5.12-2.61,4.62-5.47
					C818.92,936.2,815.28,924.6,804.95,924.57z"/>
				
					<linearGradient id="SVGID_00000101093570655368517670000000044030846624197514_" gradientUnits="userSpaceOnUse" x1="-10236.3975" y1="931.9488" x2="-10240.6025" y2="899.0757" gradientTransform="matrix(-1 0 0 1 -9429.2793 0)">
					<stop  offset="0" style="stop-color:#F9BABA"/>
					<stop  offset="1" style="stop-color:#F5928F"/>
				</linearGradient>
				<path style="fill:url(#SVGID_00000101093570655368517670000000044030846624197514_);" d="M816.88,914.08
					c0,0-1.95,8.61-3.44,14.3c-0.27,1.03-1.37,1.6-2.38,1.24c-3-1.07-5.44-1.55-7.21-1.31c-0.82,0.11-1.54-0.57-1.55-1.4l-0.19-14.3
					L816.88,914.08z"/>
				
					<linearGradient id="SVGID_00000139991113594963522610000006892895782445744262_" gradientUnits="userSpaceOnUse" x1="-10265.7812" y1="807.037" x2="-10136.3613" y2="807.037" gradientTransform="matrix(-1 0 0 1 -9429.2793 0)">
					<stop  offset="0" style="stop-color:#201B59"/>
					<stop  offset="1" style="stop-color:#2D2D84"/>
				</linearGradient>
				<path style="fill:url(#SVGID_00000139991113594963522610000006892895782445744262_);" d="M765.66,720.33l-58.58,178.71
					c0,0,11.24,7.36,16.59,7.05l69.58-143.62c0,0,12.18,88.49,6.28,152.03l19.93,1.52c0,0,32.41-162.36,7.86-217.97L765.66,720.33z"
					/>
				<path class="st4" d="M792.87,760.93c0.02,0,0.05,0,0.07,0c0.31-0.04,0.53-0.32,0.49-0.63l-2.27-18.04
					c-0.04-0.31-0.32-0.53-0.63-0.49c-0.31,0.04-0.53,0.32-0.49,0.63l2.27,18.04C792.35,760.72,792.59,760.93,792.87,760.93z"/>
			</g>
			
				<linearGradient id="SVGID_00000052787124316732446350000006031182496521388702_" gradientUnits="userSpaceOnUse" x1="887.9055" y1="489.002" x2="856.4059" y2="532.4497">
				<stop  offset="0" style="stop-color:#F5928F"/>
				<stop  offset="1" style="stop-color:#F37064"/>
			</linearGradient>
			<path style="fill:url(#SVGID_00000052787124316732446350000006031182496521388702_);" d="M754.68,563.08
				c0,0,47.46,4.21,40.75,38.03c0,0,26.23,49.37,38.5,107.53c0.4,1.89-0.87,3.74-2.77,4.06l-79.04,13.53
				c-2.18,0.37-4.28-0.99-4.84-3.13l-18.88-72.98l-7.36,33.93l-23.38-6.09l19.68-99.71C717.33,578.25,720.08,563.7,754.68,563.08z"
				/>
			
				<linearGradient id="SVGID_00000166674785940664691540000000849867333388724107_" gradientUnits="userSpaceOnUse" x1="890.0324" y1="431.3195" x2="712.9827" y2="645.3001">
				<stop  offset="0" style="stop-color:#E1483D"/>
				<stop  offset="1" style="stop-color:#E9625A"/>
			</linearGradient>
			<path style="fill:url(#SVGID_00000166674785940664691540000000849867333388724107_);" d="M727.99,646.86c0.04,0,0.08,0,0.13-0.01
				c0.32-0.07,0.52-0.38,0.45-0.7l-6.59-30.25c-0.07-0.32-0.38-0.52-0.7-0.45c-0.32,0.07-0.52,0.38-0.45,0.7l6.59,30.25
				C727.48,646.67,727.72,646.86,727.99,646.86z"/>
			
				<linearGradient id="SVGID_00000022525307586789063500000004657610366459903400_" gradientUnits="userSpaceOnUse" x1="814.3441" y1="656.3139" x2="718.2209" y2="758.954">
				<stop  offset="0" style="stop-color:#F9BABA"/>
				<stop  offset="1" style="stop-color:#F5928F"/>
			</linearGradient>
			<path style="fill:url(#SVGID_00000022525307586789063500000004657610366459903400_);" d="M732.76,736.88
				c2.49-1.37,5.4-1.75,8.16-1.06l5.5,1.37c1.17,0.29,2.33-0.51,2.46-1.71l5.69-50.65c7.12,3.38,17.38,2.98,20.77,2.73l-13.1,59.71
				h-45.83L732.76,736.88z"/>
			
				<linearGradient id="SVGID_00000067210101872486324520000004834490162093692829_" gradientUnits="userSpaceOnUse" x1="-10150.3115" y1="642.1703" x2="-10040.2617" y2="642.1703" gradientTransform="matrix(-1 0 0 1 -9429.2793 0)">
				<stop  offset="0" style="stop-color:#F9BABA"/>
				<stop  offset="1" style="stop-color:#F5928F"/>
			</linearGradient>
			<path style="fill:url(#SVGID_00000067210101872486324520000004834490162093692829_);" d="M610.98,627.01l1.39-4.6
				c0.8-2.65,2.76-4.79,5.32-5.83l25.06-10.08c0,0,0.38-3.21-5.29-5.4c-5.67-2.18-4.35-8.54-4.35-8.54s7.75,3.54,19.09,9.14
				c6.49,3.21,10.13,8.87,12.06,13.13l56.77,69.21l-6.67,4.58c-8.77,6.02-20.82,3.06-25.8-6.33l-30.76-58.98
				C642.37,627.96,626.74,628.85,610.98,627.01z"/>
			<g>
				
					<linearGradient id="SVGID_00000052076020672480628600000017751810894127219086_" gradientUnits="userSpaceOnUse" x1="-10189.9316" y1="580.4468" x2="-10151.6318" y2="541.1518" gradientTransform="matrix(-1 0 0 1 -9429.2793 0)">
					<stop  offset="0" style="stop-color:#F9BABA"/>
					<stop  offset="1" style="stop-color:#F5928F"/>
				</linearGradient>
				<path style="fill:url(#SVGID_00000052076020672480628600000017751810894127219086_);" d="M739.3,530.79l14.6,40.85
					c0,0-12.93,10.11-22.36,6.69l-7.36-23.42C724.19,554.91,729.8,526.29,739.3,530.79z"/>
				<g>
					
						<linearGradient id="SVGID_00000051353145083179297640000012452280897559599232_" gradientUnits="userSpaceOnUse" x1="-10134.3867" y1="516.3937" x2="-10182.1377" y2="579.5641" gradientTransform="matrix(-1 0 0 1 -9429.2793 0)">
						<stop  offset="0" style="stop-color:#F9BABA"/>
						<stop  offset="1" style="stop-color:#F5928F"/>
					</linearGradient>
					<path style="fill:url(#SVGID_00000051353145083179297640000012452280897559599232_);" d="M695.74,516.12
						c0,0.63,14.06,39.81,14.06,39.81l22.2-8.5l-7.81-39.11C724.19,508.31,695.74,505.58,695.74,516.12z"/>
					
						<linearGradient id="SVGID_00000117665955737896147930000017525250029620453761_" gradientUnits="userSpaceOnUse" x1="-10170.8555" y1="531.632" x2="-10113.8164" y2="531.632" gradientTransform="matrix(-1 0 0 1 -9429.2793 0)">
						<stop  offset="0" style="stop-color:#201B59"/>
						<stop  offset="1" style="stop-color:#2D2D84"/>
					</linearGradient>
					<path style="fill:url(#SVGID_00000117665955737896147930000017525250029620453761_);" d="M720.29,517.84l5.72,20.27
						c0.07,0.26,0.11,0.52,0.11,0.79c0,1.65-0.41,7.34-6.2,6.57c-5.26-0.7-10.07-1.26-13.12,0.18c-1.37,0.65-2.03,2.23-1.52,3.65
						c1.28,3.56,4.31,11.53,8,18.05c0.75,1.32,2.39,1.84,3.77,1.21c4.17-1.9,12.85-6.14,19.03-11.2c0.84-0.68,1.24-1.76,1.04-2.82
						c-0.97-5.18-3.87-20.95-4-25.47c-0.12-4.24,4.64-7.48,6.73-8.7c0.69-0.4,1.18-1.06,1.36-1.83c0.66-2.73,1.22-8.91-6.67-10.27
						c-1.65-0.28-2.72-1.86-2.39-3.5c0.67-3.26,0.45-8.07-5.75-9.84c-6.3-1.8-10.27,1.99-12.28,4.9c-0.82,1.18-2.34,1.56-3.65,0.97
						c-0.74-0.33-1.64-0.35-2.61,0.47c-1.3,1.1-3.28,0.76-4.24-0.64c-1.84-2.7-5.18-5.4-10.83-3.58
						c-10.03,3.24-9.55,14.81-5.87,21.09c3.68,6.29,14.35,2.15,19.4-2.02c3.84-3.17,9.69-1.27,12.27-0.18
						C719.44,516.28,720.05,516.98,720.29,517.84z"/>
					
						<linearGradient id="SVGID_00000149361172535353080980000005820266196061714878_" gradientUnits="userSpaceOnUse" x1="-10204.3232" y1="566.4196" x2="-10166.0234" y2="527.1249" gradientTransform="matrix(-1 0 0 1 -9429.2793 0)">
						<stop  offset="0" style="stop-color:#F9BABA"/>
						<stop  offset="1" style="stop-color:#F5928F"/>
					</linearGradient>
					<path style="fill:url(#SVGID_00000149361172535353080980000005820266196061714878_);" d="M735.14,536.45
						c0,0-5.94-11.23-2.01-14.75c3.92-3.53,10.57-2.95,10.4,5.83C743.31,538.45,735.14,536.45,735.14,536.45z"/>
				</g>
			</g>
			
				<linearGradient id="SVGID_00000176019749548259888970000001260687153028741510_" gradientUnits="userSpaceOnUse" x1="925.0117" y1="460.263" x2="747.9626" y2="674.2429">
				<stop  offset="0" style="stop-color:#E1483D"/>
				<stop  offset="1" style="stop-color:#E9625A"/>
			</linearGradient>
			<path style="fill:url(#SVGID_00000176019749548259888970000001260687153028741510_);" d="M770.73,688.31
				c3.24,0,5.55-0.25,5.8-0.27l0.42-0.05l17.28-80.57c0.07-0.32-0.13-0.63-0.45-0.7c-0.32-0.07-0.63,0.13-0.7,0.45l-17.1,79.74
				c-2.57,0.23-16.31,1.14-23.56-4l14.97-70l-3.12-5.89c-0.15-0.29-0.51-0.4-0.8-0.24c-0.29,0.15-0.4,0.51-0.24,0.8l2.92,5.51
				l-15.04,70.32l0.3,0.23C756.66,687.57,765.1,688.31,770.73,688.31z"/>
		</g>
		<g>
			<path class="st4" d="M252.65,933.97c-0.4,0-0.8-0.09-1.19-0.27c-1.53-0.72-2.23-2.65-1.58-4.32l63.15-160.23
				c0.66-1.67,2.43-2.44,3.96-1.72c1.53,0.72,2.23,2.65,1.58,4.32l-63.15,160.23C254.92,933.22,253.81,933.97,252.65,933.97z"/>
			<path class="st4" d="M323.79,933.97c-1.17,0-2.28-0.74-2.77-1.99l-63.15-160.23c-0.66-1.67,0.05-3.6,1.58-4.32
				c1.53-0.72,3.3,0.05,3.96,1.72l63.15,160.23c0.66,1.67-0.05,3.6-1.58,4.32C324.59,933.88,324.19,933.97,323.79,933.97z"/>
			<path class="st4" d="M681.23,933.97c-0.4,0-0.8-0.09-1.19-0.27c-1.53-0.72-2.23-2.65-1.58-4.32l63.15-160.23
				c0.66-1.67,2.43-2.44,3.96-1.72c1.53,0.72,2.23,2.65,1.58,4.32L684,931.98C683.51,933.22,682.4,933.97,681.23,933.97z"/>
			<path class="st4" d="M752.37,933.97c-1.17,0-2.28-0.74-2.77-1.99l-63.15-160.23c-0.66-1.67,0.05-3.6,1.58-4.32
				c1.53-0.72,3.3,0.05,3.96,1.72l63.15,160.23c0.66,1.67-0.05,3.6-1.58,4.32C753.17,933.88,752.77,933.97,752.37,933.97z"/>
		</g>
		<g>
			<path class="st80" d="M672.07,757.83l91.46,0v-9.44h-91.46C674.02,748.4,674.02,757.83,672.07,757.83z"/>
			
				<linearGradient id="SVGID_00000019637738253843419310000013982535060366392245_" gradientUnits="userSpaceOnUse" x1="-7976.3154" y1="-4533.749" x2="-8056.1714" y2="-4339.5044" gradientTransform="matrix(-1 0 0 1 -9429.2793 0)">
				<stop  offset="0" style="stop-color:#5560AB"/>
				<stop  offset="1" style="stop-color:#4C57A6"/>
			</linearGradient>
			<path style="fill:url(#SVGID_00000019637738253843419310000013982535060366392245_);" d="M762.44,757.83
				c0.6,0,1.09-0.49,1.09-1.09v-7.27c0-0.6-0.49-1.09-1.09-1.09h-92.08c-0.6,0-1.09-0.48-1.09-1.07c0-0.59,0.49-1.07,1.09-1.07h98.4
				c2.18,0,3.95,1.77,3.95,3.95v6.03c0,2.06-1.67,3.72-3.72,3.72h-98.63c-0.6,0-1.09-0.48-1.09-1.07s0.49-1.07,1.09-1.07H762.44z"/>
		</g>
		<path class="st4" d="M776.79,764.2c0.31-1.05-0.11-2.14-1.14-2.97c-1.03-0.83-2.56-1.31-4.18-1.31H223.43
			c-2.13,0-4.11,0.72-5.25,1.91c-1.15,1.19-1.3,2.68-0.41,3.96l5.94,8.53c1.36,1.95,4.31,3.2,7.55,3.2h536.46
			c3.02,0,5.61-1.42,6.18-3.38L776.79,764.2z"/>
	</g>
	<g>
		<g>
			<g class="st82">
				<path class="st80" d="M477.68,205.04c-1.74-0.36-2.85-2.06-2.49-3.79c0.7-3.37,1.27-6.82,1.68-10.26
					c0.21-1.74,1.77-2.98,3.51-2.81c0.02,0,0.04,0,0.06,0.01c1.76,0.21,3.01,1.81,2.8,3.57c-0.44,3.62-1.03,7.25-1.77,10.8
					c-0.34,1.62-1.85,2.7-3.46,2.54C477.91,205.08,477.79,205.07,477.68,205.04z M477.74,174.13c-0.06-3.46-0.26-6.95-0.61-10.37
					c-0.18-1.76,1.1-3.34,2.87-3.52c1.77-0.17,3.34,1.1,3.52,2.87c0.37,3.6,0.59,7.28,0.65,10.91c0.03,1.77-1.38,3.23-3.15,3.26
					c-0.13,0-0.26,0-0.38-0.02C479.03,177.11,477.77,175.77,477.74,174.13z M474.25,147.13c-0.82-3.35-1.8-6.7-2.91-9.97
					c-0.57-1.68,0.33-3.5,2.01-4.07c1.68-0.57,3.5,0.33,4.07,2.01c1.17,3.44,2.2,6.97,3.07,10.5c0.42,1.72-0.63,3.46-2.35,3.88
					c-0.37,0.09-0.73,0.11-1.09,0.08C475.73,149.43,474.58,148.49,474.25,147.13z M464.81,121.59c-1.55-3.08-3.26-6.14-5.07-9.07
					c-0.93-1.51-0.46-3.49,1.05-4.41c1.51-0.93,3.48-0.46,4.41,1.05c1.91,3.09,3.7,6.31,5.34,9.55c0.8,1.58,0.16,3.51-1.42,4.31
					c-0.57,0.29-1.18,0.39-1.76,0.33C466.3,123.23,465.32,122.61,464.81,121.59z M449.91,98.8c-2.19-2.66-4.53-5.26-6.95-7.72
					c-1.24-1.27-1.22-3.3,0.05-4.54c1.27-1.24,3.3-1.22,4.54,0.05c2.55,2.6,5.01,5.33,7.32,8.13c1.13,1.37,0.94,3.39-0.43,4.52
					c-0.69,0.57-1.54,0.8-2.37,0.72C451.25,99.86,450.47,99.47,449.91,98.8z M430.34,79.86c-2.73-2.11-5.59-4.12-8.49-5.99
					c-1.49-0.96-1.92-2.95-0.96-4.43c0.96-1.49,2.94-1.92,4.43-0.96c3.05,1.97,6.06,4.09,8.93,6.31c1.4,1.08,1.66,3.1,0.58,4.5
					c-0.7,0.91-1.8,1.34-2.87,1.23C431.39,80.46,430.83,80.24,430.34,79.86z M313.06,58.91c-0.57-1.68,0.33-3.5,2.01-4.07
					c3.44-1.16,6.98-2.19,10.51-3.05c1.72-0.42,3.46,0.63,3.88,2.36c0.42,1.72-0.63,3.46-2.36,3.88c-3.36,0.82-6.71,1.79-9.98,2.9
					c-0.45,0.15-0.91,0.2-1.35,0.15C314.56,60.95,313.48,60.14,313.06,58.91z M407.07,65.75c-3.13-1.45-6.36-2.78-9.6-3.95
					c-1.67-0.6-2.53-2.44-1.93-4.11c0.6-1.67,2.44-2.52,4.11-1.93c3.42,1.23,6.82,2.63,10.11,4.16c1.61,0.74,2.31,2.65,1.57,4.26
					c-0.59,1.28-1.91,1.98-3.24,1.85C407.75,65.99,407.4,65.9,407.07,65.75z M340.23,52.31c-0.18-1.76,1.11-3.34,2.87-3.51
					c3.61-0.36,7.29-0.57,10.92-0.63c1.77-0.03,3.23,1.39,3.26,3.16c0.03,1.77-1.39,3.23-3.16,3.26c-3.46,0.05-6.95,0.25-10.38,0.6
					c-0.22,0.02-0.43,0.02-0.65,0C341.61,55.03,340.38,53.85,340.23,52.31z M381.23,57.19c-3.37-0.71-6.82-1.28-10.25-1.7
					c-1.76-0.21-3.01-1.81-2.79-3.57c0.21-1.74,1.77-2.98,3.51-2.8c0.02,0,0.05,0,0.07,0.01c3.61,0.44,7.24,1.04,10.79,1.79
					c1.73,0.37,2.84,2.07,2.48,3.8c-0.34,1.62-1.85,2.69-3.46,2.53C381.46,57.23,381.35,57.21,381.23,57.19z"/>
				<path class="st80" d="M295.17,70.18c0.63,0.06,1.28-0.06,1.88-0.39c1.45-0.8,2.93-1.59,4.42-2.34c1.58-0.8,2.22-2.73,1.42-4.31
					c-0.8-1.58-2.73-2.22-4.31-1.42c-1.56,0.79-3.13,1.61-4.65,2.46c-1.55,0.86-2.11,2.81-1.25,4.36
					C293.22,69.5,294.16,70.08,295.17,70.18z"/>
			</g>
			<g class="st82">
				<path class="st80" d="M234.99,147.28c1.54,0.16,3.01-0.82,3.42-2.37c0.42-1.6,0.89-3.22,1.38-4.8c0.53-1.69-0.42-3.49-2.11-4.02
					c-1.7-0.53-3.49,0.42-4.02,2.11c-0.52,1.67-1.01,3.38-1.46,5.06c-0.45,1.71,0.56,3.47,2.28,3.92
					C234.65,147.24,234.82,147.26,234.99,147.28z"/>
				<path class="st80" d="M336.74,302.98c-1.75-0.26-2.96-1.9-2.69-3.65c0.26-1.75,1.9-2.95,3.65-2.69c3.34,0.5,6.74,0.87,10.17,1.1
					c1.76,0.11,3.1,1.65,2.99,3.42c-0.12,1.77-1.65,3.1-3.42,2.99c-1.48-0.1-2.96-0.22-4.43-0.37
					C340.92,303.55,338.81,303.29,336.74,302.98z M361.51,301.14c-0.12-1.77,1.21-3.3,2.98-3.42c3.39-0.23,6.81-0.61,10.17-1.13
					c1.75-0.27,3.39,0.93,3.66,2.68c0.27,1.75-0.93,3.39-2.68,3.66c-3.53,0.54-7.13,0.94-10.7,1.19c-0.19,0.01-0.37,0.01-0.55-0.01
					C362.85,303.96,361.61,302.73,361.51,301.14z M319.68,299.19c-3.42-1.01-6.85-2.18-10.19-3.48c-1.65-0.64-2.47-2.5-1.82-4.15
					c0.64-1.65,2.5-2.46,4.15-1.82c3.17,1.24,6.42,2.35,9.67,3.31c1.7,0.5,2.67,2.29,2.17,3.99c-0.44,1.5-1.89,2.44-3.4,2.28
					C320.07,299.28,319.87,299.24,319.68,299.19z M388.7,296.95c-0.51-1.7,0.46-3.49,2.16-3.99c3.25-0.97,6.51-2.09,9.67-3.33
					c1.65-0.65,3.51,0.16,4.16,1.81c0.65,1.65-0.16,3.51-1.81,4.16c-3.33,1.31-6.75,2.49-10.18,3.51c-0.41,0.12-0.83,0.16-1.24,0.12
					C390.2,299.1,389.08,298.23,388.7,296.95z M293.69,288.26c-3.12-1.74-6.2-3.63-9.17-5.63c-1.47-0.99-1.86-2.98-0.87-4.45
					c0.99-1.47,2.98-1.86,4.45-0.87c2.82,1.9,5.75,3.7,8.71,5.35c1.55,0.86,2.1,2.82,1.24,4.37c-0.64,1.15-1.89,1.75-3.13,1.63
					C294.51,288.61,294.08,288.48,293.69,288.26z M270.73,271.9c-2.67-2.38-5.26-4.9-7.72-7.5c-1.22-1.29-1.16-3.32,0.12-4.54
					c1.29-1.22,3.32-1.16,4.54,0.12c2.33,2.46,4.8,4.86,7.34,7.12c1.32,1.18,1.44,3.21,0.26,4.53c-0.71,0.8-1.73,1.15-2.72,1.05
					C271.89,272.63,271.25,272.37,270.73,271.9z M251.88,250.92c-2.09-2.91-4.07-5.94-5.9-9c-0.91-1.52-0.41-3.49,1.11-4.4
					c1.52-0.91,3.49-0.41,4.4,1.11c1.74,2.91,3.63,5.79,5.61,8.55c1.03,1.44,0.7,3.44-0.74,4.48c-0.66,0.47-1.44,0.66-2.19,0.59
					C253.28,252.15,252.43,251.7,251.88,250.92z M238.05,226.33c-1.4-3.29-2.67-6.68-3.79-10.08c-0.55-1.68,0.36-3.5,2.05-4.05
					c1.68-0.55,3.5,0.37,4.05,2.05c1.06,3.22,2.27,6.44,3.6,9.57c0.69,1.63-0.07,3.51-1.7,4.21c-0.52,0.22-1.05,0.29-1.57,0.24
					C239.56,228.15,238.52,227.45,238.05,226.33z M229.96,199.29c-0.64-3.51-1.13-7.1-1.47-10.66c-0.17-1.76,1.13-3.33,2.89-3.5
					c1.76-0.17,3.33,1.12,3.5,2.89c0.32,3.38,0.79,6.79,1.4,10.12c0.32,1.74-0.84,3.41-2.58,3.73c-0.3,0.06-0.61,0.07-0.9,0.04
					C231.41,201.77,230.22,200.73,229.96,199.29z M228.01,171.16c0.1-2.63,0.29-5.29,0.56-7.9c0.1-0.95,0.2-1.89,0.32-2.83
					c0.22-1.76,1.8-3.04,3.58-2.79c1.76,0.22,3.01,1.82,2.79,3.58c-0.11,0.89-0.21,1.79-0.3,2.69c-0.25,2.48-0.43,5.01-0.53,7.51
					c-0.07,1.77-1.56,3.15-3.33,3.08c-0.07,0-0.13-0.01-0.2-0.01C229.21,174.31,227.94,172.86,228.01,171.16z"/>
				<path class="st80" d="M416.85,288.45c0.63,0.06,1.29-0.06,1.89-0.39c1.51-0.85,3.04-1.75,4.53-2.67
					c1.51-0.93,1.98-2.91,1.05-4.41c-0.93-1.51-2.91-1.98-4.41-1.05c-1.42,0.88-2.87,1.73-4.3,2.54c-1.54,0.87-2.09,2.82-1.23,4.37
					C414.9,287.78,415.84,288.35,416.85,288.45z"/>
			</g>
			<g>
				<path class="st80" d="M431.76,235.52c0.45-0.45,0.57-1.14,0.29-1.72l-7.99-16.41c4.49-7.24,7.86-15.25,9.86-23.79l17.24-5.95
					c0.6-0.21,1.01-0.78,1.01-1.42l0-21.89c0-0.64-0.41-1.21-1.01-1.42l-17.24-5.94c-2-8.54-5.37-16.55-9.87-23.79l7.99-16.41
					c0.28-0.58,0.16-1.26-0.29-1.72l-15.48-15.48c-0.45-0.45-1.14-0.57-1.72-0.29l-16.41,7.99c-7.24-4.49-15.25-7.86-23.79-9.86
					l-5.95-17.24c-0.21-0.6-0.78-1.01-1.42-1.01l-21.89,0c-0.64,0-1.21,0.41-1.42,1.01l-5.94,17.24c-8.54,2-16.55,5.37-23.79,9.87
					l-16.41-7.99c-0.57-0.28-1.26-0.16-1.72,0.29l-15.48,15.48c-0.45,0.45-0.57,1.14-0.29,1.72l7.99,16.41
					c-4.49,7.24-7.86,15.25-9.86,23.79l-17.24,5.95c-0.6,0.21-1.01,0.78-1.01,1.42l0,21.89c0,0.64,0.41,1.21,1.01,1.42l17.24,5.94
					c2,8.54,5.37,16.55,9.87,23.79l-7.99,16.41c-0.28,0.57-0.16,1.26,0.29,1.72l15.48,15.48c0.45,0.45,1.14,0.57,1.72,0.29
					l16.41-7.99c7.24,4.49,15.25,7.86,23.79,9.86l5.95,17.24c0.21,0.6,0.78,1.01,1.42,1.01l21.89,0c0.64,0,1.21-0.41,1.42-1.01
					l5.94-17.24c8.54-2,16.55-5.37,23.79-9.87l16.41,7.99c0.58,0.28,1.26,0.16,1.72-0.29L431.76,235.52z"/>
				
					<linearGradient id="SVGID_00000088831038485634772800000009313600860868486067_" gradientUnits="userSpaceOnUse" x1="334.0517" y1="175.2963" x2="378.063" y2="175.2963">
					<stop  offset="0" style="stop-color:#DBE2F3"/>
					<stop  offset="1" style="stop-color:#EAEFF8"/>
				</linearGradient>
				<path style="fill:url(#SVGID_00000088831038485634772800000009313600860868486067_);" d="M350.67,196.63
					c-11.76-2.97-18.92-14.95-15.95-26.72c1.44-5.7,5.01-10.5,10.06-13.51c5.05-3.01,10.96-3.88,16.66-2.44
					c11.76,2.97,18.92,14.95,15.95,26.72c-2.7,10.7-12.86,17.59-23.54,16.51C352.8,197.09,351.73,196.9,350.67,196.63z
					 M347.41,160.81c-3.87,2.31-6.61,5.99-7.71,10.36c-2.28,9.02,3.21,18.21,12.23,20.49c9.02,2.28,18.21-3.21,20.49-12.23
					c2.28-9.02-3.21-18.21-12.23-20.49c-0.82-0.21-1.64-0.35-2.46-0.43C354.14,158.15,350.55,158.94,347.41,160.81z"/>
				
					<linearGradient id="SVGID_00000126284062884065211950000011697815538285748627_" gradientUnits="userSpaceOnUse" x1="301.6534" y1="174.9445" x2="409.8594" y2="174.9445">
					<stop  offset="0" style="stop-color:#DBE2F3"/>
					<stop  offset="1" style="stop-color:#EAEFF8"/>
				</linearGradient>
				<path style="fill:url(#SVGID_00000126284062884065211950000011697815538285748627_);" d="M350.21,228.77
					c1.83,0.19,3.69,0.28,5.55,0.28l0,0c0.59,0,1.18-0.01,1.76-0.03c2.9-0.09,5.78-0.42,8.61-0.97c0.04-0.01,0.08-0.01,0.12-0.02
					c0.11-0.02,0.22-0.04,0.33-0.07c0.21-0.04,0.43-0.09,0.64-0.13c0.56-0.12,0.95-0.59,1.01-1.12c0.01-0.13,0.01-0.27-0.02-0.4
					c-0.15-0.69-0.83-1.13-1.52-0.98c-3.56,0.77-7.24,1.16-10.91,1.16c-18.26,0-34.33-9.54-43.49-23.91
					c-5.09-7.99-8.05-17.47-8.05-27.63c0-1.78,0.09-3.55,0.27-5.3c1.19-11.76,6.35-22.67,14.82-31.14
					c9.73-9.74,22.67-15.1,36.44-15.1c28.43,0,51.54,23.12,51.54,51.53c0,1.75-0.09,3.5-0.26,5.23c-0.76,7.5-3.16,14.76-7.04,21.23
					c-0.1,0.17-0.16,0.35-0.18,0.53c-0.05,0.48,0.18,0.97,0.62,1.23c0.61,0.36,1.4,0.17,1.76-0.44c4.08-6.8,6.59-14.42,7.39-22.29
					c0.18-1.82,0.28-3.65,0.28-5.49c0-29.83-24.28-54.1-54.11-54.1c-14.45,0-28.04,5.63-38.26,15.85
					c-8.9,8.9-14.31,20.35-15.56,32.7c-0.19,1.84-0.28,3.69-0.28,5.56c0,14.45,5.63,28.04,15.85,38.26
					C326.4,222.1,337.85,227.52,350.21,228.77z"/>
			</g>
		</g>
		<g>
			<g class="st82">
				<path class="st80" d="M578.42,300.23c0.85,0.09,1.69-0.39,2.03-1.23c0.63-1.56,1.23-3.16,1.77-4.75
					c0.35-1.04-0.2-2.16-1.24-2.51c-1.04-0.36-2.16,0.21-2.51,1.24c-0.51,1.52-1.08,3.04-1.69,4.53c-0.41,1.01,0.08,2.17,1.09,2.58
					C578.06,300.17,578.24,300.21,578.42,300.23z"/>
				<path class="st80" d="M582.65,285.62c-1.07-0.22-1.76-1.27-1.54-2.34c0.55-2.71,0.98-5.47,1.26-8.22
					c0.06-0.58,0.11-1.16,0.16-1.75c0.09-1.09,1.04-1.9,2.13-1.82c1.03,0.12,1.9,1.04,1.82,2.13c-0.05,0.61-0.1,1.22-0.17,1.83
					c-0.29,2.88-0.73,5.78-1.32,8.62c-0.21,1-1.14,1.67-2.14,1.57C582.78,285.64,582.72,285.63,582.65,285.62z M582.71,263.25
					c-0.14-3.35-0.49-6.71-1.04-10.01c-0.18-1.08,0.55-2.1,1.63-2.28c1.07-0.18,2.1,0.55,2.28,1.63c0.58,3.45,0.94,6.98,1.09,10.49
					c0.05,1.09-0.8,2.02-1.9,2.06c-0.1,0-0.19,0-0.28-0.01C583.52,265.04,582.75,264.25,582.71,263.25z M579.4,243.44
					c-0.95-3.2-2.12-6.38-3.47-9.45c-0.44-1,0.02-2.17,1.02-2.61c1.01-0.44,2.17,0.01,2.61,1.02c1.41,3.21,2.63,6.55,3.64,9.91
					c0.31,1.05-0.28,2.15-1.33,2.47c-0.26,0.08-0.51,0.1-0.76,0.07C580.33,244.77,579.64,244.23,579.4,243.44z M571.33,225.05
					c-1.71-2.88-3.62-5.67-5.67-8.31c-0.67-0.87-0.52-2.11,0.35-2.78c0.86-0.67,2.11-0.52,2.78,0.35c2.15,2.77,4.15,5.7,5.95,8.71
					c0.56,0.94,0.25,2.16-0.69,2.72c-0.38,0.22-0.8,0.31-1.21,0.27C572.23,225.94,571.66,225.61,571.33,225.05z M559.01,209.18
					c-2.36-2.37-4.89-4.62-7.52-6.68c-0.86-0.67-1.01-1.92-0.34-2.78s1.92-1.01,2.78-0.33c2.76,2.16,5.41,4.52,7.88,7
					c0.77,0.78,0.77,2.03-0.01,2.8c-0.44,0.44-1.03,0.63-1.6,0.57C559.77,209.71,559.35,209.52,559.01,209.18z M543.21,196.79
					c-2.86-1.73-5.86-3.29-8.91-4.64c-1-0.44-1.45-1.62-1.01-2.61c0.44-1,1.61-1.45,2.62-1.01c3.2,1.42,6.35,3.06,9.35,4.87
					c0.94,0.57,1.24,1.78,0.67,2.72c-0.41,0.68-1.16,1.02-1.9,0.95C543.75,197.03,543.47,196.95,543.21,196.79z M524.87,188.64
					c-3.19-0.97-6.48-1.75-9.79-2.31c-1.08-0.19-1.8-1.21-1.62-2.29c0.18-1.08,1.21-1.79,2.29-1.62c3.47,0.6,6.92,1.41,10.26,2.43
					c1.05,0.32,1.64,1.42,1.32,2.47c-0.28,0.92-1.17,1.49-2.09,1.4C525.12,188.7,525,188.68,524.87,188.64z M492.89,183.54
					c-0.08-1.09,0.74-2.04,1.83-2.12c3.02-0.23,6.11-0.29,9.16-0.19c0.46,0.01,0.93,0.03,1.39,0.05c1.09,0.02,1.94,0.98,1.88,2.08
					c-0.05,1.09-0.98,1.93-2.08,1.88c-0.43-0.02-0.87-0.04-1.31-0.05c-2.92-0.09-5.87-0.03-8.75,0.18c-0.12,0.01-0.24,0.01-0.35,0
					C493.73,185.27,492.96,184.51,492.89,183.54z"/>
			</g>
			<g class="st82">
				<path class="st80" d="M491.36,351.78c-3.43-0.39-6.87-1-10.22-1.8c-1.06-0.26-1.72-1.32-1.47-2.39
					c0.25-1.07,1.33-1.71,2.39-1.47c3.19,0.76,6.47,1.34,9.74,1.72c1.09,0.12,1.87,1.11,1.74,2.19c-0.12,1.08-1.09,1.86-2.17,1.75
					C491.38,351.78,491.37,351.78,491.36,351.78z M499.73,350.36c-0.01-1.09,0.88-1.99,1.97-1.99c3.29-0.02,6.62-0.24,9.88-0.66
					c1.08-0.13,2.08,0.63,2.21,1.72c0.14,1.09-0.63,2.08-1.72,2.21c-3.42,0.43-6.9,0.66-10.35,0.68c-0.07,0-0.14,0-0.21-0.01
					C500.52,352.22,499.74,351.39,499.73,350.36z M471.22,346.95c-3.24-1.21-6.43-2.63-9.48-4.22c-0.97-0.5-1.35-1.7-0.84-2.67
					c0.5-0.97,1.7-1.35,2.67-0.85c2.91,1.51,5.96,2.87,9.04,4.02c1.03,0.38,1.54,1.53,1.16,2.55c-0.32,0.86-1.18,1.37-2.05,1.28
					C471.55,347.05,471.38,347.01,471.22,346.95z M519.87,348.28c-0.27-1.06,0.37-2.14,1.43-2.41c3.19-0.81,6.36-1.83,9.43-3.02
					c1.02-0.39,2.17,0.11,2.57,1.13c0.4,1.02-0.11,2.17-1.13,2.57c-3.21,1.25-6.54,2.32-9.89,3.17c-0.23,0.06-0.46,0.07-0.69,0.05
					C520.79,349.68,520.08,349.11,519.87,348.28z M452.85,337.4c-2.84-1.95-5.6-4.09-8.19-6.37c-0.82-0.72-0.9-1.98-0.18-2.8
					c0.72-0.82,1.98-0.9,2.8-0.18c2.47,2.18,5.1,4.22,7.81,6.08c0.9,0.62,1.13,1.85,0.51,2.76c-0.42,0.62-1.14,0.92-1.84,0.85
					C453.45,337.7,453.13,337.59,452.85,337.4z M437.3,323.72c-2.3-2.58-4.46-5.32-6.43-8.15c-0.62-0.9-0.4-2.13,0.49-2.76
					c0.9-0.63,2.13-0.4,2.76,0.5c1.88,2.69,3.94,5.31,6.13,7.77c0.73,0.82,0.66,2.07-0.16,2.8c-0.43,0.38-0.98,0.55-1.52,0.49
					C438.1,324.32,437.64,324.1,437.3,323.72z M425.47,306.71c-1.62-3.06-3.06-6.24-4.29-9.45c-0.39-1.02,0.12-2.17,1.14-2.56
					c1.02-0.39,2.17,0.12,2.56,1.14c1.17,3.07,2.55,6.1,4.09,9.01c0.51,0.97,0.14,2.17-0.83,2.68c-0.36,0.19-0.75,0.26-1.12,0.22
					C426.39,307.69,425.79,307.32,425.47,306.71z"/>
				<path class="st80" d="M540.54,342.38c0.38,0.04,0.78-0.03,1.14-0.23c1.49-0.8,2.97-1.66,4.39-2.53c0.93-0.57,1.22-1.8,0.65-2.73
					c-0.58-0.93-1.8-1.22-2.73-0.65c-1.35,0.84-2.76,1.65-4.19,2.42c-0.96,0.52-1.32,1.72-0.8,2.68
					C539.32,341.95,539.91,342.32,540.54,342.38z"/>
			</g>
			<g>
				<path class="st80" d="M551.84,306.39c0.3-0.3,0.38-0.76,0.19-1.15l-5.35-10.98c3.01-4.85,5.26-10.21,6.6-15.92l11.54-3.98
					c0.4-0.14,0.68-0.52,0.68-0.95l0-14.65c0-0.43-0.27-0.81-0.68-0.95l-11.54-3.98c-1.34-5.71-3.59-11.07-6.6-15.92l5.35-10.98
					c0.19-0.38,0.11-0.85-0.19-1.15l-10.36-10.36c-0.3-0.3-0.76-0.38-1.15-0.19l-10.98,5.35c-4.85-3.01-10.21-5.26-15.92-6.6
					l-3.98-11.54c-0.14-0.4-0.52-0.68-0.95-0.68l-14.65,0c-0.43,0-0.81,0.27-0.95,0.68L488.92,214c-5.71,1.34-11.07,3.59-15.92,6.6
					l-10.98-5.35c-0.38-0.19-0.85-0.11-1.15,0.19l-10.36,10.36c-0.3,0.3-0.38,0.76-0.19,1.15l5.35,10.98
					c-3.01,4.85-5.26,10.21-6.6,15.92l-11.54,3.98c-0.4,0.14-0.68,0.52-0.68,0.95l0,14.65c0,0.43,0.27,0.81,0.68,0.95l11.54,3.98
					c1.34,5.71,3.59,11.07,6.6,15.92l-5.35,10.98c-0.19,0.38-0.11,0.85,0.19,1.15l10.36,10.36c0.3,0.3,0.76,0.38,1.15,0.19
					l10.98-5.35c4.85,3.01,10.21,5.26,15.92,6.6l3.98,11.54c0.14,0.4,0.52,0.68,0.95,0.68l14.65,0c0.43,0,0.81-0.27,0.95-0.68
					l3.98-11.54c5.71-1.34,11.07-3.6,15.92-6.6l10.98,5.35c0.38,0.19,0.85,0.11,1.15-0.19L551.84,306.39z"/>
				
					<linearGradient id="SVGID_00000004518619585877021050000002279372331545835140_" gradientUnits="userSpaceOnUse" x1="486.183" y1="266.0996" x2="516.1668" y2="266.0996">
					<stop  offset="0" style="stop-color:#DBE2F3"/>
					<stop  offset="1" style="stop-color:#EAEFF8"/>
				</linearGradient>
				<path style="fill:url(#SVGID_00000004518619585877021050000002279372331545835140_);" d="M497.51,280.63
					c-3.88-0.98-7.15-3.41-9.2-6.85c-2.05-3.44-2.64-7.47-1.66-11.35c2.02-8.01,10.17-12.88,18.2-10.87
					c8.01,2.02,12.89,10.19,10.86,18.2c-0.98,3.88-3.41,7.15-6.85,9.2c-2.79,1.67-5.98,2.37-9.16,2.05
					C498.97,280.94,498.24,280.81,497.51,280.63z M490.49,263.4c-0.72,2.86-0.29,5.82,1.22,8.35c1.51,2.53,3.91,4.32,6.77,5.04l0,0
					c2.86,0.72,5.82,0.29,8.35-1.22c2.53-1.51,4.32-3.91,5.04-6.77c1.49-5.89-2.1-11.9-7.99-13.39c-0.53-0.13-1.06-0.23-1.59-0.28
					C496.93,254.58,491.84,258.04,490.49,263.4z"/>
				
					<linearGradient id="SVGID_00000128469913981425759120000005826942587245294212_" gradientUnits="userSpaceOnUse" x1="463.6497" y1="265.8585" x2="538.3027" y2="265.8585">
					<stop  offset="0" style="stop-color:#DBE2F3"/>
					<stop  offset="1" style="stop-color:#EAEFF8"/>
				</linearGradient>
				<path style="fill:url(#SVGID_00000128469913981425759120000005826942587245294212_);" d="M497.19,302.99
					c1.25,0.13,2.51,0.19,3.79,0.19c2.54,0,5.08-0.26,7.57-0.77c0.11-0.02,0.22-0.05,0.33-0.07c0.86-0.19,1.47-0.9,1.55-1.74
					c0.02-0.2,0.01-0.41-0.04-0.62c-0.23-1.07-1.29-1.74-2.35-1.52c-2.31,0.5-4.69,0.75-7.06,0.75l0,0c-0.13,0-0.26,0-0.39,0
					c-5.62-0.05-11.01-1.51-15.8-4.17c-2.6-1.45-5.01-3.25-7.19-5.39c-0.02-0.02-0.04-0.03-0.05-0.05
					c-0.05-0.05-0.11-0.11-0.16-0.16c-6.3-6.3-9.77-14.68-9.77-23.59c0-1.15,0.06-2.3,0.17-3.43c0.77-7.62,4.11-14.68,9.6-20.16
					c6.3-6.3,14.68-9.77,23.59-9.77c8.91,0,17.29,3.47,23.59,9.77c6.3,6.3,9.77,14.68,9.77,23.59c0,1.13-0.06,2.26-0.17,3.38
					c-0.49,4.86-2.04,9.55-4.56,13.75c-0.15,0.26-0.24,0.54-0.27,0.82c-0.07,0.74,0.27,1.49,0.95,1.9c0.94,0.56,2.16,0.26,2.72-0.68
					c2.81-4.69,4.55-9.94,5.1-15.38c0.13-1.26,0.19-2.52,0.19-3.79c0-9.97-3.88-19.34-10.94-26.39
					c-7.05-7.05-16.42-10.94-26.39-10.93c-9.97,0-19.34,3.88-26.39,10.94c-6.14,6.14-9.87,14.04-10.74,22.56
					c-0.13,1.26-0.19,2.55-0.19,3.84C463.65,285.16,478.38,301.09,497.19,302.99z"/>
			</g>
		</g>
	</g>
</g>
</svg>
