<?xml version="1.0" encoding="utf-8"?>
<!-- Generator: Adobe Illustrator 27.5.0, SVG Export Plug-In . SVG Version: 6.00 Build 0)  -->
<svg version="1.1" id="Layer_1" xmlns="http://www.w3.org/2000/svg" xmlns:xlink="http://www.w3.org/1999/xlink" x="0px" y="0px"
	 viewBox="0 0 1000 1000" style="enable-background:new 0 0 1000 1000;" xml:space="preserve">
<style type="text/css">
	.st0{fill:url(#SVGID_1_);}
	.st1{fill:#C0CFEB;}
	.st2{opacity:0.43;fill:#FFFFFF;}
	.st3{opacity:0.45;fill:#FFFFFF;}
	.st4{fill:url(#SVGID_00000018936506063999218530000001750599470302753674_);}
	.st5{fill:#8193CA;}
	.st6{fill:url(#SVGID_00000074443258713034158950000015800103753045690275_);}
	.st7{fill:url(#SVGID_00000007403150030773575870000003346251782528891582_);}
	.st8{fill:#98B1DC;}
	.st9{opacity:0.5;fill:#FFFFFF;}
	.st10{fill:url(#SVGID_00000169553682936039859290000003809028102796611222_);}
	.st11{fill:#FFFFFF;}
	.st12{fill:url(#SVGID_00000111180906241869074700000015366428831373772447_);}
	.st13{fill:url(#SVGID_00000181771607280398739720000014552962419668327553_);}
	.st14{fill:url(#SVGID_00000144301514257339163550000012406065281395178630_);}
	.st15{fill:url(#SVGID_00000150781451492061122590000002766075970979788930_);}
	.st16{fill:url(#SVGID_00000053528920746785485530000013644551143695868582_);}
	.st17{fill:url(#SVGID_00000164493496484928893240000014311175232503099524_);}
	.st18{opacity:0.66;fill:#FFFFFF;}
	.st19{opacity:0.3;fill:#FFFFFF;}
	.st20{fill:url(#SVGID_00000005247672235585244080000017254459006693416862_);}
	.st21{fill:url(#SVGID_00000057852234978682473400000011036003002430590109_);}
	.st22{fill:url(#SVGID_00000052075462981925692770000007778336584575080383_);}
	.st23{fill:url(#SVGID_00000108996262896839365380000008322371862569226430_);}
	.st24{fill:url(#SVGID_00000084490125531715127010000012170514996187046538_);}
	.st25{fill:url(#SVGID_00000173160900502512027040000004082274007822216357_);}
	.st26{fill:url(#SVGID_00000095314680790882609220000006186205622862938807_);}
	.st27{fill:url(#SVGID_00000172422578695734981940000014356226872219449776_);}
	.st28{fill:url(#SVGID_00000098186888757388607930000016605757172282038459_);}
	.st29{fill:url(#SVGID_00000091728222209152171240000003153147739926621341_);}
	.st30{fill:url(#SVGID_00000170965326987732032370000001857248705675274127_);}
	.st31{fill:url(#SVGID_00000154398114560605338320000001519010210882391961_);}
	.st32{fill:url(#SVGID_00000046340233066776137810000011455979388355013535_);}
</style>
<g>
	
		<linearGradient id="SVGID_1_" gradientUnits="userSpaceOnUse" x1="-3493.772" y1="-1212.1548" x2="-4155.3467" y2="-1926.2356" gradientTransform="matrix(-0.9748 -0.1323 0.1345 -0.9909 -3148.4617 -1807.5135)">
		<stop  offset="0" style="stop-color:#DBE2F3"/>
		<stop  offset="1" style="stop-color:#EAEFF8"/>
	</linearGradient>
	<path class="st0" d="M129.38,271.25C246.58,72.73,492.76,14.05,673.94,54.35c49.47,11,149,33.14,217.36,119.39
		c131.27,165.63,66.84,465.83-101.93,624.82c-21.73,20.47-171.48,157.09-371.95,127.77c-146.78-21.46-238.48-119.87-249.6-132.09
		c-14.04-15.43-44.71-51.74-69.41-106.09C40.36,560.44,56.15,395.3,129.38,271.25z"/>
	<g>
		<path class="st1" d="M223.42,34.31c2.36-3.77,8.21-1.87,7.89,2.56c-3.12,42.86-7.77,155.5,21.85,226.84
			c48.23,116.16,50.12,277.23-27.48,332.32C225.69,596.03-33.17,445.04,223.42,34.31z"/>
		<path class="st2" d="M212.28,93.07c-0.24,1.04-0.45,2.25-0.66,3.4l-0.6,3.5l-1.12,7.02c-0.72,4.69-1.41,9.38-2.07,14.08
			c-1.31,9.4-2.5,18.81-3.6,28.23c-2.23,18.84-4.1,37.72-5.6,56.63c-2.93,37.82-4.72,75.73-4.54,113.65
			c0.17,18.95,0.5,37.91,1.59,56.84c1.11,18.92,2.62,37.82,4.93,56.63c0.24,2.36,0.55,4.7,0.88,7.05l0.96,7.04l0.96,7.04
			c0.35,2.34,0.76,4.67,1.14,7.01c0.8,4.67,1.48,9.36,2.37,14.01l2.74,13.94c3.87,18.55,8.64,36.9,14.44,54.96l0,0.01
			c0.09,0.29-0.07,0.59-0.35,0.68c-0.28,0.09-0.58-0.06-0.68-0.34c-6.32-17.94-11.36-36.3-15.6-54.85l-2.91-13.97
			c-0.94-4.66-1.69-9.36-2.54-14.04c-0.41-2.34-0.85-4.68-1.22-7.03l-1.05-7.06l-1.05-7.06c-0.36-2.35-0.7-4.7-0.97-7.07
			c-4.76-37.75-6.83-75.8-6.9-113.82c-0.08-19.01,0.47-38.02,1.29-57.01c0.84-18.99,2.07-37.96,3.81-56.88
			c1.71-18.92,3.72-37.82,6.22-56.66c1.26-9.42,2.61-18.82,4.07-28.21c0.75-4.69,1.5-9.38,2.32-14.06l1.27-7.01l0.68-3.5
			c0.25-1.18,0.45-2.3,0.79-3.57c0.08-0.29,0.37-0.46,0.66-0.38c0.28,0.08,0.45,0.36,0.38,0.64L212.28,93.07z"/>
	</g>
	<g>
		<path class="st1" d="M225.37,612.79c0,0,21.72-57.65-12.65-138.59c-31.89-75.1-113.37-251.93-116.06-332.83
			c-0.12-3.58-5-4.5-6.37-1.18c-14.68,35.56-44.43,127.49-18.4,241.18C105.46,527.98,225.37,612.79,225.37,612.79z"/>
		<path class="st3" d="M91.99,213.67c-0.93,4.14-1.4,8.37-1.9,12.57l-0.56,6.33c-0.17,2.11-0.22,4.23-0.33,6.34
			c-0.05,1.06-0.11,2.11-0.14,3.17l-0.02,3.18L89,251.61l0.23,6.34c0.11,2.11,0.08,4.23,0.28,6.34c1.01,16.88,3.4,33.69,7.25,50.15
			c3.78,16.47,8.4,32.76,14.37,48.58l2.16,5.96l1.09,2.98l1.23,2.92l4.9,11.69c0.83,1.94,1.6,3.91,2.48,5.84l2.62,5.8l5.24,11.59
			c7.13,15.39,14.38,30.73,21.86,45.96c3.7,7.63,7.53,15.21,11.31,22.8l11.42,22.77c7.6,15.19,15.36,30.32,22.4,45.82
			c1.8,3.85,3.42,7.8,5.1,11.71c0.86,1.95,1.6,3.95,2.37,5.94c0.76,1.99,1.57,3.96,2.28,5.97c2.86,8.04,5.22,16.27,6.68,24.69
			c0.05,0.29-0.15,0.58-0.44,0.63c-0.28,0.05-0.55-0.13-0.62-0.41l-0.01-0.03c-1-4.11-1.86-8.24-3.24-12.24
			c-1.15-4.06-2.73-7.99-4.17-11.97c-0.76-1.97-1.62-3.91-2.42-5.86c-0.82-1.95-1.6-3.91-2.51-5.83c-1.77-3.85-3.48-7.72-5.38-11.51
			c-7.38-15.25-15.26-30.29-23.13-45.34l-11.78-22.6c-3.84-7.58-7.73-15.14-11.49-22.76c-7.64-15.19-14.9-30.57-22.05-46
			l-5.26-11.62l-2.63-5.81c-0.88-1.94-1.65-3.93-2.47-5.9l-4.88-11.83l-1.22-2.96l-1.08-3.01l-2.15-6.03l-2.14-6.03
			c-0.7-2.02-1.48-4-2.04-6.06l-3.65-12.27c-1.31-4.06-2.18-8.25-3.23-12.39c-0.99-4.15-2.13-8.26-2.83-12.48
			c-3.49-16.71-5.49-33.72-6.1-50.76c-0.15-2.13-0.08-4.26-0.09-6.39l0.01-6.39l0.28-6.39l0.14-3.19c0.07-1.06,0.17-2.12,0.26-3.18
			c0.63-8.49,1.75-16.97,3.9-25.2c0.01-0.04,0.05-0.06,0.08-0.05C91.98,213.59,92,213.63,91.99,213.67z"/>
	</g>
	<g>
		
			<linearGradient id="SVGID_00000071545574164826217660000006673692259480641667_" gradientUnits="userSpaceOnUse" x1="-2133.5879" y1="717.5309" x2="-1949.1978" y2="164.3591" gradientTransform="matrix(-1 0 0 1 -1554.2228 0)">
			<stop  offset="0" style="stop-color:#201B59"/>
			<stop  offset="1" style="stop-color:#2D2D84"/>
		</linearGradient>
		<path style="fill:url(#SVGID_00000071545574164826217660000006673692259480641667_);" d="M103.25,737.6
			c0,7.93,6.5,14.42,14.44,14.42h780.72c7.94,0,14.44-6.49,14.44-14.42l6.5-448.66c0-7.93-9.35-23.42-26.48-22.26l-763.01-19.74
			c-9.96-0.26-19.6,3.58-26.65,10.61c-7.06,7.03-10.92,16.65-10.68,26.6L103.25,737.6z"/>
		<path class="st5" d="M117.51,723.76c0,7.51,6.15,13.66,13.66,13.66h748.42c7.51,0,13.66-6.15,13.66-13.66l6.13-407.3
			c-0.72-24.51-22.21-33.32-35.24-32.8l-731.3-19.62c-7-0.19-13.77,2.51-18.72,7.45c-4.96,4.95-7.66,11.71-7.49,18.71L117.51,723.76
			z"/>
		<g>
			<path class="st1" d="M885.16,530.11c-0.01,0-0.02,0-0.03,0c-1.02-0.01-1.84-0.86-1.82-1.88l0.48-33.03
				c0.01-1.02,0.85-1.76,1.88-1.82c1.02,0.01,1.84,0.86,1.82,1.88l-0.48,33.03C886.99,529.3,886.17,530.11,885.16,530.11z"/>
			<path class="st1" d="M886.35,449.17c-0.01,0-0.02,0-0.03,0c-1.02-0.01-1.84-0.86-1.82-1.88l1.86-126.51
				c-0.04-7.56-2.33-13.6-6.83-17.9c-8.38-8.03-21.66-7.61-22.23-7.59l-233.72-6.27c-1.02-0.03-1.83-0.88-1.8-1.9
				c0.03-1.01,0.85-1.8,1.85-1.8c0.02,0,0.03,0,0.05,0l233.59,6.27c1.45-0.07,15.49-0.33,24.82,8.62
				c5.25,5.03,7.93,11.96,7.97,20.59l-1.86,126.55C888.18,448.36,887.36,449.17,886.35,449.17z"/>
		</g>
		
			<linearGradient id="SVGID_00000147914811874331548490000005044321663110201732_" gradientUnits="userSpaceOnUse" x1="509.4164" y1="782.6747" x2="525.0172" y2="692.5364">
			<stop  offset="0" style="stop-color:#201B59"/>
			<stop  offset="1" style="stop-color:#2D2D84"/>
		</linearGradient>
		<path style="fill:url(#SVGID_00000147914811874331548490000005044321663110201732_);" d="M66.85,789.27h889.68
			c1.08,0,1.97-0.89,1.97-1.97v-35.48c0-1.08-0.89-1.97-1.97-1.97H66.85c-1.08,0-1.97,0.89-1.97,1.97v35.48
			C64.88,788.38,65.76,789.27,66.85,789.27z"/>
	</g>
	<g>
		<g>
			
				<linearGradient id="SVGID_00000142162582847741357010000011637414599608726147_" gradientUnits="userSpaceOnUse" x1="-8777.4512" y1="-2403.4675" x2="-8486.9111" y2="-2403.4675" gradientTransform="matrix(0.019 -0.9532 -0.9998 -0.0199 -1951.4615 -7572.0796)">
				<stop  offset="0" style="stop-color:#201B59"/>
				<stop  offset="1" style="stop-color:#2D2D84"/>
			</linearGradient>
			<path style="fill:url(#SVGID_00000142162582847741357010000011637414599608726147_);" d="M488.23,841.94
				c-72.2,0.02-321.23-0.21-409.39-4.23c-9.34-0.43-16.72-6.68-16.87-14.3c-0.76-37.7-1.84-175.87,2.56-237.43
				c0.92-12.82,13.87-22.77,29.64-22.72c75.77,0.23,288.89,1.65,386.35,10.31c11.68,1.04,20.84,8.7,21.82,18.24
				c4.22,41.13,13.76,180.06,8.46,233.21C509.84,834.61,500.04,841.94,488.23,841.94z"/>
			<path class="st8" d="M466.43,824.69c-58.29,0.87-252.2,3.4-323.82-0.06c-10.47-0.51-18.8-7.4-19.25-15.94
				c-1.82-35.16-4.99-155.04,1.09-206.44c1.1-9.25,10.44-16.35,21.85-16.62c59.48-1.42,240.07-5.32,310.89-1.96
				c11.3,0.54,20.39,7.86,21.21,17.06c3.43,38.06,10.85,165.54,7.04,209.24C484.73,818.17,476.52,824.54,466.43,824.69z"/>
			<path class="st9" d="M499.69,749.04L499.69,749.04c-2.21-0.04-4.01-1.49-4.09-3.29c-0.39-8.91-1.51-34.01-2.09-45.22
				c-0.11-2.21,2.36-3.9,5.01-3.42l0.45,0.08c1.81,0.32,3.16,1.58,3.3,3.09c0.7,7.59,2.61,30.48,1.64,45.61
				C503.8,747.69,501.93,749.08,499.69,749.04z"/>
		</g>
	</g>
	<g>
		<g>
			
				<linearGradient id="SVGID_00000087375747920091555100000016563340428237574797_" gradientUnits="userSpaceOnUse" x1="436.7543" y1="700.4565" x2="646.8785" y2="700.4565">
				<stop  offset="0" style="stop-color:#201B59"/>
				<stop  offset="1" style="stop-color:#2D2D84"/>
			</linearGradient>
			<path style="fill:url(#SVGID_00000087375747920091555100000016563340428237574797_);" d="M440.19,553.33
				c-1.11,52.21-4.69,232.28-2.98,296.1c0.18,6.76,4.81,12.19,10.59,12.41c28.58,1.09,133.36,3.87,180.11,1.57
				c9.74-0.48,17.48-9.71,17.68-21.1c0.97-54.8,3.11-208.92-1.98-279.52c-0.61-8.46-6.29-15.2-13.51-16.04
				c-31.13-3.64-136.35-12.55-176.74-9.48C446.08,537.81,440.37,544.79,440.19,553.33z"/>
			<path class="st1" d="M452.94,569.34c-1.54,42.14-6.39,182.32-4.85,234.16c0.23,7.58,5.33,13.7,11.8,14.15
				c26.64,1.82,117.51,5.84,156.58,2.18c7.03-0.66,12.56-7.31,12.94-15.56c1.98-42.99,7.66-173.52,6.19-224.77
				c-0.24-8.18-5.65-14.85-12.61-15.59c-28.82-3.03-125.38-10.23-158.58-8.11C458.17,556.2,453.21,562.05,452.94,569.34z"/>
		</g>
	</g>
	<g>
		<circle class="st11" cx="291.77" cy="700.25" r="54.12"/>
		
			<linearGradient id="SVGID_00000085948696607539494140000007045252012851671168_" gradientUnits="userSpaceOnUse" x1="354.2051" y1="547.316" x2="263.1257" y2="739.2333">
			<stop  offset="0" style="stop-color:#F5928F"/>
			<stop  offset="1" style="stop-color:#F37064"/>
		</linearGradient>
		<path style="fill:url(#SVGID_00000085948696607539494140000007045252012851671168_);" d="M287.33,741.78
			c-2.87,0.19-5.54-1.15-7.03-3.53l-24.96-40.07c-2.34-3.76-1.08-8.9,2.81-11.49c3.89-2.59,8.94-1.64,11.27,2.11l17.31,27.82
			l22.84-46.51c2.05-4.17,6.97-6.09,10.99-4.28c4.02,1.81,5.62,6.66,3.57,10.83l-29.51,60.15c-1.35,2.75-4.04,4.65-7.01,4.95
			C287.52,741.77,287.43,741.78,287.33,741.78z"/>
	</g>
	<g>
		<path class="st11" d="M254.55,365.34l3.19,0.63l0.01,0c0.92,0.18,1.51,1.07,1.33,1.98c-0.18,0.92-1.07,1.51-1.98,1.33
			c-0.02,0-0.04-0.01-0.06-0.01l-3.18-0.75c-0.87-0.21-1.42-1.08-1.21-1.96c0.2-0.85,1.04-1.39,1.89-1.22L254.55,365.34z"/>
		<path class="st11" d="M265.18,367.37l3.2,0.57l0.01,0c1.03,0.19,1.72,1.17,1.53,2.2s-1.17,1.72-2.2,1.53
			c-0.02,0-0.05-0.01-0.07-0.01l-3.19-0.7c-0.99-0.22-1.62-1.2-1.4-2.18c0.21-0.97,1.15-1.59,2.11-1.41L265.18,367.37z"/>
		<path class="st11" d="M275.83,369.2l3.2,0.5l0.01,0c1.15,0.18,1.93,1.26,1.75,2.41c-0.18,1.15-1.26,1.93-2.41,1.75
			c-0.02,0-0.06-0.01-0.08-0.01l-3.21-0.63c-1.11-0.22-1.83-1.29-1.61-2.4c0.21-1.08,1.24-1.79,2.32-1.62L275.83,369.2z"/>
		<path class="st11" d="M286.51,370.78l3.21,0.42l0.02,0c1.27,0.17,2.16,1.33,1.99,2.59c-0.17,1.27-1.33,2.16-2.59,1.99
			c-0.03,0-0.06-0.01-0.09-0.01l-3.23-0.55c-1.23-0.21-2.05-1.37-1.84-2.59c0.2-1.2,1.31-2.01,2.5-1.85L286.51,370.78z"/>
		<path class="st11" d="M297.21,372.07l3.21,0.32l0.02,0c1.38,0.14,2.4,1.37,2.26,2.76c-0.14,1.39-1.37,2.4-2.76,2.26
			c-0.03,0-0.07-0.01-0.1-0.01l-3.25-0.45c-1.34-0.19-2.28-1.43-2.1-2.77c0.18-1.31,1.37-2.24,2.67-2.11L297.21,372.07z"/>
		<path class="st11" d="M307.92,373l3.21,0.2l0.03,0c1.5,0.1,2.65,1.39,2.55,2.89c-0.1,1.5-1.39,2.65-2.89,2.55
			c-0.03,0-0.07-0.01-0.1-0.01l-3.26-0.33c-1.46-0.15-2.53-1.46-2.38-2.92c0.15-1.43,1.39-2.48,2.81-2.39L307.92,373z"/>
		<path class="st11" d="M318.64,373.53l3.22,0.08l0.03,0c1.62,0.04,2.9,1.38,2.86,3c-0.04,1.62-1.38,2.9-3,2.86
			c-0.03,0-0.08,0-0.11,0l-3.28-0.2c-1.58-0.1-2.79-1.46-2.69-3.05c0.1-1.54,1.4-2.73,2.93-2.69L318.64,373.53z"/>
		<path class="st11" d="M329.35,373.64l3.21-0.06l0.04,0c1.74-0.03,3.17,1.35,3.2,3.09s-1.35,3.17-3.09,3.2c-0.04,0-0.08,0-0.12,0
			l-3.29-0.07c-1.7-0.04-3.05-1.44-3.01-3.14c0.03-1.66,1.38-2.98,3.02-3.01L329.35,373.64z"/>
		<path class="st11" d="M340.06,373.3l3.21-0.18l0.04,0c1.85-0.11,3.43,1.31,3.54,3.15c0.11,1.85-1.31,3.43-3.15,3.54
			c-0.04,0-0.09,0-0.13,0.01l-3.29,0.06c-1.82,0.03-3.31-1.41-3.35-3.23c-0.03-1.77,1.34-3.24,3.09-3.34L340.06,373.3z"/>
		<path class="st11" d="M350.74,372.55l3.2-0.3l0.03,0c1.96-0.18,3.69,1.25,3.88,3.21c0.18,1.96-1.25,3.69-3.21,3.88
			c-0.04,0-0.1,0.01-0.14,0.01l-3.28,0.18c-1.93,0.11-3.58-1.37-3.68-3.3c-0.1-1.88,1.3-3.5,3.16-3.67L350.74,372.55z"/>
		<path class="st11" d="M361.4,371.42l3.19-0.4l0.03,0c2.06-0.26,3.95,1.2,4.21,3.26c0.26,2.06-1.2,3.95-3.26,4.21
			c-0.04,0.01-0.1,0.01-0.14,0.02l-3.27,0.29c-2.04,0.18-3.83-1.33-4.01-3.36c-0.17-1.99,1.25-3.75,3.22-4L361.4,371.42z"/>
		<path class="st11" d="M372.04,369.97l3.19-0.49l0.03,0c2.17-0.33,4.2,1.15,4.53,3.32c0.33,2.17-1.15,4.2-3.32,4.53
			c-0.05,0.01-0.11,0.01-0.15,0.02l-3.26,0.37c-2.15,0.25-4.08-1.29-4.33-3.44c-0.24-2.09,1.22-3.99,3.28-4.31L372.04,369.97z"/>
		<path class="st11" d="M382.66,368.25l3.18-0.56l0.02,0c2.27-0.4,4.44,1.12,4.84,3.39c0.4,2.27-1.12,4.44-3.39,4.84
			c-0.05,0.01-0.11,0.02-0.16,0.02l-3.24,0.44c-2.25,0.31-4.33-1.27-4.64-3.52c-0.3-2.2,1.19-4.23,3.36-4.61L382.66,368.25z"/>
		<path class="st11" d="M393.25,366.32l3.18-0.61l0.02,0c2.38-0.46,4.68,1.1,5.14,3.48s-1.1,4.68-3.48,5.14
			c-0.05,0.01-0.12,0.02-0.17,0.03l-3.23,0.5c-2.36,0.36-4.57-1.26-4.93-3.62c-0.35-2.3,1.18-4.46,3.45-4.9L393.25,366.32z"/>
	</g>
	<g>
		<circle class="st11" cx="192.03" cy="347.48" r="60.25"/>
		
			<linearGradient id="SVGID_00000110436640167997500970000015577983610954469779_" gradientUnits="userSpaceOnUse" x1="261.5349" y1="177.2241" x2="160.1341" y2="390.89">
			<stop  offset="0" style="stop-color:#F5928F"/>
			<stop  offset="1" style="stop-color:#F37064"/>
		</linearGradient>
		<path style="fill:url(#SVGID_00000110436640167997500970000015577983610954469779_);" d="M187.08,393.73
			c-3.2,0.21-6.17-1.28-7.82-3.93l-27.78-44.61c-2.6-4.18-1.2-9.91,3.13-12.79c4.33-2.88,9.95-1.83,12.55,2.35l19.27,30.97
			l25.42-51.78c2.28-4.65,7.76-6.78,12.24-4.76c4.48,2.01,6.26,7.41,3.98,12.06l-32.85,66.97c-1.5,3.07-4.5,5.18-7.81,5.51
			C187.3,393.71,187.19,393.72,187.08,393.73z"/>
	</g>
	<g>
		<path class="st11" d="M539.37,481.96l-1.07,2.97l-0.03,0.09c-0.65,1.82-2.66,2.76-4.48,2.11c-1.79-0.64-2.73-2.6-2.14-4.4
			l1.05-3.17c0.62-1.86,2.62-2.86,4.48-2.24c1.86,0.62,2.86,2.62,2.24,4.48c-0.01,0.02-0.01,0.04-0.02,0.06L539.37,481.96z"/>
		<path class="st11" d="M536.09,491.99l-0.84,3.07l-0.02,0.07c-0.49,1.79-2.34,2.85-4.14,2.36c-1.77-0.48-2.82-2.29-2.38-4.06
			l0.8-3.22c0.45-1.83,2.3-2.94,4.13-2.49c1.83,0.45,2.94,2.3,2.49,4.13c-0.01,0.02-0.01,0.04-0.02,0.06L536.09,491.99z"/>
		<path class="st11" d="M533.53,502.3l-0.65,3.13l-0.01,0.05c-0.36,1.75-2.08,2.88-3.83,2.51c-1.72-0.36-2.84-2.03-2.53-3.75
			l0.59-3.25c0.32-1.78,2.03-2.96,3.81-2.64c1.78,0.32,2.96,2.03,2.64,3.81c0,0.02-0.01,0.04-0.01,0.06L533.53,502.3z"/>
		<path class="st11" d="M531.56,512.78l-0.49,3.17l-0.01,0.04c-0.26,1.7-1.85,2.86-3.54,2.6c-1.67-0.26-2.82-1.8-2.61-3.47
			l0.42-3.27c0.22-1.72,1.8-2.94,3.52-2.72c1.72,0.22,2.94,1.8,2.72,3.52c0,0.02-0.01,0.04-0.01,0.06L531.56,512.78z"/>
		<path class="st11" d="M530.1,523.39l-0.35,3.2l0,0.04c-0.18,1.63-1.65,2.82-3.28,2.64c-1.61-0.18-2.78-1.61-2.64-3.21l0.28-3.28
			c0.14-1.66,1.6-2.89,3.26-2.75c1.66,0.14,2.89,1.6,2.75,3.26c0,0.02,0,0.04-0.01,0.06L530.1,523.39z"/>
		<path class="st11" d="M529.09,534.07l-0.23,3.21l0,0.03c-0.11,1.57-1.47,2.75-3.04,2.64c-1.54-0.11-2.71-1.43-2.64-2.97l0.15-3.28
			c0.07-1.59,1.42-2.82,3.02-2.75c1.59,0.07,2.82,1.42,2.75,3.02c0,0.02,0,0.04,0,0.06L529.09,534.07z"/>
		<path class="st11" d="M528.47,544.79l-0.12,3.22l0,0.03c-0.05,1.5-1.31,2.67-2.81,2.62c-1.48-0.05-2.63-1.28-2.62-2.75l0.04-3.28
			c0.02-1.52,1.27-2.74,2.79-2.72c1.52,0.02,2.74,1.27,2.72,2.79c0,0.02,0,0.04,0,0.05L528.47,544.79z"/>
		<path class="st11" d="M528.2,555.55l-0.01,3.23v0.02c-0.01,1.43-1.17,2.58-2.6,2.57c-1.41-0.01-2.54-1.14-2.57-2.53l-0.06-3.28
			c-0.03-1.45,1.12-2.65,2.57-2.68c1.45-0.03,2.65,1.12,2.67,2.57c0,0.02,0,0.03,0,0.05V555.55z"/>
		<path class="st11" d="M528.26,566.32l0.08,3.23l0,0.02c0.03,1.35-1.04,2.48-2.39,2.51c-1.33,0.03-2.45-1.01-2.51-2.33l-0.16-3.27
			c-0.07-1.38,0.99-2.54,2.37-2.61c1.38-0.07,2.54,0.99,2.61,2.37c0,0.02,0,0.03,0,0.05L528.26,566.32z"/>
		<path class="st11" d="M528.64,577.09l0.17,3.23l0,0.02c0.07,1.28-0.92,2.37-2.2,2.44c-1.26,0.07-2.34-0.89-2.44-2.14l-0.25-3.26
			c-0.1-1.3,0.87-2.44,2.17-2.54c1.3-0.1,2.44,0.87,2.54,2.17c0,0.02,0,0.03,0,0.05L528.64,577.09z"/>
		<path class="st11" d="M529.31,587.85l0.26,3.22l0,0.02c0.1,1.21-0.8,2.26-2.01,2.36c-1.19,0.1-2.23-0.78-2.36-1.96l-0.34-3.25
			c-0.13-1.23,0.76-2.32,1.99-2.45s2.32,0.76,2.45,1.99c0,0.01,0,0.03,0,0.04L529.31,587.85z"/>
		<path class="st11" d="M530.28,598.59l0.35,3.22l0,0.02c0.12,1.13-0.7,2.15-1.83,2.27c-1.11,0.12-2.12-0.67-2.27-1.78l-0.43-3.24
			c-0.15-1.15,0.66-2.21,1.81-2.36c1.15-0.15,2.21,0.66,2.36,1.81c0,0.01,0,0.03,0,0.04L530.28,598.59z"/>
		<path class="st11" d="M531.55,609.31l0.44,3.21l0,0.02c0.15,1.06-0.59,2.03-1.65,2.18c-1.04,0.14-2-0.57-2.17-1.6l-0.52-3.23
			c-0.17-1.07,0.56-2.09,1.63-2.26c1.07-0.17,2.09,0.55,2.26,1.63c0,0.01,0,0.02,0.01,0.04L531.55,609.31z"/>
		<path class="st11" d="M533.13,619.99l0.54,3.19l0,0.02c0.17,0.98-0.49,1.91-1.47,2.07c-0.97,0.16-1.88-0.48-2.07-1.43l-0.62-3.21
			c-0.19-1,0.46-1.96,1.46-2.16c1-0.19,1.96,0.46,2.16,1.45c0,0.01,0,0.02,0.01,0.03L533.13,619.99z"/>
		<path class="st11" d="M535.06,630.6l0.65,3.17l0,0.02c0.19,0.9-0.4,1.79-1.3,1.97c-0.89,0.18-1.76-0.38-1.96-1.26l-0.74-3.19
			c-0.21-0.92,0.36-1.84,1.28-2.05c0.92-0.21,1.84,0.36,2.05,1.28c0,0.01,0,0.02,0.01,0.03L535.06,630.6z"/>
	</g>
	<g>
		
			<ellipse transform="matrix(0.7071 -0.7071 0.7071 0.7071 -328.795 586.1472)" class="st11" cx="543.14" cy="689.96" rx="49.25" ry="49.25"/>
		
			<linearGradient id="SVGID_00000096049956002234122450000004874341799499434122_" gradientUnits="userSpaceOnUse" x1="599.9536" y1="550.8102" x2="517.0788" y2="725.4391">
			<stop  offset="0" style="stop-color:#F5928F"/>
			<stop  offset="1" style="stop-color:#F37064"/>
		</linearGradient>
		<path style="fill:url(#SVGID_00000096049956002234122450000004874341799499434122_);" d="M539.1,727.76
			c-2.61,0.17-5.04-1.04-6.39-3.22L510,688.08c-2.13-3.42-0.98-8.1,2.56-10.45c3.54-2.35,8.13-1.49,10.26,1.92l15.75,25.31
			l20.78-42.32c1.86-3.8,6.35-5.54,10-3.89c3.66,1.65,5.11,6.06,3.25,9.85l-26.85,54.73c-1.23,2.51-3.67,4.23-6.38,4.5
			C539.28,727.75,539.19,727.76,539.1,727.76z"/>
	</g>
	<g>
		<g>
			
				<linearGradient id="SVGID_00000011713977308555308370000003730195982897906866_" gradientUnits="userSpaceOnUse" x1="-13480.4941" y1="-1101.2794" x2="-13509.4512" y2="-941.1606" gradientTransform="matrix(-0.9937 -0.112 -0.112 0.9937 -12766.3887 -135.799)">
				<stop  offset="0" style="stop-color:#E1483D"/>
				<stop  offset="1" style="stop-color:#E9625A"/>
			</linearGradient>
			<path style="fill:url(#SVGID_00000011713977308555308370000003730195982897906866_);" d="M754.69,422.09
				c54.32,1.6,67.13,14.32,67.13,14.32l-30.47,37.91c0,0-52.76-7.01-87.36-40.48c7.95-6.84,13.83-14.72,17.73-20.94
				C731.03,418.07,742.01,421.72,754.69,422.09z"/>
			
				<linearGradient id="SVGID_00000072279814959076907770000002218320099798868648_" gradientUnits="userSpaceOnUse" x1="-13464.8066" y1="-991.8688" x2="-13411.9092" y2="-991.8688" gradientTransform="matrix(-0.9937 -0.112 -0.112 0.9937 -12766.3887 -135.799)">
				<stop  offset="0" style="stop-color:#F9BABA"/>
				<stop  offset="1" style="stop-color:#F5928F"/>
			</linearGradient>
			<path style="fill:url(#SVGID_00000072279814959076907770000002218320099798868648_);" d="M679.32,333.59
				c0.27-1.72,2.66-1.92,3.21-0.28l5.22,15.43c1.01,2.98,1.08,6.2,0.19,9.22l-3.37,8.26c-1.19,4.08-0.58,8.46,1.68,12.06
				c5.42,8.6,17.23,24.52,35.47,34.63c-3.9,6.22-9.78,14.1-17.73,20.94c-12.69-12.28-22.95-28.12-27.25-48.5
				c-3.01-1.31-4.77-4.48-4.27-7.73L679.32,333.59z"/>
		</g>
		<g>
			<g>
				
					<ellipse transform="matrix(0.1126 -0.9936 0.9936 0.1126 218.5979 823.752)" class="st11" cx="570.5" cy="289.49" rx="176.78" ry="177.71"/>
				
					<linearGradient id="SVGID_00000110451149227251680610000002488321670231939763_" gradientUnits="userSpaceOnUse" x1="655.6105" y1="57.9115" x2="515.7387" y2="438.4922">
					<stop  offset="0" style="stop-color:#F5928F"/>
					<stop  offset="1" style="stop-color:#F37064"/>
				</linearGradient>
				<path style="fill:url(#SVGID_00000110451149227251680610000002488321670231939763_);" d="M399.79,270.14
					c-10.63,93.78,57.18,178.47,151.46,189.16c94.28,10.69,179.32-56.68,189.96-150.46c10.63-93.78-57.18-178.47-151.46-189.16
					S410.43,176.35,399.79,270.14z"/>
				<path class="st18" d="M728.81,300.09c-0.02,0-0.04,0-0.07,0c-0.6-0.04-1.05-0.55-1.02-1.15c0.4-6.59,0.38-13.26-0.06-19.81
					c-0.04-0.6,0.41-1.11,1.01-1.15c0.59-0.02,1.11,0.41,1.15,1.01c0.44,6.65,0.46,13.4,0.06,20.09
					C729.85,299.65,729.38,300.09,728.81,300.09z"/>
				<path class="st18" d="M719.26,235.99c-0.44,0-0.85-0.27-1.02-0.71c-20.81-55.85-70.66-94.74-130.09-101.47
					c-9.48-1.08-19.07-1.3-28.52-0.67c-0.58,0.02-1.12-0.41-1.15-1.01c-0.04-0.6,0.41-1.11,1.01-1.15
					c9.58-0.64,19.3-0.41,28.91,0.68c29.93,3.39,58.13,15.03,81.56,33.65c22.8,18.12,40.2,42.05,50.32,69.22
					c0.21,0.56-0.08,1.19-0.64,1.4C719.51,235.97,719.39,235.99,719.26,235.99z"/>
				
					<ellipse transform="matrix(0.1126 -0.9936 0.9936 0.1126 210.6616 822.6444)" class="st19" cx="565.9" cy="293.38" rx="152.2" ry="153.01"/>
			</g>
			<g>
				<path class="st11" d="M610.73,334.67l-7.85-1.54c0.03-3.62-0.24-7.24-0.83-10.82l7.57-2.64c2.04-0.71,3.12-2.97,2.4-5.04
					l-4.48-13c-0.72-2.08-2.96-3.19-5-2.48l-7.6,2.64c-1.74-3.15-3.79-6.17-6.1-9.04l5.28-6.19c1.42-1.66,1.23-4.19-0.43-5.65
					l-10.36-9.14c-1.66-1.46-4.16-1.3-5.58,0.36l-5.29,6.2c-3.15-1.93-6.41-3.56-9.76-4.88l1.48-8.09c0.4-2.18-1.03-4.3-3.19-4.74
					l-13.53-2.75c-2.17-0.44-4.25,0.97-4.64,3.16l-1.47,8.1c-3.64-0.09-7.29,0.14-10.88,0.69l-2.76-7.82
					c-0.75-2.12-3.04-3.26-5.12-2.54l-13.04,4.47c-2.09,0.71-3.17,3.01-2.42,5.13l2.75,7.74c-3.16,1.75-6.19,3.82-9.05,6.16
					l-6.21-5.39c-1.7-1.47-4.24-1.31-5.67,0.37l-8.96,10.51c-1.43,1.68-1.21,4.23,0.49,5.7l6.18,5.33
					c-1.89,3.21-3.48,6.54-4.75,9.96l-7.9-1.55c-2.19-0.43-4.28,0.99-4.67,3.18l-2.41,13.66c-0.39,2.18,1.08,4.29,3.27,4.72
					l7.85,1.52c-0.01,3.71,0.31,7.42,0.95,11.08l-7.47,2.59c-2.09,0.72-3.16,3.01-2.4,5.1l4.75,13.05c0.76,2.08,3.06,3.18,5.14,2.46
					l7.39-2.58c1.82,3.19,3.96,6.25,6.36,9.13l-5.06,5.93c-1.42,1.67-1.2,4.18,0.48,5.61l10.53,8.93c1.68,1.42,4.19,1.23,5.61-0.43
					l5.05-5.92c3.22,1.9,6.55,3.5,9.96,4.77l-1.38,7.63c-0.39,2.14,1.04,4.21,3.19,4.61l13.43,2.49c2.14,0.4,4.2-1.01,4.59-3.15
					l1.4-7.66c3.65,0.03,7.28-0.25,10.87-0.85l2.62,7.36c0.73,2.05,2.98,3.12,5.02,2.4l12.77-4.52c2.04-0.72,3.11-2.97,2.39-5.01
					l-2.61-7.39c3.11-1.76,6.08-3.83,8.89-6.17l5.96,5.14c1.64,1.41,4.11,1.23,5.51-0.42l8.78-10.3c1.4-1.65,1.22-4.13-0.42-5.55
					l-5.99-5.2c1.84-3.15,3.4-6.41,4.64-9.76l7.77,1.5c2.12,0.41,4.16-0.99,4.56-3.13l2.51-13.39
					C614.24,337.16,612.85,335.09,610.73,334.67z M571.24,358.49c-14.25,16.71-39.41,18.6-56.31,4.15
					c-16.99-14.54-19.17-40.08-4.77-56.97c14.4-16.89,39.8-18.58,56.64-3.86C583.54,316.44,585.49,341.78,571.24,358.49z"/>
				<path class="st11" d="M660.84,229.57l-4.37-0.86c-0.03-1.96-0.23-3.92-0.61-5.86l4.16-1.4c1.12-0.38,1.68-1.6,1.26-2.72
					l-2.66-7.04c-0.43-1.13-1.68-1.74-2.8-1.36l-4.17,1.4c-1.01-1.71-2.18-3.35-3.49-4.9l2.83-3.32c0.76-0.89,0.62-2.26-0.31-3.05
					l-5.85-4.96c-0.94-0.8-2.31-0.72-3.08,0.18l-2.84,3.33c-1.76-1.05-3.59-1.94-5.45-2.67l0.71-4.36c0.19-1.17-0.62-2.32-1.82-2.57
					l-7.5-1.52c-1.2-0.24-2.33,0.51-2.52,1.69l-0.7,4.36c-2.01-0.06-4.01,0.05-5.99,0.34l-1.62-4.22c-0.44-1.14-1.72-1.76-2.85-1.38
					l-7.12,2.36c-1.14,0.38-1.71,1.61-1.27,2.75l1.61,4.18c-1.72,0.93-3.36,2.04-4.91,3.29l-3.48-2.92
					c-0.95-0.8-2.35-0.72-3.12,0.18l-4.8,5.63c-0.77,0.9-0.62,2.28,0.34,3.07l3.46,2.89c-1,1.72-1.84,3.51-2.49,5.35l-4.36-0.86
					c-1.21-0.24-2.34,0.52-2.53,1.7l-1.16,7.35c-0.19,1.17,0.64,2.32,1.85,2.56l4.34,0.85c0.04,2,0.26,4,0.65,5.98l-4.08,1.37
					c-1.14,0.38-1.7,1.61-1.26,2.74l2.77,7.07c0.44,1.13,1.72,1.73,2.86,1.35l4.04-1.36c1.04,1.73,2.26,3.39,3.62,4.97l-2.72,3.18
					c-0.76,0.89-0.61,2.25,0.34,3.03l5.92,4.88c0.94,0.78,2.33,0.69,3.09-0.2l2.71-3.18c1.8,1.04,3.66,1.93,5.56,2.63l-0.67,4.12
					c-0.19,1.16,0.63,2.28,1.82,2.51l7.46,1.42c1.19,0.23,2.31-0.53,2.5-1.69l0.68-4.15c2.02,0.04,4.02-0.1,6-0.41l1.54,4
					c0.43,1.11,1.69,1.71,2.81,1.33l7.01-2.39c1.12-0.38,1.68-1.59,1.26-2.71l-1.54-4.02c1.7-0.94,3.31-2.05,4.84-3.3l3.37,2.82
					c0.93,0.78,2.29,0.68,3.05-0.2l4.73-5.54c0.76-0.89,0.62-2.24-0.31-3.01l-3.39-2.85c0.98-1.7,1.8-3.46,2.44-5.27l4.32,0.85
					c1.18,0.23,2.29-0.52,2.48-1.68l1.2-7.25C662.82,230.93,662.02,229.8,660.84,229.57z M639.3,242.3
					c-7.66,8.98-21.55,9.89-31.06,2c-9.55-7.93-11.06-21.73-3.34-30.78c7.72-9.06,21.71-9.88,31.2-1.88
					C645.54,219.6,646.96,233.31,639.3,242.3z"/>
			</g>
		</g>
		<g>
			
				<linearGradient id="SVGID_00000181767697548613808860000009504371827019842980_" gradientUnits="userSpaceOnUse" x1="-13795.6445" y1="869.2719" x2="-13760.3545" y2="869.2719" gradientTransform="matrix(-0.9987 0.0507 0.0507 0.9987 -12975.7715 662.6562)">
				<stop  offset="0" style="stop-color:#201B59"/>
				<stop  offset="1" style="stop-color:#2D2D84"/>
			</linearGradient>
			<path style="fill:url(#SVGID_00000181767697548613808860000009504371827019842980_);" d="M840.48,819.19
				c0,0,4.23,5.97,6.09,23.21c0.17,1.61-1.03,3.04-2.65,3.12l-30.63,1.55c-1.23,0.06-2.17-1.1-1.84-2.29
				c1.53-5.4,6.3-18.63,18.03-26.65L840.48,819.19z"/>
			
				<linearGradient id="SVGID_00000147193061367500172160000003890313320072296103_" gradientUnits="userSpaceOnUse" x1="-13631.3984" y1="-577.0198" x2="-13617.0859" y2="-577.0198" gradientTransform="matrix(-0.9937 -0.112 -0.112 0.9937 -12766.3887 -135.799)">
				<stop  offset="0" style="stop-color:#F9BABA"/>
				<stop  offset="1" style="stop-color:#F5928F"/>
			</linearGradient>
			<path style="fill:url(#SVGID_00000147193061367500172160000003890313320072296103_);" d="M844.63,809.82l-3.35,14.26
				c-0.29,1.23-1.38,2.12-2.64,2.12c-1.69,0-4.13-0.13-6.44-0.79c-2.1-0.59-3.43-2.67-3.18-4.84l1.57-13.95L844.63,809.82z"/>
			
				<linearGradient id="SVGID_00000021837266803092249570000009320764795484282539_" gradientUnits="userSpaceOnUse" x1="-13672.4873" y1="530.4882" x2="-13617.1172" y2="530.4882" gradientTransform="matrix(-0.9994 0.0349 0.0349 0.9994 -12906.0605 780.5138)">
				<stop  offset="0" style="stop-color:#201B59"/>
				<stop  offset="1" style="stop-color:#2D2D84"/>
			</linearGradient>
			<path style="fill:url(#SVGID_00000021837266803092249570000009320764795484282539_);" d="M770.53,820.25c0,0,6.18,8.91,6.5,21.44
				c0.07,2.95-2.31,5.38-5.26,5.49l-47.6,1.66c-2.23,0.08-3.23-2.76-1.45-4.1c8.79-6.64,26.08-19.07,38.72-24.17L770.53,820.25z"/>
			
				<linearGradient id="SVGID_00000048478334452840032210000009881003414596358834_" gradientUnits="userSpaceOnUse" x1="-13665.1221" y1="1416.455" x2="-13650.8887" y2="1416.455" gradientTransform="matrix(-0.9907 0.1362 0.1362 0.9907 -12958.2939 1269.8851)">
				<stop  offset="0" style="stop-color:#F9BABA"/>
				<stop  offset="1" style="stop-color:#F5928F"/>
			</linearGradient>
			<path style="fill:url(#SVGID_00000048478334452840032210000009881003414596358834_);" d="M771.71,805.05l-1.22,18.3
				c-0.14,2.05-1.9,3.65-3.94,3.48c-1.24-0.1-2.74-0.42-4.39-1.16c-1.57-0.7-2.54-2.32-2.47-4.04l0.83-22.08L771.71,805.05z"/>
			
				<linearGradient id="SVGID_00000049931624407804677100000015939484227986949764_" gradientUnits="userSpaceOnUse" x1="-13641.2334" y1="-701.342" x2="-13544.1904" y2="-701.342" gradientTransform="matrix(-0.9937 -0.112 -0.112 0.9937 -12766.3887 -135.799)">
				<stop  offset="0" style="stop-color:#5560AB"/>
				<stop  offset="1" style="stop-color:#4C57A6"/>
			</linearGradient>
			<path style="fill:url(#SVGID_00000049931624407804677100000015939484227986949764_);" d="M866.48,563.66
				c0,0,11.51,12.71,12.39,26.54c0.88,13.83-33.19,233.19-33.19,233.19s-13.02,0.69-19.16-4.05c0,0,8.31-143.92,6.1-177.64
				c0,0-47.86,144.65-59.51,170.45c0,0-12.48,0.11-16.19-2.68c0,0,29.82-191.14,43.92-224.13L866.48,563.66z"/>
			
				<linearGradient id="SVGID_00000054986167275748724560000007529020750374017671_" gradientUnits="userSpaceOnUse" x1="856.2724" y1="291.908" x2="848.1402" y2="508.2214">
				<stop  offset="0" style="stop-color:#5560AB"/>
				<stop  offset="1" style="stop-color:#4C57A6"/>
			</linearGradient>
			<path style="fill:url(#SVGID_00000054986167275748724560000007529020750374017671_);" d="M833.66,637.57
				c0.75,0,1.46-0.45,1.74-1.2l7.52-19.54l11.93-5.88c0.92-0.46,1.3-1.57,0.85-2.5c-0.46-0.92-1.57-1.3-2.5-0.85l-12.58,6.2
				c-0.42,0.21-0.75,0.56-0.91,1l-7.78,20.22c-0.37,0.96,0.11,2.04,1.07,2.41C833.22,637.53,833.44,637.57,833.66,637.57z"/>
			
				<linearGradient id="SVGID_00000099637656054219420570000012551118055581273232_" gradientUnits="userSpaceOnUse" x1="1003.9668" y1="66.7955" x2="903.1292" y2="271.7238">
				<stop  offset="0" style="stop-color:#F5928F"/>
				<stop  offset="1" style="stop-color:#F37064"/>
			</linearGradient>
			<path style="fill:url(#SVGID_00000099637656054219420570000012551118055581273232_);" d="M734.3,443.76
				c21.25-18.28,58.37-23.43,79.69-24.87c9.34-0.63,17.79,5.48,20.05,14.57c6.55,26.33,24.71,94.97,28.39,106.83
				c3.02,9.73,6.25,19.26,8.31,25.23c1.23,3.56-0.63,7.45-4.19,8.7c-18.53,6.49-51.24,12.51-64.49,14.8
				c-2.91,0.5-5.48-1.93-5.15-4.87c0.28-2.49-0.12-5.01-1.16-7.29l-39.44-86.4c-34.05,30.15-60.91,30.23-80.44,20.59
				c4.62-10.2,8.05-20.55,10.33-31.05C716.85,478.25,734.3,443.76,734.3,443.76z"/>
			
				<linearGradient id="SVGID_00000158736902590899486500000013270266982806374047_" gradientUnits="userSpaceOnUse" x1="-13345.0234" y1="-980.3369" x2="-13459.3232" y2="-838.1373" gradientTransform="matrix(-0.9937 -0.112 -0.112 0.9937 -12766.3887 -135.799)">
				<stop  offset="0" style="stop-color:#F9BABA"/>
				<stop  offset="1" style="stop-color:#F5928F"/>
			</linearGradient>
			<path style="fill:url(#SVGID_00000158736902590899486500000013270266982806374047_);" d="M637.1,468.77l6.25-6.63
				c16.22,14.05,30.58,18.57,42.84,17.87c-2.27,10.5-5.71,20.85-10.33,31.05C650.13,498.35,637.1,468.77,637.1,468.77z"/>
			
				<linearGradient id="SVGID_00000112615870724877090670000009209798097042229940_" gradientUnits="userSpaceOnUse" x1="-13634.5146" y1="42.4334" x2="-13748.8213" y2="184.6418" gradientTransform="matrix(-0.9819 0.1892 0.1892 0.9819 -12828.501 2956.6003)">
				<stop  offset="0" style="stop-color:#F9BABA"/>
				<stop  offset="1" style="stop-color:#F5928F"/>
			</linearGradient>
			<path style="fill:url(#SVGID_00000112615870724877090670000009209798097042229940_);" d="M645.36,467.32l-30,7l-30.82-10.18
				c3.51-3.27,27.09-2.51,27.09-2.51s22.93-8.12,29.32-9.36c5.31-1.03,6.02,6.75,6.11,9.42c0.02,0.54,0.01,0.87,0.01,0.87
				L645.36,467.32z"/>
			
				<linearGradient id="SVGID_00000101071225731900869370000000703557222758105226_" gradientUnits="userSpaceOnUse" x1="-13473.6152" y1="-1066.2693" x2="-13584.3135" y2="-862.8725" gradientTransform="matrix(-0.9937 -0.112 -0.112 0.9937 -12766.3887 -135.799)">
				<stop  offset="0" style="stop-color:#F9BABA"/>
				<stop  offset="1" style="stop-color:#F5928F"/>
			</linearGradient>
			<path style="fill:url(#SVGID_00000101071225731900869370000000703557222758105226_);" d="M789.49,378.17l11.7,41.2
				c0,0-19.99,10.74-34.77,7.84l-4.06-36.32L789.49,378.17z"/>
			<g>
				
					<linearGradient id="SVGID_00000170238907694334339160000004149697599300164767_" gradientUnits="userSpaceOnUse" x1="-10642.7021" y1="-5763.4609" x2="-10691.626" y2="-5698.7388" gradientTransform="matrix(-0.7472 -0.6646 -0.6646 0.7472 -11010.3848 -2411.8442)">
					<stop  offset="0" style="stop-color:#F9BABA"/>
					<stop  offset="1" style="stop-color:#F5928F"/>
				</linearGradient>
				<path style="fill:url(#SVGID_00000170238907694334339160000004149697599300164767_);" d="M765.25,348.25
					c-0.43,0.48-16.34,40.05-16.34,40.05l22.79,8.6l20.65-35.26C792.35,361.64,772.43,340.18,765.25,348.25z"/>
				
					<linearGradient id="SVGID_00000178200606430971041830000016314219578343633073_" gradientUnits="userSpaceOnUse" x1="-10680.0664" y1="-5747.8481" x2="-10621.625" y2="-5747.8481" gradientTransform="matrix(-0.7472 -0.6646 -0.6646 0.7472 -11010.3848 -2411.8442)">
					<stop  offset="0" style="stop-color:#201B59"/>
					<stop  offset="1" style="stop-color:#2D2D84"/>
				</linearGradient>
				<path style="fill:url(#SVGID_00000178200606430971041830000016314219578343633073_);" d="M782.88,366.28l-9.42,19.41
					c-0.12,0.25-0.27,0.47-0.45,0.68c-1.12,1.27-5.31,5.34-9.22,0.81c-3.55-4.12-6.84-7.82-10.17-8.8
					c-1.49-0.44-3.07,0.32-3.65,1.77c-1.44,3.6-4.55,11.76-6.17,19.26c-0.33,1.52,0.58,3.03,2.07,3.49
					c4.48,1.39,14.02,4.05,22.2,4.39c1.11,0.05,2.15-0.5,2.72-1.45c2.79-4.63,11.3-18.68,14.28-22.22c2.8-3.33,8.64-2.57,11.08-2.07
					c0.8,0.16,1.62-0.01,2.29-0.47c2.36-1.64,7-5.99,1.89-12.4c-1.07-1.34-0.82-3.28,0.56-4.31c2.73-2.05,5.84-5.87,2.3-11.45
					c-3.6-5.67-9.22-5.46-12.74-4.61c-1.43,0.35-2.85-0.4-3.46-1.74c-0.34-0.76-1.02-1.38-2.31-1.42c-1.74-0.05-3.03-1.65-2.81-3.38
					c0.43-3.32-0.28-7.66-5.85-10.11c-9.89-4.34-17.39,4.83-18.86,12.15c-1.47,7.32,9.52,11.42,16.23,11.67
					c5.1,0.19,8.29,5.62,9.52,8.22C783.29,364.51,783.28,365.46,782.88,366.28z"/>
				
					<linearGradient id="SVGID_00000109024286830056699680000007897394523469463184_" gradientUnits="userSpaceOnUse" x1="-10714.3564" y1="-5712.2065" x2="-10675.1162" y2="-5752.4668" gradientTransform="matrix(-0.7472 -0.6646 -0.6646 0.7472 -11010.3848 -2411.8442)">
					<stop  offset="0" style="stop-color:#F9BABA"/>
					<stop  offset="1" style="stop-color:#F5928F"/>
				</linearGradient>
				<path style="fill:url(#SVGID_00000109024286830056699680000007897394523469463184_);" d="M781.57,390.65
					c0,0,3.1-12.64,8.51-12.66c5.41-0.03,10.1,4.94,3.99,11.54C786.46,397.74,781.57,390.65,781.57,390.65z"/>
			</g>
		</g>
	</g>
	<g>
		<path class="st11" d="M438.31,436.53l-2.42,2.08l-0.04,0.04c-1.47,1.26-3.69,1.09-4.95-0.38c-1.25-1.46-1.09-3.64,0.33-4.91
			l2.47-2.2c1.46-1.3,3.7-1.16,5,0.3c1.3,1.46,1.17,3.7-0.3,5c-0.01,0.01-0.02,0.02-0.03,0.03L438.31,436.53z"/>
		<path class="st11" d="M430.34,443.61l-2.33,2.2l-0.03,0.03c-1.37,1.3-3.54,1.23-4.83-0.14c-1.28-1.36-1.23-3.49,0.1-4.79l2.36-2.3
			c1.36-1.33,3.55-1.3,4.88,0.06c1.33,1.36,1.3,3.55-0.06,4.88c-0.01,0.01-0.02,0.02-0.03,0.03L430.34,443.61z"/>
		<path class="st11" d="M422.65,451.07l-2.25,2.3l-0.02,0.03c-1.29,1.31-3.39,1.33-4.71,0.04c-1.3-1.27-1.33-3.35-0.08-4.67
			l2.26-2.38c1.28-1.34,3.4-1.4,4.74-0.13c1.34,1.28,1.4,3.4,0.13,4.74c-0.01,0.01-0.02,0.02-0.03,0.03L422.65,451.07z"/>
		<path class="st11" d="M415.23,458.81l-2.18,2.37l-0.02,0.02c-1.21,1.32-3.26,1.4-4.57,0.19c-1.3-1.2-1.4-3.21-0.23-4.53l2.18-2.45
			c1.2-1.35,3.26-1.47,4.61-0.27c1.35,1.2,1.47,3.26,0.27,4.61c-0.01,0.01-0.02,0.02-0.03,0.03L415.23,458.81z"/>
		<path class="st11" d="M408.04,466.8l-2.12,2.44l-0.02,0.02c-1.14,1.31-3.12,1.45-4.44,0.31c-1.3-1.13-1.45-3.08-0.35-4.39
			l2.11-2.51c1.13-1.34,3.13-1.52,4.47-0.39c1.34,1.13,1.52,3.13,0.39,4.47c-0.01,0.01-0.02,0.02-0.02,0.03L408.04,466.8z"/>
		<path class="st11" d="M401.06,474.99l-2.06,2.49l-0.01,0.02c-1.07,1.3-3,1.49-4.3,0.41c-1.29-1.06-1.48-2.96-0.45-4.26l2.04-2.56
			c1.06-1.33,3-1.55,4.33-0.49c1.33,1.06,1.55,3,0.49,4.33c-0.01,0.01-0.01,0.02-0.02,0.03L401.06,474.99z"/>
		<path class="st11" d="M394.27,483.36l-2,2.54l-0.01,0.02c-1.01,1.29-2.87,1.51-4.16,0.5c-1.27-1-1.5-2.83-0.53-4.12l1.98-2.61
			c1-1.31,2.87-1.57,4.19-0.57c1.31,1,1.57,2.87,0.57,4.19c-0.01,0.01-0.01,0.02-0.02,0.03L394.27,483.36z"/>
		<path class="st11" d="M387.68,491.88l-1.94,2.59l-0.01,0.01c-0.95,1.27-2.75,1.52-4.02,0.57c-1.25-0.94-1.51-2.71-0.6-3.98
			l1.92-2.65c0.94-1.29,2.75-1.58,4.04-0.64c1.29,0.94,1.58,2.75,0.64,4.04c-0.01,0.01-0.01,0.02-0.02,0.03L387.68,491.88z"/>
		<path class="st11" d="M381.26,500.55l-1.89,2.63l-0.01,0.01c-0.9,1.24-2.63,1.53-3.88,0.63c-1.23-0.89-1.52-2.6-0.66-3.84
			l1.87-2.69c0.88-1.27,2.63-1.59,3.9-0.7c1.27,0.88,1.59,2.63,0.7,3.9c-0.01,0.01-0.01,0.02-0.02,0.03L381.26,500.55z"/>
		<path class="st11" d="M375.02,509.35l-1.84,2.66l-0.01,0.01c-0.84,1.22-2.51,1.53-3.73,0.68c-1.21-0.83-1.52-2.48-0.71-3.7
			l1.81-2.72c0.83-1.25,2.51-1.58,3.76-0.75c1.25,0.83,1.58,2.51,0.75,3.76c-0.01,0.01-0.01,0.02-0.02,0.03L375.02,509.35z"/>
		<path class="st11" d="M368.94,518.27l-1.79,2.7l-0.01,0.01c-0.79,1.19-2.4,1.52-3.59,0.73c-1.18-0.78-1.51-2.37-0.75-3.56
			l1.76-2.76c0.78-1.22,2.4-1.58,3.62-0.8s1.58,2.4,0.8,3.62c-0.01,0.01-0.01,0.02-0.02,0.03L368.94,518.27z"/>
		<path class="st11" d="M363.05,527.31l-1.74,2.73l-0.01,0.01c-0.74,1.17-2.29,1.51-3.45,0.77c-1.15-0.73-1.5-2.25-0.79-3.42
			l1.7-2.79c0.73-1.19,2.28-1.57,3.48-0.84c1.19,0.73,1.57,2.28,0.84,3.48c-0.01,0.01-0.01,0.02-0.02,0.02L363.05,527.31z"/>
		<path class="st11" d="M357.32,536.46l-1.68,2.77l-0.01,0.01c-0.69,1.14-2.17,1.5-3.31,0.81c-1.12-0.68-1.49-2.14-0.83-3.27
			l1.65-2.82c0.68-1.16,2.17-1.55,3.33-0.87c1.16,0.68,1.55,2.17,0.87,3.33c0,0.01-0.01,0.02-0.01,0.02L357.32,536.46z"/>
		<path class="st11" d="M351.78,545.73l-1.63,2.8l-0.01,0.01c-0.64,1.11-2.06,1.48-3.17,0.84c-1.09-0.64-1.47-2.03-0.86-3.13
			l1.59-2.85c0.63-1.13,2.06-1.54,3.19-0.9c1.13,0.63,1.54,2.06,0.9,3.19c0,0.01-0.01,0.02-0.01,0.02L351.78,545.73z"/>
		<path class="st11" d="M346.42,555.11l-1.57,2.84l-0.01,0.01c-0.59,1.08-1.95,1.47-3.02,0.87c-1.06-0.59-1.46-1.92-0.89-2.99
			l1.53-2.89c0.58-1.1,1.95-1.52,3.04-0.93s1.52,1.95,0.93,3.04c0,0.01-0.01,0.02-0.01,0.02L346.42,555.11z"/>
		<path class="st11" d="M341.27,564.6l-1.5,2.87l-0.01,0.01c-0.55,1.04-1.84,1.45-2.88,0.9c-1.03-0.54-1.44-1.81-0.92-2.85
			l1.47-2.92c0.54-1.07,1.83-1.5,2.9-0.96c1.07,0.54,1.5,1.83,0.96,2.9c0,0.01-0.01,0.02-0.01,0.02L341.27,564.6z"/>
		<path class="st11" d="M336.34,574.21l-1.43,2.9l-0.01,0.01c-0.5,1.01-1.72,1.43-2.73,0.93c-1-0.49-1.42-1.7-0.94-2.7l1.4-2.96
			c0.49-1.03,1.72-1.47,2.75-0.99c1.03,0.49,1.47,1.72,0.99,2.75c0,0.01-0.01,0.01-0.01,0.02L336.34,574.21z"/>
		<path class="st11" d="M331.66,583.93l-1.35,2.94l-0.01,0.02c-0.45,0.98-1.61,1.4-2.58,0.95c-0.97-0.45-1.39-1.58-0.97-2.55
			l1.32-2.99c0.44-1,1.61-1.45,2.6-1.01c1,0.44,1.45,1.61,1.01,2.6c0,0.01-0.01,0.01-0.01,0.02L331.66,583.93z"/>
		<path class="st11" d="M327.24,593.77l-1.26,2.98l-0.01,0.02c-0.4,0.94-1.49,1.38-2.43,0.98c-0.93-0.4-1.37-1.47-1-2.41l1.23-3.03
			c0.39-0.96,1.49-1.43,2.45-1.04c0.96,0.39,1.43,1.49,1.04,2.45c0,0.01-0.01,0.01-0.01,0.02L327.24,593.77z"/>
		<path class="st11" d="M323.15,603.75l-1.16,3.02l-0.01,0.02c-0.35,0.91-1.37,1.36-2.28,1.02c-0.9-0.35-1.35-1.35-1.03-2.25
			l1.12-3.08c0.34-0.93,1.37-1.41,2.3-1.07c0.93,0.34,1.41,1.37,1.07,2.3c0,0.01,0,0.01-0.01,0.02L323.15,603.75z"/>
		<path class="st11" d="M319.44,613.86l-1.03,3.06l-0.01,0.02c-0.29,0.88-1.24,1.35-2.12,1.05c-0.87-0.29-1.34-1.22-1.06-2.09
			l0.99-3.12c0.28-0.9,1.24-1.39,2.13-1.11c0.9,0.28,1.39,1.24,1.11,2.13c0,0.01,0,0.01-0.01,0.02L319.44,613.86z"/>
	</g>
</g>
</svg>
