<?xml version="1.0" encoding="utf-8"?>
<!-- Generator: Adobe Illustrator 27.5.0, SVG Export Plug-In . SVG Version: 6.00 Build 0)  -->
<svg version="1.1" id="Layer_1" xmlns="http://www.w3.org/2000/svg" xmlns:xlink="http://www.w3.org/1999/xlink" x="0px" y="0px"
	 viewBox="0 0 800 600" style="enable-background:new 0 0 800 600;" xml:space="preserve">
<style type="text/css">
	.st0{fill:#5782C2;}
	.st1{fill:#010101;}
	.st2{fill:#AFDEF7;}
	.st3{fill:#F5F8FD;}
	.st4{fill:#E4ECF8;}
	.st5{fill:#FFFFFF;}
	.st6{fill:#3B6BB4;}
	.st7{fill:#88CEF2;}
	.st8{fill:#057482;}
	.st9{fill:#203265;}
	.st10{fill:#091933;}
	.st11{fill:#7DC9F0;}
	.st12{fill:#F8A694;}
	.st13{fill:#CC7768;}
	.st14{fill:#414141;}
	.st15{fill:#023332;}
	.st16{fill:#D97661;}
	.st17{fill:#101010;}
	.st18{fill:#BE4B31;}
	.st19{fill:#813320;}
	.st20{fill:#2E5C9A;}
</style>
<g id="phone">
	<g>
		<g>
			<path class="st0" d="M568.38,53.94c-4.04-23.93-40.89-34.73-40.17-19.11l-168.92,0.99c-11.7,0.07-21.19,10.59-21.2,23.52
				l-0.35,444.25c-0.01,13.39,9.64,24.34,21.57,24.44l172.44,1.48c1.07,2.25,3.07,4.29,6.23,6c19.78,0.42,29.26-9.34,32.73-20.39
				c1.13-2.96,1.74-6.24,1.71-9.69C571.73,499.66,569.63,59.55,568.38,53.94z"/>
			<path class="st0" d="M536.14,535.59l-197.93-1.28c-12.35-0.08-22.34-11.33-22.32-25.1l0.74-456.87
				c0.02-13.29,9.85-24.08,21.97-24.12l194.09-0.63c12.21-0.04,22.19,10.74,22.29,24.09l3.52,458.99
				C558.6,524.5,548.59,535.67,536.14,535.59z"/>
			<path class="st1" d="M538.87,532.26c-0.82,0.11-1.66,0.16-2.5,0.16l-197.87-1.5c-10.61-0.08-19.29-9.94-19.27-21.97l0.68-456.37
				c0.02-11.6,8.56-21.07,18.97-21.11l194.08-0.84c0.3,0,0.61,0.01,0.91,0.02c4.88,0.23,9.45,2.45,12.86,6.26
				c3.49,3.89,5.43,9.05,5.47,14.53l3.47,459.45C555.74,521.78,548.55,530.97,538.87,532.26z"/>
			<polygon class="st2" points="545.38,53.74 548.72,511.6 325.81,510.26 326.38,53.74 			"/>
		</g>
	</g>
	<g>
		<g>
			<g>
				<g>
					<g>
						<path class="st3" d="M437.5,122.39c-0.03-0.03-0.05-0.06-0.08-0.08c-10.91,11.69-28.32,21.27-46.95,25.35
							c-0.01,1.24-0.04,8.14-0.18,39.91c-0.19,42.38,40.15,63.1,46.41,66.28C418.31,179.36,432.72,134.31,437.5,122.39z"/>
						<path class="st4" d="M437.5,122.39c-4.78,11.93-19.2,56.97-0.8,131.45c6.07-2.79,46.91-23.47,47.1-65.86
							c0.14-31.77,0.17-38.67,0.18-39.91C465.44,143.83,448.31,134.13,437.5,122.39z"/>
					</g>
					<path class="st5" d="M436.69,254.71l-0.34-0.17c-12.21-6.2-20.78-13.53-25.83-18.58c-14.03-14.06-21.1-30.35-21.02-48.4
						l0.18-40.54l0.62-0.14c18.18-3.98,35.58-13.37,46.54-25.11l0.58-0.62l0.66,0.71c10.89,11.83,28.11,21.34,46.08,25.45l0.62,0.14
						l0,0.63c-0.01,1.07-0.03,6.32-0.13,28l-0.05,11.91c-0.19,43.51-42.71,64.34-47.56,66.57L436.69,254.71z M391.26,148.28
						l-0.18,39.28c-0.17,37.72,31.58,58.19,45.64,65.39c6.13-2.89,46.11-23.34,46.3-64.98l0.05-11.91
						c0.08-18.94,0.11-25.34,0.12-27.37c-17.78-4.18-34.79-13.57-45.78-25.24C426.35,135,409.2,144.23,391.26,148.28z"/>
				</g>
				<path class="st6" d="M436.77,246.27l-0.72-0.37c-4.39-2.28-12.96-7.32-21.13-15.45c-12.52-12.46-18.84-26.86-18.77-42.8
					l0.16-35.09l1.18-0.3c15.07-3.89,28.82-11.03,38.72-20.11l1.08-0.99l1.15,1.08c9.81,9.13,23.46,16.36,38.45,20.37l1.18,0.31
					l-0.16,35.09c-0.07,15.94-6.51,30.28-19.15,42.63c-7.99,7.81-16.38,12.72-20.67,14.95l-0.11,0.06
					c-0.17,0.09-0.34,0.17-0.49,0.25L436.77,246.27z M399.46,155l-0.15,32.66c-0.07,15.06,5.93,28.7,17.84,40.55
					c7.44,7.41,15.24,12.15,19.64,14.51c4.18-2.19,12.16-6.9,19.77-14.33c12.01-11.74,18.13-25.33,18.2-40.39l0.15-32.66
					c-14.53-4.06-27.8-11.08-37.63-19.9C427.36,144.16,414.03,151.06,399.46,155z"/>
			</g>
		</g>
		<g>
			<path class="st6" d="M418.47,181.81v27.82c0,3.1,37.82,3.1,37.82,0v-27.82H418.47z M439.29,196.58v7.88
				c0,1.05-0.85,1.92-1.9,1.92c-1.07,0-1.92-0.87-1.92-1.92v-7.9c-1.62-0.73-2.76-2.37-2.76-4.25c0-2.58,2.1-4.66,4.68-4.66
				s4.66,2.08,4.66,4.66C442.05,194.21,440.93,195.85,439.29,196.58z"/>
			<path class="st6" d="M452.98,179.82h-3.83v-1.87c0-6.49-5.28-11.77-11.77-11.77c-6.49,0-11.77,5.28-11.77,11.77v1.87h-3.83v-1.87
				c0-8.6,7-15.6,15.6-15.6c8.6,0,15.6,7,15.6,15.6V179.82z"/>
		</g>
	</g>
	<g>
		<g>
			<rect x="380.92" y="275.89" class="st5" width="109.34" height="21.61"/>
			<g>
				<circle class="st6" cx="402.77" cy="287.44" r="4.72"/>
				<circle class="st6" cx="418.95" cy="287.44" r="4.72"/>
				<circle class="st6" cx="435.13" cy="287.44" r="4.72"/>
				<circle class="st6" cx="451.32" cy="287.44" r="4.72"/>
				<circle class="st6" cx="467.5" cy="287.44" r="4.72"/>
			</g>
		</g>
		<path class="st6" d="M449.77,327.88h-29.26c-4.15,0-7.51-3.36-7.51-7.51l0,0c0-4.15,3.36-7.51,7.51-7.51h29.26
			c4.15,0,7.51,3.36,7.51,7.51l0,0C457.28,324.52,453.92,327.88,449.77,327.88z"/>
	</g>
	<g>
		<rect x="392.06" y="353.86" class="st7" width="90.17" height="6.76"/>
		<rect x="363.01" y="368.89" class="st7" width="149.54" height="6.76"/>
		<rect x="369.27" y="383.92" class="st7" width="137.01" height="6.76"/>
	</g>
</g>
<g id="male_02">
	<g>
		<path class="st8" d="M258.5,359.4c-10.82,10.95-20.27,21.74-29.35,41.79c-2.52-6.53-1.9-5.1-7.97-19.45
			c-2.79-6.75-20.83-2.93-21.29,3.01c0,0-3.24,41.36,15.86,57.65c19.1,16.29,72.95-51.72,72.95-51.72
			C305.91,367.17,277.01,344.71,258.5,359.4z"/>
		<g>
			<path class="st9" d="M397.12,505.33c-20.3,39.61-168.4,25.51-193.89,3.95c-18.84-27.65,49.4-41.17,50.92-41.21
				c33.54-0.91,79.76,2.07,96.79,2.07C390.53,476.22,401.58,490.25,397.12,505.33z"/>
			<path class="st10" d="M253.83,488.7c27.55,6.53,51.99,8.67,82.04,4.06c0,0-46.02,20.34-46.27,21.09
				C289.34,514.61,253.83,488.7,253.83,488.7z"/>
			<path class="st9" d="M393.59,509.92c-29.66,32.85-156.27,29.69-131.91-0.18c22.1-2.76,82.82-17.53,88.18-20.43
				C368.51,474.19,405.66,492.14,393.59,509.92z"/>
			<g>
				<g>
					<path class="st11" d="M374.59,533.39c-1.47-6.61-9.09-10.82-17.23-13.47c-3.96,4.63-9.35,13.76-9.69,27.4
						C365.73,551.37,377.12,544.74,374.59,533.39z"/>
					<path class="st2" d="M334.45,516.97c0,0-7.57-1.29-9.79,7.75c-0.75,3.07-2.95,9.23,4.43,14.03c7.37,4.06,12.46,7.19,18.58,8.56
						c0.34-13.64,5.73-22.77,9.69-27.4C346.79,516.48,334.45,516.97,334.45,516.97z"/>
				</g>
				<path class="st9" d="M332.08,518.01c14.45,3.46,7.03,21.27-0.42,20.22c8.1,1.15-143.46,1.17-128.68-44.68c0.06,0,0.06,0,0.06,0
					c5.65-9.65,23.31-18,37.62-11.7C273.8,499.44,305.07,511.64,332.08,518.01z"/>
				<g>
					<path class="st2" d="M337.49,537.25c0,0-12.89-1.01-8.42-11.37c4.47-10.36,13.54-4.28,13.54-4.28S347.45,532.17,337.49,537.25z
						"/>
					<path class="st5" d="M338.11,538.14c-0.32,0-0.58-0.25-0.59-0.57c-0.33-9.46,5.49-15.6,5.74-15.86
						c0.23-0.23,0.6-0.24,0.83-0.02c0.23,0.23,0.24,0.6,0.02,0.83c-0.06,0.06-5.72,6.05-5.41,15c0.01,0.33-0.24,0.6-0.57,0.61
						C338.13,538.14,338.12,538.14,338.11,538.14z"/>
					<path class="st5" d="M341.76,539.53c-0.32,0-0.58-0.25-0.59-0.57c-0.33-9.46,5.49-15.6,5.74-15.86
						c0.23-0.23,0.6-0.24,0.83-0.02c0.23,0.23,0.24,0.6,0.02,0.83c-0.06,0.06-5.72,6.05-5.41,15c0.01,0.33-0.24,0.6-0.57,0.61
						C341.77,539.53,341.76,539.53,341.76,539.53z"/>
					<path class="st5" d="M345.61,540.49c-0.32,0-0.58-0.25-0.59-0.57c-0.33-9.46,5.49-15.6,5.74-15.86
						c0.23-0.23,0.6-0.24,0.83-0.02c0.23,0.23,0.24,0.6,0.02,0.83c-0.06,0.06-5.72,6.05-5.41,15c0.01,0.33-0.24,0.6-0.57,0.61
						C345.63,540.49,345.62,540.49,345.61,540.49z"/>
				</g>
			</g>
			<path class="st10" d="M333.61,537.64c-3.09,1.71-81.2,5.34-124.68-22.66c-14.15-9.11-6.71-22.19-6.71-22.19
				S212.35,530.7,333.61,537.64z"/>
			<path class="st10" d="M324.88,517.66c-0.08,0-0.17-0.01-0.25-0.04c-56.3-16.68-82.24-33.95-82.49-34.12
				c-0.4-0.27-0.51-0.82-0.24-1.23c0.27-0.4,0.82-0.51,1.23-0.24c0.25,0.17,26,17.3,82,33.89c0.47,0.14,0.73,0.63,0.6,1.1
				C325.62,517.41,325.26,517.66,324.88,517.66z"/>
			<path class="st10" d="M289.23,505.05c-0.42,0-0.79-0.3-0.87-0.73c-0.09-0.48,0.23-0.94,0.71-1.02
				c0.36-0.06,35.85-6.45,49.6-12.34c0.45-0.19,0.97,0.02,1.16,0.46c0.19,0.45-0.02,0.97-0.46,1.16
				c-13.93,5.97-48.52,12.19-49.98,12.46C289.33,505.04,289.28,505.05,289.23,505.05z"/>
		</g>
		<path class="st5" d="M353.04,470.09c1.24,9.47-66.18,11.73-100.66-2c-5.16-21.38-22.96-118.68,30.21-118.39
			C340,350.03,347.59,444.28,353.04,470.09z"/>
		<path class="st12" d="M201.91,384.35l-0.79-12.05l12.66-1.91l4.78,10.83C219.11,384.43,202.45,387.56,201.91,384.35z"/>
		<g>
			<path class="st12" d="M214.36,372.27l3.07-19.52c0,0-4.46-1.26-4.88,4.04s-9.06,8.65-6.83,13.81
				C207.95,375.76,214.36,372.27,214.36,372.27z"/>
			<path class="st12" d="M201.53,372.83c0,0-9.5-14.5-10.32-22.73c-0.09-3.01,1.26-3.9,1.26-3.9l21.61,21.2c0,0,1.39,4.32-0.28,6.14
				C212.13,375.34,205.85,377.99,201.53,372.83z"/>
			<path class="st13" d="M214.89,367.69c0,0,0.22,3.43-1.75,2.73c-5.77-1.69-6.12-10.17-6.12-10.17L214.89,367.69z"/>
			<g>
				<path class="st14" d="M223.37,371.96l-40.21-37.34c0,0-1.4-0.11-2.3,0.51l42.4,38.88C223.55,373.08,223.37,371.96,223.37,371.96
					z"/>
				<path class="st1" d="M180.86,335.13c-0.61,0.42-1,1.17-0.55,2.56c1.12,3.42,36.61,36.12,40.21,37.34
					c1.75,0.6,2.47-0.12,2.74-1.01L180.86,335.13z"/>
			</g>
			<path class="st12" d="M191.29,348.08c0,0,0.41-3.36,6.46,0.76c7.35,5,12.29,13.93,10.63,16.22
				C206.27,367.97,189.69,354.77,191.29,348.08z"/>
		</g>
		<path class="st8" d="M271.7,351.32c-38.13,8.36-27.85,99.44-25.18,119.17c7.21,2.87,30.5,8.55,39.66,10.1
			C267.85,437.23,258.23,355.46,271.7,351.32z"/>
		<path class="st12" d="M294.07,352.62c-4.24,20.66-26.96,20.13-27.25,8.53c-0.06-0.29-0.06-0.65-0.06-0.94l-1.82-25.08l-0.23-3.06
			l2-0.41l18.07-3.59l0.65-0.12l0.53,1.59l2.3,6.53L294.07,352.62z"/>
		<path class="st8" d="M293.55,351.04c-7.18,16.89,2.31,105.06,8.89,131.37c17.79,6.01,44.62-2.78,51.79-11.8
			C349.14,446.55,341,362.49,293.55,351.04z"/>
		<g>
			<path class="st8" d="M291.76,381.72c-2.77,15.18,2.51,41.51,6.61,55.2c10.9,8.02,27.83,3.88,27.83-8.44
				c0.47-11.12-0.51-23.61-3.19-37.69C320.38,359.07,293.13,359.36,291.76,381.72z"/>
			<g>
				<path class="st8" d="M275.06,402.16c-11.22-4.05-17,12.07-8.83,17.66c19.43,13.11,49.61,30.74,54.97,19.51
					C329.05,422.9,300.64,410.26,275.06,402.16z"/>
			</g>
			<g>
				<path class="st12" d="M264.72,414.84l-8.31-4.39c-5.22-4.05,3.97-12.37,7.7-11.03l6.46,4.06
					C273.85,406.57,269.19,414.49,264.72,414.84z"/>
				<g>
					<g>
						<path class="st12" d="M257.2,410.62c-6.8-1.45-4.45-8.32-2.92-16.16C248.81,370.93,278.75,411.25,257.2,410.62z"/>
					</g>
					<path class="st12" d="M260.19,391.45c0,0-2.22-3.46-7.11-11.18c-2.2,0.42-3.38,4.28-0.42,7.67
						C255.27,390.91,259.03,392.92,260.19,391.45z"/>
					<g>
						<defs>
							<path id="XMLID_2_" d="M253.51,389.38c-4.91-2.78-8.41,5.32-7.12,11.64c1.97,9.68,9.18,4.9,11.33,2.31
								C261.65,398.61,259.53,392.79,253.51,389.38z"/>
						</defs>
						<use xlink:href="#XMLID_2_"  style="overflow:visible;fill:#F8A694;"/>
						<clipPath id="XMLID_00000105414571287301607360000004774511089308082098_">
							<use xlink:href="#XMLID_2_"  style="overflow:visible;"/>
						</clipPath>
					</g>
				</g>
			</g>
			<path class="st15" d="M292.39,408.91c-0.28,0-0.53-0.2-0.58-0.49c-0.04-0.22-3.52-21.67,0.79-36.17c0.09-0.31,0.42-0.49,0.73-0.4
				c0.31,0.09,0.49,0.42,0.4,0.73c-4.23,14.24-0.79,35.43-0.75,35.64c0.05,0.32-0.16,0.62-0.48,0.68
				C292.45,408.91,292.42,408.91,292.39,408.91z"/>
			<path class="st15" d="M312.85,442.04c-9.7,0-21.19-6.09-21.86-6.45c-0.29-0.15-0.39-0.51-0.24-0.8c0.15-0.29,0.51-0.39,0.8-0.24
				c0.22,0.12,22.35,11.85,30.44,2.98c7.1-7.78,1.81-41.5,1.76-41.84c-0.05-0.32,0.17-0.62,0.49-0.67c0.32-0.05,0.62,0.17,0.67,0.49
				c0.23,1.41,5.43,34.62-2.05,42.82C320.36,441.05,316.75,442.04,312.85,442.04z"/>
			<path class="st5" d="M304.99,414.01c-0.08,0-0.16-0.02-0.24-0.05c-14.18-6.3-31.93-12.01-32.1-12.07
				c-0.31-0.1-0.48-0.43-0.38-0.74c0.1-0.31,0.43-0.48,0.74-0.38c0.18,0.06,17.99,5.79,32.22,12.11c0.3,0.13,0.43,0.48,0.3,0.78
				C305.43,413.88,305.21,414.01,304.99,414.01z"/>
		</g>
		<path class="st16" d="M266.75,360.61c-0.53-5.54-3.57-26.41-0.05-28.94l18.07-3.59C288.92,350.84,273.48,362.21,266.75,360.61z"/>
	</g>
	<g>
		<path class="st12" d="M291.5,324.01c-0.88,18.62-17.46,33.07-29.79,32.39c-12.34-0.68-27.5-16.42-26.62-35.05
			c0.88-18.62,14.22-33.12,29.79-32.39S292.38,305.39,291.5,324.01z"/>
		<path class="st17" d="M274.73,291.59c-15.6-12.8-26.15-3.87-35.89,5.78c-6.84,6.77-11.69,11.64-19.18,11.86
			c11.95,19.59,41.71,11.31,52.83-5.48c-0.38,10.29,10.59,20.2,19.02,20.25C295.59,313.01,290.56,289.14,274.73,291.59z"/>
		
			<ellipse transform="matrix(0.9647 -0.2633 0.2633 0.9647 -75.3445 87.4562)" class="st12" cx="288.57" cy="324.79" rx="6.43" ry="6.43"/>
		<g>
			<path class="st18" d="M254.09,342.86c-0.48,0-0.93-0.1-1.3-0.37c-1.61-1.14-0.03-10.69,0.49-13.59c0.04-0.21,0.23-0.34,0.44-0.31
				c0.21,0.04,0.34,0.24,0.31,0.44c-1.03,5.72-1.63,12.25-0.8,12.84c1.09,0.77,3.66-0.6,4.56-1.19c0.18-0.11,0.41-0.07,0.53,0.11
				c0.12,0.18,0.07,0.41-0.11,0.53C257.92,341.52,255.81,342.86,254.09,342.86z"/>
			<path class="st17" d="M265.48,326.73c0.33,1.49,1.19,2.56,1.93,2.4c0.74-0.16,1.07-1.5,0.74-2.99c-0.33-1.49-1.19-2.56-1.93-2.4
				C265.48,323.9,265.15,325.24,265.48,326.73z"/>
			<path class="st17" d="M241.89,332.54c0.31,1.39,1.11,2.39,1.8,2.24c0.69-0.15,1-1.4,0.69-2.79c-0.31-1.39-1.11-2.39-1.8-2.24
				C241.9,329.91,241.59,331.15,241.89,332.54z"/>
			<path class="st19" d="M265.06,346.69c-0.6,0-0.99-0.05-1.04-0.06c-0.21-0.03-0.35-0.22-0.33-0.43c0.03-0.21,0.22-0.35,0.43-0.33
				c0.04,0,3.9,0.48,6.65-1.85c1.76-1.49,2.71-3.81,2.82-6.89c0.01-0.21,0.18-0.39,0.39-0.37c0.21,0.01,0.37,0.18,0.37,0.39
				c-0.12,3.31-1.16,5.82-3.09,7.45C269.13,346.41,266.49,346.69,265.06,346.69z"/>
			<path class="st19" d="M262.72,322.88c-0.01,0-0.01,0-0.02,0c-0.21-0.01-0.37-0.19-0.36-0.4c0.07-1.52,1.1-2.77,2.69-3.24
				c1.62-0.48,3.24,0,4.13,1.24c0.12,0.17,0.09,0.41-0.09,0.53c-0.17,0.12-0.41,0.09-0.53-0.09c-0.7-0.97-1.99-1.34-3.29-0.95
				c-0.99,0.3-2.08,1.12-2.14,2.54C263.1,322.72,262.93,322.88,262.72,322.88z"/>
			<path class="st19" d="M240.1,328.3c-0.01,0-0.02,0-0.03,0c-0.21-0.02-0.36-0.2-0.35-0.41c0.2-2.28,1.56-3.26,2.76-3.41
				c1.46-0.18,2.85,0.75,3.38,2.27c0.07,0.2-0.03,0.42-0.23,0.49c-0.2,0.07-0.42-0.03-0.49-0.23c-0.41-1.18-1.46-1.91-2.56-1.77
				c-0.9,0.11-1.93,0.89-2.09,2.72C240.46,328.15,240.29,328.3,240.1,328.3z"/>
		</g>
	</g>
</g>
<g id="message">
	<g>
		<g>
			<path class="st2" d="M181.12,287.74h-60.82c-10.19,0-18.45-8.26-18.45-18.45v-11.61c0-10.19,8.26-18.45,18.45-18.45h60.82
				c10.19,0,18.45,8.26,18.45,18.45v11.61C199.57,279.48,191.31,287.74,181.12,287.74z"/>
			<polygon class="st2" points="183.44,279.9 183.44,301.78 161.13,279.48 			"/>
		</g>
		<g>
			
				<ellipse transform="matrix(0.7071 -0.7071 0.7071 0.7071 -151.3266 162.5395)" class="st5" cx="120.54" cy="263.94" rx="4.26" ry="4.26"/>
			
				<ellipse transform="matrix(0.2288 -0.9735 0.9735 0.2288 -152.9647 334.7901)" class="st5" cx="134.82" cy="263.94" rx="4.26" ry="4.26"/>
			
				<ellipse transform="matrix(0.2288 -0.9735 0.9735 0.2288 -141.9538 348.6889)" class="st5" cx="149.09" cy="263.94" rx="4.26" ry="4.26"/>
			
				<ellipse transform="matrix(0.1602 -0.9871 0.9871 0.1602 -123.3264 382.9214)" class="st5" cx="163.37" cy="263.94" rx="4.26" ry="4.26"/>
			
				<ellipse transform="matrix(0.7071 -0.7071 0.7071 0.7071 -134.5994 202.9224)" class="st5" cx="177.65" cy="263.94" rx="4.26" ry="4.26"/>
		</g>
	</g>
	<g>
		<g>
			<g>
				<path class="st2" d="M269.01,220.59h-27.14c-12.07,0-21.86-9.79-21.86-21.86v-13.76c0-12.07,9.79-21.86,21.86-21.86h27.14
					c12.07,0,21.86,9.79,21.86,21.86v13.76C290.87,210.81,281.08,220.59,269.01,220.59z"/>
				<polygon class="st2" points="245.64,218.8 253.76,233.05 262.7,218.8 				"/>
			</g>
		</g>
		<g>
			<polygon class="st6" points="253.91,190.51 239.77,179.85 267.98,179.85 			"/>
			<polygon class="st6" points="269.17,182.6 269.17,201.1 238.58,201.1 238.58,182.6 253.91,194.1 			"/>
		</g>
	</g>
</g>
<path class="st20" d="M698.9,541.28H176.57c-1.63,0-2.94-1.32-2.94-2.94c0-1.63,1.32-2.94,2.94-2.94H698.9
	c1.63,0,2.94,1.32,2.94,2.94C701.85,539.97,700.53,541.28,698.9,541.28z"/>
</svg>
