<?xml version="1.0" encoding="utf-8"?>
<!-- Generator: Adobe Illustrator 27.5.0, SVG Export Plug-In . SVG Version: 6.00 Build 0)  -->
<svg version="1.1" id="Layer_1" xmlns="http://www.w3.org/2000/svg" xmlns:xlink="http://www.w3.org/1999/xlink" x="0px" y="0px"
	 viewBox="0 0 400 400" style="enable-background:new 0 0 400 400;" xml:space="preserve">
<style type="text/css">
	.st0{fill:#F3FAFE;}
	.st1{fill:#E9ECF1;}
	.st2{fill:#304982;}
	.st3{fill:#405B9F;}
	.st4{fill:#FBB37E;}
	.st5{fill:#F8A278;}
	.st6{fill:#384363;}
	.st7{fill:#FFFFFF;}
	.st8{fill:#48393D;}
	.st9{fill:#758EC8;}
	.st10{fill:#9CACD8;}
	.st11{fill:#BCC7E6;}
	.st12{fill:#4D6BB3;}
	.st13{fill:#DDE7F6;}
	.st14{fill:#6779BA;}
	.st15{fill:#F39B51;}
	.st16{fill:#FCC65B;}
	.st17{fill:#E3E9F6;}
	.st18{fill:#FEE5A6;}
</style>
<g>
	<g>
		<path class="st0" d="M285.1,293.23c28.76,2.03,64.72-9.38,80.58-34.38c6.57-10.35,10.93-23.64,6.36-35.1
			c-3.46-8.68-18.11-18.48-21.27-27.28c-3.21-8.92-2.75-18.97-1.11-28.35c4.73-26.96-21.57-69.03-77.11-73.52
			c-42.11-3.4-61.16,29.33-97,33.79c-36.17,4.51-78.58-22.54-104.45,0c-32.13,28-17.05,56.02-13.14,69.13
			c5.02,16.84-19.53,36.07-14.47,60.86c11.32,55.45,93.61,18.06,117.73,15.71c24.49-2.38,48.8,4.59,72.8,10.19
			c24,5.6,49.43,9.81,72.89,2.12L285.1,293.23z"/>
	</g>
	<g>
		<g>
			<g>
				<ellipse class="st1" cx="196.86" cy="311.49" rx="172.93" ry="8.24"/>
			</g>
		</g>
	</g>
	<g>
		<g>
			<g>
				<g>
					<g>
						<path class="st2" d="M46.33,170.33l-0.52,0.06c-1.17-10.28,1.98-20.26,9.9-31.42l0.43,0.3
							C48.3,150.32,45.18,160.19,46.33,170.33z"/>
					</g>
				</g>
			</g>
		</g>
		<g>
			<g>
				<g>
					<g>
						<path class="st2" d="M43.02,177.21l-0.5,0.16c-6.01-19.15,4.3-34.67,15.18-47.31l0.4,0.34
							C47.31,142.93,37.09,158.3,43.02,177.21z"/>
					</g>
				</g>
			</g>
		</g>
	</g>
	<g>
		<g>
			<g>
				<g>
					<g>
						<path class="st2" d="M296.75,95.64c-12.06-6.17-22.28-7.83-32.15-5.23l-0.13-0.51c10-2.64,20.33-0.96,32.52,5.27L296.75,95.64
							z"/>
					</g>
				</g>
			</g>
		</g>
		<g>
			<g>
				<g>
					<g>
						<path class="st2" d="M305.82,96.3c-13.96-8.87-30.64-16.78-48.5-8.18l-0.23-0.47c18.09-8.71,34.92-0.74,49.01,8.21
							L305.82,96.3z"/>
					</g>
				</g>
			</g>
		</g>
	</g>
	<g>
		<g>
			<g>
				<path class="st3" d="M152.52,148.84l-0.76-0.02c0.01-0.39,0.03-0.78,0.06-1.16l0.76,0.05
					C152.55,148.08,152.53,148.46,152.52,148.84z"/>
			</g>
		</g>
		<g>
			<g>
				<path class="st3" d="M204.66,142.44c-0.21-0.74-0.45-1.49-0.72-2.21l0.72-0.27c0.28,0.74,0.53,1.51,0.74,2.27L204.66,142.44z
					 M152.84,145.4l-0.76-0.12c0.12-0.78,0.29-1.57,0.48-2.34l0.74,0.19C153.11,143.87,152.96,144.64,152.84,145.4z M203.03,138.1
					c-0.33-0.69-0.7-1.38-1.1-2.05l0.66-0.39c0.4,0.68,0.78,1.39,1.13,2.11L203.03,138.1z M153.97,140.9l-0.72-0.25
					c0.26-0.75,0.56-1.5,0.88-2.22l0.7,0.31C154.51,139.45,154.22,140.17,153.97,140.9z M200.67,134.11
					c-0.45-0.63-0.93-1.24-1.44-1.82l0.58-0.5c0.52,0.6,1.02,1.23,1.48,1.88L200.67,134.11z M155.87,136.66l-0.67-0.37
					c0.39-0.69,0.81-1.38,1.25-2.03l0.63,0.43C156.65,135.33,156.24,135.99,155.87,136.66z M197.64,130.59
					c-0.55-0.54-1.14-1.06-1.73-1.55l0.48-0.59c0.61,0.5,1.21,1.04,1.78,1.59L197.64,130.59z M158.47,132.82l-0.59-0.48
					c0.5-0.62,1.03-1.22,1.59-1.79l0.55,0.53C159.48,131.64,158.96,132.23,158.47,132.82z M194.05,127.65
					c-0.64-0.44-1.3-0.85-1.97-1.23l0.37-0.67c0.69,0.39,1.37,0.81,2.03,1.26L194.05,127.65z M161.7,129.49l-0.5-0.58
					c0.6-0.52,1.23-1.02,1.87-1.48l0.45,0.62C162.9,128.5,162.29,128.99,161.7,129.49z M190,125.38c-0.7-0.32-1.43-0.61-2.16-0.86
					l0.25-0.72c0.75,0.26,1.49,0.56,2.22,0.89L190,125.38z M165.46,126.77l-0.39-0.66c0.68-0.41,1.39-0.79,2.1-1.13l0.33,0.69
					C166.81,126.01,166.12,126.38,165.46,126.77z M185.62,123.84c-0.75-0.19-1.51-0.35-2.27-0.47l0.12-0.75
					c0.78,0.13,1.57,0.29,2.34,0.49L185.62,123.84z M169.64,124.75l-0.27-0.72c0.74-0.28,1.51-0.53,2.27-0.75l0.21,0.74
					C171.1,124.24,170.36,124.48,169.64,124.75z M181.04,123.09c-0.77-0.06-1.55-0.08-2.32-0.07l-0.01-0.76
					c0.79-0.01,1.6,0.01,2.39,0.07L181.04,123.09z M174.1,123.5l-0.14-0.75c0.78-0.15,1.58-0.26,2.36-0.34l0.08,0.76
					C175.64,123.24,174.86,123.35,174.1,123.5z"/>
			</g>
		</g>
		<g>
			<g>
				<path class="st3" d="M206.13,145.74l-0.76,0.11c-0.05-0.38-0.11-0.75-0.18-1.12l0.75-0.14
					C206.01,144.97,206.08,145.36,206.13,145.74z"/>
			</g>
		</g>
		<g>
			<g>
				<g>
					<polygon class="st3" points="154.86,149.08 152.08,150.41 149.2,149.33 152.32,155.92 					"/>
				</g>
			</g>
		</g>
	</g>
	<g>
		<g>
			<g>
				<path class="st4" d="M128.78,186.92c-0.11-1.74,0.6-3.79,1.06-3.59c0.46,0.2,0.03,1.83,0.36,2.32c0.43,0.64,0.79,1.25,0.48,2.76
					L128.78,186.92z"/>
			</g>
		</g>
	</g>
	<g>
		<g>
			<g>
				<g>
					<g>
						<polygon class="st4" points="113.09,308.47 111.7,297.25 119.93,297.25 120.29,308.47 						"/>
					</g>
				</g>
			</g>
		</g>
		<g>
			<g>
				<g>
					<path class="st5" d="M120.13,303.62c-3.11,0.81-7.72-0.67-7.72-0.67l-0.33-2.66l7.97,0.67L120.13,303.62z"/>
				</g>
			</g>
		</g>
	</g>
	<g>
		<g>
			<g>
				<g>
					<g>
						<polygon class="st4" points="73.85,308.47 74.61,297.25 82.84,297.25 81.05,308.47 						"/>
					</g>
				</g>
			</g>
		</g>
		<g>
			<g>
				<g>
					<path class="st5" d="M82.46,299.65l-0.56,3.54c-3.8,0.22-6.5-1.18-7.55-1.86l0.23-3.45L82.46,299.65z"/>
				</g>
			</g>
		</g>
	</g>
	<g>
		<g>
			<path class="st3" d="M130.59,301.44c0,0-5.49-69-20.33-102.54l-13.79,0.69c0,0,1.18,48.58,11.52,101.85
				C107.99,301.44,120.94,304.51,130.59,301.44z"/>
		</g>
	</g>
	<g>
		<g>
			<path class="st3" d="M91.51,301.44c0,0-13.57,2.19-21.31-3.07c0,0,4.12-74.81,16.75-99.34h14.84
				C101.78,199.02,101.3,239.35,91.51,301.44z"/>
		</g>
	</g>
	<g>
		<g>
			<g>
				<g>
					<path class="st6" d="M87.27,163.51c0.37-1.31,1.05-2.97,1.05-2.97c-0.24,1.25-0.24,2.63-0.22,3.38
						c3.22,1.48,9.95,3.4,20.41,0.85c-0.13-1.07-0.19-2.09-0.19-2.09c0.18,0.68,0.45,1.37,0.71,1.96c0.37-0.09,0.75-0.19,1.13-0.3
						c-0.31-1.33-0.45-3.63-0.45-3.63c0.37,1.39,1.09,2.8,1.39,3.36c0.64-0.19,1.28-0.4,1.95-0.62c0,0-2.08-3.18-3.45-11.45
						c-1.13-6.8-4.61-10.01-9.92-9.87c-10.9,0.29-13.81,20.53-13.81,20.53S86.33,163.01,87.27,163.51z"/>
				</g>
			</g>
		</g>
	</g>
	<g>
		<g>
			<g>
				<g>
					<path class="st7" d="M124.97,187.51c0,0-4.37-19.67-21.74-20.69c-26.74-1.57-34.96,15.83-34.96,15.83L124.97,187.51z"/>
				</g>
			</g>
		</g>
	</g>
	<g>
		<g>
			<g>
				<path class="st4" d="M97.28,147.1c2.95-1.69,8.14-1.76,9.32,2.24c1.09,3.69,0.92,14.8-4.02,14.59
					c-5.16-0.22-6.79-4.14-7.25-6.54C95.17,156.53,94.33,148.79,97.28,147.1z"/>
			</g>
		</g>
	</g>
	<g>
		<g>
			<g>
				<path class="st4" d="M95.46,157.2c0,0-2.3,0.71-2.73-1.36c-0.39-1.87,1.83-2.6,2.55-1.78L95.46,157.2z"/>
			</g>
		</g>
	</g>
	<g>
		<g>
			<g>
				<g>
					<g>
						<path class="st4" d="M127.39,211.2c3.31-6.47,5.89-21.59,5.89-21.59c0.38-0.6,1.99-3.17,2.09-5.13
							c0.04-0.87-0.4-1.39-0.99-1.1c-0.21-0.71-0.63-0.84-1.2-0.42c-0.32-0.62-0.7-0.59-1.09-0.29c-0.85-1.42-2.53,3.07-2.52,3.63
							c0.01,0.38,0.12,1.76,0.18,2.16c0.08,0.54-9.91,17.56-9.91,17.56L127.39,211.2z"/>
					</g>
				</g>
			</g>
		</g>
	</g>
	<g>
		<g>
			<g>
				<path class="st7" d="M72.89,299.58l-0.44-0.03c0.05-0.75,5.07-75.09,17.84-99.25l0.39,0.21
					C77.96,224.58,72.94,298.83,72.89,299.58z"/>
			</g>
		</g>
	</g>
	<g>
		<g>
			<g>
				<g>
					<path class="st7" d="M83.71,187.04l-4.68,26.77c12.21,3.67,26,0.37,37.27-7.11l-4.67-26.4l-8.69-13.23c0,0-4.24,4.83-8.9-0.11
						l-12.16,5.1L83.71,187.04z"/>
				</g>
			</g>
		</g>
	</g>
	<g>
		<g>
			<g>
				<path class="st7" d="M128.18,192.85l-2.47-6.12c0,0-6.17-12.55-11.25-15.79l-3.25,21.95L128.18,192.85z"/>
			</g>
		</g>
	</g>
	<g>
		<g>
			<g>
				<path class="st8" d="M99.33,241.29l-0.43-0.04c0.7-7.5,1.29-14.83,1.74-21.79l0.43,0.03
					C100.62,226.46,100.03,233.79,99.33,241.29z"/>
			</g>
		</g>
	</g>
	<g>
		<g>
			<g>
				<path class="st7" d="M111.28,301.59c-0.09-0.44-9.25-44.36-11.85-66.49l0.44-0.05c2.6,22.11,11.75,66.01,11.84,66.45
					L111.28,301.59z"/>
			</g>
		</g>
	</g>
	<g>
		<g>
			<g>
				<g>
					
						<rect x="113.75" y="180.1" transform="matrix(0.9847 -0.1741 0.1741 0.9847 -31.9538 22.801)" class="st3" width="0.43" height="26.81"/>
				</g>
			</g>
		</g>
	</g>
	<g>
		<g>
			<g>
				<path class="st6" d="M93.58,153.64c0,0,0.82-0.48,1.65,0.4c0,0,0.22-1.74,0.81-2.84l0.37,1.95c0.6,0.09,2.5,0.41,4.58,0.45
					c0.59,0.01,2.24,0,2.24,0l0.38-3.25l0.7,3.19c0.49-0.04,0.86-0.09,1.25-0.14l0.28-1.91l0.53,1.8c0.52-0.09,0.88-0.17,1.06-0.21
					c0.11-1.37,0.15-5.05-2.29-7.19c-2.8-2.45-8.71-1.1-10.08,1.83C93.69,150.64,93.58,153.64,93.58,153.64z"/>
			</g>
		</g>
	</g>
	<g>
		<g>
			<g>
				<path class="st4" d="M99.11,169.22c2.45,0,3.9-2.14,3.9-2.14l-0.61-7.08l-6.74-4l-1.7,10.98
					C93.96,166.97,96.07,169.22,99.11,169.22z"/>
			</g>
		</g>
	</g>
	<g>
		<g>
			<g>
				<g>
					<g>
						<path class="st6" d="M102.36,164.33l0.02-0.43c-3.07-0.13-5.03-2.48-6.14-4.42l-0.37,0.21
							C97.03,161.73,99.09,164.19,102.36,164.33z"/>
					</g>
				</g>
			</g>
		</g>
	</g>
	<g>
		<g>
			<g>
				<g>
					<g>
						<g>
							<g>
								<g>
									<path class="st6" d="M111.21,313.75l20.79,0.08c0.72,0,1.31-0.61,1.25-1.33c0-0.01,0-0.02,0-0.03
										c-0.01-0.16-0.03-0.32-0.06-0.49c-0.07-0.55-0.22-1.11-0.48-1.45c-0.98-1.31-2.89-1.92-6.3-3.28
										c-2.14-0.86-3.95-2-4.75-2.53c-0.26-0.17-0.6-0.13-0.82,0.08c-4.13,4.01-6.65,3.14-7.4,1.48
										c-0.57-1.27-1.39-1.01-1.62-0.64c-0.7,1.16-1.09,4.55-1.25,6.25c-0.02,0.18-0.04,0.35-0.05,0.49
										c-0.03,0.32-0.04,0.51-0.04,0.51C110.42,313.34,110.76,313.75,111.21,313.75z"/>
								</g>
							</g>
						</g>
					</g>
				</g>
			</g>
		</g>
		<g>
			<g>
				<g>
					<g>
						<path class="st7" d="M125.24,309.43c1.48-0.71,1.27-2.24,1.26-2.25l-0.36,0.05c0.01,0.05,0.17,1.28-1.06,1.87L125.24,309.43z"
							/>
					</g>
				</g>
			</g>
			<g>
				<g>
					<g>
						<path class="st7" d="M127.06,310.05c1.36-0.76,1.22-2.09,1.21-2.14l-0.36,0.04c0.01,0.05,0.11,1.15-1.03,1.79L127.06,310.05z"
							/>
					</g>
				</g>
			</g>
			<g>
				<g>
					<g>
						<path class="st7" d="M115.33,309.1c1.39,0.01,2.65-0.62,2.67-0.63l-0.16-0.32c-0.03,0.02-3.19,1.59-4.81-0.43l-0.28,0.22
							C113.46,308.82,114.42,309.09,115.33,309.1z"/>
					</g>
				</g>
			</g>
		</g>
		<g>
			<g>
				<g>
					<g>
						
							<rect x="118.95" y="306.28" transform="matrix(3.695249e-03 -1 1 3.695249e-03 -193.6427 430.3161)" class="st7" width="0.36" height="12.12"/>
					</g>
				</g>
			</g>
			<g>
				<g>
					<g>
						
							<rect x="128" y="310.94" transform="matrix(3.736598e-03 -1 1 3.736598e-03 -184.6684 439.3828)" class="st7" width="0.36" height="2.87"/>
					</g>
				</g>
			</g>
		</g>
	</g>
	<g>
		<g>
			<g>
				<g>
					<g>
						<g>
							<g>
								<g>
									<path class="st6" d="M72.27,313.75l20.79,0.08c0.72,0,1.31-0.61,1.25-1.33c0-0.01,0-0.02,0-0.03
										c-0.01-0.16-0.03-0.32-0.06-0.49c-0.07-0.55-0.22-1.11-0.48-1.45c-0.98-1.31-2.89-1.92-6.3-3.28
										c-2.14-0.86-3.95-2-4.75-2.53c-0.26-0.17-0.6-0.13-0.82,0.08c-4.13,4.01-6.65,3.14-7.4,1.48
										c-0.57-1.27-1.39-1.01-1.62-0.64c-0.7,1.16-1.09,4.55-1.25,6.25c-0.02,0.18-0.03,0.35-0.05,0.49
										c-0.03,0.32-0.04,0.51-0.04,0.51C71.48,313.34,71.82,313.75,72.27,313.75z"/>
								</g>
							</g>
						</g>
					</g>
				</g>
			</g>
		</g>
		<g>
			<g>
				<g>
					<g>
						<path class="st7" d="M86.3,309.43c1.48-0.71,1.27-2.24,1.26-2.25l-0.36,0.05c0.01,0.05,0.17,1.28-1.06,1.87L86.3,309.43z"/>
					</g>
				</g>
			</g>
			<g>
				<g>
					<g>
						<path class="st7" d="M88.12,310.05c1.36-0.76,1.22-2.09,1.21-2.14l-0.36,0.04c0.01,0.05,0.11,1.15-1.03,1.79L88.12,310.05z"/>
					</g>
				</g>
			</g>
			<g>
				<g>
					<g>
						<path class="st7" d="M76.39,309.1c1.39,0.01,2.65-0.62,2.67-0.63l-0.16-0.32c-0.03,0.02-3.19,1.59-4.81-0.43l-0.28,0.22
							C74.52,308.82,75.48,309.09,76.39,309.1z"/>
					</g>
				</g>
			</g>
		</g>
		<g>
			<g>
				<g>
					<g>
						
							<rect x="80.01" y="306.28" transform="matrix(3.695298e-03 -1 1 3.695298e-03 -232.4369 391.3782)" class="st7" width="0.36" height="12.12"/>
					</g>
				</g>
			</g>
			<g>
				<g>
					<g>
						
							<rect x="89.06" y="310.94" transform="matrix(3.736387e-03 -1 1 3.736387e-03 -223.461 400.445)" class="st7" width="0.36" height="2.87"/>
					</g>
				</g>
			</g>
		</g>
	</g>
	<g>
		<g>
			<g>
				<g>
					<path class="st9" d="M84.62,243.85l69.45-10.97c1.43-0.23,2.41-1.58,2.19-3.01l-7.06-44.7c-0.23-1.43-1.58-2.41-3.01-2.19
						l-69.45,10.97c-1.43,0.23-2.41,1.58-2.19,3.01l7.06,44.7C81.84,243.09,83.19,244.07,84.62,243.85z"/>
				</g>
			</g>
			<g>
				<g>
					<g>
						<g>
							<g>
								<g>
									<g>
										<path class="st7" d="M98.62,225.66l-13.04,2.06c-0.24,0.04-0.46-0.13-0.5-0.37l-0.46-2.94c-0.04-0.24,0.13-0.46,0.37-0.5
											l13.04-2.06c0.24-0.04,0.46,0.13,0.5,0.37l0.46,2.94C99.02,225.4,98.86,225.62,98.62,225.66z"/>
									</g>
								</g>
							</g>
						</g>
					</g>
				</g>
				<g>
					<g>
						<g>
							<g>
								<g>
									<g>
										<path class="st7" d="M115.15,223.05l-13.04,2.06c-0.24,0.04-0.46-0.13-0.5-0.37l-0.46-2.94c-0.04-0.24,0.13-0.46,0.37-0.5
											l13.04-2.06c0.24-0.04,0.46,0.13,0.5,0.37l0.46,2.94C115.55,222.79,115.39,223.01,115.15,223.05z"/>
									</g>
								</g>
							</g>
						</g>
					</g>
				</g>
				<g>
					<g>
						<g>
							<g>
								<g>
									<g>
										<path class="st7" d="M131.67,220.44l-13.04,2.06c-0.24,0.04-0.46-0.13-0.5-0.37l-0.46-2.94c-0.04-0.24,0.13-0.46,0.37-0.5
											l13.04-2.06c0.24-0.04,0.46,0.13,0.5,0.37l0.46,2.94C132.08,220.18,131.91,220.4,131.67,220.44z"/>
									</g>
								</g>
							</g>
						</g>
					</g>
				</g>
				<g>
					<g>
						<g>
							<g>
								<g>
									<g>
										<path class="st7" d="M148.2,217.83l-13.04,2.06c-0.24,0.04-0.46-0.13-0.5-0.37l-0.46-2.94c-0.04-0.24,0.13-0.46,0.37-0.5
											l13.04-2.06c0.24-0.04,0.46,0.13,0.5,0.37l0.46,2.94C148.6,217.57,148.44,217.79,148.2,217.83z"/>
									</g>
								</g>
							</g>
						</g>
					</g>
				</g>
			</g>
			<g>
				<g>
					<g>
						<g>
							<g>
								<g>
									<g>
										<path class="st7" d="M149.28,225.3l-17.11,2.7c-0.29,0.05-0.57-0.15-0.61-0.44l-0.43-2.75c-0.05-0.29,0.15-0.57,0.44-0.61
											l17.11-2.7c0.29-0.05,0.57,0.15,0.61,0.44l0.43,2.75C149.77,224.98,149.57,225.26,149.28,225.3z"/>
									</g>
								</g>
							</g>
						</g>
					</g>
				</g>
			</g>
			<g>
				<g>
					<g>
						<g>
							<g>
								<g>
									<g>
										<path class="st7" d="M85.23,207.7l-0.79-5c-0.17-1.09,0.58-2.12,1.67-2.3l9.72-1.54c1.09-0.17,2.12,0.58,2.3,1.67
											l0.79,5.01c0.17,1.09-0.58,2.12-1.67,2.3l-9.72,1.54C86.43,209.55,85.4,208.8,85.23,207.7z M86.19,200.93
											c-0.8,0.13-1.35,0.88-1.22,1.68l0.79,5.01c0.13,0.8,0.88,1.35,1.68,1.22l9.72-1.54c0.8-0.13,1.35-0.88,1.22-1.68l-0.79-5
											c-0.13-0.8-0.88-1.35-1.68-1.22L86.19,200.93z"/>
									</g>
								</g>
							</g>
						</g>
					</g>
				</g>
			</g>
			<g>
				<g>
					<g>
						<g>
							
								<rect x="150.33" y="188.4" transform="matrix(0.9878 -0.156 0.156 0.9878 -28.386 25.8557)" class="st2" width="0.49" height="10.84"/>
						</g>
						<g>
							<path class="st2" d="M114.74,239.34l-0.08-0.48l39.38-6.22c0.63-0.1,1.18-0.44,1.56-0.96c0.38-0.52,0.53-1.15,0.43-1.77
								l-3.42-21.67l0.48-0.08l3.42,21.67c0.12,0.76-0.06,1.52-0.52,2.14c-0.45,0.62-1.12,1.03-1.88,1.15L114.74,239.34z"/>
						</g>
						<g>
							
								<rect x="93.25" y="241.07" transform="matrix(0.9877 -0.1564 0.1564 0.9877 -36.4932 18.7025)" class="st2" width="14.77" height="0.49"/>
						</g>
					</g>
				</g>
			</g>
		</g>
	</g>
	<g>
		<g>
			<g>
				<g>
					<g>
						<path class="st4" d="M134.82,183.33c0.3,0.09,0.46,0.43,0.32,0.72c-0.24,0.52-0.64,1.06-0.92,1.08
							c-0.5,0.03-0.25-0.82-0.05-1.45C134.25,183.4,134.55,183.25,134.82,183.33L134.82,183.33z"/>
					</g>
				</g>
			</g>
			<g>
				<g>
					<g>
						<path class="st4" d="M133.97,183.32c0.2,0.14,0.29,0.4,0.2,0.63c-0.22,0.58-0.69,1.41-1.16,1.33c-0.3-0.05-0.1-0.95,0.1-1.68
							C133.21,183.25,133.67,183.11,133.97,183.32L133.97,183.32z"/>
					</g>
				</g>
			</g>
			<g>
				<g>
					<g>
						<path class="st4" d="M132.74,183.01c0.28,0.06,0.47,0.33,0.41,0.62c-0.12,0.61-0.43,1.41-1.07,1.64
							c-0.54,0.19-0.23-1.09-0.04-1.88c0.07-0.28,0.34-0.45,0.62-0.39L132.74,183.01z"/>
					</g>
				</g>
			</g>
			<g>
				<g>
					<g>
						<path class="st4" d="M131.73,182.34c0.52,0.09,0.59,0.6,0.45,0.94c-0.24,0.62-0.67,1.32-1.06,1.42
							c-0.42,0.1-0.19-0.93-0.05-1.73C131.14,182.61,131.41,182.28,131.73,182.34z"/>
					</g>
				</g>
			</g>
		</g>
	</g>
	<g>
		<g>
			<g>
				<path class="st7" d="M78.82,210.35c0,0-8.13-11.9,4.45-20.38l7.2-20.26l0-0.14c-8.44-0.04-17.51,5.12-22.42,12.35
					c-8.21,12.1-7.39,26.56,6.36,34.02L78.82,210.35z"/>
			</g>
		</g>
	</g>
	<g>
		<g>
			<g>
				<polygon class="st3" points="82.94,192.51 82.51,192.42 83.73,186.19 84.17,186.27 				"/>
			</g>
		</g>
	</g>
	<g>
		<g>
			<g>
				<path class="st3" d="M77.43,216.14c-5.92-3.21-9.79-7.93-11.18-13.64c-1.58-6.51,0.1-13.87,4.74-20.7l0.37,0.25
					c-4.57,6.73-6.23,13.96-4.68,20.35c1.36,5.58,5.15,10.2,10.96,13.35L77.43,216.14z"/>
			</g>
		</g>
	</g>
	<g>
		<g>
			<g>
				<g>
					<path class="st4" d="M78.05,211.33c0.41,0.33,1.7,1.44,2.22,1.52c0.48,0.08,3.15,0.19,3.07,0.76c-0.08,0.59-1.9,0.13-1.88,0.61
						c0.01,0.29,3.56,1.25,3.2,1.87c-0.23,0.41-2.3-0.46-2.35-0.21c-0.04,0.24,2.74,0.78,2.42,1.4c-0.33,0.65-3-0.99-3.14-0.68
						c-0.07,0.15,3.18,1.32,2.9,1.82c-0.36,0.67-2.85-0.98-3.05-0.69c-0.09,0.14,0.89,0.57,1.44,0.9c0.31,0.18,0.21,0.46-0.03,0.45
						c-2.51-0.11-5.65-3.16-6.05-3.3c-0.6-0.21-1.18-0.44-1.74-0.67L78.05,211.33z"/>
				</g>
			</g>
		</g>
	</g>
	<g>
		<g>
			<g>
				<path class="st3" d="M78.13,195.52l-0.38-0.22c1.19-2.05,3.01-3.9,5.4-5.52l0.25,0.37C81.06,191.73,79.29,193.53,78.13,195.52z"
					/>
			</g>
		</g>
	</g>
	<g>
		<g>
			<g>
				<g>
					<g>
						<g>
							<g>
								<g>
									<g>
										<path class="st10" d="M343,170.7c0,0.17,0.01,0.34,0.01,0.51c0.61,20.86-1.53,37.12-5.15,49.79l-10.75,6.68l8.84-1.37
											l0.25-0.04c-4.8,13.92-11.43,22.92-17.69,28.71c-3.9,3.61-7.65,5.97-10.74,7.5c-0.2,0.1-0.4,0.2-0.6,0.29
											c-0.5,0.24-0.98,0.45-1.43,0.65l-5.91,0.31c-0.08-0.28-0.16-0.55-0.23-0.82c-0.05-0.17-0.1-0.35-0.14-0.52
											c-0.07-0.23-0.12-0.46-0.18-0.68c-6.99-26.93,1.82-48.4,13.32-63.71c0.03-0.05,0.07-0.1,0.11-0.15
											c4-5.31,8.33-9.88,12.43-13.67l2.61,6.66l0.38-9.32c7.13-6.16,13.07-9.75,14.52-10.6C342.88,170.76,343,170.7,343,170.7z"
											/>
									</g>
								</g>
							</g>
						</g>
					</g>
				</g>
			</g>
			<g>
				<g>
					<g>
						<g>
							<g>
								<g>
									<g>
										<g>
											<polygon class="st7" points="343.21,170.79 343.01,171.2 330.87,196.63 330.65,197.08 327.34,204.01 327.23,204.24 
												316.67,226.34 316.66,226.37 299.46,262.39 299.2,262.93 298.79,263.78 298.27,263.81 298.68,262.95 299.28,261.7 
												316.25,226.16 316.57,225.5 342.66,170.89 342.8,170.59 											"/>
										</g>
									</g>
								</g>
							</g>
						</g>
					</g>
				</g>
			</g>
			<g>
				<g>
					<g>
						<g>
							<g>
								<g>
									<g>
										
											<rect x="325.66" y="198.92" transform="matrix(0.8239 -0.5667 0.5667 0.8239 -53.8927 224.7927)" class="st7" width="18.27" height="0.4"/>
									</g>
								</g>
							</g>
						</g>
					</g>
				</g>
			</g>
			<g>
				<g>
					<g>
						<g>
							<g>
								<g>
									<g>
										
											<rect x="329.36" y="192.78" transform="matrix(0.8239 -0.5667 0.5667 0.8239 -50.1052 224.6878)" class="st7" width="14.32" height="0.4"/>
									</g>
								</g>
							</g>
						</g>
					</g>
				</g>
			</g>
			<g>
				<g>
					<g>
						<g>
							<g>
								<g>
									<g>
										
											<rect x="314.43" y="197.71" transform="matrix(0.9917 -0.1286 0.1286 0.9917 -24.6601 42.213)" class="st7" width="0.4" height="28.81"/>
									</g>
								</g>
							</g>
						</g>
					</g>
				</g>
			</g>
			<g>
				<g>
					<g>
						<g>
							<g>
								<g>
									<g>
										<path class="st11" d="M297.45,268.35c0,0,14.01,6.62,33.95-5.27l-6.47-3.07l10.55,0.42c7.78-5.44,16.32-13.74,25.19-26.23
											l-2.47-1.17l3.2,0.13c1.49-2.13,3-4.39,4.51-6.77c0,0-5.86-0.52-14.23,0.45l-4.3,5.82l1.22-5.4
											C331.51,229.85,306.59,238.82,297.45,268.35z"/>
									</g>
								</g>
							</g>
						</g>
					</g>
				</g>
			</g>
			<g>
				<g>
					<g>
						<g>
							<g>
								<g>
									<g>
										<g>
											
												<rect x="290.89" y="246.49" transform="matrix(0.8634 -0.5046 0.5046 0.8634 -79.2397 200.8175)" class="st7" width="80.55" height="0.45"/>
										</g>
									</g>
								</g>
							</g>
						</g>
					</g>
				</g>
			</g>
			<g>
				<g>
					<g>
						<g>
							<g>
								<g>
									<g>
										
											<rect x="352.59" y="232.65" transform="matrix(0.1025 -0.9947 0.9947 0.1025 80.2269 564.2252)" class="st7" width="0.42" height="10.01"/>
									</g>
								</g>
							</g>
						</g>
					</g>
				</g>
			</g>
			<g>
				<g>
					<g>
						<g>
							<g>
								<g>
									<g>
										
											<rect x="348.65" y="234.97" transform="matrix(0.1754 -0.9845 0.9845 0.1754 50.5313 542.0607)" class="st7" width="0.42" height="11.79"/>
									</g>
								</g>
							</g>
						</g>
					</g>
				</g>
			</g>
			<g>
				<g>
					<g>
						<g>
							<g>
								<g>
									<g>
										<g>
											<path class="st2" d="M313.84,242.79l-0.35-0.39c5.84-5.19,12.94-9.23,21.12-12.02l0.17,0.5
												C326.67,233.63,319.62,237.64,313.84,242.79z"/>
										</g>
									</g>
								</g>
							</g>
						</g>
					</g>
				</g>
			</g>
		</g>
		<g>
			<g>
				<g>
					<g>
						<g>
							<g>
								<g>
									<g>
										<path class="st10" d="M174.58,209.58c0.02,0.17,0.05,0.33,0.07,0.5c2.88,20.67,7.71,36.34,13.4,48.23l11.71,4.79
											l-8.95,0.13l-0.26,0c7.05,12.93,15.09,20.69,22.24,25.35c4.44,2.91,8.54,4.61,11.84,5.6c0.22,0.07,0.43,0.13,0.64,0.19
											c0.53,0.15,1.04,0.28,1.52,0.4l5.88-0.68c0.03-0.29,0.06-0.57,0.09-0.85c0.02-0.18,0.04-0.36,0.05-0.53
											c0.03-0.23,0.05-0.47,0.07-0.7c2.39-27.72-9.88-47.42-23.78-60.59c-0.04-0.05-0.09-0.09-0.14-0.13
											c-4.83-4.57-9.87-8.35-14.54-11.4l-1.47,7l-1.93-9.13c-8.06-4.88-14.51-7.44-16.09-8.03
											C174.7,209.63,174.58,209.58,174.58,209.58z"/>
									</g>
								</g>
							</g>
						</g>
					</g>
				</g>
			</g>
			<g>
				<g>
					<g>
						<g>
							<g>
								<g>
									<g>
										<g>
											<polygon class="st7" points="174.39,209.71 174.65,210.09 190.87,233.13 191.16,233.53 195.58,239.81 195.73,240.02 
												209.83,260.05 209.85,260.08 232.82,292.71 233.17,293.2 233.71,293.98 234.23,293.92 233.68,293.14 232.89,292.01 
												210.21,259.8 209.79,259.21 174.95,209.72 174.76,209.45 											"/>
										</g>
									</g>
								</g>
							</g>
						</g>
					</g>
				</g>
			</g>
			<g>
				<g>
					<g>
						<g>
							<g>
								<g>
									<g>
										
											<rect x="187.21" y="227.1" transform="matrix(0.4209 -0.9071 0.9071 0.4209 -105.7666 306.8099)" class="st7" width="0.4" height="18.27"/>
									</g>
								</g>
							</g>
						</g>
					</g>
				</g>
			</g>
			<g>
				<g>
					<g>
						<g>
							<g>
								<g>
									<g>
										
											<rect x="184.48" y="223.31" transform="matrix(0.4214 -0.9069 0.9069 0.4214 -102.1484 300.8341)" class="st7" width="0.4" height="14.32"/>
									</g>
								</g>
							</g>
						</g>
					</g>
				</g>
			</g>
			<g>
				<g>
					<g>
						<g>
							<g>
								<g>
									<g>
										
											<rect x="209.27" y="231.28" transform="matrix(0.9992 -0.0389 0.0389 0.9992 -9.3939 8.33)" class="st7" width="0.4" height="28.81"/>
									</g>
								</g>
							</g>
						</g>
					</g>
				</g>
			</g>
			<g>
				<g>
					<g>
						<g>
							<g>
								<g>
									<g>
										<path class="st11" d="M235.79,298.25c0,0-12.71,8.87-34.36,0.48l5.86-4.1l-10.33,2.18c-8.58-4.07-18.39-10.82-29.22-21.65
											l2.24-1.56l-3.13,0.66c-1.83-1.85-3.69-3.83-5.58-5.93c0,0,5.69-1.49,14.1-1.93l5.21,5.02l-2.1-5.12
											C195.79,265.99,221.85,270.67,235.79,298.25z"/>
									</g>
								</g>
							</g>
						</g>
					</g>
				</g>
			</g>
			<g>
				<g>
					<g>
						<g>
							<g>
								<g>
									<g>
										<g>
											
												<rect x="198.72" y="242.28" transform="matrix(0.3533 -0.9355 0.9355 0.3533 -135.6732 368.8439)" class="st7" width="0.45" height="80.55"/>
										</g>
									</g>
								</g>
							</g>
						</g>
					</g>
				</g>
			</g>
			<g>
				<g>
					<g>
						<g>
							<g>
								<g>
									<g>
										
											<rect x="171.09" y="277.03" transform="matrix(0.9636 -0.2673 0.2673 0.9636 -67.6881 57.1476)" class="st7" width="10.01" height="0.42"/>
									</g>
								</g>
							</g>
						</g>
					</g>
				</g>
			</g>
			<g>
				<g>
					<g>
						<g>
							<g>
								<g>
									<g>
										
											<rect x="174.62" y="279.54" transform="matrix(0.9414 -0.3374 0.3374 0.9414 -83.8029 77.3135)" class="st7" width="11.79" height="0.42"/>
									</g>
								</g>
							</g>
						</g>
					</g>
				</g>
			</g>
			<g>
				<g>
					<g>
						<g>
							<g>
								<g>
									<g>
										<g>
											<path class="st2" d="M215.37,275.79l0.28-0.45c-6.62-4.14-14.3-6.94-22.83-8.33l-0.08,0.52
												C201.19,268.91,208.81,271.69,215.37,275.79z"/>
										</g>
									</g>
								</g>
							</g>
						</g>
					</g>
				</g>
			</g>
		</g>
		<g>
			<path class="st12" d="M238.59,311.1h-14.18c-4.62,0-8.41-3.59-8.6-8.14l-8-139.56c-0.2-4.82,3.71-8.84,8.6-8.84h16.35
				L238.59,311.1z"/>
		</g>
		<g>
			<path class="st13" d="M308.63,163.4l-4.19,139.56c-0.19,4.55-3.98,8.14-8.6,8.14h-62.7c-4.62,0-10.06-3.59-10.25-8.14
				l-4.18-139.56c-0.2-4.82,3.71-8.84,8.6-8.84h72.72C304.92,154.56,308.83,158.58,308.63,163.4z"/>
		</g>
		<g>
			<path class="st3" d="M236.02,164.21h-3.36c-0.47,0-0.88,0.19-1.18,0.49c-0.31,0.31-0.49,0.72-0.49,1.19
				c0,0.93,0.75,1.68,1.68,1.68h3.36h54.84h3.36c0.47,0,0.88-0.19,1.18-0.49c0.31-0.3,0.49-0.72,0.49-1.18
				c0-0.93-0.75-1.68-1.68-1.68h-3.36H236.02z"/>
		</g>
		<g>
			<path class="st7" d="M293.52,219.13h-59.71c-1.14,0-2.08-0.9-2.12-2.04l-1.48-38.85c-0.05-1.2,0.92-2.2,2.12-2.2h62.67
				c1.2,0,2.17,1,2.12,2.2l-1.48,38.85C295.6,218.23,294.66,219.13,293.52,219.13z"/>
		</g>
		<g>
			<g>
				<g>
					<g>
						<path class="st14" d="M249.82,245.37h-11.49c-1,0-1.81-0.81-1.81-1.81v-6.45c0-1,0.81-1.81,1.81-1.81h11.49
							c1,0,1.81,0.81,1.81,1.81v6.45C251.64,244.56,250.82,245.37,249.82,245.37z"/>
					</g>
					<g>
						<path class="st14" d="M249.82,261.8h-11.49c-1,0-1.81-0.81-1.81-1.81v-6.45c0-1,0.81-1.81,1.81-1.81h11.49
							c1,0,1.81,0.81,1.81,1.81v6.45C251.64,260.99,250.82,261.8,249.82,261.8z"/>
					</g>
					<g>
						<path class="st14" d="M249.82,278.24h-11.49c-1,0-1.81-0.81-1.81-1.81v-6.45c0-1,0.81-1.81,1.81-1.81h11.49
							c1,0,1.81,0.81,1.81,1.81v6.45C251.64,277.43,250.82,278.24,249.82,278.24z"/>
					</g>
					<g>
						<path class="st3" d="M249.82,294.68h-11.49c-1,0-1.81-0.81-1.81-1.81v-6.45c0-1,0.81-1.81,1.81-1.81h11.49
							c1,0,1.81,0.81,1.81,1.81v6.45C251.64,293.87,250.82,294.68,249.82,294.68z"/>
					</g>
				</g>
				<g>
					<g>
						<path class="st14" d="M269,245.37h-11.49c-1,0-1.81-0.81-1.81-1.81v-6.45c0-1,0.81-1.81,1.81-1.81H269
							c1,0,1.81,0.81,1.81,1.81v6.45C270.81,244.56,270,245.37,269,245.37z"/>
					</g>
					<g>
						<path class="st14" d="M269,261.8h-11.49c-1,0-1.81-0.81-1.81-1.81v-6.45c0-1,0.81-1.81,1.81-1.81H269c1,0,1.81,0.81,1.81,1.81
							v6.45C270.81,260.99,270,261.8,269,261.8z"/>
					</g>
					<g>
						<path class="st14" d="M269,278.24h-11.49c-1,0-1.81-0.81-1.81-1.81v-6.45c0-1,0.81-1.81,1.81-1.81H269
							c1,0,1.81,0.81,1.81,1.81v6.45C270.81,277.43,270,278.24,269,278.24z"/>
					</g>
					<g>
						<path class="st14" d="M269,294.68h-11.49c-1,0-1.81-0.81-1.81-1.81v-6.45c0-1,0.81-1.81,1.81-1.81H269
							c1,0,1.81,0.81,1.81,1.81v6.45C270.81,293.87,270,294.68,269,294.68z"/>
					</g>
				</g>
				<g>
					<g>
						<path class="st14" d="M288.18,245.37h-11.49c-1,0-1.81-0.81-1.81-1.81v-6.45c0-1,0.81-1.81,1.81-1.81h11.49
							c1,0,1.81,0.81,1.81,1.81v6.45C289.99,244.56,289.18,245.37,288.18,245.37z"/>
					</g>
					<g>
						<path class="st14" d="M288.18,261.8h-11.49c-1,0-1.81-0.81-1.81-1.81v-6.45c0-1,0.81-1.81,1.81-1.81h11.49
							c1,0,1.81,0.81,1.81,1.81v6.45C289.99,260.99,289.18,261.8,288.18,261.8z"/>
					</g>
					<g>
						<path class="st14" d="M288.18,278.24h-11.49c-1,0-1.81-0.81-1.81-1.81v-6.45c0-1,0.81-1.81,1.81-1.81h11.49
							c1,0,1.81,0.81,1.81,1.81v6.45C289.99,277.43,289.18,278.24,288.18,278.24z"/>
					</g>
					<g>
						<path class="st3" d="M288.18,294.68h-11.49c-1,0-1.81-0.81-1.81-1.81v-6.45c0-1,0.81-1.81,1.81-1.81h11.49
							c1,0,1.81,0.81,1.81,1.81v6.45C289.99,293.87,289.18,294.68,288.18,294.68z"/>
					</g>
				</g>
			</g>
			<g>
				<g>
					<g>
						<path class="st9" d="M252.56,245.37h-11.49c-1,0-1.81-0.81-1.81-1.81v-6.45c0-1,0.81-1.81,1.81-1.81h11.49
							c1,0,1.81,0.81,1.81,1.81v6.45C254.37,244.56,253.56,245.37,252.56,245.37z"/>
					</g>
					<g>
						<path class="st9" d="M252.56,261.8h-11.49c-1,0-1.81-0.81-1.81-1.81v-6.45c0-1,0.81-1.81,1.81-1.81h11.49
							c1,0,1.81,0.81,1.81,1.81v6.45C254.37,260.99,253.56,261.8,252.56,261.8z"/>
					</g>
					<g>
						<path class="st9" d="M252.56,278.24h-11.49c-1,0-1.81-0.81-1.81-1.81v-6.45c0-1,0.81-1.81,1.81-1.81h11.49
							c1,0,1.81,0.81,1.81,1.81v6.45C254.37,277.43,253.56,278.24,252.56,278.24z"/>
					</g>
					<g>
						<path class="st3" d="M252.56,294.68h-11.49c-1,0-1.81-0.81-1.81-1.81v-6.45c0-1,0.81-1.81,1.81-1.81h11.49
							c1,0,1.81,0.81,1.81,1.81v6.45C254.37,293.87,253.56,294.68,252.56,294.68z"/>
					</g>
				</g>
				<g>
					<g>
						<path class="st9" d="M271.74,245.37h-11.49c-1,0-1.81-0.81-1.81-1.81v-6.45c0-1,0.81-1.81,1.81-1.81h11.49
							c1,0,1.81,0.81,1.81,1.81v6.45C273.55,244.56,272.74,245.37,271.74,245.37z"/>
					</g>
					<g>
						<path class="st9" d="M271.74,261.8h-11.49c-1,0-1.81-0.81-1.81-1.81v-6.45c0-1,0.81-1.81,1.81-1.81h11.49
							c1,0,1.81,0.81,1.81,1.81v6.45C273.55,260.99,272.74,261.8,271.74,261.8z"/>
					</g>
					<g>
						<path class="st9" d="M271.74,278.24h-11.49c-1,0-1.81-0.81-1.81-1.81v-6.45c0-1,0.81-1.81,1.81-1.81h11.49
							c1,0,1.81,0.81,1.81,1.81v6.45C273.55,277.43,272.74,278.24,271.74,278.24z"/>
					</g>
					<g>
						<path class="st9" d="M271.74,294.68h-11.49c-1,0-1.81-0.81-1.81-1.81v-6.45c0-1,0.81-1.81,1.81-1.81h11.49
							c1,0,1.81,0.81,1.81,1.81v6.45C273.55,293.87,272.74,294.68,271.74,294.68z"/>
					</g>
				</g>
				<g>
					<g>
						<path class="st9" d="M290.92,245.37h-11.49c-1,0-1.81-0.81-1.81-1.81v-6.45c0-1,0.81-1.81,1.81-1.81h11.49
							c1,0,1.81,0.81,1.81,1.81v6.45C292.73,244.56,291.92,245.37,290.92,245.37z"/>
					</g>
					<g>
						<path class="st9" d="M290.92,261.8h-11.49c-1,0-1.81-0.81-1.81-1.81v-6.45c0-1,0.81-1.81,1.81-1.81h11.49
							c1,0,1.81,0.81,1.81,1.81v6.45C292.73,260.99,291.92,261.8,290.92,261.8z"/>
					</g>
					<g>
						<path class="st9" d="M290.92,278.24h-11.49c-1,0-1.81-0.81-1.81-1.81v-6.45c0-1,0.81-1.81,1.81-1.81h11.49
							c1,0,1.81,0.81,1.81,1.81v6.45C292.73,277.43,291.92,278.24,290.92,278.24z"/>
					</g>
					<g>
						<path class="st3" d="M290.92,294.68h-11.49c-1,0-1.81-0.81-1.81-1.81v-6.45c0-1,0.81-1.81,1.81-1.81h11.49
							c1,0,1.81,0.81,1.81,1.81v6.45C292.73,293.87,291.92,294.68,290.92,294.68z"/>
					</g>
				</g>
			</g>
			<g>
				<g>
					<g>
						<g>
							<path class="st7" d="M251.44,245.64h-9.23c-1.77,0-3.21-1.44-3.21-3.21v-4.2c0-1.77,1.44-3.21,3.21-3.21h9.23
								c1.77,0,3.21,1.44,3.21,3.21v4.2C254.65,244.2,253.21,245.64,251.44,245.64z M242.2,235.57c-1.47,0-2.66,1.19-2.66,2.66v4.2
								c0,1.47,1.19,2.66,2.66,2.66h9.23c1.47,0,2.66-1.19,2.66-2.66v-4.2c0-1.47-1.19-2.66-2.66-2.66H242.2z"/>
						</g>
					</g>
					<g>
						<g>
							<path class="st7" d="M251.44,262.08h-9.23c-1.77,0-3.21-1.44-3.21-3.21v-4.2c0-1.77,1.44-3.21,3.21-3.21h9.23
								c1.77,0,3.21,1.44,3.21,3.21v4.2C254.65,260.64,253.21,262.08,251.44,262.08z M242.2,252.01c-1.47,0-2.66,1.19-2.66,2.66v4.2
								c0,1.47,1.19,2.66,2.66,2.66h9.23c1.47,0,2.66-1.19,2.66-2.66v-4.2c0-1.47-1.19-2.66-2.66-2.66H242.2z"/>
						</g>
					</g>
					<g>
						<g>
							<path class="st7" d="M251.44,278.52h-9.23c-1.77,0-3.21-1.44-3.21-3.21v-4.2c0-1.77,1.44-3.21,3.21-3.21h9.23
								c1.77,0,3.21,1.44,3.21,3.21v4.2C254.65,277.08,253.21,278.52,251.44,278.52z M242.2,268.44c-1.47,0-2.66,1.19-2.66,2.66v4.2
								c0,1.47,1.19,2.66,2.66,2.66h9.23c1.47,0,2.66-1.19,2.66-2.66v-4.2c0-1.47-1.19-2.66-2.66-2.66H242.2z"/>
						</g>
					</g>
					<g>
						<g>
							<path class="st7" d="M251.44,294.95h-9.23c-1.77,0-3.21-1.44-3.21-3.21v-4.2c0-1.77,1.44-3.21,3.21-3.21h9.23
								c1.77,0,3.21,1.44,3.21,3.21v4.2C254.65,293.51,253.21,294.95,251.44,294.95z M242.2,284.88c-1.47,0-2.66,1.19-2.66,2.66v4.2
								c0,1.47,1.19,2.66,2.66,2.66h9.23c1.47,0,2.66-1.19,2.66-2.66v-4.2c0-1.47-1.19-2.66-2.66-2.66H242.2z"/>
						</g>
					</g>
				</g>
				<g>
					<g>
						<g>
							<path class="st7" d="M270.61,245.64h-9.23c-1.77,0-3.21-1.44-3.21-3.21v-4.2c0-1.77,1.44-3.21,3.21-3.21h9.23
								c1.77,0,3.21,1.44,3.21,3.21v4.2C273.83,244.2,272.39,245.64,270.61,245.64z M261.38,235.57c-1.47,0-2.66,1.19-2.66,2.66v4.2
								c0,1.47,1.19,2.66,2.66,2.66h9.23c1.47,0,2.66-1.19,2.66-2.66v-4.2c0-1.47-1.19-2.66-2.66-2.66H261.38z"/>
						</g>
					</g>
					<g>
						<g>
							<path class="st7" d="M270.61,262.08h-9.23c-1.77,0-3.21-1.44-3.21-3.21v-4.2c0-1.77,1.44-3.21,3.21-3.21h9.23
								c1.77,0,3.21,1.44,3.21,3.21v4.2C273.83,260.64,272.39,262.08,270.61,262.08z M261.38,252.01c-1.47,0-2.66,1.19-2.66,2.66
								v4.2c0,1.47,1.19,2.66,2.66,2.66h9.23c1.47,0,2.66-1.19,2.66-2.66v-4.2c0-1.47-1.19-2.66-2.66-2.66H261.38z"/>
						</g>
					</g>
					<g>
						<g>
							<path class="st7" d="M270.61,278.52h-9.23c-1.77,0-3.21-1.44-3.21-3.21v-4.2c0-1.77,1.44-3.21,3.21-3.21h9.23
								c1.77,0,3.21,1.44,3.21,3.21v4.2C273.83,277.08,272.39,278.52,270.61,278.52z M261.38,268.44c-1.47,0-2.66,1.19-2.66,2.66
								v4.2c0,1.47,1.19,2.66,2.66,2.66h9.23c1.47,0,2.66-1.19,2.66-2.66v-4.2c0-1.47-1.19-2.66-2.66-2.66H261.38z"/>
						</g>
					</g>
					<g>
						<g>
							<path class="st7" d="M270.61,294.95h-9.23c-1.77,0-3.21-1.44-3.21-3.21v-4.2c0-1.77,1.44-3.21,3.21-3.21h9.23
								c1.77,0,3.21,1.44,3.21,3.21v4.2C273.83,293.51,272.39,294.95,270.61,294.95z M261.38,284.88c-1.47,0-2.66,1.19-2.66,2.66
								v4.2c0,1.47,1.19,2.66,2.66,2.66h9.23c1.47,0,2.66-1.19,2.66-2.66v-4.2c0-1.47-1.19-2.66-2.66-2.66H261.38z"/>
						</g>
					</g>
				</g>
				<g>
					<g>
						<g>
							<path class="st7" d="M289.79,245.64h-9.23c-1.77,0-3.21-1.44-3.21-3.21v-4.2c0-1.77,1.44-3.21,3.21-3.21h9.23
								c1.77,0,3.21,1.44,3.21,3.21v4.2C293,244.2,291.56,245.64,289.79,245.64z M280.56,235.57c-1.47,0-2.66,1.19-2.66,2.66v4.2
								c0,1.47,1.19,2.66,2.66,2.66h9.23c1.47,0,2.66-1.19,2.66-2.66v-4.2c0-1.47-1.19-2.66-2.66-2.66H280.56z"/>
						</g>
					</g>
					<g>
						<g>
							<path class="st7" d="M289.79,262.08h-9.23c-1.77,0-3.21-1.44-3.21-3.21v-4.2c0-1.77,1.44-3.21,3.21-3.21h9.23
								c1.77,0,3.21,1.44,3.21,3.21v4.2C293,260.64,291.56,262.08,289.79,262.08z M280.56,252.01c-1.47,0-2.66,1.19-2.66,2.66v4.2
								c0,1.47,1.19,2.66,2.66,2.66h9.23c1.47,0,2.66-1.19,2.66-2.66v-4.2c0-1.47-1.19-2.66-2.66-2.66H280.56z"/>
						</g>
					</g>
					<g>
						<g>
							<path class="st7" d="M289.79,278.52h-9.23c-1.77,0-3.21-1.44-3.21-3.21v-4.2c0-1.77,1.44-3.21,3.21-3.21h9.23
								c1.77,0,3.21,1.44,3.21,3.21v4.2C293,277.08,291.56,278.52,289.79,278.52z M280.56,268.44c-1.47,0-2.66,1.19-2.66,2.66v4.2
								c0,1.47,1.19,2.66,2.66,2.66h9.23c1.47,0,2.66-1.19,2.66-2.66v-4.2c0-1.47-1.19-2.66-2.66-2.66H280.56z"/>
						</g>
					</g>
					<g>
						<g>
							<path class="st7" d="M289.79,294.95h-9.23c-1.77,0-3.21-1.44-3.21-3.21v-4.2c0-1.77,1.44-3.21,3.21-3.21h9.23
								c1.77,0,3.21,1.44,3.21,3.21v4.2C293,293.51,291.56,294.95,289.79,294.95z M280.56,284.88c-1.47,0-2.66,1.19-2.66,2.66v4.2
								c0,1.47,1.19,2.66,2.66,2.66h9.23c1.47,0,2.66-1.19,2.66-2.66v-4.2c0-1.47-1.19-2.66-2.66-2.66H280.56z"/>
						</g>
					</g>
				</g>
			</g>
		</g>
		<g>
			<path class="st3" d="M288.22,311.47h-55.09c-4.74,0-10.41-3.71-10.61-8.5l-4.18-139.56c-0.1-2.41,0.77-4.7,2.45-6.45
				c1.71-1.79,4.03-2.77,6.52-2.77h72.72c2.49,0,4.81,0.98,6.52,2.77c1.68,1.75,2.55,4.04,2.45,6.46l-0.23,7.61l-0.74-0.02
				l0.23-7.62c0.09-2.21-0.7-4.31-2.24-5.92c-1.57-1.64-3.7-2.54-5.99-2.54h-72.72c-2.29,0-4.42,0.9-5.99,2.54
				c-1.54,1.61-2.34,3.71-2.24,5.92l4.18,139.56c0.18,4.38,5.46,7.79,9.88,7.79h55.09V311.47z"/>
		</g>
		<g>
			
				<rect x="265.95" y="232.66" transform="matrix(0.03 -0.9996 0.9996 0.03 64.4317 532.4436)" class="st3" width="81.18" height="0.74"/>
		</g>
		<g>
			<path class="st7" d="M290.83,137.36v30.2h-54.74v-30.2c-0.13-2.08-1.08-3.94-2.53-5.29c-1.45-1.34-3.39-2.16-5.5-2.16h54.74
				c2.11,0,4.05,0.82,5.5,2.16C289.75,133.42,290.7,135.28,290.83,137.36z"/>
		</g>
		<g>
			<path class="st2" d="M236.09,137.36h-16.06c0.13-2.08,1.08-3.94,2.53-5.29c1.45-1.34,3.39-2.16,5.5-2.16
				c2.11,0,4.05,0.82,5.5,2.16C235,133.42,235.96,135.28,236.09,137.36z"/>
		</g>
		<g>
			<path class="st2" d="M291.08,167.81h-55.23v-30.45c-0.12-1.93-0.99-3.75-2.45-5.11c-1.46-1.35-3.35-2.1-5.33-2.1v-0.49h54.74
				c2.11,0,4.12,0.79,5.67,2.23c1.55,1.44,2.47,3.37,2.6,5.45l0,0.02V167.81z M236.33,167.32h54.25v-29.95
				c-0.13-1.95-0.99-3.77-2.45-5.12c-1.46-1.35-3.35-2.1-5.33-2.1h-51.93c1.05,0.38,2.02,0.96,2.85,1.74
				c1.55,1.44,2.47,3.38,2.6,5.45L236.33,167.32z"/>
		</g>
		<g>
			<path class="st2" d="M294.21,167.81h-61.55c-1.06,0-1.92-0.86-1.92-1.92c0-0.51,0.2-1,0.57-1.36c0.36-0.36,0.84-0.56,1.36-0.56
				h3.36v0.49h-3.36c-0.38,0-0.74,0.15-1.01,0.42c-0.27,0.27-0.42,0.63-0.42,1.02c0,0.79,0.64,1.43,1.43,1.43h61.55
				c0.38,0,0.74-0.15,1.01-0.42c0.27-0.27,0.42-0.63,0.42-1.01c0-0.79-0.64-1.44-1.43-1.44h-3.36v-0.49h3.36
				c1.06,0,1.92,0.86,1.92,1.93c0,0.52-0.2,1-0.57,1.36C295.21,167.61,294.73,167.81,294.21,167.81z"/>
		</g>
		<g>
			<g>
				<g>
					<g>
						<g>
							<g>
								<path class="st15" d="M296.55,313.23c0,1.36,9.97,2.46,22.25,2.46c12.29,0,22.25-1.1,22.25-2.46c0-0.03-0.01-0.05-0.01-0.07
									v-6.65h-44.48v6.64C296.55,313.17,296.55,313.2,296.55,313.23z"/>
							</g>
						</g>
					</g>
					<g>
						<g>
							<g>
								<ellipse class="st16" cx="318.8" cy="306.56" rx="22.25" ry="2.46"/>
							</g>
						</g>
					</g>
				</g>
				<g>
					<g>
						<g>
							<g>
								<path class="st15" d="M291.29,305.2c0,1.36,9.96,2.46,22.25,2.46s22.25-1.1,22.25-2.46c0-0.03-0.01-0.05-0.01-0.07v-6.65
									H291.3v6.64C291.29,305.15,291.29,305.17,291.29,305.2z"/>
							</g>
						</g>
					</g>
					<g>
						<g>
							<g>
								<ellipse class="st16" cx="313.54" cy="298.54" rx="22.25" ry="2.46"/>
							</g>
						</g>
					</g>
				</g>
				<g>
					<g>
						<g>
							<g>
								<path class="st15" d="M296.55,297.18c0,1.36,9.97,2.46,22.25,2.46c12.29,0,22.25-1.1,22.25-2.46c0-0.03-0.01-0.05-0.01-0.07
									v-6.65h-44.48v6.64C296.55,297.12,296.55,297.15,296.55,297.18z"/>
							</g>
						</g>
					</g>
					<g>
						<g>
							<g>
								<path class="st16" d="M296.55,290.51c0,1.36,9.96,2.46,22.25,2.46c12.29,0,22.25-1.1,22.25-2.46
									c0-1.36-9.96-2.46-22.25-2.46C306.51,288.05,296.55,289.15,296.55,290.51z"/>
							</g>
						</g>
					</g>
				</g>
				<g>
					<g>
						<g>
							<g>
								<g>
									<path class="st2" d="M318.8,315.95c9.05,0,22.52-0.73,22.52-2.72h-0.53c0,0.77-7.55,2.2-21.99,2.2
										c-0.52,0-1.05,0-1.56-0.01l0,0.53C317.75,315.95,318.27,315.95,318.8,315.95z"/>
								</g>
							</g>
						</g>
					</g>
					<g>
						<g>
							<g>
								<g>
									<path class="st2" d="M309.98,315.75l0.02-0.52c-2.25-0.11-4.32-0.26-6.14-0.44l-0.05,0.52
										C305.64,315.49,307.71,315.64,309.98,315.75z"/>
								</g>
							</g>
						</g>
					</g>
				</g>
				<g>
					<g>
						<g>
							<g>
								<g>
									<path class="st2" d="M327.58,307.33c8.36-0.76,8.36-1.82,8.36-2.16h-0.53c0,0.26-1.42,1.05-7.88,1.64L327.58,307.33z"/>
								</g>
							</g>
						</g>
					</g>
					<g>
						<g>
							<g>
								<g>
									<path class="st2" d="M313.43,307.9c2.5,0,4.96-0.05,7.3-0.14l-0.02-0.53c-4.19,0.16-8.81,0.18-13.13,0.05l-0.02,0.53
										C309.48,307.87,311.45,307.9,313.43,307.9z"/>
								</g>
							</g>
						</g>
					</g>
					<g>
						<g>
							<g>
								<g>
									<path class="st2" d="M302.04,307.55l0.03-0.52c-2.37-0.16-4.44-0.36-6.15-0.6l-0.07,0.52
										C297.57,307.19,299.66,307.39,302.04,307.55z"/>
								</g>
							</g>
						</g>
					</g>
				</g>
				<g>
					<g>
						<g>
							<g>
								<g>
									<path class="st2" d="M333.76,292.61c7.42-0.76,7.42-1.71,7.42-2.07h-0.53c0,0.01-0.19,0.86-6.94,1.55L333.76,292.61z"/>
								</g>
							</g>
						</g>
					</g>
					<g>
						<g>
							<g>
								<g>
									<path class="st2" d="M318.66,293.26c2.56,0,5.06-0.05,7.44-0.14l-0.02-0.53c-2.37,0.09-4.86,0.14-7.42,0.14
										c-4.57,0-8.95-0.15-12.68-0.44l-0.04,0.52C309.68,293.11,314.08,293.26,318.66,293.26z"/>
								</g>
							</g>
						</g>
					</g>
				</g>
				<g>
					<g>
						<g>
							<g>
								<path class="st15" d="M288.66,289.15c0,1.36,9.97,2.46,22.25,2.46c12.29,0,22.25-1.1,22.25-2.46c0-0.03-0.01-0.05-0.01-0.07
									v-6.65h-44.48v6.64C288.66,289.09,288.66,289.12,288.66,289.15z"/>
							</g>
						</g>
					</g>
					<g>
						<g>
							<g>
								<ellipse class="st16" cx="310.91" cy="282.49" rx="22.25" ry="2.46"/>
							</g>
						</g>
					</g>
					<g>
						<g>
							<g>
								<path class="st15" d="M292.79,282.49c0,0.91,8.12,1.66,18.13,1.66c10.01,0,18.13-0.74,18.13-1.66
									c0-0.91-8.12-1.66-18.13-1.66C300.9,280.83,292.79,281.57,292.79,282.49z"/>
							</g>
						</g>
					</g>
				</g>
			</g>
		</g>
		<g>
			<g>
				<rect x="273.09" y="143.19" class="st17" width="11.9" height="1.47"/>
			</g>
			<g>
				<rect x="243.66" y="143.19" class="st17" width="23.92" height="1.47"/>
			</g>
			<g>
				<rect x="257.43" y="149.56" class="st17" width="27.55" height="1.47"/>
			</g>
			<g>
				<rect x="243.66" y="149.56" class="st17" width="10.39" height="1.47"/>
			</g>
			<g>
				<rect x="268.58" y="156.43" class="st17" width="11.27" height="1.47"/>
			</g>
			<g>
				<rect x="243.66" y="156.43" class="st17" width="20.16" height="1.47"/>
			</g>
		</g>
		<g>
			<rect x="248.06" y="218.77" class="st3" width="14.92" height="0.74"/>
		</g>
		<g>
			<path class="st3" d="M293.52,219.5h-24.75v-0.74h24.75c0.95,0,1.72-0.74,1.75-1.69l1.3-34l0.73,0.03l-1.3,34
				C295.96,218.45,294.87,219.5,293.52,219.5z"/>
		</g>
	</g>
	<g>
		<g>
			<g>
				<g>
					<path class="st16" d="M155.56,167.6c-8.17-1.63-16.11,3.67-17.74,11.85c-1.63,8.17,3.67,16.12,11.85,17.74
						c8.17,1.63,16.12-3.67,17.74-11.85C169.03,177.17,163.73,169.23,155.56,167.6z M164.52,184.77c-0.63,3.18-2.47,5.92-5.17,7.72
						c-2.7,1.8-5.93,2.45-9.11,1.81c-6.56-1.31-10.84-7.71-9.53-14.28c0.63-3.18,2.47-5.92,5.16-7.72c2.6-1.74,5.71-2.4,8.78-1.87
						c0.11,0.02,0.22,0.04,0.33,0.06c6.46,1.28,10.7,7.5,9.6,13.95C164.56,184.55,164.54,184.66,164.52,184.77z"/>
				</g>
			</g>
		</g>
		<g>
			<g>
				<g>
					<path class="st15" d="M164.58,184.44c-0.02,0.11-0.04,0.22-0.06,0.33c-0.63,3.18-2.47,5.92-5.17,7.72
						c-2.7,1.8-5.93,2.45-9.11,1.81c-6.56-1.31-10.84-7.71-9.53-14.28c0.63-3.18,2.47-5.92,5.16-7.72c2.6-1.74,5.71-2.4,8.78-1.87
						c0.11,0.02,0.22,0.04,0.33,0.06C161.44,171.77,165.68,177.99,164.58,184.44z"/>
				</g>
			</g>
		</g>
		<g>
			<g>
				<g>
					<g>
						<path class="st16" d="M150.28,191.42l0.39-2.25c-1.29-0.24-2.56-0.87-3.24-1.56l0.79-1.4c0.71,0.67,1.8,1.29,3.05,1.51
							c1.58,0.27,2.81-0.46,3.03-1.73c0.21-1.23-0.53-2.13-2.07-3.08c-2.12-1.28-3.35-2.55-3.02-4.49c0.32-1.85,1.87-3.03,3.98-3.01
							l0.39-2.25l1.38,0.24l-0.37,2.16c1.33,0.27,2.18,0.79,2.76,1.28l-0.81,1.38c-0.42-0.35-1.25-0.99-2.68-1.24
							c-1.72-0.29-2.54,0.62-2.69,1.51c-0.2,1.16,0.53,1.88,2.33,3.01c2.14,1.33,3.1,2.69,2.76,4.67c-0.3,1.76-1.81,3.2-4.17,3.19
							l-0.4,2.32L150.28,191.42z"/>
					</g>
				</g>
			</g>
		</g>
		<g>
			<g>
				<g>
					<path class="st2" d="M164.6,181.36c-0.01-0.1-0.02-0.2-0.03-0.3c-0.39-3.44-2.24-6.54-5.08-8.52l0.19-0.27
						c2.92,2.03,4.82,5.21,5.22,8.73c0.01,0.13,0.03,0.23,0.03,0.33L164.6,181.36z"/>
				</g>
			</g>
		</g>
		<g>
			<g>
				<g>
					<path class="st2" d="M159.49,172.54c-2.28-1.59-5.07-2.33-7.84-2.1l-0.03-0.33c2.85-0.24,5.71,0.52,8.06,2.15L159.49,172.54z"
						/>
				</g>
			</g>
		</g>
		<g>
			<g>
				<g>
					<path class="st2" d="M162.07,190.31l-0.25-0.21c1.03-1.22,1.79-2.59,2.27-4.09l0.31,0.1
						C163.91,187.65,163.12,189.06,162.07,190.31z"/>
				</g>
			</g>
		</g>
		<g>
			<g>
				<g>
					<g>
						<path class="st2" d="M164.18,172.99c-0.98-1.2-2.13-2.24-3.42-3.09l0.19-0.3c1.32,0.86,2.5,1.93,3.5,3.16L164.18,172.99z"/>
					</g>
				</g>
			</g>
		</g>
		<g>
			<g>
				<g>
					<g>
						<path class="st2" d="M158.86,196.32l-0.14-0.32c4.39-1.98,7.57-5.97,8.51-10.69c0.58-2.93,0.28-5.93-0.87-8.67l0.33-0.14
							c1.18,2.81,1.49,5.88,0.89,8.88C166.61,190.2,163.36,194.29,158.86,196.32z"/>
					</g>
				</g>
			</g>
		</g>
	</g>
	<g>
		<g>
			<path class="st9" d="M276.05,200.81c-1.91,7.49-9.53,12.02-17.03,10.12c-7.49-1.91-12.02-9.53-10.12-17.03
				c1.91-7.49,9.53-12.02,17.03-10.12C273.43,185.69,277.96,193.32,276.05,200.81z"/>
		</g>
		<g>
			<g>
				<polygon class="st7" points="261.95,204.5 255.53,197.89 256.23,197.21 261.68,202.81 268.69,188.29 269.57,188.72 				"/>
			</g>
		</g>
	</g>
	<g>
		<g>
			<g>
				<g>
					<g>
						<g>
							<path class="st18" d="M142.83,174.16c1.38,0.7,2.32,1.77,2.97,3.12l0,0c0.65-1.34,1.6-2.42,2.98-3.12l0,0
								c-1.38-0.7-2.33-1.77-2.98-3.12l0,0C145.15,172.38,144.2,173.46,142.83,174.16z"/>
						</g>
					</g>
				</g>
			</g>
		</g>
		<g>
			<g>
				<g>
					<g>
						<g>
							<path class="st18" d="M154.9,193.35c0.8,0.41,1.35,1.03,1.73,1.81l0,0c0.38-0.78,0.93-1.41,1.73-1.81l0,0
								c-0.8-0.41-1.35-1.03-1.73-1.81l0,0C156.25,192.32,155.7,192.95,154.9,193.35z"/>
						</g>
					</g>
				</g>
			</g>
		</g>
	</g>
</g>
</svg>
