<?xml version="1.0" encoding="utf-8"?>
<!-- Generator: Adobe Illustrator 27.5.0, SVG Export Plug-In . SVG Version: 6.00 Build 0)  -->
<svg version="1.1" id="Layer_1" xmlns="http://www.w3.org/2000/svg" xmlns:xlink="http://www.w3.org/1999/xlink" x="0px" y="0px"
	 viewBox="0 0 1000 1000" style="enable-background:new 0 0 1000 1000;" xml:space="preserve">
<style type="text/css">
	.st0{fill:url(#SVGID_1_);}
	.st1{fill:#98B1DC;}
	.st2{opacity:0.6;fill:#FFFFFF;}
	.st3{opacity:0.78;fill:#FFFFFF;}
	.st4{fill:url(#SVGID_00000029031851230430340950000007075140993288980117_);}
	.st5{fill:url(#SVGID_00000158715181825093216630000010131679402226634686_);}
	.st6{opacity:0.6;}
	.st7{fill:#FFFFFF;}
	.st8{fill:url(#SVGID_00000147920987208698746470000012652911458050698883_);}
	.st9{fill:url(#SVGID_00000139984802171232114350000012159585642997055404_);}
	.st10{fill:url(#SVGID_00000041289792637783214860000012061039628205565358_);}
	.st11{fill:url(#SVGID_00000166669312751497444090000002250714619863082420_);}
	.st12{fill:url(#SVGID_00000008144500177855031120000009265088036227642035_);}
	.st13{opacity:0.5;fill:#FFFFFF;}
	.st14{fill:url(#SVGID_00000006682477786203460360000017012334391228707977_);}
	.st15{fill:url(#SVGID_00000040564086935555403130000003478469002421158838_);}
	.st16{fill:url(#SVGID_00000182506910552333761540000005641691323706065051_);}
	.st17{fill:url(#SVGID_00000100374398130300116390000008251321941727302563_);}
	.st18{fill:url(#SVGID_00000035496087666772530350000009987771793453167292_);}
	.st19{fill:url(#SVGID_00000000212121213580449830000009112292383663083174_);}
	.st20{fill:url(#SVGID_00000127758871887497529800000014661976908965151377_);}
	.st21{fill:url(#SVGID_00000125575178991610405990000018410271498803451810_);}
	.st22{fill:url(#SVGID_00000106133181879640884150000016444628310146158743_);}
	.st23{fill:url(#SVGID_00000127741492075167662560000015612343833753190016_);}
	.st24{fill:url(#SVGID_00000080176965490957627560000018168271824554354587_);}
	.st25{fill:url(#SVGID_00000096051173969325751680000003093347297501160110_);}
	.st26{fill:url(#SVGID_00000053544973449352273260000011834722222369845664_);}
	.st27{fill:url(#SVGID_00000175300039828945657800000007875639037652269208_);}
	.st28{fill:url(#SVGID_00000107583259842339474150000010812066546586029710_);}
	.st29{fill:url(#SVGID_00000015346580031426354050000016930251036381903276_);}
	.st30{fill:url(#SVGID_00000182526134026108633600000015253069170687271336_);}
	.st31{fill:url(#SVGID_00000036960533243459934470000003746003722641512099_);}
	.st32{fill:url(#SVGID_00000075140747459386893630000012740063189655568782_);}
	.st33{fill:url(#SVGID_00000104699008364091457490000016857064438794600608_);}
	.st34{fill:url(#SVGID_00000073687869122357677840000001990114166280424621_);}
	.st35{fill:url(#SVGID_00000021805871666336259010000002567264906866671539_);}
	.st36{fill:url(#SVGID_00000027590099815789120260000003816552754650868867_);}
	.st37{fill:url(#SVGID_00000053547010884751809790000016190125279573467581_);}
	.st38{fill:url(#SVGID_00000047759097716556218910000015808187961382803091_);}
	.st39{fill:url(#SVGID_00000145750491925046757180000010447757794202617493_);}
	.st40{fill:url(#SVGID_00000181786635613866635910000001114680269481802431_);}
	.st41{fill:url(#SVGID_00000079448913722142973000000017056347845219736234_);}
	.st42{fill:url(#SVGID_00000057849691149832576210000016488262044446783631_);}
	.st43{fill:url(#SVGID_00000062164726960850154890000010503813289187153304_);}
	.st44{fill:url(#SVGID_00000048473757470449970530000009262384213771281335_);}
</style>
<g>
	<linearGradient id="SVGID_1_" gradientUnits="userSpaceOnUse" x1="959.2468" y1="1007.2338" x2="152.1687" y2="87.7762">
		<stop  offset="0" style="stop-color:#DBE2F3"/>
		<stop  offset="1" style="stop-color:#EAEFF8"/>
	</linearGradient>
	<path class="st0" d="M848.52,804.05C685.98,975.59,436.3,924.84,399.39,916.69c-46.49-10.27-157.11-34.72-239.66-131.22
		C33.35,637.72,46.11,406.81,143.71,251.13c28.4-45.3,123.98-179.91,303.46-209.18c10.49-1.71,197.91-29.19,348.71,97.34
		c20.33,17.06,53.15,47.95,81.91,92.94C967.02,371.78,1009.25,634.44,848.52,804.05z"/>
	<g>
		<path class="st1" d="M496.32,84.37c1.84-8.99,11.2-14.28,19.85-11.19c57.33,20.44,255.05,87.96,425.55,110.45
			c7.78,1.03,13.19,8.22,11.99,15.97l-99.19,636.39c-1.36,8.73-9.5,14.72-18.24,13.41c-71.45-10.7-365.47-55.8-466.84-88.51
			c-6.17-1.99-9.84-8.31-8.54-14.66L496.32,84.37z"/>
		<path class="st2" d="M499.94,101.6c1.77-8.65,10.78-13.74,19.1-10.77c55.17,19.67,245.44,84.65,409.52,106.29
			c7.48,0.99,12.7,7.91,11.53,15.37l-95.45,612.43c-1.31,8.4-9.15,14.16-17.55,12.9c-68.76-10.29-351.71-53.7-449.26-85.17
			c-5.94-1.92-9.47-8-8.22-14.11L499.94,101.6z"/>
		<path class="st3" d="M553.68,152.11c-5.09-1.26-10.17,2.09-11.01,7.27l-21.33,131.11c-0.71,4.36,2.06,8.53,6.35,9.56
			c23.9,5.75,98.45,23.37,141.23,30.08c4.84,0.76,9.44-2.31,10.61-7.07c5.94-24.18,22.64-94.68,23.34-125.48
			c0.11-4.97-3.26-9.35-8.09-10.54L553.68,152.11z"/>
		
			<linearGradient id="SVGID_00000182524216029935067400000007712088151733298568_" gradientUnits="userSpaceOnUse" x1="1211.6815" y1="-301.7076" x2="996.4433" y2="18.7312" gradientTransform="matrix(0.9785 0.2062 -0.2062 0.9785 -589.2386 225.6769)">
			<stop  offset="0" style="stop-color:#F9EE4A"/>
			<stop  offset="1" style="stop-color:#DA3D66"/>
		</linearGradient>
		<circle style="fill:url(#SVGID_00000182524216029935067400000007712088151733298568_);" cx="614.68" cy="223.04" r="28.53"/>
		
			<linearGradient id="SVGID_00000124868354677344186350000016737080294326503574_" gradientUnits="userSpaceOnUse" x1="1248.4354" y1="-277.0161" x2="1033.2012" y2="43.4167" gradientTransform="matrix(0.9785 0.2062 -0.2062 0.9785 -589.2386 225.6769)">
			<stop  offset="0" style="stop-color:#F9EE4A"/>
			<stop  offset="1" style="stop-color:#DA3D66"/>
		</linearGradient>
		<path style="fill:url(#SVGID_00000124868354677344186350000016737080294326503574_);" d="M555.01,296.05l88.93,18.74
			c5.45,1.15,9.99-4.18,8.02-9.4c-5.06-13.41-17.21-34.11-44.74-39.09c-26.54-4.8-45.48,7.58-55.71,17.18
			C547.16,287.55,549.19,294.82,555.01,296.05z"/>
		<g class="st6">
			<path class="st7" d="M895.89,245.62c2.78,0.59,5.42-0.9,5.85-3.32s-1.48-4.9-4.25-5.54l-155.28-35.63
				c-2.77-0.64-4.74,1.15-4.37,3.97l0.3,2.27c0.37,2.82,2.95,5.61,5.74,6.2L895.89,245.62z"/>
		</g>
		<g class="st6">
			<path class="st7" d="M737.12,225.35c-2.77-0.64-4.74,1.15-4.37,3.97l0.3,2.27c0.37,2.82,2.95,5.61,5.74,6.2l152,32.04
				c2.79,0.59,5.42-0.9,5.85-3.32c0.43-2.41-1.48-4.9-4.25-5.54L737.12,225.35z"/>
		</g>
		<g class="st6">
			<path class="st7" d="M731.94,249.91c-2.77-0.64-4.74,1.15-4.37,3.97l0.3,2.27c0.37,2.82,2.95,5.61,5.74,6.2l152,32.04
				c2.79,0.59,5.42-0.9,5.85-3.32c0.43-2.41-1.48-4.9-4.25-5.54L731.94,249.91z"/>
		</g>
		<g class="st6">
			<path class="st7" d="M875.8,416.01c2.78,0.59,5.35-0.92,5.69-3.35c0.35-2.43-1.64-4.91-4.42-5.52L512.53,327.3
				c-2.78-0.61-4.01,0.97-2.74,3.52l2.19,4.38c1.28,2.54,4.6,5.11,7.38,5.69L875.8,416.01z"/>
		</g>
		<g class="st6">
			<path class="st7" d="M507.43,351.51c-2.78-0.61-4.01,0.97-2.74,3.52l2.19,4.38c1.28,2.54,4.6,5.11,7.38,5.69l356.43,75.12
				c2.78,0.59,5.35-0.92,5.69-3.35s-1.64-4.91-4.42-5.52L507.43,351.51z"/>
		</g>
		<path class="st2" d="M497.26,391.58c8.92,1.18,25.43,4.33,34.5,6.11c3.85,0.75,6.66,4.06,6.78,7.98
			c0.22,7.61-0.02,20.69-3.13,33.95c-0.93,3.97-4.87,6.47-8.85,5.58l-33.32-7.4c-4.1-0.91-6.85-4.77-6.37-8.94l3.69-32.04
			C490.94,393.51,493.95,391.14,497.26,391.58z"/>
		<g class="st6">
			<path class="st7" d="M556.3,417.49c-2.76-0.7-5.15,1.05-5.32,3.89l-0.33,5.56c-0.17,2.84,1.98,5.65,4.76,6.23l81.11,17.09
				c2.79,0.59,5.52-1.22,6.07-4.01l0.27-1.37c0.55-2.79-1.25-5.65-4.01-6.35L556.3,417.49z"/>
		</g>
		<path class="st2" d="M679.21,429.92c8.92,1.18,25.43,4.33,34.5,6.11c3.85,0.75,6.66,4.06,6.78,7.98
			c0.22,7.61-0.02,20.69-3.13,33.95c-0.93,3.97-4.87,6.47-8.85,5.58l-33.32-7.4c-4.1-0.91-6.85-4.77-6.37-8.94l3.69-32.04
			C672.88,431.85,675.9,429.48,679.21,429.92z"/>
		<g class="st6">
			<path class="st7" d="M738.25,455.84c-2.76-0.7-5.15,1.05-5.32,3.89l-0.33,5.56c-0.17,2.84,1.98,5.65,4.76,6.23l81.11,17.09
				c2.78,0.59,5.52-1.22,6.07-4.01l0.27-1.37c0.55-2.79-1.25-5.65-4.01-6.35L738.25,455.84z"/>
		</g>
		<g>
			<path class="st7" d="M518.11,526.16c-0.03-0.01-0.06-0.01-0.08-0.02l-30.76-6.79c-4.39-0.97-7.39-4.77-6.97-8.83l2.74-26.43
				c0.16-1.55,0.95-2.95,2.22-3.95c1.42-1.11,3.32-1.6,5.21-1.33l0,0c2.63,0.37,6.36,0.83,10.3,1.32c8.3,1.02,18.62,2.3,24.35,3.43
				c4.15,0.85,7.14,4.04,7.36,7.85c0.35,6.27-2.15,17.48-4.98,29.39C526.57,524.67,522.37,527.06,518.11,526.16z M490.13,481.21
				c-1.24-0.17-2.47,0.13-3.38,0.84c-0.75,0.58-1.21,1.4-1.3,2.29l-2.74,26.43c-0.29,2.84,1.89,5.51,5.09,6.22l30.76,6.79
				c0.02,0,0.04,0.01,0.06,0.01c2.99,0.63,5.9-0.95,6.52-3.55c2.78-11.72,5.26-22.74,4.92-28.69c-0.15-2.67-2.41-4.97-5.41-5.62
				c-5.64-1.11-15.91-2.38-24.17-3.4C496.52,482.05,492.78,481.58,490.13,481.21L490.13,481.21z"/>
			<path class="st2" d="M492.88,484.58c6.57,0.92,20.94,2.46,27.63,3.78c2.84,0.56,4.96,2.79,5.1,5.38
				c0.28,5.03-1.89,14.49-3.96,23.2c-0.62,2.61-3.47,4.2-6.41,3.55l-24.58-5.43c-3.02-0.67-5.1-3.26-4.82-6.01l2.19-21.12
				C488.27,485.76,490.45,484.24,492.88,484.58z"/>
			<g class="st6">
				<path class="st7" d="M548.8,514.7c0.18,3.57,2.76,6.57,6.26,7.27l285.65,57.66c3.23,0.65,6.37-1.46,6.98-4.7
					c0.59-3.15-1.43-6.2-4.57-6.87l-284.87-61.4C553.23,505.58,548.54,509.56,548.8,514.7z"/>
			</g>
			
				<linearGradient id="SVGID_00000092448265282802708520000013137108980880302511_" gradientUnits="userSpaceOnUse" x1="1206.082" y1="-96.2473" x2="1045.2576" y2="178.2423" gradientTransform="matrix(0.9785 0.2062 -0.2062 0.9785 -589.2386 225.6769)">
				<stop  offset="0" style="stop-color:#8D50A0"/>
				<stop  offset="1" style="stop-color:#EF4A7B"/>
			</linearGradient>
			<path style="fill:url(#SVGID_00000092448265282802708520000013137108980880302511_);" d="M493.34,488.91L493.34,488.91
				c2.57-0.86,5.35,0.56,6.15,3.15l3.78,12.18c0.38,1.22,1.98,1.49,2.74,0.45l22.15-30.39c1.1-1.52,3.48-0.42,3.06,1.41
				c-2.32,10.23-9.15,29.18-29,42.05c0,0-8.3-5.42-12.21-22.94C489.45,492.29,490.88,489.73,493.34,488.91z"/>
			<path class="st7" d="M504.19,592.21c-0.03-0.01-0.06-0.01-0.08-0.02l-30.76-6.79c-4.39-0.97-7.39-4.77-6.97-8.83l2.74-26.43
				c0.16-1.55,0.95-2.95,2.22-3.95c1.42-1.11,3.32-1.6,5.21-1.33l0,0c2.63,0.37,6.36,0.83,10.3,1.32c8.3,1.02,18.62,2.3,24.35,3.43
				c0.04,0.01,0.08,0.02,0.12,0.03c4.05,0.85,7.02,4.06,7.23,7.83c0.35,6.27-2.15,17.48-4.98,29.39
				C512.64,590.72,508.45,593.11,504.19,592.21z M476.21,547.26c-1.24-0.17-2.47,0.13-3.38,0.84c-0.75,0.58-1.21,1.4-1.3,2.29
				l-2.74,26.43c-0.29,2.84,1.89,5.51,5.09,6.22l30.76,6.79c0.02,0,0.04,0.01,0.06,0.01c2.99,0.63,5.9-0.95,6.52-3.55
				c2.78-11.72,5.26-22.74,4.92-28.69c-0.15-2.67-2.43-5.04-5.41-5.62c-5.64-1.11-15.91-2.38-24.17-3.4
				C482.6,548.1,478.86,547.63,476.21,547.26L476.21,547.26z"/>
			<path class="st2" d="M478.96,550.63c6.57,0.92,20.94,2.46,27.63,3.78c2.84,0.56,4.96,2.79,5.1,5.38
				c0.28,5.03-1.89,14.49-3.96,23.2c-0.62,2.61-3.47,4.2-6.41,3.55l-24.58-5.43c-3.02-0.67-5.1-3.26-4.82-6.01l2.19-21.12
				C474.35,551.81,476.53,550.29,478.96,550.63z"/>
			<g class="st6">
				<path class="st7" d="M534.88,580.75c0.18,3.57,2.76,6.57,6.26,7.27l285.65,57.66c3.23,0.65,6.37-1.46,6.98-4.7
					c0.59-3.15-1.43-6.2-4.57-6.87l-284.87-61.4C539.31,571.63,534.62,575.61,534.88,580.75z"/>
			</g>
			
				<linearGradient id="SVGID_00000021808508992062177860000011931384899858626991_" gradientUnits="userSpaceOnUse" x1="1235.5229" y1="-78.9972" x2="1074.6981" y2="195.4929" gradientTransform="matrix(0.9785 0.2062 -0.2062 0.9785 -589.2386 225.6769)">
				<stop  offset="0" style="stop-color:#8D50A0"/>
				<stop  offset="1" style="stop-color:#EF4A7B"/>
			</linearGradient>
			<path style="fill:url(#SVGID_00000021808508992062177860000011931384899858626991_);" d="M479.42,554.96L479.42,554.96
				c2.57-0.86,5.35,0.56,6.15,3.15l3.78,12.18c0.38,1.22,1.98,1.49,2.74,0.45l22.15-30.39c1.1-1.52,3.48-0.42,3.06,1.41
				c-2.32,10.23-9.15,29.18-29,42.05c0,0-8.3-5.42-12.21-22.94C475.53,558.34,476.96,555.78,479.42,554.96z"/>
			<path class="st7" d="M490.27,658.26c-0.03-0.01-0.06-0.01-0.08-0.02l-30.76-6.79c-4.39-0.97-7.39-4.76-6.97-8.83l2.74-26.43
				c0.16-1.55,0.95-2.95,2.22-3.95c1.42-1.11,3.32-1.6,5.21-1.33l0,0c2.63,0.37,6.36,0.83,10.3,1.32c8.3,1.02,18.62,2.3,24.35,3.43
				c0.04,0.01,0.08,0.02,0.12,0.02c4.05,0.85,7.02,4.06,7.23,7.83c0.35,6.27-2.15,17.48-4.98,29.39
				C498.72,656.77,494.53,659.16,490.27,658.26z M462.29,613.31c-1.24-0.17-2.47,0.13-3.38,0.84c-0.75,0.58-1.21,1.4-1.3,2.29
				l-2.74,26.43c-0.29,2.84,1.89,5.51,5.09,6.22l30.76,6.79c0.02,0,0.04,0.01,0.06,0.01c2.99,0.63,5.9-0.95,6.52-3.55
				c2.78-11.72,5.26-22.74,4.92-28.69c-0.15-2.67-2.43-5.05-5.41-5.62c-5.64-1.11-15.91-2.38-24.17-3.4
				C468.67,614.15,464.94,613.68,462.29,613.31L462.29,613.31z"/>
			<path class="st2" d="M465.04,616.68c6.57,0.92,20.94,2.46,27.63,3.78c2.84,0.56,4.96,2.79,5.1,5.38
				c0.28,5.03-1.89,14.49-3.96,23.2c-0.62,2.61-3.47,4.2-6.41,3.55l-24.58-5.43c-3.02-0.67-5.1-3.26-4.82-6.01l2.19-21.12
				C460.43,617.86,462.61,616.34,465.04,616.68z"/>
			<g class="st6">
				<path class="st7" d="M520.96,646.8c0.18,3.57,2.76,6.57,6.26,7.27l285.65,57.66c3.23,0.65,6.37-1.46,6.98-4.7
					c0.59-3.15-1.43-6.2-4.57-6.87l-284.87-61.4C525.39,637.68,520.7,641.66,520.96,646.8z"/>
			</g>
			
				<linearGradient id="SVGID_00000048501140446924812480000014454356063924020364_" gradientUnits="userSpaceOnUse" x1="1260.277" y1="-11.3325" x2="1048.6654" y2="283.7144" gradientTransform="matrix(0.9785 0.2062 -0.2062 0.9785 -589.2386 225.6769)">
				<stop  offset="0" style="stop-color:#8D50A0"/>
				<stop  offset="1" style="stop-color:#EF4A7B"/>
			</linearGradient>
			<path style="fill:url(#SVGID_00000048501140446924812480000014454356063924020364_);" d="M465.5,621.01L465.5,621.01
				c2.57-0.86,5.35,0.56,6.15,3.15l3.78,12.18c0.38,1.22,1.98,1.49,2.74,0.45l22.15-30.39c1.1-1.52,3.48-0.42,3.06,1.41
				c-2.32,10.23-9.15,29.18-29,42.05c0,0-8.3-5.42-12.21-22.94C461.61,624.39,463.04,621.83,465.5,621.01z"/>
			<path class="st7" d="M476.35,724.31c-0.03-0.01-0.06-0.01-0.08-0.02l-30.76-6.79c-4.39-0.97-7.39-4.76-6.97-8.83l2.74-26.43
				c0.16-1.55,0.95-2.95,2.22-3.95c1.42-1.11,3.32-1.6,5.21-1.33l0,0c2.63,0.37,6.36,0.83,10.3,1.32c8.3,1.02,18.62,2.3,24.35,3.43
				c0.04,0.01,0.08,0.02,0.12,0.03c4.05,0.85,7.02,4.06,7.23,7.83c0.35,6.27-2.15,17.48-4.98,29.39
				C484.8,722.82,480.61,725.21,476.35,724.31z M448.37,679.36c-1.24-0.17-2.47,0.13-3.38,0.84c-0.75,0.58-1.21,1.4-1.3,2.29
				l-2.74,26.43c-0.29,2.84,1.89,5.51,5.09,6.22l30.76,6.79c0.02,0,0.04,0.01,0.06,0.01c2.99,0.63,5.9-0.95,6.52-3.55
				c2.78-11.72,5.26-22.74,4.92-28.69c-0.15-2.67-2.43-5.06-5.41-5.62c-5.64-1.11-15.91-2.38-24.17-3.4
				C454.75,680.2,451.02,679.73,448.37,679.36L448.37,679.36z"/>
			<path class="st2" d="M451.12,682.73c6.57,0.92,20.94,2.46,27.63,3.78c2.84,0.56,4.96,2.79,5.1,5.38
				c0.28,5.03-1.89,14.49-3.96,23.2c-0.62,2.61-3.47,4.2-6.41,3.55l-24.58-5.43c-3.02-0.67-5.1-3.26-4.82-6.01l2.19-21.12
				C446.51,683.91,448.69,682.39,451.12,682.73z"/>
			<g class="st6">
				<path class="st7" d="M507.04,712.85L507.04,712.85c0.18,3.57,2.76,6.57,6.26,7.27l285.65,57.66c3.23,0.65,6.37-1.46,6.98-4.7
					c0.59-3.15-1.43-6.2-4.57-6.87l-284.87-61.4C511.47,703.73,506.78,707.71,507.04,712.85z"/>
			</g>
			
				<linearGradient id="SVGID_00000008128591893940812610000001952412413017712575_" gradientUnits="userSpaceOnUse" x1="1294.4045" y1="-44.4969" x2="1133.5798" y2="229.9931" gradientTransform="matrix(0.9785 0.2062 -0.2062 0.9785 -589.2386 225.6769)">
				<stop  offset="0" style="stop-color:#8D50A0"/>
				<stop  offset="1" style="stop-color:#EF4A7B"/>
			</linearGradient>
			<path style="fill:url(#SVGID_00000008128591893940812610000001952412413017712575_);" d="M451.58,687.06L451.58,687.06
				c2.57-0.86,5.35,0.56,6.15,3.15l3.78,12.18c0.38,1.22,1.98,1.49,2.74,0.45l22.15-30.39c1.1-1.52,3.48-0.42,3.06,1.41
				c-2.32,10.23-9.15,29.18-29,42.05c0,0-8.3-5.42-12.21-22.94C447.69,690.44,449.12,687.88,451.58,687.06z"/>
		</g>
	</g>
	<g>
		<path class="st1" d="M66.58,170.21c-1.88-8.98,4.62-17.55,13.77-18.15c60.73-3.99,269.01-20.48,434.43-67.51
			c7.54-2.14,15.37,2.31,17.34,9.9l161.52,623.49c2.21,8.55-2.88,17.28-11.42,19.55c-69.83,18.54-357.6,93.82-463.63,104.03
			c-6.45,0.62-12.33-3.72-13.66-10.07L66.58,170.21z"/>
		<path class="st2" d="M76.75,184.59c-1.81-8.64,4.44-16.89,13.25-17.47c58.45-3.84,258.88-19.71,418.07-64.97
			c7.26-2.06,14.79,2.22,16.69,9.53L680.2,711.7c2.13,8.23-2.78,16.63-10.99,18.81c-67.2,17.84-344.14,90.29-446.17,100.12
			c-6.21,0.6-11.87-3.58-13.14-9.69L76.75,184.59z"/>
		<path class="st3" d="M138.9,220.66l32.45,128.81c1.08,4.28,5.27,7.01,9.62,6.26c24.22-4.21,99.64-17.62,141.56-28.44
			c4.74-1.22,7.75-5.87,6.93-10.7c-4.15-24.55-16.79-95.89-28.38-124.44c-1.87-4.61-6.7-7.29-11.61-6.47l-143.36,23.93
			C140.95,210.48,137.62,215.58,138.9,220.66z"/>
		
			<ellipse transform="matrix(0.068 -0.9977 0.9977 0.068 -35.335 463.2043)" class="st1" cx="230.26" cy="250.51" rx="28.53" ry="28.53"/>
		<path class="st1" d="M204.46,341.21l89.06-18.09c5.46-1.11,7.51-7.8,3.63-11.81c-9.97-10.3-29.33-24.48-56.58-18.12
			c-26.27,6.12-38.73,25.01-44.32,37.87C193.89,336.53,198.63,342.4,204.46,341.21z"/>
		<g class="st6">
			<path class="st7" d="M497.34,159.64c2.79-0.57,4.62-2.98,4.06-5.37s-3.3-3.91-6.1-3.4L338.63,179.8
				c-2.8,0.52-3.89,2.94-2.43,5.38l1.18,1.97c1.46,2.44,4.94,3.98,7.73,3.41L497.34,159.64z"/>
		</g>
		<g class="st6">
			<path class="st7" d="M343.56,204.05c-2.8,0.52-3.89,2.94-2.43,5.38l1.18,1.97c1.46,2.44,4.94,3.98,7.73,3.41l152.24-30.92
				c2.79-0.57,4.62-2.98,4.06-5.37c-0.56-2.39-3.3-3.91-6.1-3.4L343.56,204.05z"/>
		</g>
		<g class="st6">
			<path class="st7" d="M348.55,228.64c-2.8,0.52-3.89,2.94-2.43,5.38l1.18,1.97c1.46,2.44,4.94,3.98,7.73,3.41l152.24-30.92
				c2.79-0.57,4.62-2.98,4.06-5.37c-0.56-2.39-3.3-3.91-6.1-3.4L348.55,228.64z"/>
		</g>
		<g class="st6">
			<path class="st7" d="M546.51,324.01c2.79-0.57,4.54-2.97,3.9-5.33c-0.65-2.37-3.46-3.86-6.25-3.31l-366.28,71.39
				c-2.79,0.54-3.3,2.49-1.11,4.32l3.75,3.15c2.18,1.83,6.25,2.86,9.04,2.3L546.51,324.01z"/>
		</g>
		<g class="st6">
			<path class="st7" d="M182.8,411c-2.79,0.54-3.3,2.49-1.11,4.32l3.75,3.15c2.18,1.83,6.25,2.86,9.04,2.3l356.97-72.5
				c2.79-0.57,4.54-2.97,3.9-5.33c-0.65-2.37-3.46-3.86-6.25-3.31L182.8,411z"/>
		</g>
		<path class="st2" d="M189.37,451.81c8.66-2.46,25.06-6.12,34.1-8.08c3.83-0.83,7.73,1.08,9.39,4.63c3.22,6.9,8.19,19,10.6,32.4
			c0.72,4.01-1.9,7.87-5.91,8.64l-33.52,6.43c-4.12,0.79-8.18-1.66-9.39-5.68l-9.33-30.87C184.33,456.1,186.16,452.72,189.37,451.81
			z"/>
		<g class="st6">
			<path class="st7" d="M253.85,452.17c-2.81,0.45-4.31,3.01-3.34,5.68l1.91,5.23c0.97,2.67,4.05,4.4,6.84,3.83l81.23-16.5
				c2.79-0.57,4.58-3.31,3.98-6.09l-0.3-1.37c-0.6-2.78-3.39-4.69-6.2-4.24L253.85,452.17z"/>
		</g>
		<path class="st2" d="M371.59,414.8c8.66-2.46,25.06-6.12,34.1-8.08c3.83-0.83,7.73,1.08,9.39,4.63c3.22,6.9,8.19,19,10.6,32.4
			c0.72,4.01-1.9,7.87-5.91,8.64l-33.52,6.43c-4.12,0.79-8.18-1.66-9.39-5.68l-9.33-30.87C366.55,419.09,368.38,415.71,371.59,414.8
			z"/>
		<g class="st6">
			<path class="st7" d="M436.07,415.16c-2.81,0.45-4.31,3.01-3.34,5.68l1.91,5.23c0.97,2.67,4.05,4.4,6.84,3.83l81.23-16.5
				c2.79-0.57,4.58-3.31,3.98-6.09l-0.3-1.37c-0.6-2.78-3.39-4.69-6.2-4.24L436.07,415.16z"/>
		</g>
		<g>
			<path class="st7" d="M261.92,567.07c-0.03,0.01-0.06,0.01-0.08,0.02l-30.92,5.97c-4.42,0.85-8.67-1.44-9.9-5.34l-7.97-25.35
				c-0.47-1.49-0.3-3.09,0.47-4.5c0.86-1.58,2.41-2.78,4.25-3.29l0,0c2.56-0.71,6.16-1.76,9.97-2.88
				c8.02-2.35,18.01-5.28,23.71-6.51c4.14-0.86,8.16,0.88,9.87,4.29c2.82,5.62,4.96,16.9,7.09,28.95
				C269.09,562.35,266.19,566.2,261.92,567.07z M218.4,536.92c-1.21,0.33-2.22,1.1-2.77,2.11c-0.45,0.83-0.56,1.76-0.29,2.62
				l7.97,25.35c0.86,2.72,3.92,4.31,7.14,3.69l30.92-5.97c0.02,0,0.04-0.01,0.06-0.01c2.99-0.61,5.04-3.22,4.58-5.85
				c-2.1-11.87-4.2-22.96-6.87-28.29c-1.2-2.39-4.18-3.61-7.2-3.01c-5.62,1.21-15.55,4.13-23.54,6.47
				C224.59,535.15,220.98,536.21,218.4,536.92L218.4,536.92z"/>
			<path class="st2" d="M222.26,538.92c6.39-1.76,20.2-6.05,26.86-7.49c2.82-0.61,5.66,0.6,6.82,2.92
				c2.26,4.51,4.02,14.05,5.58,22.87c0.47,2.64-1.52,5.23-4.47,5.8l-24.71,4.77c-3.04,0.59-5.98-0.97-6.81-3.61l-6.37-20.25
				C218.49,541.83,219.89,539.57,222.26,538.92z"/>
			<g class="st6">
				<path class="st7" d="M285.53,544.37c1.58,3.21,5.14,4.93,8.64,4.19l285.08-60.44c3.22-0.68,5.27-3.87,4.54-7.09
					c-0.71-3.13-3.77-5.12-6.92-4.5l-285.84,56.7C285.98,534.24,283.26,539.76,285.53,544.37z"/>
			</g>
			<path class="st7" d="M275.35,633.22c-0.03,0.01-0.06,0.01-0.08,0.02l-30.92,5.97c-4.42,0.85-8.67-1.44-9.9-5.34l-7.97-25.35
				c-0.47-1.49-0.3-3.09,0.47-4.5c0.86-1.58,2.41-2.78,4.25-3.29l0,0c2.56-0.71,6.16-1.76,9.97-2.88
				c8.02-2.35,18.01-5.28,23.71-6.51c0.04-0.01,0.08-0.02,0.12-0.03c4.06-0.82,8.05,0.94,9.75,4.32c2.82,5.62,4.96,16.9,7.09,28.95
				C282.52,628.5,279.62,632.35,275.35,633.22z M231.83,603.07c-1.21,0.33-2.22,1.1-2.77,2.11c-0.45,0.83-0.56,1.76-0.29,2.62
				l7.97,25.35c0.86,2.72,3.92,4.31,7.14,3.69l30.92-5.97c0.02,0,0.04-0.01,0.06-0.01c2.99-0.61,5.04-3.22,4.58-5.85
				c-2.1-11.87-4.2-22.96-6.87-28.29c-1.2-2.39-4.23-3.66-7.2-3.01c-5.62,1.21-15.55,4.13-23.54,6.47
				C238.02,601.3,234.42,602.36,231.83,603.07L231.83,603.07z"/>
			<path class="st2" d="M235.7,605.07c6.39-1.76,20.2-6.05,26.86-7.49c2.82-0.61,5.66,0.6,6.82,2.92
				c2.26,4.51,4.02,14.05,5.58,22.87c0.47,2.64-1.52,5.23-4.47,5.8l-24.71,4.77c-3.04,0.59-5.98-0.97-6.81-3.61l-6.37-20.25
				C231.93,607.98,233.33,605.72,235.7,605.07z"/>
			<g class="st6">
				<path class="st7" d="M298.97,610.52c1.58,3.21,5.14,4.93,8.64,4.19l285.08-60.44c3.22-0.68,5.27-3.87,4.54-7.09
					c-0.71-3.13-3.77-5.12-6.92-4.5l-285.84,56.7C299.42,600.39,296.69,605.91,298.97,610.52z"/>
			</g>
			<path class="st7" d="M288.79,699.37c-0.03,0.01-0.06,0.01-0.08,0.02l-30.92,5.97c-4.42,0.85-8.67-1.44-9.9-5.34l-7.97-25.35
				c-0.47-1.49-0.3-3.09,0.47-4.5c0.86-1.58,2.41-2.78,4.25-3.29l0,0c2.56-0.71,6.16-1.76,9.97-2.88
				c8.02-2.35,18.01-5.28,23.71-6.51c0.04-0.01,0.08-0.02,0.12-0.03c4.06-0.82,8.05,0.94,9.75,4.32c2.82,5.62,4.96,16.9,7.09,28.95
				C295.96,694.65,293.06,698.5,288.79,699.37z M245.27,669.22c-1.21,0.33-2.22,1.1-2.77,2.11c-0.45,0.83-0.56,1.76-0.29,2.62
				l7.97,25.35c0.86,2.72,3.92,4.31,7.13,3.69l30.93-5.97c0.02,0,0.04-0.01,0.06-0.01c2.99-0.61,5.04-3.22,4.58-5.85
				c-2.1-11.87-4.2-22.96-6.87-28.29c-1.2-2.39-4.23-3.67-7.2-3.01c-5.62,1.21-15.55,4.13-23.54,6.47
				C251.46,667.45,247.85,668.51,245.27,669.22L245.27,669.22z"/>
			<path class="st2" d="M249.13,671.22c6.39-1.76,20.2-6.05,26.86-7.49c2.82-0.61,5.66,0.6,6.82,2.92
				c2.26,4.51,4.02,14.05,5.58,22.87c0.47,2.64-1.52,5.23-4.47,5.8l-24.71,4.77c-3.04,0.59-5.98-0.97-6.81-3.61l-6.37-20.25
				C245.37,674.13,246.76,671.87,249.13,671.22z"/>
			<g class="st6">
				<path class="st7" d="M312.41,676.67c1.58,3.21,5.14,4.93,8.64,4.19l285.08-60.44c3.22-0.68,5.27-3.87,4.54-7.09
					c-0.71-3.13-3.77-5.12-6.92-4.5l-285.84,56.7C312.85,666.54,310.13,672.06,312.41,676.67z"/>
			</g>
			<path class="st7" d="M302.23,765.52c-0.03,0.01-0.06,0.01-0.08,0.02l-30.92,5.97c-4.42,0.85-8.67-1.44-9.9-5.34l-7.97-25.35
				c-0.47-1.49-0.3-3.09,0.47-4.5c0.86-1.58,2.41-2.78,4.25-3.29l0,0c2.56-0.71,6.16-1.76,9.97-2.88
				c8.02-2.35,18.01-5.28,23.71-6.51c0.04-0.01,0.08-0.02,0.12-0.03c4.06-0.82,8.05,0.94,9.75,4.32c2.82,5.62,4.96,16.9,7.09,28.95
				C309.39,760.8,306.49,764.65,302.23,765.52z M258.7,735.37c-1.21,0.33-2.22,1.1-2.77,2.11c-0.45,0.83-0.56,1.76-0.29,2.62
				l7.97,25.35c0.86,2.72,3.92,4.31,7.13,3.69l30.93-5.97c0.02,0,0.04-0.01,0.06-0.01c2.99-0.61,5.04-3.22,4.58-5.85
				c-2.1-11.87-4.2-22.96-6.87-28.29c-1.2-2.39-4.23-3.68-7.2-3.01c-5.62,1.21-15.55,4.13-23.54,6.47
				C264.9,733.6,261.29,734.66,258.7,735.37L258.7,735.37z"/>
			<path class="st2" d="M262.57,737.37c6.39-1.76,20.2-6.05,26.86-7.49c2.82-0.61,5.66,0.6,6.82,2.92
				c2.26,4.51,4.02,14.05,5.58,22.87c0.47,2.64-1.52,5.23-4.47,5.8l-24.71,4.77c-3.04,0.59-5.98-0.97-6.81-3.61l-6.37-20.25
				C258.8,740.28,260.2,738.02,262.57,737.37z"/>
			<g class="st6">
				<path class="st7" d="M325.84,742.82L325.84,742.82c1.58,3.21,5.14,4.93,8.64,4.19l285.08-60.44c3.22-0.68,5.27-3.87,4.54-7.09
					c-0.71-3.13-3.77-5.12-6.92-4.5l-285.84,56.7C326.29,732.69,323.57,738.21,325.84,742.82z"/>
			</g>
			
				<linearGradient id="SVGID_00000010296251511938075470000011720750322164468920_" gradientUnits="userSpaceOnUse" x1="-275.4912" y1="769.9421" x2="-436.3128" y2="1044.4268" gradientTransform="matrix(0.98 -0.199 0.199 0.98 502.6677 -379.9025)">
				<stop  offset="0" style="stop-color:#8D50A0"/>
				<stop  offset="1" style="stop-color:#EF4A7B"/>
			</linearGradient>
			<path style="fill:url(#SVGID_00000010296251511938075470000011720750322164468920_);" d="M264.71,741.16L264.71,741.16
				c2.02-1.81,5.13-1.61,6.9,0.45l8.3,9.68c0.83,0.97,2.41,0.58,2.69-0.67l8.27-36.68c0.41-1.83,3.03-1.77,3.37,0.07
				c1.93,10.31,3.18,30.41-9.93,50.11c0,0-9.77-1.68-20.31-16.21C262.47,745.81,262.78,742.89,264.71,741.16z"/>
		</g>
	</g>
	<g>
		<g>
			<path class="st1" d="M251.47,709.64c2.83,29.7,9.48,68.98,17.46,102.82h5.02c-10.33-40.84-19.83-96.77-17.03-161.24
				c2.82-65.01,18.75-143.95-10.95-181.66c-24.71-31.38-129.57-36.08-164.05-36.77c-4.31-0.09-6.78,4.88-4.09,8.25
				c13.22,16.63,40.9,55.15,43.31,88.79c3.18,44.34,37.64,79.14,71.88,93.62S245.69,648.99,251.47,709.64z"/>
			<path class="st13" d="M125.03,460.2c21.21,5.38,41.27,15.06,58.82,28.31c8.79,6.6,16.76,14.36,23.63,23.01
				c6.8,8.71,12.51,18.35,16.47,28.71l1.47,3.89c0.48,1.3,0.84,2.64,1.26,3.96c0.39,1.32,0.83,2.66,1.18,3.97l1.05,3.94
				c1.41,5.25,2.79,10.51,4.12,15.78c2.67,10.54,5.18,21.12,7.52,31.74c4.69,21.24,8.73,42.61,11.46,64.23
				c0.07,0.52-0.3,0.99-0.82,1.06c-0.5,0.06-0.96-0.28-1.05-0.77l-0.01-0.03c-1.94-10.64-4.08-21.28-6.42-31.86
				c-2.29-10.59-4.72-21.16-7.25-31.69l-3.86-15.79l-4.03-15.75c-1.34-5.25-2.74-10.49-4.16-15.71l-1.06-3.92
				c-0.35-1.31-0.77-2.55-1.15-3.83c-0.4-1.27-0.73-2.55-1.19-3.8l-1.39-3.74c-3.72-9.97-9.21-19.19-15.61-27.7
				c-3.29-4.18-6.74-8.27-10.56-12.01l-1.41-1.43l-1.46-1.37c-0.98-0.91-1.93-1.85-2.93-2.74c-2.02-1.75-4.02-3.53-6.14-5.18
				c-8.34-6.74-17.5-12.45-27.03-17.47c-9.52-5-19.54-9.23-29.82-12.36l-0.05-0.01c-0.4-0.12-0.63-0.55-0.51-0.95
				C124.24,460.33,124.64,460.1,125.03,460.2z"/>
		</g>
		<g>
			<path class="st1" d="M252.46,749.87c17.93,26.33,15.63,41.06,16.18,53.54c0.1,2.22,0.22,5.35,0.48,9.05h4.9
				c-1-5.08-1.71-10.2-1.96-15.22c-1.74-34.46-9.52-93.28-39.24-128.47c-29.72-35.19-62.26-38.4-103.27-6.41
				c-34.17,26.66-55.49,40.11-67.99,42.61c-3.1,0.62-4.67,4.11-3.17,6.89c8.02,14.77,30.69,48.68,68.75,46.29
				C175.69,755.11,234.53,723.54,252.46,749.87z"/>
			<path class="st13" d="M143.44,704.74c2.69-2.56,5.53-4.86,8.47-7.08c2.93-2.22,5.96-4.33,9.11-6.25
				c6.28-3.88,12.97-7.18,20.11-9.46c3.57-1.13,7.24-1.99,11-2.47c3.76-0.45,7.6-0.52,11.41-0.04c0.95,0.15,1.91,0.24,2.85,0.45
				c0.93,0.22,1.9,0.4,2.8,0.66l5.35,1.66l5.24,2.04l5.08,2.44c6.65,3.51,12.67,8.24,17.68,13.83c5.05,5.57,9,11.98,12.25,18.62
				l1.22,2.5c0.42,0.83,0.72,1.7,1.09,2.55c0.69,1.71,1.43,3.41,2.08,5.13l1.8,5.22c0.64,1.73,1.05,3.53,1.56,5.29
				c2.03,7.06,3.44,14.26,4.65,21.47c0.07,0.4-0.2,0.78-0.61,0.85c-0.38,0.06-0.75-0.18-0.84-0.55l-0.01-0.02
				c-1.71-7.06-3.35-14.14-5.71-20.98c-1.07-3.46-2.42-6.8-3.68-10.18c-0.68-1.67-1.45-3.29-2.17-4.94
				c-0.38-0.81-0.7-1.66-1.13-2.44l-1.25-2.38c-3.31-6.35-7.33-12.3-12.13-17.5c-4.8-5.2-10.51-9.5-16.75-12.78l-4.79-2.27
				l-4.96-1.9l-5.1-1.55c-0.85-0.24-1.68-0.4-2.51-0.61c-0.84-0.2-1.7-0.28-2.55-0.42c-3.42-0.45-6.92-0.42-10.39-0.03
				c-3.48,0.37-6.94,1.1-10.34,2.1c-6.81,1.98-13.38,4.94-19.69,8.39c-3.14,1.75-6.26,3.57-9.28,5.55
				c-3.01,1.98-5.99,4.07-8.83,6.27l-0.02,0.01c-0.34,0.26-0.82,0.2-1.08-0.14C143.12,705.45,143.16,705.01,143.44,704.74z"/>
		</g>
	</g>
	<g>
		
			<linearGradient id="SVGID_00000037692314587147025320000003366029042595280272_" gradientUnits="userSpaceOnUse" x1="522.2695" y1="829.9203" x2="484.0631" y2="-301.0058">
			<stop  offset="0" style="stop-color:#201B59"/>
			<stop  offset="1" style="stop-color:#2D2D84"/>
		</linearGradient>
		<path style="fill:url(#SVGID_00000037692314587147025320000003366029042595280272_);" d="M253.47,234.11
			c0-26.98,21.87-48.85,48.85-48.85h415.41c22.92,0,41.82,17.96,42.98,40.85l30.66,602.27c0.91,17.91-13.19,33.02-31.12,33.34
			l-476.12,8.65c-16.85,0.31-30.67-13.27-30.67-30.12V234.11z"/>
		<g>
			<path class="st1" d="M287.5,194.53c-0.05-8.63,7.54-15.31,16.09-14.15c56.73,7.69,251.8,31.49,413.09,19.1
				c7.36-0.56,13.74,5.01,14.13,12.37l32.15,604.96c0.44,8.29-5.89,15.39-14.19,15.88c-67.83,4.01-347.19,19.53-446.84,9.1
				c-6.06-0.64-10.67-5.74-10.7-11.84L287.5,194.53z"/>
			<path class="st2" d="M294.19,209.69c-0.05-8.31,7.26-14.74,15.49-13.62c54.59,7.4,242.32,30.3,397.53,18.39
				c7.08-0.54,13.22,4.82,13.6,11.91l30.94,582.18c0.42,7.98-5.67,14.81-13.65,15.28c-65.28,3.86-334.12,18.8-430.01,8.75
				c-5.84-0.61-10.27-5.52-10.3-11.39L294.19,209.69z"/>
			<path class="st3" d="M344.72,254.57l5.8,124.81c0.19,4.15,3.55,7.45,7.7,7.57c23.12,0.65,95.14,2.41,135.81,0.29
				c4.6-0.24,8.24-3.96,8.39-8.57c0.78-23.41,2.47-91.53-2.86-120.01c-0.86-4.6-4.82-7.97-9.49-8.13l-136.63-4.78
				C348.52,245.58,344.49,249.65,344.72,254.57z"/>
			
				<linearGradient id="SVGID_00000116925735796949830280000008922551677422790038_" gradientUnits="userSpaceOnUse" x1="385.9727" y1="234.1743" x2="513.3292" y2="455.7751">
				<stop  offset="0" style="stop-color:#F5928F"/>
				<stop  offset="1" style="stop-color:#F37064"/>
			</linearGradient>
			<circle style="fill:url(#SVGID_00000116925735796949830280000008922551677422790038_);" cx="423.34" cy="299.2" r="26.83"/>
			
				<linearGradient id="SVGID_00000013873216185544085910000003158057464638088846_" gradientUnits="userSpaceOnUse" x1="356.2254" y1="251.2705" x2="483.5822" y2="472.8716">
				<stop  offset="0" style="stop-color:#F5928F"/>
				<stop  offset="1" style="stop-color:#F37064"/>
			</linearGradient>
			<path style="fill:url(#SVGID_00000013873216185544085910000003158057464638088846_);" d="M382.59,377.97h85.48
				c5.24,0,8.38-5.79,5.56-10.2c-7.26-11.36-22.45-28.05-48.76-27.3c-25.36,0.73-40.39,15.8-47.94,26.61
				C373.72,371.67,376.99,377.97,382.59,377.97z"/>
			<g class="st6">
				<path class="st7" d="M686.55,265.44c2.68,0,4.81-1.88,4.75-4.19c-0.07-2.3-2.31-4.23-4.99-4.27l-149.82-2.67
					c-2.68-0.05-4.14,1.98-3.25,4.5l0.72,2.04c0.89,2.53,3.81,4.59,6.48,4.59H686.55z"/>
			</g>
			<g class="st6">
				<path class="st7" d="M536.48,277.58c-2.68-0.05-4.14,1.98-3.25,4.5l0.72,2.04c0.89,2.53,3.81,4.59,6.48,4.59h146.12
					c2.68,0,4.81-1.88,4.75-4.19c-0.07-2.3-2.31-4.23-4.99-4.27L536.48,277.58z"/>
			</g>
			<g class="st6">
				<path class="st7" d="M536.48,301.18c-2.68-0.05-4.14,1.98-3.25,4.5l0.72,2.04c0.89,2.53,3.81,4.59,6.48,4.59h146.12
					c2.68,0,4.81-1.88,4.75-4.19c-0.07-2.3-2.31-4.23-4.99-4.27L536.48,301.18z"/>
			</g>
			<g class="st6">
				<path class="st7" d="M701.1,426.15c2.68,0,4.74-1.88,4.59-4.19c-0.15-2.3-2.47-4.2-5.14-4.23l-351-2.77
					c-2.68-0.02-3.5,1.68-1.84,3.77l2.87,3.6c1.67,2.09,5.22,3.81,7.9,3.81H701.1z"/>
			</g>
			<g class="st6">
				<path class="st7" d="M349.55,438.24c-2.68-0.02-3.5,1.68-1.84,3.77l2.87,3.6c1.67,2.09,5.22,3.81,7.9,3.81H701.1
					c2.68,0,4.74-1.88,4.59-4.19c-0.15-2.3-2.47-4.2-5.14-4.23L349.55,438.24z"/>
			</g>
			
				<linearGradient id="SVGID_00000153674929352297059820000000915910015962866616_" gradientUnits="userSpaceOnUse" x1="298.2618" y1="443.112" x2="698.1625" y2="762.7773">
				<stop  offset="0" style="stop-color:#5560AB"/>
				<stop  offset="1" style="stop-color:#4C57A6"/>
			</linearGradient>
			<path style="fill:url(#SVGID_00000153674929352297059820000000915910015962866616_);" d="M347.97,477.09
				c8.44-0.65,24.24-0.95,32.94-1.07c3.69-0.05,6.92,2.45,7.78,6.03c1.68,6.96,4,19.05,3.7,31.85c-0.09,3.84-3.23,6.9-7.06,6.86
				l-32.1-0.35c-3.95-0.04-7.23-3.06-7.59-6.99l-2.82-30.2C342.52,480.1,344.84,477.33,347.97,477.09z"/>
			<g class="st6">
				<path class="st7" d="M407.33,489.49c-2.67-0.11-4.54,1.96-4.14,4.61l0.78,5.18c0.4,2.65,2.91,4.81,5.59,4.81h77.97
					c2.68,0,4.84-2.19,4.81-4.87l-0.02-1.32c-0.03-2.68-2.25-4.96-4.92-5.07L407.33,489.49z"/>
			</g>
			
				<linearGradient id="SVGID_00000059271489357010382410000014613208103322927286_" gradientUnits="userSpaceOnUse" x1="366.447" y1="357.8126" x2="766.3478" y2="677.478">
				<stop  offset="0" style="stop-color:#5560AB"/>
				<stop  offset="1" style="stop-color:#4C57A6"/>
			</linearGradient>
			<path style="fill:url(#SVGID_00000059271489357010382410000014613208103322927286_);" d="M522.86,477.09
				c8.44-0.65,24.24-0.95,32.94-1.07c3.69-0.05,6.92,2.45,7.78,6.03c1.68,6.96,4,19.05,3.7,31.85c-0.09,3.84-3.23,6.9-7.06,6.86
				l-32.1-0.35c-3.95-0.04-7.23-3.06-7.59-6.99l-2.82-30.2C517.42,480.1,519.73,477.33,522.86,477.09z"/>
			<g class="st6">
				<path class="st7" d="M582.23,489.49c-2.67-0.11-4.54,1.96-4.14,4.61l0.78,5.18c0.4,2.65,2.91,4.81,5.59,4.81h77.97
					c2.68,0,4.84-2.19,4.81-4.87l-0.02-1.32c-0.03-2.68-2.25-4.96-4.92-5.07L582.23,489.49z"/>
			</g>
			<g>
				<path class="st7" d="M393.26,596.92c-0.03,0-0.05,0-0.08,0l-29.62-0.28c-4.23-0.04-7.73-2.95-8.13-6.77l-2.6-24.86
					c-0.15-1.46,0.3-2.9,1.28-4.06c1.09-1.3,2.74-2.11,4.53-2.24l0,0c2.5-0.17,6.01-0.47,9.73-0.79c7.83-0.67,17.59-1.5,23.07-1.57
					c3.98-0.02,7.36,2.34,8.3,5.8c1.54,5.71,1.41,16.51,1.11,28.01C400.75,593.9,397.36,596.92,393.26,596.92z M358.79,560.98
					c-1.18,0.08-2.25,0.6-2.95,1.43c-0.57,0.68-0.84,1.52-0.75,2.36l2.6,24.86c0.28,2.67,2.81,4.71,5.89,4.74l29.62,0.28
					c0.02,0,0.04,0,0.06,0c2.87,0,5.25-2.02,5.31-4.53c0.29-11.33,0.43-21.95-1.04-27.36c-0.66-2.42-3.18-4.11-6.07-4.12
					c-5.4,0.07-15.11,0.89-22.91,1.56C364.83,560.5,361.3,560.8,358.79,560.98L358.79,560.98z"/>
				<path class="st2" d="M361.98,563.54c6.22-0.43,19.75-1.8,26.16-1.88c2.72-0.03,5.1,1.61,5.74,3.97
					c1.24,4.58,1.07,13.7,0.86,22.12c-0.06,2.52-2.38,4.54-5.21,4.51l-23.67-0.23c-2.91-0.03-5.33-2.01-5.6-4.6l-2.08-19.86
					C357.96,565.52,359.67,563.7,361.98,563.54z"/>
				<g class="st6">
					<path class="st7" d="M419.28,580.41c0.86,3.25,3.81,5.51,7.18,5.48l274.09-2.34c3.1-0.03,5.58-2.58,5.51-5.68
						c-0.07-3.01-2.52-5.43-5.54-5.44l-274.1-1.25C421.59,571.16,418.05,575.73,419.28,580.41z"/>
				</g>
				
					<linearGradient id="SVGID_00000107567126490917926680000016286960387051740043_" gradientUnits="userSpaceOnUse" x1="450.2213" y1="444.6027" x2="298.9532" y2="702.7818">
					<stop  offset="0" style="stop-color:#5560AB"/>
					<stop  offset="1" style="stop-color:#4C57A6"/>
				</linearGradient>
				<path style="fill:url(#SVGID_00000107567126490917926680000016286960387051740043_);" d="M363.24,567.44L363.24,567.44
					c2.2-1.29,5.03-0.52,6.27,1.71l5.84,10.47c0.58,1.05,2.11,0.98,2.61-0.11l14.49-32.26c0.72-1.61,3.12-1.07,3.09,0.7
					c-0.15,9.87-2.77,28.63-18.54,44.33c0,0-8.69-3.38-15.69-18.74C360.31,571.31,361.13,568.67,363.24,567.44z"/>
				<path class="st7" d="M393.26,660.41c-0.03,0-0.05,0-0.08,0l-29.62-0.28c-4.23-0.04-7.73-2.95-8.13-6.77l-2.6-24.86
					c-0.15-1.46,0.3-2.9,1.28-4.06c1.09-1.3,2.74-2.11,4.53-2.24l0,0c2.5-0.17,6.01-0.47,9.73-0.79c7.83-0.67,17.59-1.5,23.07-1.57
					c0.04,0,0.08,0,0.12,0c3.9,0,7.25,2.37,8.18,5.8c1.54,5.71,1.41,16.51,1.11,28.01C400.75,657.39,397.36,660.41,393.26,660.41z
					 M358.79,624.47c-1.18,0.08-2.25,0.6-2.95,1.43c-0.57,0.68-0.84,1.52-0.75,2.36l2.6,24.86c0.28,2.67,2.81,4.71,5.89,4.74
					l29.62,0.28c0.02,0,0.04,0,0.06,0c2.87,0,5.25-2.02,5.31-4.53c0.29-11.33,0.43-21.95-1.04-27.36c-0.66-2.42-3.21-4.17-6.07-4.12
					c-5.4,0.07-15.11,0.89-22.91,1.56C364.83,623.99,361.3,624.29,358.79,624.47L358.79,624.47z"/>
				<path class="st2" d="M361.98,627.03c6.22-0.43,19.75-1.8,26.16-1.88c2.72-0.03,5.1,1.61,5.74,3.97
					c1.24,4.58,1.07,13.7,0.86,22.12c-0.06,2.52-2.38,4.54-5.21,4.51l-23.67-0.23c-2.91-0.03-5.33-2.01-5.6-4.6l-2.08-19.86
					C357.96,629.01,359.67,627.19,361.98,627.03z"/>
				<g class="st6">
					<path class="st7" d="M419.28,643.9c0.86,3.25,3.81,5.51,7.18,5.48l274.09-2.34c3.1-0.03,5.58-2.58,5.51-5.68
						c-0.07-3.01-2.52-5.43-5.54-5.44l-274.1-1.25C421.59,634.65,418.05,639.22,419.28,643.9z"/>
				</g>
				
					<linearGradient id="SVGID_00000055685964239882116500000003650509121259741343_" gradientUnits="userSpaceOnUse" x1="477.9145" y1="460.828" x2="326.646" y2="719.0076">
					<stop  offset="0" style="stop-color:#5560AB"/>
					<stop  offset="1" style="stop-color:#4C57A6"/>
				</linearGradient>
				<path style="fill:url(#SVGID_00000055685964239882116500000003650509121259741343_);" d="M363.24,630.93L363.24,630.93
					c2.2-1.29,5.03-0.52,6.27,1.71l5.84,10.47c0.58,1.05,2.11,0.98,2.61-0.11l14.49-32.26c0.72-1.61,3.12-1.07,3.09,0.7
					c-0.15,9.87-2.77,28.63-18.54,44.33c0,0-8.69-3.38-15.69-18.75C360.31,634.8,361.13,632.16,363.24,630.93z"/>
				<path class="st7" d="M393.26,723.9c-0.03,0-0.05,0-0.08,0l-29.62-0.28c-4.23-0.04-7.73-2.95-8.13-6.77l-2.6-24.86
					c-0.15-1.46,0.3-2.9,1.28-4.06c1.09-1.3,2.74-2.11,4.53-2.24l0,0c2.5-0.17,6.01-0.47,9.73-0.79c7.83-0.67,17.59-1.5,23.07-1.57
					c0.04,0,0.08,0,0.12,0c3.9,0,7.25,2.37,8.18,5.8c1.54,5.71,1.41,16.51,1.11,28.01C400.75,720.89,397.36,723.9,393.26,723.9z
					 M358.79,687.96c-1.18,0.08-2.25,0.6-2.95,1.43c-0.57,0.68-0.84,1.52-0.75,2.36l2.6,24.86c0.28,2.67,2.81,4.71,5.89,4.73
					l29.62,0.28c0.02,0,0.04,0,0.06,0c2.87,0,5.25-2.02,5.31-4.53c0.29-11.33,0.43-21.95-1.04-27.36c-0.66-2.42-3.21-4.18-6.07-4.12
					c-5.4,0.07-15.11,0.89-22.91,1.56C364.83,687.48,361.3,687.78,358.79,687.96L358.79,687.96z"/>
				<path class="st2" d="M361.98,690.52c6.22-0.43,19.75-1.8,26.16-1.88c2.72-0.03,5.1,1.61,5.74,3.97
					c1.24,4.58,1.07,13.7,0.86,22.12c-0.06,2.52-2.38,4.54-5.21,4.51l-23.67-0.23c-2.91-0.03-5.33-2.01-5.6-4.6l-2.08-19.86
					C357.96,692.5,359.67,690.68,361.98,690.52z"/>
				<g class="st6">
					<path class="st7" d="M419.28,707.39c0.86,3.25,3.81,5.51,7.18,5.48l274.09-2.34c3.1-0.03,5.58-2.58,5.51-5.68
						c-0.07-3.01-2.52-5.43-5.54-5.44l-274.1-1.25C421.59,698.14,418.05,702.72,419.28,707.39z"/>
				</g>
				
					<linearGradient id="SVGID_00000119118023963767927360000006981668387203476395_" gradientUnits="userSpaceOnUse" x1="501.1992" y1="524.4725" x2="302.162" y2="801.9869">
					<stop  offset="0" style="stop-color:#5560AB"/>
					<stop  offset="1" style="stop-color:#4C57A6"/>
				</linearGradient>
				<path style="fill:url(#SVGID_00000119118023963767927360000006981668387203476395_);" d="M363.24,694.42L363.24,694.42
					c2.2-1.29,5.03-0.52,6.27,1.71l5.84,10.47c0.58,1.05,2.11,0.98,2.61-0.11l14.49-32.26c0.72-1.61,3.12-1.07,3.09,0.7
					c-0.15,9.87-2.77,28.63-18.54,44.33c0,0-8.69-3.38-15.69-18.74C360.31,698.29,361.13,695.65,363.24,694.42z"/>
				<path class="st7" d="M393.26,787.39c-0.03,0-0.05,0-0.08,0l-29.62-0.28c-4.23-0.04-7.73-2.95-8.13-6.77l-2.6-24.86
					c-0.15-1.46,0.3-2.9,1.28-4.06c1.09-1.3,2.74-2.11,4.53-2.24l0,0c2.5-0.17,6.01-0.47,9.73-0.79c7.83-0.67,17.59-1.5,23.07-1.57
					c0.04,0,0.08,0,0.12,0c3.9,0,7.25,2.37,8.18,5.8c1.54,5.71,1.41,16.51,1.11,28.01C400.75,784.38,397.36,787.39,393.26,787.39z
					 M358.79,751.45c-1.18,0.08-2.25,0.6-2.95,1.43c-0.57,0.68-0.84,1.52-0.75,2.36l2.6,24.86c0.28,2.67,2.81,4.71,5.89,4.73
					l29.62,0.28c0.02,0,0.04,0,0.06,0c2.87,0,5.25-2.02,5.31-4.53c0.29-11.33,0.43-21.95-1.04-27.36c-0.66-2.42-3.21-4.18-6.07-4.12
					c-5.4,0.07-15.11,0.89-22.91,1.56C364.83,750.98,361.3,751.28,358.79,751.45L358.79,751.45z"/>
				<path class="st2" d="M361.98,754.01c6.22-0.43,19.75-1.8,26.16-1.88c2.72-0.03,5.1,1.61,5.74,3.97
					c1.24,4.58,1.07,13.7,0.86,22.12c-0.06,2.52-2.38,4.54-5.21,4.51l-23.67-0.23c-2.91-0.03-5.33-2.01-5.6-4.6l-2.08-19.86
					C357.96,755.99,359.67,754.17,361.98,754.01z"/>
				<g class="st6">
					<path class="st7" d="M419.28,770.88L419.28,770.88c0.86,3.25,3.81,5.51,7.18,5.48l274.09-2.34c3.1-0.03,5.58-2.58,5.51-5.68
						c-0.07-3.01-2.52-5.43-5.54-5.44l-274.1-1.25C421.59,761.63,418.05,766.21,419.28,770.88z"/>
				</g>
				
					<linearGradient id="SVGID_00000080915604786112661920000005649856391137750415_" gradientUnits="userSpaceOnUse" x1="533.3005" y1="493.2787" x2="382.0322" y2="751.4581">
					<stop  offset="0" style="stop-color:#5560AB"/>
					<stop  offset="1" style="stop-color:#4C57A6"/>
				</linearGradient>
				<path style="fill:url(#SVGID_00000080915604786112661920000005649856391137750415_);" d="M363.24,757.91L363.24,757.91
					c2.2-1.29,5.03-0.52,6.27,1.71l5.84,10.47c0.58,1.05,2.11,0.98,2.61-0.11l14.49-32.26c0.72-1.61,3.12-1.07,3.09,0.7
					c-0.15,9.87-2.77,28.63-18.54,44.33c0,0-8.69-3.38-15.69-18.74C360.31,761.78,361.13,759.14,363.24,757.91z"/>
			</g>
		</g>
		
			<linearGradient id="SVGID_00000032629492917696243830000015523332622426219413_" gradientUnits="userSpaceOnUse" x1="582.1381" y1="41.1346" x2="391.063" y2="292.4893">
			<stop  offset="0" style="stop-color:#293882"/>
			<stop  offset="1" style="stop-color:#171042"/>
		</linearGradient>
		<path style="fill:url(#SVGID_00000032629492917696243830000015523332622426219413_);" d="M535.79,103.14
			c-15.01-10.44-28.05-10.23-37.24-7.52c-8.38,2.47-13.81,10.56-13.01,19.26l3.96,43.23l47.13,4.18
			C536.64,162.3,565.22,123.61,535.79,103.14z M515.06,138.02c-6.49,0-11.75-5.26-11.75-11.75c0-6.49,5.26-11.75,11.75-11.75
			c6.49,0,11.75,5.26,11.75,11.75C526.82,132.76,521.55,138.02,515.06,138.02z"/>
		<path class="st7" d="M494.21,139.93c-0.58,0-1.08-0.44-1.13-1.03l-0.63-6.89c-0.06-0.63,0.4-1.18,1.03-1.24
			c0.64-0.06,1.18,0.4,1.24,1.03l0.63,6.89c0.06,0.63-0.4,1.18-1.03,1.24C494.28,139.93,494.25,139.93,494.21,139.93z
			 M492.97,126.43c-0.58,0-1.08-0.44-1.13-1.03l-0.48-5.23c-0.76-8.29,4.46-16,12.4-18.35c5.63-1.66,11.42-1.9,17.23-0.71
			c0.62,0.13,1.01,0.73,0.89,1.34c-0.13,0.61-0.72,1.01-1.34,0.89c-5.44-1.11-10.86-0.89-16.13,0.66
			c-6.9,2.04-11.44,8.75-10.78,15.96l0.48,5.23c0.06,0.63-0.4,1.18-1.03,1.24C493.04,126.43,493.01,126.43,492.97,126.43z"/>
		
			<linearGradient id="SVGID_00000107575278903034637040000018066328482088494014_" gradientUnits="userSpaceOnUse" x1="603.0975" y1="57.067" x2="412.0222" y2="308.4221">
			<stop  offset="0" style="stop-color:#293882"/>
			<stop  offset="1" style="stop-color:#171042"/>
		</linearGradient>
		<path style="fill:url(#SVGID_00000107575278903034637040000018066328482088494014_);" d="M425.17,186.05v-21.74
			c0-7.5,6.22-13.51,13.72-13.26l149.86,5.13c6.65,0.23,12.04,5.48,12.44,12.12l1.25,20.89L425.17,186.05z"/>
		<path class="st7" d="M481.05,159.25h-6.44c-0.63,0-1.14-0.51-1.14-1.14c0-0.63,0.51-1.14,1.14-1.14h6.44
			c0.63,0,1.14,0.51,1.14,1.14C482.19,158.74,481.68,159.25,481.05,159.25z"/>
		<path class="st7" d="M433.29,179.23c-0.63,0-1.14-0.51-1.14-1.14v-8.79c0-6.79,5.53-12.32,12.32-12.32h23.69
			c0.63,0,1.14,0.51,1.14,1.14c0,0.63-0.51,1.14-1.14,1.14h-23.69c-5.54,0-10.05,4.51-10.05,10.05v8.79
			C434.42,178.72,433.91,179.23,433.29,179.23z"/>
		
			<linearGradient id="SVGID_00000138551416356575040920000017678540883693091741_" gradientUnits="userSpaceOnUse" x1="549.8291" y1="348.692" x2="716.8088" y2="110.3061">
			<stop  offset="0" style="stop-color:#F5928F"/>
			<stop  offset="1" style="stop-color:#F37064"/>
		</linearGradient>
		<path style="fill:url(#SVGID_00000138551416356575040920000017678540883693091741_);" d="M642.12,328.04l-35.28-28.77
			l-35.28,28.77c2.81-27.06,4.13-57.25,2.64-90.01c-0.47-10.43-1.21-20.54-2.14-30.3c-0.12-1.25,0.29-2.5,1.14-3.43
			s2.05-1.46,3.31-1.46c20.46,0,40.93,0,61.39,0c2.37,0,4.34,1.86,4.46,4.23c0.78,14.99,1.29,30.5,1.46,46.5
			C644.09,279.67,643.44,304.53,642.12,328.04z"/>
		
			<linearGradient id="SVGID_00000072995605750832006580000015880471648396053162_" gradientUnits="userSpaceOnUse" x1="579.0187" y1="72.4421" x2="447.0854" y2="314.6986">
			<stop  offset="0" style="stop-color:#5560AB"/>
			<stop  offset="1" style="stop-color:#4C57A6"/>
		</linearGradient>
		<path style="fill:url(#SVGID_00000072995605750832006580000015880471648396053162_);" d="M364.11,191.54
			c0.36-7.53,6.57-13.44,14.11-13.44l262.07-0.01c9.42,0,17.48,6.78,19.09,16.07l0.22,1.28c1.76,10.17-6.07,19.47-16.39,19.47
			H374.34c-6.18,0-11.1-5.16-10.8-11.33L364.11,191.54z"/>
	</g>
	<g>
		
			<linearGradient id="SVGID_00000173125764696227995890000004811025400902692998_" gradientUnits="userSpaceOnUse" x1="-1541.4043" y1="905.1273" x2="-1482.4487" y2="905.1273" gradientTransform="matrix(-1 0 0 1 -697.6208 0)">
			<stop  offset="0" style="stop-color:#1D1753"/>
			<stop  offset="1" style="stop-color:#101137"/>
		</linearGradient>
		<path style="fill:url(#SVGID_00000173125764696227995890000004811025400902692998_);" d="M821.62,917.01
			c-13.73,0.63-27.02,0.23-35.89-0.22c8.08-5.75,26.69-18.26,42.26-23.24l10.69-0.64c0,0,3.62,5.51,4.92,18.12
			C841.83,913.24,836.65,916.32,821.62,917.01z"/>
		
			<linearGradient id="SVGID_00000139988408627055201910000011203958143669001394_" gradientUnits="userSpaceOnUse" x1="740.1772" y1="830.1168" x2="863.0059" y2="971.0583">
			<stop  offset="0" style="stop-color:#1D1753"/>
			<stop  offset="1" style="stop-color:#101137"/>
		</linearGradient>
		<path style="fill:url(#SVGID_00000139988408627055201910000011203958143669001394_);" d="M785.62,916.87
			c0.04-0.03,0.07-0.05,0.11-0.08c8.87,0.46,22.16,0.85,35.89,0.22c15.03-0.69,20.21-3.77,21.98-5.98c0.06,0.58,0.12,1.16,0.17,1.77
			c0.22,2.77-1.83,5.2-4.6,5.41c-11.24,0.85-39.12,2.78-52.56,2.07C784.83,920.18,784.17,917.9,785.62,916.87z"/>
		
			<linearGradient id="SVGID_00000060019404743773882920000013874312975347279513_" gradientUnits="userSpaceOnUse" x1="-1644.9694" y1="905.2744" x2="-1617.3641" y2="905.2744" gradientTransform="matrix(-1 0 0 1 -697.6208 0)">
			<stop  offset="0" style="stop-color:#1D1753"/>
			<stop  offset="1" style="stop-color:#101137"/>
		</linearGradient>
		<path style="fill:url(#SVGID_00000060019404743773882920000013874312975347279513_);" d="M919.81,913.34
			c1.01-6.44,2.62-15.76,3.86-18.14c1.95-3.74,8.64,0,8.64,0s4.7,2.19,6.86,5.84c1.38,2.33,5.19,8.95,7.77,13.44
			c0.3,0.52,0.42,1.07,0.41,1.6l-26.79,0.94C919.91,915.96,919.6,914.68,919.81,913.34z"/>
		
			<linearGradient id="SVGID_00000130609997132003783140000003957298009733013652_" gradientUnits="userSpaceOnUse" x1="807.4747" y1="771.4669" x2="930.3031" y2="912.4083">
			<stop  offset="0" style="stop-color:#1D1753"/>
			<stop  offset="1" style="stop-color:#101137"/>
		</linearGradient>
		<path style="fill:url(#SVGID_00000130609997132003783140000003957298009733013652_);" d="M947.35,916.08
			c-0.04,1.53-1.26,2.92-2.97,2.96l-19.08,0.53c-2.02,0.06-3.76-0.99-4.73-2.55L947.35,916.08z"/>
		
			<linearGradient id="SVGID_00000013187508285753666720000004516166786188970119_" gradientUnits="userSpaceOnUse" x1="-1633.2942" y1="886.2436" x2="-1615.3826" y2="886.2436" gradientTransform="matrix(-1 0 0 1 -697.6208 0)">
			<stop  offset="0" style="stop-color:#F9BABA"/>
			<stop  offset="1" style="stop-color:#F5928F"/>
		</linearGradient>
		<path style="fill:url(#SVGID_00000013187508285753666720000004516166786188970119_);" d="M917.76,873.77
			c0.23,0.77,3.69,17.55,5.21,24.92c0.42,2.04,2.25,3.46,4.33,3.36c1.13-0.06,2.45-0.16,3.84-0.34c2.45-0.32,4.32-2.37,4.42-4.84
			c0.25-6.45,0.37-18.84-2-23.63C930.28,866.62,917.76,873.77,917.76,873.77z"/>
		
			<linearGradient id="SVGID_00000006700403493180611220000016347994999611623611_" gradientUnits="userSpaceOnUse" x1="-1538.4055" y1="885.0711" x2="-1523.4768" y2="885.0711" gradientTransform="matrix(-1 0 0 1 -697.6208 0)">
			<stop  offset="0" style="stop-color:#F9BABA"/>
			<stop  offset="1" style="stop-color:#F5928F"/>
		</linearGradient>
		<path style="fill:url(#SVGID_00000006700403493180611220000016347994999611623611_);" d="M840.78,878.58
			c-1.48-0.05,0.59,7.66-1.65,15.24c-0.51,1.71-1.79,3.05-3.57,3.07c-1.16,0.01-2.52-0.01-3.91-0.12c-2.09-0.17-3.77-1.79-3.97-3.88
			l-1.83-19.66L840.78,878.58z"/>
		
			<linearGradient id="SVGID_00000110430299277239448810000005847352079763669671_" gradientUnits="userSpaceOnUse" x1="1222.5139" y1="961.0575" x2="883.744" y2="790.399">
			<stop  offset="0" style="stop-color:#1D1753"/>
			<stop  offset="1" style="stop-color:#101137"/>
		</linearGradient>
		<path style="fill:url(#SVGID_00000110430299277239448810000005847352079763669671_);" d="M799.26,669.59
			c0.66,3.23,24.05,139.64,25.47,210.22c0.02,1.18,0.89,2.18,2.07,2.34c2.97,0.41,8.75,0.95,14.36-0.09
			c0.77-0.14,1.35-0.77,1.39-1.55c0.82-13.15,7.39-124.37-0.66-176.72c0,0,66.5,139.95,76.58,178.54c0.25,0.94,1.11,1.57,2.08,1.52
			c2.85-0.15,8.77-0.66,13.47-2.39c1.69-0.62,2.65-2.39,2.22-4.14c-5.63-23.09-45.1-182.21-71.9-217.27L799.26,669.59z"/>
		
			<linearGradient id="SVGID_00000155138422702175202670000012849106407348836737_" gradientUnits="userSpaceOnUse" x1="-1501.2828" y1="655.5585" x2="-1562.3835" y2="734.5529" gradientTransform="matrix(-1 0 0 1 -697.6208 0)">
			<stop  offset="0" style="stop-color:#CB266E"/>
			<stop  offset="1" style="stop-color:#4C286E"/>
		</linearGradient>
		<path style="fill:url(#SVGID_00000155138422702175202670000012849106407348836737_);" d="M841.89,704.65
			c0.22,0,0.44-0.08,0.61-0.25c0.34-0.34,0.35-0.89,0.01-1.23l-8.9-9.11c-0.34-0.35-0.89-0.35-1.23-0.01
			c-0.34,0.34-0.35,0.89-0.01,1.23l8.9,9.11C841.44,704.56,841.66,704.65,841.89,704.65z"/>
		
			<linearGradient id="SVGID_00000132061108025807076810000012311571118120335249_" gradientUnits="userSpaceOnUse" x1="745.4988" y1="401.9238" x2="962.0694" y2="808.6069">
			<stop  offset="0" style="stop-color:#5560AB"/>
			<stop  offset="1" style="stop-color:#4C57A6"/>
		</linearGradient>
		<path style="fill:url(#SVGID_00000132061108025807076810000012311571118120335249_);" d="M776.77,493.55
			c19.9-2.99,58.94-7.28,84.41,0.2l-2.76,78.72l-92.27-9.95l-7.83-11.13C758.32,551.39,761.94,495.78,776.77,493.55z"/>
		
			<linearGradient id="SVGID_00000026130115208615509750000007242860561392638098_" gradientUnits="userSpaceOnUse" x1="-1262.8187" y1="461.7814" x2="-1255.8363" y2="418.7224" gradientTransform="matrix(-0.9943 -0.107 -0.107 0.9943 -396.5908 -85.042)">
			<stop  offset="0" style="stop-color:#F9BABA"/>
			<stop  offset="1" style="stop-color:#F5928F"/>
		</linearGradient>
		<path style="fill:url(#SVGID_00000026130115208615509750000007242860561392638098_);" d="M822.73,451.41
			c0,0,1.84,31.31,1.49,41.05c0,0-25.63,4.19-31.73-0.19l4.82-37.11L822.73,451.41z"/>
		<g>
			
				<linearGradient id="SVGID_00000016762456203016433650000014080309300841332872_" gradientUnits="userSpaceOnUse" x1="-1239.7926" y1="391.2137" x2="-1287.3638" y2="427.613" gradientTransform="matrix(-0.9943 -0.107 -0.107 0.9943 -396.5908 -85.042)">
				<stop  offset="0" style="stop-color:#F9BABA"/>
				<stop  offset="1" style="stop-color:#F5928F"/>
			</linearGradient>
			<path style="fill:url(#SVGID_00000016762456203016433650000014080309300841332872_);" d="M797.81,420.05
				c0,0-10.32,18.12-11.95,28.03c-1.63,9.92-4.48,16.16,6.84,19.41c11.32,3.25,21.65-1.45,27.99-10.82c0,0,9.9-14.42,8.72-20.89
				C828.24,429.31,797.81,420.05,797.81,420.05z"/>
			
				<linearGradient id="SVGID_00000052081702570954849240000003123973457442124466_" gradientUnits="userSpaceOnUse" x1="782.3544" y1="422.3094" x2="901.2207" y2="454.573">
				<stop  offset="0" style="stop-color:#1D1753"/>
				<stop  offset="1" style="stop-color:#101137"/>
			</linearGradient>
			<path style="fill:url(#SVGID_00000052081702570954849240000003123973457442124466_);" d="M817.52,449.11l-1.46-0.16
				c0,0,7.34-11.68,2.29-14.41c-5.05-2.73-25.5-9.25-29.21-17.16c-3.58-7.62,1.29-16.44,7.38-18.41c0.38-0.12,0.8,0.1,0.95,0.47
				l0.38,0.96c0.26,0.66,1.19,0.66,1.46,0.01l0,0c0.25-0.62,1.14-0.67,1.43-0.06c1.14,2.37,4.49,6.38,14.32,9.31
				c13.95,4.16,22.74,10.93,21.91,20.79c-0.05,0.62,0.58,1.04,1.14,0.77c1.12-0.53,2.83-0.65,4.88,1.48
				c3.55,3.71,1.04,12.06-8.28,18.15c-0.44,0.29-0.51,0.93-0.1,1.26c1.44,1.18,3.5,3.83-2.84,6.39c-6.49,2.62-10.08,1.87-11.42,1.37
				c-0.36-0.13-0.57-0.5-0.51-0.87l1.48-8.66c0.08-0.45-0.24-0.87-0.69-0.92L817.52,449.11z"/>
			
				<linearGradient id="SVGID_00000085240845709417463490000008709742830221765531_" gradientUnits="userSpaceOnUse" x1="-1245.6935" y1="383.5026" x2="-1293.2646" y2="419.9018" gradientTransform="matrix(-0.9943 -0.107 -0.107 0.9943 -396.5908 -85.042)">
				<stop  offset="0" style="stop-color:#F9BABA"/>
				<stop  offset="1" style="stop-color:#F5928F"/>
			</linearGradient>
			<path style="fill:url(#SVGID_00000085240845709417463490000008709742830221765531_);" d="M816.97,450.89c0,0,4.46-11.8,9.54-7.81
				c5.08,3.99-4.29,13.3-8.71,13.28L816.97,450.89z"/>
		</g>
		<g>
			
				<linearGradient id="SVGID_00000060749592671955195690000011175000580426704265_" gradientUnits="userSpaceOnUse" x1="2719.1775" y1="2885.2097" x2="2412.0315" y2="3288.4373" gradientTransform="matrix(0.1855 -0.9827 0.9827 0.1855 -2625.7815 2579.0447)">
				<stop  offset="0" style="stop-color:#F5928F"/>
				<stop  offset="1" style="stop-color:#F37064"/>
			</linearGradient>
			<path style="fill:url(#SVGID_00000060749592671955195690000011175000580426704265_);" d="M706.44,555.13l2.45-9.62
				c1.21-4.76,5.94-7.73,10.75-6.75l230.44,47.01c5.25,1.07,8.62,6.21,7.51,11.45l-14.05,66.6L706.44,555.13z"/>
			<path class="st7" d="M684.59,671.95l17.33-124.57c0.36-2.58,2.84-4.3,5.38-3.74l236.68,52.56c5.05,1.12,8.22,6.15,7.06,11.19
				l-19.86,86.11L684.59,671.95z"/>
			<path class="st7" d="M690.84,666.31l6.64-111.19c0.17-2.86,2.84-4.9,5.64-4.3l239.17,50.61c3.37,0.71,5.59,3.94,5.05,7.35
				l-12.74,80.32L690.84,666.31z"/>
			
				<linearGradient id="SVGID_00000129917308222139260660000008876304392921575060_" gradientUnits="userSpaceOnUse" x1="694.0587" y1="496.8078" x2="899.5278" y2="771.8983">
				<stop  offset="0" style="stop-color:#F5928F"/>
				<stop  offset="1" style="stop-color:#F37064"/>
			</linearGradient>
			<path style="fill:url(#SVGID_00000129917308222139260660000008876304392921575060_);" d="M673.52,692.59l15.06-120.43
				c0.75-6,6.41-10.13,12.35-9.01l245.25,46.29c4.97,0.94,8.24,5.73,7.31,10.7l-20.71,109.75c-0.98,5.18-5.83,8.69-11.06,7.99
				l-237.75-31.75C677.35,705.25,672.69,699.2,673.52,692.59z"/>
			
				<linearGradient id="SVGID_00000009564971797079533920000009167382728881980827_" gradientUnits="userSpaceOnUse" x1="694.0678" y1="496.8013" x2="899.5371" y2="771.892">
				<stop  offset="0" style="stop-color:#F5928F"/>
				<stop  offset="1" style="stop-color:#F37064"/>
			</linearGradient>
			<path style="fill:url(#SVGID_00000009564971797079533920000009167382728881980827_);" d="M787.23,579.44L787.23,579.44
				c-0.96,5.11-5.89,8.47-11,7.51l-54.68-10.32c-5.11-0.96-8.47-5.89-7.51-11l0,0c0.96-5.11,5.89-8.47,11-7.51l54.68,10.32
				C784.83,569.41,788.19,574.33,787.23,579.44z"/>
		</g>
		
			<linearGradient id="SVGID_00000119832920293687674090000009294473871472703121_" gradientUnits="userSpaceOnUse" x1="783.0916" y1="381.9043" x2="999.6625" y2="788.588">
			<stop  offset="0" style="stop-color:#5560AB"/>
			<stop  offset="1" style="stop-color:#4C57A6"/>
		</linearGradient>
		<path style="fill:url(#SVGID_00000119832920293687674090000009294473871472703121_);" d="M835.44,528.08l25.74-34.32
			c0,0,41.36,43.93,49.29,99.7l-25.8,12.58C876.66,587.25,861.93,561.81,835.44,528.08z"/>
		
			<linearGradient id="SVGID_00000092443452651766481300000003500578093435620754_" gradientUnits="userSpaceOnUse" x1="868.9346" y1="671.3828" x2="940.6791" y2="568.2236">
			<stop  offset="0" style="stop-color:#F9BABA"/>
			<stop  offset="1" style="stop-color:#F5928F"/>
		</linearGradient>
		<path style="fill:url(#SVGID_00000092443452651766481300000003500578093435620754_);" d="M872.32,682.69
			c3.05-5.1,9-14.81,11.9-17.84c0,0-2.65-1.67-7.72-1.05c-5.08,0.62-9.05-1.85-8.9-4.62l24.23-7.43c1.09-2.27,5.88-15.18-7.14-45.72
			l25.8-12.58c2.97,20.88,1.27,43.41-9.06,65.92c0,0-8.01,24.88-17.22,30.4C860.17,704.18,871.15,684.65,872.32,682.69z"/>
	</g>
	<g>
		<path class="st7" d="M256.26,359.84l-5.08,6.44l-0.02,0.02c-0.37,0.47-1.05,0.55-1.52,0.18c-0.47-0.37-0.55-1.05-0.18-1.52
			c0-0.01,0.01-0.01,0.02-0.02l5.27-6.36c0.35-0.42,0.97-0.48,1.38-0.13c0.41,0.34,0.47,0.95,0.14,1.37L256.26,359.84z"/>
		<path class="st7" d="M239.08,383.27l-8.62,13.75l-0.04,0.07c-0.44,0.7-1.35,0.91-2.05,0.47c-0.7-0.44-0.91-1.36-0.47-2.05
			c0-0.01,0.01-0.02,0.02-0.02l8.96-13.7c0.4-0.62,1.23-0.79,1.84-0.39c0.61,0.4,0.78,1.21,0.4,1.82L239.08,383.27z"/>
		<path class="st7" d="M220.45,415.31l-6.91,14.66l-0.04,0.09c-0.43,0.91-1.51,1.3-2.42,0.87c-0.91-0.43-1.3-1.51-0.87-2.42
			c0-0.01,0.01-0.02,0.01-0.03l7.25-14.7c0.41-0.83,1.41-1.17,2.24-0.76c0.82,0.4,1.16,1.39,0.77,2.21L220.45,415.31z"/>
		<path class="st7" d="M205.84,449.3l-5.02,15.38l-0.04,0.12c-0.37,1.13-1.58,1.75-2.71,1.38c-1.13-0.37-1.75-1.58-1.38-2.71
			c0-0.01,0.01-0.03,0.01-0.04l5.37-15.51c0.36-1.05,1.5-1.6,2.55-1.24c1.03,0.36,1.59,1.48,1.25,2.51L205.84,449.3z"/>
		<path class="st7" d="M195.66,484.82l-2.99,15.88l-0.03,0.14c-0.25,1.3-1.5,2.15-2.8,1.91c-1.3-0.25-2.15-1.5-1.91-2.8l0-0.03
			l3.22-16.12c0.25-1.25,1.46-2.06,2.71-1.81c1.24,0.25,2.05,1.45,1.81,2.69L195.66,484.82z"/>
		<path class="st7" d="M190.22,521.32l-0.79,16.12l-0.01,0.16c-0.07,1.43-1.29,2.54-2.72,2.47c-1.43-0.07-2.54-1.29-2.47-2.72
			l0-0.03l0.98-16.42c0.08-1.38,1.27-2.43,2.65-2.35c1.37,0.08,2.42,1.25,2.35,2.62L190.22,521.32z"/>
		<path class="st7" d="M189.84,558.18l1.43,16.07l0.02,0.17c0.14,1.54-1,2.9-2.54,3.03c-1.54,0.14-2.9-1-3.04-2.54l0-0.03
			l-1.28-16.42c-0.12-1.49,1-2.79,2.49-2.91c1.48-0.12,2.78,0.98,2.91,2.46L189.84,558.18z"/>
		<path class="st7" d="M194.53,594.73l3.61,15.71l0.04,0.17c0.37,1.61-0.64,3.22-2.25,3.6c-1.62,0.37-3.22-0.64-3.6-2.25l-0.01-0.03
			l-3.52-16.1c-0.34-1.57,0.65-3.12,2.22-3.46c1.56-0.34,3.1,0.64,3.46,2.19L194.53,594.73z"/>
		<path class="st7" d="M204.13,630.28l5.63,15.1l0.06,0.17c0.61,1.63-0.22,3.45-1.85,4.06c-1.63,0.61-3.45-0.22-4.06-1.85
			l-0.01-0.01l-5.68-15.47c-0.59-1.61,0.23-3.4,1.85-4c1.61-0.59,3.4,0.23,4,1.85L204.13,630.28z"/>
		<path class="st7" d="M218.25,664.29l7.53,14.25l0.08,0.16c0.83,1.57,0.23,3.52-1.34,4.35c-1.57,0.83-3.52,0.23-4.35-1.34
			l-0.01-0.01l-7.65-14.6c-0.82-1.56-0.22-3.49,1.35-4.31c1.56-0.82,3.49-0.21,4.31,1.35L218.25,664.29z"/>
		<path class="st7" d="M236.6,696.22l9.26,13.19l0.1,0.15c1.04,1.49,0.68,3.54-0.8,4.58c-1.49,1.04-3.54,0.68-4.58-0.8l-0.01-0.01
			l-9.42-13.52c-1.03-1.48-0.67-3.51,0.81-4.54c1.48-1.03,3.51-0.67,4.54,0.81L236.6,696.22z"/>
		<path class="st7" d="M258.8,725.59l10.84,11.93l0.13,0.14c1.25,1.37,1.14,3.49-0.23,4.74c-1.37,1.25-3.49,1.14-4.74-0.23
			l-0.01-0.01l-11.04-12.24c-1.23-1.36-1.12-3.47,0.24-4.7c1.36-1.23,3.47-1.12,4.7,0.24L258.8,725.59z"/>
		<path class="st7" d="M284.52,751.92l12.29,10.4l0.16,0.13c1.44,1.22,1.62,3.38,0.4,4.82s-3.38,1.62-4.82,0.4l-0.01-0.01
			l-12.56-10.71c-1.42-1.22-1.6-3.36-0.38-4.78c1.22-1.43,3.36-1.6,4.78-0.38L284.52,751.92z"/>
		<path class="st7" d="M313.48,774.52l6.81,4.25l3.4,2.12c1.14,0.7,2.25,1.45,3.42,2.09c1.69,0.93,2.3,3.05,1.37,4.74
			c-0.93,1.69-3.05,2.3-4.74,1.37l-0.01-0.01l-0.09-0.05c-1.21-0.67-2.35-1.45-3.52-2.17l-3.5-2.2l-7-4.4
			c-1.62-1.02-2.1-3.15-1.09-4.77c1.02-1.62,3.15-2.1,4.77-1.09L313.48,774.52z"/>
		<path class="st7" d="M345.48,792.37c4.86,2.22,9.8,4.28,14.81,6.17c1.81,0.68,2.73,2.71,2.05,4.52c-0.68,1.81-2.7,2.73-4.52,2.05
			c-5.16-1.93-10.26-4.03-15.28-6.33c-1.77-0.81-2.55-2.9-1.74-4.67C341.61,792.34,343.71,791.56,345.48,792.37L345.48,792.37z"/>
		<path class="st7" d="M379.91,804.98l15.6,3.87l0.21,0.05c1.86,0.46,2.99,2.34,2.53,4.19c-0.46,1.86-2.33,2.99-4.18,2.53
			l-16.04-3.94c-1.87-0.46-3.01-2.34-2.55-4.21c0.46-1.87,2.34-3.01,4.21-2.55l0.01,0L379.91,804.98z"/>
		<path class="st7" d="M415.89,812.41l16.01,1.7l0.19,0.02c1.87,0.2,3.23,1.88,3.03,3.75c-0.2,1.87-1.87,3.23-3.74,3.03l-16.41-1.69
			c-1.89-0.19-3.26-1.88-3.07-3.77c0.19-1.89,1.88-3.26,3.77-3.07l0.01,0L415.89,812.41z"/>
		<path class="st7" d="M452.6,815.03l16.12-0.26l0.17,0c1.8-0.03,3.29,1.41,3.32,3.21c0.03,1.8-1.4,3.28-3.19,3.32l-16.46,0.39
			c-1.84,0.04-3.36-1.41-3.41-3.25c-0.04-1.84,1.41-3.36,3.25-3.41l0.02,0L452.6,815.03z"/>
		<path class="st7" d="M489.41,813.24l16.02-2.08l0.15-0.02c1.71-0.22,3.28,0.99,3.5,2.7c0.22,1.7-0.98,3.26-2.67,3.5l-16.29,2.24
			c-1.74,0.24-3.35-0.98-3.59-2.72c-0.24-1.75,0.98-3.35,2.72-3.59l0.02,0L489.41,813.24z"/>
		<path class="st7" d="M525.88,807.48l15.75-3.67l0.12-0.03c1.53-0.36,3.07,0.6,3.42,2.13c0.35,1.52-0.58,3.04-2.09,3.41
			l-15.94,3.96c-1.59,0.4-3.2-0.57-3.6-2.17c-0.4-1.59,0.57-3.2,2.17-3.6c0.01,0,0.02,0,0.03-0.01L525.88,807.48z"/>
		<path class="st7" d="M561.63,798.11l15.34-5.17l0.1-0.03c1.35-0.45,2.81,0.27,3.26,1.62c0.45,1.34-0.26,2.78-1.58,3.25
			l-15.47,5.46c-1.41,0.5-2.95-0.24-3.44-1.64c-0.5-1.4,0.24-2.95,1.65-3.44c0.01,0,0.02-0.01,0.02-0.01L561.63,798.11z"/>
		<path class="st7" d="M596.39,785.4l14.83-6.53l0.08-0.04c1.16-0.51,2.52,0.02,3.04,1.18c0.51,1.15-0.01,2.5-1.15,3.02l-14.9,6.83
			c-1.22,0.56-2.65,0.02-3.21-1.19c-0.56-1.22-0.02-2.65,1.19-3.21c0.01,0,0.01-0.01,0.02-0.01L596.39,785.4z"/>
		<path class="st7" d="M629.95,769.7l14.28-7.72l0.06-0.03c0.92-0.49,2.06-0.15,2.55,0.76c0.49,0.9,0.16,2.02-0.72,2.53l-14.21,8.13
			c-1,0.57-2.27,0.22-2.84-0.77c-0.57-1-0.22-2.27,0.77-2.84c0.01-0.01,0.02-0.01,0.03-0.02L629.95,769.7z"/>
		<path class="st7" d="M662.17,751.32l13.62-8.86l0.04-0.03c0.67-0.43,1.55-0.24,1.99,0.42c0.43,0.65,0.25,1.53-0.39,1.97
			l-13.49,9.25c-0.74,0.51-1.76,0.32-2.27-0.42c-0.51-0.74-0.32-1.76,0.42-2.27c0.01-0.01,0.02-0.01,0.03-0.02L662.17,751.32z"/>
		<path class="st7" d="M692.93,730.39l6.58-4.93l0.01-0.01c0.43-0.33,1.05-0.24,1.38,0.2c0.32,0.43,0.24,1.03-0.17,1.36l-6.45,5.16
			c-0.48,0.39-1.18,0.31-1.57-0.17c-0.39-0.48-0.31-1.18,0.17-1.57c0.01-0.01,0.02-0.01,0.02-0.02L692.93,730.39z"/>
	</g>
</g>
</svg>
