<?xml version="1.0" encoding="utf-8"?>
<!-- Generator: Adobe Illustrator 27.5.0, SVG Export Plug-In . SVG Version: 6.00 Build 0)  -->
<svg version="1.1" id="Layer_1" xmlns="http://www.w3.org/2000/svg" xmlns:xlink="http://www.w3.org/1999/xlink" x="0px" y="0px"
	 viewBox="0 0 400 400" style="enable-background:new 0 0 400 400;" xml:space="preserve">
<style type="text/css">
	.st0{fill:#63B575;}
	.st1{fill:#BDD1EC;}
	.st2{fill:#92B2DE;}
	.st3{fill:none;stroke:#005E31;stroke-width:1.0165;stroke-miterlimit:10;}
	.st4{fill:#1F4285;}
	.st5{fill:none;stroke:#3368B2;stroke-width:1.0725;stroke-miterlimit:10;}
	.st6{opacity:0.2;fill:url(#SVGID_1_);}
	.st7{fill:#010101;}
	.st8{fill:url(#SVGID_00000138564081194605846620000012377731731863255472_);}
	.st9{fill:#F69793;}
	.st10{fill:#3368B2;}
	.st11{opacity:0.2;fill:url(#SVGID_00000052066380272417557110000004228583206561435828_);}
	.st12{opacity:0.2;fill:url(#SVGID_00000160191167576354468110000010432449006602646184_);}
	.st13{fill:#FFFFFF;}
	.st14{fill:none;stroke:#FFFFFF;stroke-width:0.5083;stroke-miterlimit:10;}
	.st15{opacity:0.2;fill:url(#SVGID_00000136389468119611214800000011092367181618396071_);}
	.st16{opacity:0.2;fill:url(#SVGID_00000050638440601716791380000000348832500022067590_);}
	.st17{fill:#F15F29;}
	.st18{fill:none;stroke:#FFFFFF;stroke-width:0.4308;stroke-miterlimit:10;}
	.st19{opacity:0.2;fill:url(#SVGID_00000130643624658589043310000000668885226472609438_);}
	.st20{fill:url(#SVGID_00000005240171536420123480000008054633117188012947_);}
	.st21{opacity:0.79;fill:#010101;}
	.st22{fill:none;stroke:#FFFFFF;stroke-width:0.8022;stroke-miterlimit:10;}
	.st23{fill:none;stroke:#3368B2;stroke-width:0.8022;stroke-miterlimit:10;}
	.st24{opacity:0.2;fill:url(#SVGID_00000042713594956558886820000004402977773190489505_);}
	.st25{fill:url(#SVGID_00000124138392951174945690000004385061881770249401_);}
</style>
<g>
	<path class="st0" d="M181.76,347.67c0,0,4.29-24.25-20.53-39.8c0.74,6.52-4.97,16.63-0.18,25.27
		C167.23,344.32,177.83,342.71,181.76,347.67z"/>
	<g>
		<path class="st1" d="M153.98,16.68c67.1-0.35,106.56,38.59,155.28,138.33c27.03,55.34,73.96,91.83,64.98,154.21
			c-6.89,47.83-43.33,80.68-144.84,66.49c-101.51-14.18-188.96-1.14-201.56-70.83c-12.99-71.84,29.42-116.96,27.22-177.28
			S86.87,17.04,153.98,16.68z"/>
		<path class="st2" d="M309.26,155.02C260.54,55.27,221.07,16.33,153.98,16.68c-44.44,0.23-74.35,22.35-88.86,54.78
			c33.47,62.87,115.54,164.29,299.4,175.65C350.55,216.54,326.07,189.42,309.26,155.02z"/>
	</g>
	<g>
		<path class="st0" d="M56.06,200.14c0,0-11.48,27.78-5,53.47c7.21,28.56,41.02,31.45,49.63,44.44
			c10.14-21.59,10.76-48.31-5.26-64.68C83.86,221.55,59.67,213.87,56.06,200.14z"/>
		<path class="st3" d="M58.52,214.32c3.07,29.38,44.78,48.51,42.17,83.73c-2.12,28.6,8.23,49.2,22.58,67.27"/>
		<path class="st0" d="M54.58,300.94c-1.26,13.46,0.89,28.75,16.15,33.59c9.91,3.14,35.3,0.83,35.3,0.83s-6.91-0.19-9.29-7.33
			c-2.38-7.15-5.27-15.18-13.11-19.24C75.79,304.73,59.96,308.65,54.58,300.94z"/>
		<path class="st0" d="M138.17,292.01c8.23,10.72,14.55,24.82,4.2,37.03c-6.72,7.93-29.45,19.49-29.45,19.49s5.75-3.84,3.96-11.16
			c-1.79-7.32-3.62-15.66,0.86-23.26C122.22,306.5,137.72,301.39,138.17,292.01z"/>
	</g>
	<g>
		<path class="st0" d="M220.64,242.06c0,0-7.71,14.05-25.37,23.39c-17.66,9.34-19,34.72-4.54,62.31
			c33.22,0.74,45.22-21.06,45.36-42.84C236.25,258.61,220.64,242.06,220.64,242.06z"/>
		<path class="st3" d="M220.64,242.06c0,0,4.8,18.23-9.56,45.62c-14.37,27.39-26.97,37.04-30.22,82.78"/>
		<path class="st0" d="M184.1,361.3c0,0,8.06-23.27,37.32-24.76c-3.82,5.33-3.76,16.94-12.15,22.16
			C198.42,365.45,189.94,358.87,184.1,361.3z"/>
	</g>
	<g>
		<path class="st4" d="M318.24,241.78l-41.99-26.95l-43.69,24.2L213.8,373.74c5.16,0.6,10.36,1.25,15.6,1.98
			c9.47,1.32,18.38,2.24,26.74,2.77l20.1-110.3l23.39,109.15c16.24-2.25,29.33-6.69,39.78-12.84L318.24,241.78z"/>
		<line class="st5" x1="236.09" y1="251.67" x2="219.21" y2="373.79"/>
		<line class="st5" x1="310.67" y1="249.1" x2="332.73" y2="368.01"/>
		<linearGradient id="SVGID_1_" gradientUnits="userSpaceOnUse" x1="275.7661" y1="217.4505" x2="275.7661" y2="286.9666">
			<stop  offset="0.129" style="stop-color:#010101"/>
			<stop  offset="1" style="stop-color:#FFFFFF"/>
		</linearGradient>
		<path class="st6" d="M323.28,270.99l-5.04-29.21l-41.99-26.95l-43.69,24.2l-4.3,30.89c31.92,0.78,43.34-24.7,43.34-24.7
			C284.22,274.86,309.97,273.83,323.28,270.99z"/>
		<g>
			<path class="st7" d="M241.48,77.22l-3.87-7.62c0,0-6.1-2.34-8.11-5.54c-5.35-8.51,6.3-23.2,21.37-23.71
				c14.64-0.49,16.56,5.82,16.56,5.82s7.54,0.01,8.66,7.58c1.12,7.57-2.15,17.81-2.15,17.81L241.48,77.22z"/>
			
				<linearGradient id="SVGID_00000028307720907856368350000014977647058640907426_" gradientUnits="userSpaceOnUse" x1="262.9265" y1="104.4926" x2="262.6506" y2="90.6999">
				<stop  offset="0.194" style="stop-color:#F69793"/>
				<stop  offset="1" style="stop-color:#F37A73"/>
			</linearGradient>
			<polygon style="fill:url(#SVGID_00000028307720907856368350000014977647058640907426_);" points="274.99,106.1 255.06,106.1 
				250.52,85.76 269.5,81.52 			"/>
			<path class="st9" d="M275.53,65.57c-1.79,0.15-2.98,1.23-3.71,2.23c-0.27-1.57-0.6-3.2-1.04-4.94c0,0-15.74,2.96-21.72-6.42
				c-1.1,8.18-7.36,12.91-7.36,12.91c0.35,1.86,0.77,3.56,1.22,5.16c-1.09-0.67-2.77-1.33-4.64-0.63
				c-3.22,1.19,3.12,13.24,7.81,8.66c0,0,0,0,0,0c3.99,7.23,10.03,11.66,16.11,10.31c6.05-1.35,9.62-7.89,10.19-16.07
				C278.34,78.47,278.91,65.29,275.53,65.57z"/>
		</g>
		<path class="st10" d="M232.85,108.81l-36.93,54.62l-34.94-25.38l-9.93,14.9l40.77,35.01c5.4,4.64,13.6,3.73,17.86-1.97
			l32.21-43.15L232.85,108.81z"/>
		
			<linearGradient id="SVGID_00000001640182168343204320000008317596204638556298_" gradientUnits="userSpaceOnUse" x1="239.7707" y1="127.1247" x2="199.8638" y2="163.3535">
			<stop  offset="0.129" style="stop-color:#010101"/>
			<stop  offset="1" style="stop-color:#FFFFFF"/>
		</linearGradient>
		<polygon style="opacity:0.2;fill:url(#SVGID_00000001640182168343204320000008317596204638556298_);" points="213.02,138.14 
			225.77,164.43 241.89,142.83 232.85,108.81 		"/>
		
			<linearGradient id="SVGID_00000098206962230492683040000002915408960405805198_" gradientUnits="userSpaceOnUse" x1="139.7836" y1="136.6254" x2="139.7836" y2="157.0067">
			<stop  offset="0.129" style="stop-color:#010101"/>
			<stop  offset="1" style="stop-color:#FFFFFF"/>
		</linearGradient>
		<path style="opacity:0.2;fill:url(#SVGID_00000098206962230492683040000002915408960405805198_);" d="M164.49,146.75
			c-0.52-0.17-13.44-10.23-13.44-10.23s-10.14-11.61-15.16-13.69l5.2,9.53l-26,3.64l1.86,5.02c1.28,3.44,4.56,5.72,8.23,5.72h19.9
			l12.48,10.57L164.49,146.75z"/>
		<path class="st4" d="M234.79,107.78c5.6-1.46,16.85-3.96,29.47-4.07c1.89-0.02,3.78-0.05,5.67-0.15
			c13.18-0.74,25.4-0.69,32.31-0.56c3.32,0.06,6.05,2.64,6.3,5.96l7.65,101.55l7.59,45.58c0,0-40.75,11.88-51.51-25.09
			c0,0-11.53,30.69-44.36,25.65l5.38-45.29l-2.17-98.71C231.08,110.37,232.58,108.36,234.79,107.78z"/>
		<path class="st13" d="M279.24,195.47c0,1.49-1.21,2.7-2.7,2.7c-1.49,0-2.7-1.21-2.7-2.7c0-1.49,1.21-2.7,2.7-2.7
			C278.03,192.77,279.24,193.98,279.24,195.47z"/>
		<path class="st13" d="M280.24,214.16c0,1.49-1.21,2.7-2.7,2.7c-1.49,0-2.7-1.21-2.7-2.7c0-1.49,1.21-2.7,2.7-2.7
			C279.03,211.45,280.24,212.66,280.24,214.16z"/>
		<polyline class="st14" points="272.51,226.55 270.59,177.13 286.25,134.21 277.37,127.88 290.26,114.1 276.84,104.03 		"/>
		
			<linearGradient id="SVGID_00000060018579977442531530000009463689560383382422_" gradientUnits="userSpaceOnUse" x1="232.5294" y1="189.2401" x2="316.3479" y2="189.2401">
			<stop  offset="0.129" style="stop-color:#010101"/>
			<stop  offset="1" style="stop-color:#FFFFFF"/>
		</linearGradient>
		<path style="opacity:0.2;fill:url(#SVGID_00000060018579977442531530000009463689560383382422_);" d="M316.35,211.45l-0.16-0.94
			l-2.21-29.26l-57.47-14.22l-23.98,9.33c0,0,2.67,4.41,8.15,5.92c5.48,1.52,16.1-0.62,16.1-0.62l4.28,1.27l-0.69,2.25
			C260.37,185.18,297.01,209.87,316.35,211.45z"/>
		<path class="st13" d="M164.49,143.9c-0.52-0.17-13.44-10.23-13.44-10.23s-10.14-11.61-15.16-13.69l5.2,9.53l-26,3.64l1.86,5.02
			c1.28,3.44,4.56,5.72,8.23,5.72h19.9l12.48,10.57L164.49,143.9z"/>
		<polygon class="st10" points="254.51,104.25 270.59,177.13 275.31,103.03 		"/>
		<polyline class="st14" points="270.59,177.13 246.72,135.54 253.58,127.88 240.68,115.57 253.75,105.11 		"/>
		<path class="st9" d="M278.17,169.87c-0.54-0.06-15.27-7.22-15.27-7.22s-12.32-9.26-17.67-10.26l7.06,8.25l-24.68,8.95l2.86,4.53
			c1.96,3.1,5.65,4.66,9.24,3.9l19.47-4.12l14.4,7.76L278.17,169.87z"/>
		<path class="st10" d="M304.42,102.93c15.26,0,34.94,63.82,26.11,86.44c-8.83,22.62-67.91-11.13-67.91-11.13l6.4-15.17l41.29,11.22
			C310.31,174.28,282.72,102.93,304.42,102.93z"/>
	</g>
	<g>
		
			<linearGradient id="SVGID_00000072243328748843065650000014052359896146523275_" gradientUnits="userSpaceOnUse" x1="117.4204" y1="134.1087" x2="226.3872" y2="134.1087">
			<stop  offset="0.129" style="stop-color:#010101"/>
			<stop  offset="1" style="stop-color:#FFFFFF"/>
		</linearGradient>
		<path style="opacity:0.2;fill:url(#SVGID_00000072243328748843065650000014052359896146523275_);" d="M183.12,120.94h-2.11V98.4
			c0-25.74-20.94-46.68-46.68-46.68S87.64,72.66,87.64,98.4v22.54h-2.11c-2.27,0-4.11,1.84-4.11,4.11v79.7
			c0,6.5,5.27,11.76,11.76,11.76h82.27c6.5,0,11.76-5.27,11.76-11.76v-79.7C187.22,122.78,185.39,120.94,183.12,120.94z
			 M102.56,98.4c0-17.52,14.25-31.77,31.77-31.77c17.52,0,31.77,14.25,31.77,31.77v22.54h-63.53V98.4z"/>
		<g>
			<g>
				<path class="st17" d="M174.41,134.11H81.04V93.98c0-25.74,20.94-46.68,46.68-46.68c25.74,0,46.68,20.94,46.68,46.68V134.11z
					 M95.96,119.19h63.53V93.98c0-17.52-14.25-31.77-31.77-31.77c-17.52,0-31.77,14.25-31.77,31.77V119.19z"/>
				<path class="st18" d="M86.65,128.5V93.98c0-22.65,18.43-41.07,41.07-41.07c22.65,0,41.07,18.42,41.07,41.07v34.52H86.65z"/>
			</g>
			
				<linearGradient id="SVGID_00000147913989005579775890000015575507590047432360_" gradientUnits="userSpaceOnUse" x1="127.7218" y1="130.639" x2="127.7218" y2="77.0101">
				<stop  offset="0.129" style="stop-color:#010101"/>
				<stop  offset="1" style="stop-color:#FFFFFF"/>
			</linearGradient>
			<polygon style="opacity:0.2;fill:url(#SVGID_00000147913989005579775890000015575507590047432360_);" points="159.49,97.17 
				159.49,119.19 95.96,119.19 95.96,97.17 81.04,97.17 81.04,134.11 174.41,134.11 174.41,97.17 			"/>
			<g>
				
					<radialGradient id="SVGID_00000175287573429664359670000015076856900827392897_" cx="127.7218" cy="164.2978" r="50.4035" gradientUnits="userSpaceOnUse">
					<stop  offset="0" style="stop-color:#FFD061"/>
					<stop  offset="0.4195" style="stop-color:#FFC746"/>
					<stop  offset="1" style="stop-color:#FDB814"/>
				</radialGradient>
				<path style="fill:url(#SVGID_00000175287573429664359670000015076856900827392897_);" d="M175.2,212.08H80.24
					c-2.99,0-5.42-2.43-5.42-5.42v-88.25c0-1.04,0.85-1.89,1.89-1.89h102.01c1.04,0,1.89,0.85,1.89,1.89v88.25
					C180.62,209.65,178.19,212.08,175.2,212.08z"/>
				<g>
					<path class="st21" d="M138.63,152.4c0-6.74-6.12-12.06-13.1-10.7c-4.34,0.84-7.8,4.4-8.55,8.75c-0.7,4.07,0.85,7.81,3.62,10.2
						c0.77,0.67,1.12,1.69,0.86,2.68l-3.88,14.82c-0.39,1.49,0.74,2.95,2.28,2.95h7.86h7.96c1.49,0,2.58-1.41,2.2-2.85l-3.9-14.92
						c-0.25-0.97,0.07-2,0.84-2.66C137.15,158.67,138.63,155.71,138.63,152.4z"/>
					<path class="st7" d="M134.33,152.4c0-5.29-3.76-9.7-8.76-10.7c-4.99,1-8.76,5.41-8.76,10.7c0,3.31,1.48,6.27,3.81,8.27
						c0.76,0.66,1.09,1.68,0.84,2.65l-3.9,14.92c-0.38,1.44,0.71,2.85,2.2,2.85h3.66h4.3h4.43c1.1,0,1.91-1.04,1.63-2.11
						l-4.08-15.61c-0.26-1.01,0.08-2.06,0.87-2.74C132.87,158.64,134.33,155.69,134.33,152.4z"/>
				</g>
			</g>
		</g>
	</g>
	<g>
		<line class="st22" x1="200.36" y1="52.94" x2="200.36" y2="58.66"/>
		<line class="st22" x1="200.36" y1="64.22" x2="200.36" y2="69.95"/>
		<line class="st22" x1="208.87" y1="61.44" x2="203.14" y2="61.44"/>
		<line class="st22" x1="197.58" y1="61.44" x2="191.86" y2="61.44"/>
	</g>
	<g>
		<line class="st22" x1="351.01" y1="276.4" x2="351.01" y2="282.12"/>
		<line class="st22" x1="351.01" y1="287.68" x2="351.01" y2="293.41"/>
		<line class="st22" x1="359.51" y1="284.9" x2="353.79" y2="284.9"/>
		<line class="st22" x1="348.23" y1="284.9" x2="342.5" y2="284.9"/>
	</g>
	<g>
		<line class="st22" x1="40.57" y1="276.4" x2="40.57" y2="282.12"/>
		<line class="st22" x1="40.57" y1="287.68" x2="40.57" y2="293.41"/>
		<line class="st22" x1="49.08" y1="284.9" x2="43.35" y2="284.9"/>
		<line class="st22" x1="37.79" y1="284.9" x2="32.07" y2="284.9"/>
	</g>
	<g>
		<line class="st23" x1="221.21" y1="84.89" x2="221.21" y2="90.62"/>
		<line class="st23" x1="221.21" y1="96.17" x2="221.21" y2="101.9"/>
		<line class="st23" x1="229.72" y1="93.4" x2="223.99" y2="93.4"/>
		<line class="st23" x1="218.43" y1="93.4" x2="212.71" y2="93.4"/>
	</g>
	<g>
		
			<linearGradient id="SVGID_00000011027013102571831680000011218251362261552290_" gradientUnits="userSpaceOnUse" x1="137.0817" y1="264.8279" x2="205.8278" y2="264.8279">
			<stop  offset="0.129" style="stop-color:#010101"/>
			<stop  offset="0.6638" style="stop-color:#9F9E9E"/>
		</linearGradient>
		<path style="opacity:0.2;fill:url(#SVGID_00000011027013102571831680000011218251362261552290_);" d="M189.6,238.36h-62.89
			c-1.62,0-2.93,1.31-2.93,2.93v5.09v31.34v8.19c0,2.98,2.41,5.39,5.39,5.39h57.97c2.98,0,5.39-2.41,5.39-5.39v-8.19v-20.9v-15.53
			C192.53,239.67,191.22,238.36,189.6,238.36z"/>
		<g>
			
				<linearGradient id="SVGID_00000149383147602931901910000014409532522740881049_" gradientUnits="userSpaceOnUse" x1="152.3294" y1="228.735" x2="152.3294" y2="252.3575">
				<stop  offset="0" style="stop-color:#FFFFFF"/>
				<stop  offset="1" style="stop-color:#BDD1EC"/>
			</linearGradient>
			<path style="fill:url(#SVGID_00000149383147602931901910000014409532522740881049_);" d="M185.35,274.69H119.3
				c-0.74,0-1.35-0.6-1.35-1.35v-39.59c0-0.74,0.6-1.35,1.35-1.35h66.05c0.74,0,1.35,0.6,1.35,1.35v39.59
				C186.7,274.08,186.1,274.69,185.35,274.69z"/>
			<path class="st13" d="M146.18,245.95l-1.73-3.78c-0.49-1.07-1.56-1.75-2.73-1.75h-23.76v39.54c0,2.98,2.41,5.39,5.39,5.39h57.97
				c2.98,0,5.39-2.41,5.39-5.39v-29.1c0-1.6-1.3-2.9-2.9-2.9h-34.5C147.96,247.95,146.74,247.17,146.18,245.95z"/>
		</g>
	</g>
</g>
</svg>
