<?xml version="1.0" encoding="utf-8"?>
<!-- Generator: Adobe Illustrator 27.5.0, SVG Export Plug-In . SVG Version: 6.00 Build 0)  -->
<svg version="1.1" id="Layer_1" xmlns="http://www.w3.org/2000/svg" xmlns:xlink="http://www.w3.org/1999/xlink" x="0px" y="0px"
	 viewBox="0 0 1000 1000" style="enable-background:new 0 0 1000 1000;" xml:space="preserve">
<style type="text/css">
	.st0{fill:url(#SVGID_1_);}
	.st1{fill:#C0CFEB;}
	.st2{opacity:0.43;fill:#FFFFFF;}
	.st3{fill:#98B1DC;}
	.st4{fill:url(#SVGID_00000057858975563103398560000001771397942374642877_);}
	.st5{opacity:0.5;fill:#FFFFFF;}
	.st6{fill:#FFFFFF;}
	.st7{fill:url(#SVGID_00000133516429956247050510000000901124241922320512_);}
	.st8{fill:url(#SVGID_00000120533423953928967860000006439238219828626590_);}
	.st9{fill:url(#SVGID_00000116921932548052253460000007152078555779301809_);}
	.st10{fill:url(#SVGID_00000045586997750945306670000005464461580907710366_);}
	.st11{fill:url(#SVGID_00000133507433228575153260000015494687881734282169_);}
	.st12{fill:url(#SVGID_00000039844508433220859120000012540823183121379735_);}
	.st13{fill:url(#SVGID_00000098182053069183310860000017710339052988139931_);}
	.st14{fill:url(#SVGID_00000080898652441099960610000005682751784909371556_);}
	.st15{fill:url(#SVGID_00000013915369751133197370000003565552555539358871_);}
	.st16{fill:url(#SVGID_00000039845908269071803140000011715690998677077908_);}
	.st17{fill:url(#SVGID_00000080891564941979991910000000615195168213136316_);}
	.st18{fill:url(#SVGID_00000175316630290027565470000001593926530459816626_);}
	.st19{fill:url(#SVGID_00000103946703336830725660000013774815317125793976_);}
	.st20{fill:url(#SVGID_00000072970203845636617310000015320882067390292920_);}
	.st21{fill:url(#SVGID_00000091734459984258117980000017881127346980125850_);}
	.st22{fill:url(#SVGID_00000008139152116607313530000012668726621658828716_);}
	.st23{fill:url(#SVGID_00000101084010135714368280000006611815894229580953_);}
	.st24{fill:url(#SVGID_00000104708226998942825020000006271471640324036796_);}
	.st25{fill:url(#SVGID_00000140007950767091693830000011177795586140964491_);}
	.st26{fill:url(#SVGID_00000082352409899801977730000001812281175002037640_);}
	.st27{fill:url(#SVGID_00000065068149017115539410000007478308750693880712_);}
	.st28{fill:url(#SVGID_00000066498906755743504650000000250154861873595557_);}
	.st29{fill:url(#SVGID_00000136385377257659253030000008642429905167487133_);}
	.st30{fill:url(#SVGID_00000109737736243136362330000015831312804343626116_);}
	.st31{fill:url(#SVGID_00000034075412532073668180000012025072284012492181_);}
	.st32{fill:url(#SVGID_00000097487730306680572100000018109795960691682990_);}
	.st33{fill:url(#SVGID_00000008843603230882056070000011781674887454484926_);}
	.st34{fill:url(#SVGID_00000112608152590080993090000003804402429116007580_);}
	.st35{fill:url(#SVGID_00000036968864232240461540000017175894996564792714_);}
	.st36{fill:url(#SVGID_00000044860734958106092020000008186943919725009313_);}
	.st37{fill:url(#SVGID_00000027595362277939569170000013702493818270942088_);}
	.st38{fill:url(#SVGID_00000124843831561997565110000017043781025592672924_);}
	.st39{fill:url(#SVGID_00000038389993950395639950000014002777997984251281_);}
	.st40{fill:url(#SVGID_00000014601108373470618920000018265905700234262692_);}
	.st41{fill:url(#SVGID_00000056393541889358772440000013407207521503509402_);}
	.st42{fill:url(#SVGID_00000142891582984237204340000013301053671014586515_);}
</style>
<g>
	<linearGradient id="SVGID_1_" gradientUnits="userSpaceOnUse" x1="1009.9432" y1="1132.3606" x2="297.8326" y2="247.9639">
		<stop  offset="0" style="stop-color:#DBE2F3"/>
		<stop  offset="1" style="stop-color:#EAEFF8"/>
	</linearGradient>
	<path class="st0" d="M814.04,783.59c-16.36,17.22-31.83,28.32-44.06,37.1c-143.74,103.13-313.81,73.07-349.96,65.73
		c-53.38-10.84-156.55-31.8-231.15-119.52c-112.86-132.72-95.28-341.81-7.74-479.83c16.01-25.25,100.59-165.37,272.5-187.84
		c104.04-13.6,225.31,13.83,313.14,87.41C951.11,341.08,937.99,653.09,814.04,783.59z"/>
	<g>
		<g>
			<path class="st1" d="M909.78,399.71c-0.03-4.69-6.34-6.22-8.5-2.06c-20.89,40.21-78.99,143.94-145.03,191.63
				C648.72,666.93,557.98,810.54,597.21,902.9C597.21,902.9,913.14,910.41,909.78,399.71z"/>
			<path class="st2" d="M888.63,458.89c-0.4,1.37-0.84,2.48-1.26,3.68l-1.32,3.53l-2.71,7.02c-1.84,4.66-3.74,9.3-5.65,13.93
				c-3.85,9.25-7.81,18.46-11.85,27.63c-8.12,18.32-16.74,36.42-25.63,54.39c-8.87,17.98-18.23,35.72-27.97,53.24
				c-9.76,17.52-19.76,34.91-30.34,51.95c-21.08,34.13-44.03,67.15-69.22,98.42c-12.76,15.5-25.93,30.67-39.95,45.04
				c-14.12,14.27-28.86,27.94-44.52,40.48c-0.34,0.27-0.84,0.22-1.11-0.12c-0.27-0.33-0.22-0.81,0.1-1.09l0.01-0.01
				c15.11-13.09,29.49-26.97,43.16-41.52c13.71-14.52,26.57-29.82,39-45.44c12.43-15.63,24.23-31.75,35.66-48.13
				c11.43-16.39,22.17-33.24,32.81-50.15c21.15-33.92,40.48-68.95,58.83-104.47c9.14-17.79,17.92-35.76,26.38-53.88
				c4.24-9.05,8.4-18.15,12.45-27.29l5.96-13.76l2.91-6.91l1.42-3.47c0.45-1.14,0.94-2.36,1.29-3.38l0.06-0.17
				c0.14-0.41,0.59-0.63,0.99-0.49C888.53,458.07,888.75,458.49,888.63,458.89z"/>
		</g>
		<g>
			<path class="st3" d="M782.62,201.32c-1.31-4.29-7.51-3.98-8.36,0.43c-8.19,42.58-33.17,153.54-80.72,215.3
				c-77.42,100.55-121.46,257-60.29,331C633.26,748.05,925.03,668.74,782.62,201.32z"/>
			<path class="st2" d="M779.39,261.36c0.01,1.37-0.09,2.5-0.15,3.72l-0.24,3.59l-0.57,7.17c-0.41,4.78-0.89,9.55-1.38,14.32
				c-1,9.54-2.12,19.06-3.33,28.57c-2.45,19.02-5.41,37.97-8.66,56.88c-3.22,18.91-6.97,37.73-11.12,56.46
				c-4.17,18.73-8.6,37.4-13.64,55.92c-10.02,37.05-22.06,73.59-36.64,109.14c-7.48,17.69-15.42,35.2-24.36,52.2
				c-9.06,16.94-18.85,33.5-29.8,49.27c-0.24,0.35-0.72,0.44-1.07,0.19c-0.34-0.24-0.43-0.7-0.21-1.04l0.01-0.01
				c10.28-16.13,19.68-32.78,28.24-49.86c8.61-17.06,16.22-34.6,23.37-52.31c7.14-17.72,13.56-35.73,19.57-53.86
				c6.01-18.14,11.26-36.53,16.41-54.94c10.14-36.87,18.31-74.27,25.45-111.85c3.53-18.8,6.68-37.68,9.5-56.6
				c1.42-9.46,2.76-18.94,3.98-28.43l1.72-14.25l0.79-7.13l0.35-3.57c0.1-1.17,0.22-2.43,0.26-3.45l0.01-0.17
				c0.02-0.42,0.37-0.75,0.79-0.73C779.07,260.62,779.39,260.96,779.39,261.36z"/>
		</g>
	</g>
	<g>
		
			<linearGradient id="SVGID_00000008842011631848071830000008868977747660670623_" gradientUnits="userSpaceOnUse" x1="258.6942" y1="555.1139" x2="724.9689" y2="555.1139">
			<stop  offset="0" style="stop-color:#201B59"/>
			<stop  offset="1" style="stop-color:#2D2D84"/>
		</linearGradient>
		<path style="fill:url(#SVGID_00000008842011631848071830000008868977747660670623_);" d="M267.24,242.47
			c-2.75,110.93-11.67,493.59-7.41,629.19c0.45,14.37,11.97,25.9,26.33,26.37c71.05,2.33,275.44,8.22,391.66,3.34
			c24.21-1.02,43.45-20.62,43.96-44.84c2.41-116.44,7.74-443.94-4.92-593.97c-1.52-17.98-15.63-32.29-33.58-34.09
			c-77.38-7.74-282.89-26.66-383.29-20.15C281.88,209.5,267.69,224.33,267.24,242.47z"/>
		<path class="st3" d="M296.11,276.94c-3.88,90.85-16.12,393.11-12.24,504.87c0.57,16.34,13.44,29.55,29.76,30.5
			c67.19,3.93,239.52,12.6,338.06,4.71c17.75-1.42,31.67-15.77,32.63-33.55c4.99-92.69,19.33-374.13,15.61-484.64
			c-0.59-17.63-14.25-32.03-31.82-33.61c-72.69-6.53-259.37-22.05-343.11-17.48C309.28,248.6,296.78,261.21,296.11,276.94z"/>
		<path class="st5" d="M442.83,227.71L442.83,227.71c0,3.4,2.65,6.21,6.05,6.39c16.78,0.88,64.06,3.37,85.18,4.59
			c4.17,0.24,7.44-3.5,6.65-7.6l-0.13-0.7c-0.54-2.8-2.86-4.9-5.69-5.16c-14.28-1.31-57.37-4.94-85.93-3.92
			C445.53,221.43,442.83,224.27,442.83,227.71z"/>
	</g>
	<path class="st6" d="M630.81,604.55l-285.66-5.48c-9.31-0.18-16.33,10.67-15.56,24.1c0.76,13.3,10.47,17.31,19.6,17.17l279.45,2.24
		c5.72-0.09,10.83-8.5,11.46-18.86C640.74,613.27,636.6,604.66,630.81,604.55z"/>
	<path class="st6" d="M631.58,692.16l-285.66-5.48c-9.31-0.18-16.33,10.67-15.56,24.1c0.76,13.3,10.47,17.31,19.6,17.17l279.45,2.24
		c5.72-0.09,10.83-8.5,11.46-18.86C641.51,700.89,637.38,692.28,631.58,692.16z"/>
	
		<linearGradient id="SVGID_00000029745997748099583100000010273988033462676870_" gradientUnits="userSpaceOnUse" x1="434.2096" y1="186.9868" x2="431.597" y2="440.3875">
		<stop  offset="0" style="stop-color:#E1483D"/>
		<stop  offset="1" style="stop-color:#E9625A"/>
	</linearGradient>
	<path style="fill:url(#SVGID_00000029745997748099583100000010273988033462676870_);" d="M508.93,616.53l-155.02-1.61
		c-5.05-0.05-8.85,2.86-8.43,6.47c0.42,3.57,5.69,4.65,10.65,4.62l151.65,0.74c3.11-0.02,5.87-2.28,6.21-5.06
		C514.33,618.88,512.08,616.56,508.93,616.53z"/>
	<g>
		
			<linearGradient id="SVGID_00000107561585225695204950000009907498514341257652_" gradientUnits="userSpaceOnUse" x1="164.4679" y1="640.2033" x2="260.6165" y2="554.6311">
			<stop  offset="0" style="stop-color:#5560AB"/>
			<stop  offset="1" style="stop-color:#4C57A6"/>
		</linearGradient>
		<path style="fill:url(#SVGID_00000107561585225695204950000009907498514341257652_);" d="M253.11,521.5c0,0-8.4,4.08-9.94,8.77
			c-1.24,3.76-10.52,4.25-11.44,11.65c-0.47,3.82-3.3,6.88-7.11,7.47c-9.48,1.45-24.09,6.38-26.43,22.84
			c-1.78,12.56,4.62,17.33,11.34,18.98c4.94,1.21,8.22,6.01,7.22,11c-0.96,4.78,0.47,10.31,8.75,14.68
			c18.56,9.79,37.1-23.2,37.1-23.2l3.8-57.61L253.11,521.5z"/>
		
			<linearGradient id="SVGID_00000127004472809851561960000010655841978270648748_" gradientUnits="userSpaceOnUse" x1="282.4739" y1="594.5068" x2="377.6711" y2="470.8666">
			<stop  offset="0" style="stop-color:#F9BABA"/>
			<stop  offset="1" style="stop-color:#F5928F"/>
		</linearGradient>
		<path style="fill:url(#SVGID_00000127004472809851561960000010655841978270648748_);" d="M354.11,507.84
			c0,0-37.06,58.62-81.13,69.94c0,0,8.59,24.46,15.21,27.26c0,0,54.22-45.24,68.15-88.87L354.11,507.84z"/>
		
			<linearGradient id="SVGID_00000181074381291122748160000002568807504061962908_" gradientUnits="userSpaceOnUse" x1="-4052.2773" y1="887.8315" x2="-4031.1604" y2="887.8315" gradientTransform="matrix(-1 0 0 1 -3875.4333 0)">
			<stop  offset="0" style="stop-color:#5560AB"/>
			<stop  offset="1" style="stop-color:#4C57A6"/>
		</linearGradient>
		<path style="fill:url(#SVGID_00000181074381291122748160000002568807504061962908_);" d="M176.82,882.77l-1.2,9.87
			c-0.23,1.87-1.7,3.35-3.58,3.57c-3.17,0.36-8.24,0.73-13.21,0.21c-2.18-0.23-3.6-2.44-2.93-4.53c1.21-3.81,3.43-9.53,6.62-12.9
			h10.95C175.49,878.99,177.06,880.76,176.82,882.77z"/>
		
			<linearGradient id="SVGID_00000174575827846496501110000012848950991510831756_" gradientUnits="userSpaceOnUse" x1="-4141.5068" y1="971.1046" x2="-4111.1182" y2="615.9374" gradientTransform="matrix(-1 0 0 1 -3875.4333 0)">
			<stop  offset="0" style="stop-color:#F9BABA"/>
			<stop  offset="1" style="stop-color:#F5928F"/>
		</linearGradient>
		<path style="fill:url(#SVGID_00000174575827846496501110000012848950991510831756_);" d="M262.61,767.1l1.85,10.88
			c0,0-6.19,62.71-7.29,87.8c-0.17,3.93,0.84,7.82,2.91,11.17l10.77,17.48l-27.36-16.14l-0.54-3.34l4.48-6.16l-5.87-70.25
			c-0.34-4.13,0.51-8.27,2.45-11.92l5.66-10.63L262.61,767.1z"/>
		
			<linearGradient id="SVGID_00000001629304536288422170000005492096042388150949_" gradientUnits="userSpaceOnUse" x1="-4150.3843" y1="883.9761" x2="-4116.2153" y2="883.9761" gradientTransform="matrix(-1 0 0 1 -3875.4333 0)">
			<stop  offset="0" style="stop-color:#5560AB"/>
			<stop  offset="1" style="stop-color:#4C57A6"/>
		</linearGradient>
		<path style="fill:url(#SVGID_00000001629304536288422170000005492096042388150949_);" d="M272.64,896.96h-8.73
			c-1.63,0-3.18-0.75-4.17-2.05c-2.72-3.54-8.36-10.44-11.06-10.62c-3.63-0.24-3.17,12.66-3.17,12.66h-2.03l-2.58-16.04
			c-0.65-4.03,1.36-8.03,4.98-9.92l0,0c0,0,0.83,6.14,5.33,8.85c4.5,2.71,18.31,12.44,18.31,12.44s1.69-0.24,3.55,0.09
			C275.83,892.88,275.44,896.96,272.64,896.96z"/>
		
			<linearGradient id="SVGID_00000043422619531590785250000001973306244111321498_" gradientUnits="userSpaceOnUse" x1="-4080.3782" y1="976.3893" x2="-4049.9814" y2="621.1287" gradientTransform="matrix(-1 0 0 1 -3875.4333 0)">
			<stop  offset="0" style="stop-color:#F9BABA"/>
			<stop  offset="1" style="stop-color:#F5928F"/>
		</linearGradient>
		<path style="fill:url(#SVGID_00000043422619531590785250000001973306244111321498_);" d="M225.14,772.26
			c0,0-36.27,68.8-42.04,84.51c-5.77,15.71-7.79,28.81-7.86,30.05c-0.12,1.94-2.53,3.8-9.18,3.8c-3.43,0-5.11-1.38-5.93-2.71
			c-0.7-1.14-0.74-2.56-0.15-3.75c2.1-4.25,8.76-17.81,11.22-23.97c2.94-7.35,9.28-40.65,12.75-52.23
			c3.47-11.58,7.4-24.14,22.52-35.71C206.47,772.26,216.86,762.09,225.14,772.26z"/>
		
			<linearGradient id="SVGID_00000049197660424412548340000012826127370105368460_" gradientUnits="userSpaceOnUse" x1="162.1461" y1="845.7065" x2="258.804" y2="626.2665">
			<stop  offset="0" style="stop-color:#E1483D"/>
			<stop  offset="1" style="stop-color:#E9625A"/>
		</linearGradient>
		<path style="fill:url(#SVGID_00000049197660424412548340000012826127370105368460_);" d="M248.05,659.53
			c9.36-39.64-14.35-62.07-14.35-62.07c14.96-14.36,42.2-20.89,42.2-20.89s26,19.01,22.92,33.89c-1.81,8.72-18.28,52.23-18.28,52.23
			S265.32,669.9,248.05,659.53z"/>
		
			<linearGradient id="SVGID_00000058580141243650821130000005760580141815969412_" gradientUnits="userSpaceOnUse" x1="-4057.0544" y1="619.8611" x2="-4133.0303" y2="741.4223" gradientTransform="matrix(-1 0 0 1 -3875.4333 0)">
			<stop  offset="0" style="stop-color:#5560AB"/>
			<stop  offset="1" style="stop-color:#4C57A6"/>
		</linearGradient>
		<path style="fill:url(#SVGID_00000058580141243650821130000005760580141815969412_);" d="M227.3,679.16
			c3.81-11.47,20.74-19.63,20.74-19.63c17.27,10.37,32.5,3.17,32.5,3.17s3.41,13.05,1.06,25.18c-2.36,12.13-17.15,90.09-17.15,90.09
			c-23.3,4.72-59.14-4.75-59.14-4.75C220.16,746.87,223.5,690.63,227.3,679.16z"/>
		
			<linearGradient id="SVGID_00000111887264738093033250000003506418640959541891_" gradientUnits="userSpaceOnUse" x1="268.8477" y1="506.831" x2="258.9796" y2="603.1894">
			<stop  offset="0" style="stop-color:#F9BABA"/>
			<stop  offset="1" style="stop-color:#F5928F"/>
		</linearGradient>
		<path style="fill:url(#SVGID_00000111887264738093033250000003506418640959541891_);" d="M258.91,550.38l-7.61,34.17
			c-0.73,3.01,2.02,2.52,5.06,1.94c4.98-0.94,11.4-2.87,13.55-6.75c0.22-0.39,0.33-0.84,0.39-1.29l3.27-23.69
			c0.26-1.88-0.76-3.7-2.49-4.47l-6.31-2.8C262.34,546.41,259.53,547.8,258.91,550.38z"/>
		<g>
			
				<linearGradient id="SVGID_00000006706230944956740120000003335049038831112600_" gradientUnits="userSpaceOnUse" x1="-4270.501" y1="131.8814" x2="-4220.6924" y2="43.2394" gradientTransform="matrix(-0.9809 -0.1943 -0.1943 0.9809 -3883.7393 -388.3976)">
				<stop  offset="0" style="stop-color:#F9BABA"/>
				<stop  offset="1" style="stop-color:#F5928F"/>
			</linearGradient>
			<path style="fill:url(#SVGID_00000006706230944956740120000003335049038831112600_);" d="M273.48,519.23
				c0,0,8.1,5.48,11.58,19.44c3.48,13.96-2.18,18.97-7.97,18.66c-5.8-0.31-14.2-2.1-21.48-12.11
				C248.32,535.2,262.87,512.53,273.48,519.23z"/>
			
				<linearGradient id="SVGID_00000111180294276072984570000004065418480789328041_" gradientUnits="userSpaceOnUse" x1="150.1862" y1="624.1564" x2="246.3351" y2="538.5838">
				<stop  offset="0" style="stop-color:#5560AB"/>
				<stop  offset="1" style="stop-color:#4C57A6"/>
			</linearGradient>
			<path style="fill:url(#SVGID_00000111180294276072984570000004065418480789328041_);" d="M262.94,539.59c0,0-2.97-20,13.64-16.94
				l3.36,3.5c0,0,8.13-9.15-0.87-16.07c-9-6.92-21.48-5.15-28.39,7.45c-6.91,12.6-9.41,21.45-3.62,29.28
				c5.79,7.83,10.14,1.11,10.14,1.11s-2.65-6.78-0.45-9.68c2.2-2.91,5.04,1.69,5.04,1.69L262.94,539.59z"/>
			
				<linearGradient id="SVGID_00000132077775650264353130000012541102778233316488_" gradientUnits="userSpaceOnUse" x1="-4259.8984" y1="137.8393" x2="-4210.0908" y2="49.198" gradientTransform="matrix(-0.9809 -0.1943 -0.1943 0.9809 -3883.7393 -388.3976)">
				<stop  offset="0" style="stop-color:#F9BABA"/>
				<stop  offset="1" style="stop-color:#F5928F"/>
			</linearGradient>
			<path style="fill:url(#SVGID_00000132077775650264353130000012541102778233316488_);" d="M260.67,541.3c0,0-1.46-10.29-6.72-7.35
				c-5.26,2.94,1.89,9.61,4.76,11.88L260.67,541.3z"/>
		</g>
		<g>
			
				<linearGradient id="SVGID_00000052807312223019641410000018031049725752326581_" gradientUnits="userSpaceOnUse" x1="288.4192" y1="599.0847" x2="383.6165" y2="475.4444">
				<stop  offset="0" style="stop-color:#F9BABA"/>
				<stop  offset="1" style="stop-color:#F5928F"/>
			</linearGradient>
			<path style="fill:url(#SVGID_00000052807312223019641410000018031049725752326581_);" d="M353.85,519.91
				c0.11,1.21-4.38,2.04-5.82-3.11c0.39-2.24,1.09-12.04,2.81-13.56c9.14-8.11,25.44-17.23,25.44-17.23
				c1.82,2.78-0.57,4.62-0.57,4.62l-8.14,5.49c0.85,2.81,2.09,5.3,2.23,8.5c0.11,2.43-0.79,4.81-2.4,6.65
				c-1.62,1.85-3.8,4.24-5.76,6.05C357.92,520.76,353.85,519.91,353.85,519.91z"/>
			
				<linearGradient id="SVGID_00000078013158591918397280000004333583952889894830_" gradientUnits="userSpaceOnUse" x1="360.5929" y1="495.4551" x2="369.2999" y2="436.8275">
				<stop  offset="0" style="stop-color:#F9BABA"/>
				<stop  offset="1" style="stop-color:#F5928F"/>
			</linearGradient>
			<path style="fill:url(#SVGID_00000078013158591918397280000004333583952889894830_);" d="M358.27,515.91l-1.23-0.51
				c0.17-0.4,4.07-9.89,5.96-11.86c0.72-0.75,1.07-1.39,1.03-1.91c-0.02-0.28-0.16-0.56-0.42-0.84l-6.59,3.52l-2.91,4.55l-1.12-0.72
				l3.1-4.85l7.71-4.12l0.34,0.28c0.78,0.64,1.18,1.32,1.23,2.09c0.06,0.92-0.4,1.87-1.4,2.92
				C362.53,505.96,359.37,513.24,358.27,515.91z"/>
		</g>
		
			<linearGradient id="SVGID_00000027581408352854165520000016249368357833911476_" gradientUnits="userSpaceOnUse" x1="149.6362" y1="653.2881" x2="251.0135" y2="653.2881">
			<stop  offset="0" style="stop-color:#F9BABA"/>
			<stop  offset="1" style="stop-color:#F5928F"/>
		</linearGradient>
		<path style="fill:url(#SVGID_00000027581408352854165520000016249368357833911476_);" d="M233.7,597.46
			c0,0-42.11,86.46-57.36,94.02c0,0-15.48,1.62-24.96,4.48c-2.38,0.72-2.3,4.11,0.1,4.76c6.6,1.8,17.53,3.3,27.55-2.14
			c0,0-5.38,8.07-2.24,11.21c0,0,7.18-8.52,9.87-11.21c2.37-2.37,45.49-49.38,63.62-77.74c1.46-2.29,0.45-9.1-0.57-11.62
			C247.37,603.43,242.17,594.17,233.7,597.46z"/>
	</g>
	<g>
		<circle class="st6" cx="491.83" cy="420.71" r="126.31"/>
		<g>
			
				<linearGradient id="SVGID_00000001655533781645733040000016212482209339601597_" gradientUnits="userSpaceOnUse" x1="699.882" y1="36.9446" x2="167.1161" y2="914.4426">
				<stop  offset="0" style="stop-color:#E1483D"/>
				<stop  offset="1" style="stop-color:#E9625A"/>
			</linearGradient>
			<path style="fill:url(#SVGID_00000001655533781645733040000016212482209339601597_);" d="M532.8,375.24
				c0,21.55-17.47,44.82-39.02,44.82c-21.55,0-39.02-23.27-39.02-44.82c0-21.55,17.47-36.84,39.02-36.84
				C515.33,338.4,532.8,353.69,532.8,375.24z"/>
			
				<linearGradient id="SVGID_00000183944926604593323430000003537751292403305124_" gradientUnits="userSpaceOnUse" x1="740.5528" y1="61.6372" x2="207.7871" y2="939.1346">
				<stop  offset="0" style="stop-color:#E1483D"/>
				<stop  offset="1" style="stop-color:#E9625A"/>
			</linearGradient>
			<path style="fill:url(#SVGID_00000183944926604593323430000003537751292403305124_);" d="M445.36,503.02h95.26
				c10.03,0,18.9-6.48,21.96-16.03l5.13-16.02c3.75-11.73-2.35-24.43-13.92-28.66c-38.77-14.17-78.85-12.36-119.91,1.31
				c-11.5,3.83-17.89,16.13-14.71,27.83L423.1,486C425.83,496.05,434.95,503.02,445.36,503.02z"/>
		</g>
	</g>
	
		<linearGradient id="SVGID_00000127729789861644093990000005794302668404815769_" gradientUnits="userSpaceOnUse" x1="367.5785" y1="241.1664" x2="340.153" y2="504.9728" gradientTransform="matrix(0.9995 0.0321 -0.0321 0.9995 53.1566 90.3612)">
		<stop  offset="0" style="stop-color:#E1483D"/>
		<stop  offset="1" style="stop-color:#E9625A"/>
	</linearGradient>
	<path style="fill:url(#SVGID_00000127729789861644093990000005794302668404815769_);" d="M373.3,707.01
		c-0.18,5.61-4.86,10.11-10.46,10.05c-5.61-0.06-10.01-4.67-9.83-10.29c0.18-5.62,4.88-10.12,10.48-10.05
		C369.09,696.79,373.48,701.4,373.3,707.01z"/>
	
		<linearGradient id="SVGID_00000065757388836061852860000000286339157584575888_" gradientUnits="userSpaceOnUse" x1="405.1193" y1="245.0671" x2="377.6936" y2="508.875" gradientTransform="matrix(0.9995 0.0321 -0.0321 0.9995 53.1566 90.3612)">
		<stop  offset="0" style="stop-color:#E1483D"/>
		<stop  offset="1" style="stop-color:#E9625A"/>
	</linearGradient>
	<path style="fill:url(#SVGID_00000065757388836061852860000000286339157584575888_);" d="M411.25,707.45
		c-0.18,5.59-4.82,10.07-10.38,10.01c-5.56-0.06-9.93-4.65-9.75-10.25c0.18-5.6,4.84-10.08,10.4-10.01
		C407.08,697.27,411.43,701.86,411.25,707.45z"/>
	
		<linearGradient id="SVGID_00000049926853889779856590000000776517225321178242_" gradientUnits="userSpaceOnUse" x1="445.225" y1="249.2368" x2="417.7995" y2="513.0432" gradientTransform="matrix(0.9995 0.0321 -0.0321 0.9995 53.1566 90.3612)">
		<stop  offset="0" style="stop-color:#E1483D"/>
		<stop  offset="1" style="stop-color:#E9625A"/>
	</linearGradient>
	<path style="fill:url(#SVGID_00000049926853889779856590000000776517225321178242_);" d="M451.94,708.12
		c-0.18,5.61-4.86,10.11-10.46,10.05c-5.61-0.06-10.01-4.67-9.83-10.29c0.18-5.62,4.88-10.12,10.48-10.05
		C447.73,697.9,452.12,702.51,451.94,708.12z"/>
	
		<linearGradient id="SVGID_00000031179645236364059730000004862501998785772217_" gradientUnits="userSpaceOnUse" x1="524.7394" y1="257.5036" x2="497.3137" y2="521.3113" gradientTransform="matrix(0.9995 0.0321 -0.0321 0.9995 53.1566 90.3612)">
		<stop  offset="0" style="stop-color:#E1483D"/>
		<stop  offset="1" style="stop-color:#E9625A"/>
	</linearGradient>
	<path style="fill:url(#SVGID_00000031179645236364059730000004862501998785772217_);" d="M532.41,709.08
		c-0.18,5.59-4.82,10.07-10.38,10.01c-5.56-0.06-9.93-4.65-9.75-10.25s4.84-10.08,10.4-10.01
		C528.24,698.9,532.59,703.49,532.41,709.08z"/>
	
		<linearGradient id="SVGID_00000090283498126153474310000015102033042451372442_" gradientUnits="userSpaceOnUse" x1="564.8451" y1="261.6729" x2="537.4196" y2="525.4792" gradientTransform="matrix(0.9995 0.0321 -0.0321 0.9995 53.1566 90.3612)">
		<stop  offset="0" style="stop-color:#E1483D"/>
		<stop  offset="1" style="stop-color:#E9625A"/>
	</linearGradient>
	<path style="fill:url(#SVGID_00000090283498126153474310000015102033042451372442_);" d="M573.1,709.75
		c-0.18,5.61-4.86,10.11-10.46,10.05c-5.61-0.06-10.01-4.67-9.83-10.29s4.88-10.12,10.48-10.05
		C568.89,699.53,573.28,704.14,573.1,709.75z"/>
	
		<linearGradient id="SVGID_00000150820685311314093540000015308731934829042358_" gradientUnits="userSpaceOnUse" x1="482.7657" y1="253.1388" x2="455.34" y2="516.9467" gradientTransform="matrix(0.9995 0.0321 -0.0321 0.9995 53.1566 90.3612)">
		<stop  offset="0" style="stop-color:#E1483D"/>
		<stop  offset="1" style="stop-color:#E9625A"/>
	</linearGradient>
	<path style="fill:url(#SVGID_00000150820685311314093540000015308731934829042358_);" d="M489.89,708.56
		c-0.18,5.59-4.82,10.07-10.38,10.01c-5.56-0.06-9.93-4.65-9.75-10.25c0.18-5.6,4.84-10.08,10.4-10.01
		C485.72,698.39,490.07,702.97,489.89,708.56z"/>
	<g>
		<g>
			<g>
				<path class="st3" d="M135.14,426.43c-0.38,0.01-0.75-0.18-0.93-0.54c-0.6-1.16-1.18-2.36-1.74-3.55c-0.23-0.49,0-1.07,0.5-1.29
					c1.22-0.55,1.4,0.82,3.02,3.97c0.25,0.48,0.05,1.07-0.44,1.31C135.41,426.39,135.28,426.42,135.14,426.43z"/>
				<path class="st3" d="M128.04,410.85c-0.75-2.4-1.41-4.86-1.97-7.31c-0.12-0.53,0.22-1.05,0.76-1.17
					c1.47-0.31,0.91,0.83,3.12,7.9c0.16,0.52-0.14,1.06-0.66,1.22C128.75,411.65,128.2,411.36,128.04,410.85z M124.12,391.41
					c-0.24-2.51-0.38-5.08-0.42-7.55c-0.02-1.33,1.98-1.3,2-0.03c0.04,2.46,0.18,4.94,0.41,7.4c0.05,0.54-0.35,1.01-0.9,1.06
					C124.65,392.34,124.17,391.94,124.12,391.41z M124.3,371.59c0.28-2.49,0.68-5.01,1.16-7.48c0.25-1.27,2.21-0.9,1.96,0.36
					c-0.47,2.42-0.86,4.88-1.14,7.33C126.13,373.09,124.15,372.87,124.3,371.59z M129.25,353.45c-0.52-0.17-0.81-0.72-0.64-1.23
					c0.8-2.39,1.71-4.77,2.7-7.09c0.51-1.19,2.35-0.44,1.84,0.75c-0.97,2.27-1.86,4.61-2.65,6.95
					C130.34,353.33,129.77,353.61,129.25,353.45z M137.26,335.44c-0.48-0.27-0.64-0.86-0.37-1.33c1.28-2.18,2.67-4.33,4.12-6.41
					c0.75-1.06,2.39,0.03,1.65,1.1c-1.42,2.03-2.78,4.14-4.04,6.28C138.35,335.54,137.74,335.7,137.26,335.44z M149.54,319.63
					c-0.25,0.01-0.5-0.07-0.7-0.24c-0.41-0.36-0.45-0.97-0.08-1.38c1.71-1.88,3.51-3.72,5.36-5.46c0.4-0.37,1.03-0.36,1.41,0.02
					c0.38,0.39,0.37,1.01-0.03,1.38c-1.81,1.71-3.58,3.51-5.25,5.35C150.06,319.51,149.8,319.62,149.54,319.63z M164.33,306.35
					c-0.32,0.01-0.64-0.12-0.84-0.39c-0.33-0.43-0.24-1.04,0.2-1.37c2.06-1.5,4.2-2.94,6.38-4.28c0.47-0.29,1.08-0.15,1.38,0.3
					c0.29,0.46,0.15,1.06-0.31,1.35c-2.13,1.31-4.23,2.73-6.25,4.2C164.72,306.28,164.52,306.34,164.33,306.35z M180.62,295.72
					c-0.23-0.49-0.01-1.07,0.49-1.3c2.33-1.06,4.73-2.04,7.14-2.92c1.24-0.45,1.93,1.38,0.69,1.83c-2.36,0.86-4.71,1.82-7,2.86
					C181.45,296.42,180.86,296.21,180.62,295.72z M247.66,290.44c-7.27-1.87-8.47-1.28-8.2-2.73c0.1-0.53,0.62-0.88,1.16-0.79
					c2.53,0.45,5.07,1,7.55,1.63C249.44,288.88,248.94,290.76,247.66,290.44z M199.54,289.13c-0.12-0.52,0.21-1.05,0.75-1.17
					c2.5-0.57,5.05-1.05,7.6-1.43c1.31-0.2,1.6,1.73,0.3,1.93c-2.49,0.37-4.99,0.85-7.44,1.41
					C200.19,289.98,199.66,289.65,199.54,289.13z M228.03,287.46c-7.49-0.37-8.57,0.45-8.6-1.04c-0.02-0.94,1.08-1.05,0.97-1
					c2.57-0.07,5.18-0.04,7.74,0.09c0.55,0.03,0.97,0.49,0.94,1.02C229.05,287.05,228.61,287.48,228.03,287.46z"/>
				<path class="st3" d="M263.02,295.78c-3.06-1.36-4.69-1.57-4.17-2.8c0.21-0.5,0.79-0.74,1.3-0.54c3.22,1.28,4.74,1.69,4.2,2.85
					C264.18,295.64,263.52,296,263.02,295.78z"/>
			</g>
			<g>
				
					<linearGradient id="SVGID_00000147195901197110643630000007759949291761070478_" gradientUnits="userSpaceOnUse" x1="312.9102" y1="348.291" x2="316.3126" y2="348.291">
					<stop  offset="0" style="stop-color:#DBE2F3"/>
					<stop  offset="1" style="stop-color:#EAEFF8"/>
				</linearGradient>
				<path style="fill:url(#SVGID_00000147195901197110643630000007759949291761070478_);" d="M315.35,351.09
					c-0.43,0.02-0.83-0.24-0.98-0.65c-0.44-1.21-0.91-2.43-1.39-3.61c-0.2-0.5,0.04-1.07,0.56-1.27c0.51-0.2,1.09,0.04,1.3,0.54
					c0.49,1.21,0.97,2.45,1.42,3.69c0.18,0.51-0.09,1.07-0.61,1.25C315.55,351.07,315.45,351.09,315.35,351.09z"/>
				
					<linearGradient id="SVGID_00000150807422209130330580000001721192793138327484_" gradientUnits="userSpaceOnUse" x1="193.2395" y1="420.4464" x2="321.9032" y2="420.4464">
					<stop  offset="0" style="stop-color:#DBE2F3"/>
					<stop  offset="1" style="stop-color:#EAEFF8"/>
				</linearGradient>
				<path style="fill:url(#SVGID_00000150807422209130330580000001721192793138327484_);" d="M223.73,479.13
					c-2.77,0.03-5.57-0.05-8.33-0.24c-0.55-0.04-0.96-0.51-0.92-1.04c0.12-1.51,1.13-0.57,9.23-0.67c0.55-0.01,1,0.42,1.01,0.96
					C224.73,479.09,223.62,479.18,223.73,479.13z M236.08,477.26c-0.23-1.5,1.01-0.81,8.86-2.6c0.54-0.13,1.07,0.2,1.2,0.73
					c0.13,0.52-0.21,1.05-0.75,1.17c-2.68,0.62-5.44,1.13-8.18,1.53C236.67,478.16,236.16,477.79,236.08,477.26z M202.01,477.04
					c-2.7-0.56-5.42-1.24-8.06-2.03c-0.53-0.16-0.82-0.7-0.66-1.22c0.45-1.45,1.23-0.31,9.15,1.34c0.54,0.11,0.88,0.63,0.77,1.16
					C203.08,476.82,202.55,477.15,202.01,477.04z M258.01,472.72c-0.42,0.02-0.81-0.22-0.97-0.62c-0.2-0.5,0.06-1.07,0.57-1.26
					c2.53-0.95,5.05-2.02,7.49-3.18c0.5-0.24,1.09-0.03,1.33,0.45c0.24,0.49,0.03,1.07-0.46,1.3c-2.48,1.18-5.06,2.27-7.64,3.24
					C258.22,472.7,258.11,472.72,258.01,472.72z M277.19,463c-0.34,0.01-0.67-0.14-0.87-0.43c-0.31-0.45-0.18-1.05,0.28-1.35
					c2.25-1.47,4.47-3.05,6.59-4.71c0.43-0.34,1.06-0.27,1.4,0.15c0.34,0.42,0.27,1.04-0.16,1.37c-2.17,1.69-4.43,3.3-6.73,4.81
					C277.54,462.94,277.37,463,277.19,463z M293.73,449.41c-0.26,0.01-0.52-0.08-0.73-0.27c-0.4-0.37-0.41-0.99-0.03-1.38
					c1.87-1.92,3.68-3.94,5.39-6c0.35-0.42,0.97-0.49,1.4-0.15c0.43,0.34,0.5,0.95,0.15,1.37c-1.74,2.11-3.59,4.17-5.5,6.12
					C294.23,449.29,293.98,449.4,293.73,449.41z M306.86,432.61c-0.19,0.01-0.38-0.04-0.55-0.14c-0.47-0.28-0.62-0.88-0.34-1.34
					c1.4-2.27,2.72-4.62,3.92-7c0.24-0.48,0.84-0.68,1.34-0.44c0.49,0.24,0.7,0.82,0.45,1.31c-1.23,2.43-2.57,4.83-4,7.15
					C307.49,432.43,307.18,432.6,306.86,432.61z M315.57,413.38c-1.47-0.48-0.28-1.2,1.63-8.9c0.31-1.25,2.25-0.8,1.94,0.46
					c-0.65,2.63-1.43,5.26-2.3,7.83C316.66,413.27,316.1,413.55,315.57,413.38z M320.33,392.76c-1.54-0.15-0.55-1.1-0.42-9.03
					c0.02-1.29,2.02-1.27,2,0.03c-0.04,2.71-0.21,5.44-0.48,8.13C321.36,392.43,320.86,392.82,320.33,392.76z M320.25,371.65
					c-0.51,0.02-0.97-0.35-1.03-0.86c-0.32-2.64-0.76-5.29-1.3-7.87c-0.11-0.53,0.24-1.04,0.78-1.15c0.54-0.11,1.07,0.23,1.18,0.76
					c0.55,2.64,1,5.34,1.33,8.03c0.07,0.53-0.32,1.02-0.87,1.09C320.3,371.65,320.27,371.65,320.25,371.65z"/>
				
					<linearGradient id="SVGID_00000099664446652037693200000001360752384968422569_" gradientUnits="userSpaceOnUse" x1="177.0624" y1="468.5605" x2="182.6653" y2="468.5605">
					<stop  offset="0" style="stop-color:#DBE2F3"/>
					<stop  offset="1" style="stop-color:#EAEFF8"/>
				</linearGradient>
				<path style="fill:url(#SVGID_00000099664446652037693200000001360752384968422569_);" d="M181.25,470.29
					c-3.16-1.42-4.65-1.9-4.06-3.03c0.62-1.18,1.66-0.2,4.9,1.26c0.5,0.23,0.72,0.81,0.49,1.29
					C182.34,470.31,181.75,470.52,181.25,470.29z"/>
			</g>
			<g>
				
					<linearGradient id="SVGID_00000168094677660439126500000014207852846074535300_" gradientUnits="userSpaceOnUse" x1="146.8007" y1="381.507" x2="298.652" y2="381.507">
					<stop  offset="0" style="stop-color:#5560AB"/>
					<stop  offset="1" style="stop-color:#4C57A6"/>
				</linearGradient>
				<path style="fill:url(#SVGID_00000168094677660439126500000014207852846074535300_);" d="M181.63,443.27l12.35-7.13
					c5.95,2.99,12.43,5.07,19.24,6.08c5.83,12.35,5.36,13.63,6.89,13.51l17.14-1.35c0.5-0.04,0.92-0.39,1.05-0.86l3.59-13.56
					c6.56-2.06,12.62-5.13,18.02-9.02l13.34,5.1c0.47,0.18,1,0.05,1.33-0.33l11.16-12.8c0.33-0.37,0.37-0.91,0.12-1.33l-7.27-12.06
					c3.07-5.82,5.21-12.16,6.25-18.81l13.13-5.62c0.46-0.2,0.74-0.66,0.7-1.15l-1.35-16.75c-0.04-0.49-0.39-0.9-0.88-1.02
					l-13.87-3.48c-2.09-6.41-5.23-12.33-9.19-17.59c4.85-12.85,6.07-13.38,4.91-14.34c-13.01-10.45-13.09-11.78-14.44-11
					l-12.35,7.13c-5.95-2.99-12.43-5.07-19.24-6.08c-5.82-12.34-5.36-13.63-6.89-13.51c-17,1.64-17.8,0.76-18.18,2.22l-3.59,13.56
					c-6.56,2.06-12.62,5.13-18.02,9.02c-12.98-4.66-13.66-5.93-14.66-4.77c-10.82,12.86-12.06,12.83-11.28,14.13l7.27,12.06
					c-3.07,5.82-5.21,12.16-6.25,18.81c-12.42,5.62-13.96,5.23-13.83,6.76c1.64,16.54,0.73,17.39,2.23,17.77l13.87,3.48
					c2.09,6.41,5.23,12.33,9.19,17.59c-4.83,12.81-6.08,13.37-4.91,14.34C180.2,442.72,180.28,444.05,181.63,443.27z"/>
				
					<linearGradient id="SVGID_00000053506726427955868480000014793872420165703591_" gradientUnits="userSpaceOnUse" x1="205.9646" y1="381.5079" x2="239.491" y2="381.5079">
					<stop  offset="0" style="stop-color:#DBE2F3"/>
					<stop  offset="1" style="stop-color:#EAEFF8"/>
				</linearGradient>
				<path style="fill:url(#SVGID_00000053506726427955868480000014793872420165703591_);" d="M206.85,386.78
					c-2.96-8.55,1.75-17.88,10.51-20.79c8.76-2.91,18.29,1.68,21.25,10.23c2.96,8.55-1.75,17.88-10.51,20.79l0,0
					C219.34,399.93,209.81,395.34,206.85,386.78z M227.62,395.63L227.62,395.63L227.62,395.63z M218.32,368.77
					c-7.11,2.36-11.1,9.94-8.63,17.07c2.43,7.02,10.26,10.8,17.45,8.4c7.19-2.39,11.06-10.05,8.63-17.07
					C233.33,370.14,225.49,366.38,218.32,368.77z"/>
				
					<linearGradient id="SVGID_00000122704101979813397670000000721376100946130606_" gradientUnits="userSpaceOnUse" x1="179.9596" y1="381.202" x2="265.9221" y2="381.202">
					<stop  offset="0" style="stop-color:#DBE2F3"/>
					<stop  offset="1" style="stop-color:#EAEFF8"/>
				</linearGradient>
				<path style="fill:url(#SVGID_00000122704101979813397670000000721376100946130606_);" d="M224.57,423.19L224.57,423.19
					c-2.48,0.1-4.95-0.01-7.39-0.33c-0.73-0.09-1.27-0.69-1.3-1.39c0-0.08,0-0.17,0.01-0.25c0.11-0.8,0.87-1.37,1.68-1.26
					c2.8,0.36,5.67,0.43,8.51,0.21l0,0c21.43-1.69,37.62-19.69,36.8-40.5c-0.02-0.53-0.05-1.06-0.1-1.6
					c-1.75-21.61-21.07-37.53-43.01-35.8c-21.91,1.73-38.44,20.55-36.71,42.1c1.04,12.83,7.49,19,7.54,20.35
					c0.06,1.45-1.86,2.09-2.72,0.91c-4.7-6.43-7.58-14.29-7.92-22.74c-1.43-36.45,42.47-57.29,70.85-33.67
					c8.73,7.27,14.04,17.43,14.94,28.62c0.05,0.58,0.08,1.16,0.1,1.73c0.42,10.57-3.19,20.76-10.26,28.87
					c-7.45,8.55-17.86,13.75-29.3,14.66C225.74,423.13,225.16,423.17,224.57,423.19z"/>
			</g>
		</g>
		<g>
			
				<linearGradient id="SVGID_00000091734982698974120210000003489319353330926782_" gradientUnits="userSpaceOnUse" x1="278.0519" y1="279.2209" x2="362.4468" y2="279.2209">
				<stop  offset="0" style="stop-color:#5560AB"/>
				<stop  offset="1" style="stop-color:#4C57A6"/>
			</linearGradient>
			<path style="fill:url(#SVGID_00000091734982698974120210000003489319353330926782_);" d="M306.81,311.44
				c3.43,1.44,7.12,2.33,10.94,2.61l3.76,7.02c0.42,0.78,0.93,0.13,10.12-1.18c0.84-0.14,0.42-0.77,1.91-8.38
				c3.54-1.45,6.76-3.46,9.57-5.9l7.62,2.31c0.85,0.26,0.75-0.57,6.32-7.99c0.16-0.23,0.17-0.53,0.01-0.76l-4.58-6.52
				c1.44-3.43,2.33-7.12,2.61-10.94c6.63-3.73,7.5-3.58,7.36-4.44c-1.66-9.32-1.2-9.83-2.05-9.98l-7.84-1.37
				c-1.45-3.54-3.46-6.76-5.9-9.57l2.31-7.62c0.26-0.85-0.57-0.75-7.99-6.32c-0.69-0.5-0.81,0.23-7.28,4.57
				c-3.43-1.44-7.12-2.33-10.94-2.61l-3.76-7.02c-0.42-0.78-0.93-0.13-10.12,1.18c-0.84,0.13-0.41,0.73-1.91,8.38
				c-3.54,1.45-6.76,3.46-9.57,5.9l-7.62-2.31c-0.27-0.08-0.56,0.02-0.72,0.24l-5.6,7.74c-0.16,0.23-0.17,0.53-0.01,0.76l4.58,6.52
				c-1.44,3.43-2.33,7.12-2.61,10.94c-6.63,3.73-7.5,3.58-7.36,4.44c1.66,9.31,1.2,9.83,2.05,9.98l7.84,1.37
				c1.45,3.54,3.46,6.76,5.9,9.57c-2.05,7.33-2.77,7.83-2.07,8.34l7.74,5.6C300.22,316.52,300.37,315.76,306.81,311.44z"/>
			<g>
				
					<linearGradient id="SVGID_00000100347646684738679830000014392320760625369752_" gradientUnits="userSpaceOnUse" x1="310.2746" y1="279.2191" x2="330.2202" y2="279.2191">
					<stop  offset="0" style="stop-color:#DBE2F3"/>
					<stop  offset="1" style="stop-color:#EAEFF8"/>
				</linearGradient>
				<path style="fill:url(#SVGID_00000100347646684738679830000014392320760625369752_);" d="M311.09,283.16
					c-2.18-5.06,0.15-10.92,5.22-13.1c5.06-2.18,10.92,0.15,13.1,5.22c2.17,5.05-0.17,10.93-5.22,13.1l0,0
					C319.14,290.55,313.26,288.21,311.09,283.16z M323.6,287.02L323.6,287.02L323.6,287.02z M313.82,281.99
					c1.53,3.55,5.65,5.19,9.2,3.66l0,0c5.69-2.45,5.6-10.63-0.18-12.93C317.09,270.43,311.35,276.26,313.82,281.99z"/>
				<g>
					<path class="st3" d="M282.42,315.23c-0.92-0.97-1.82-1.99-2.67-3.03c-0.35-0.42-0.28-1.05,0.14-1.39
						c1.07-0.87,1.58,0.56,3.96,3.06c0.38,0.4,0.36,1.02-0.03,1.4C283.43,315.64,282.8,315.63,282.42,315.23z"/>
					<path class="st3" d="M272.77,300.94c-1.09-2.39-2.06-4.97-2.81-7.66c-0.36-1.26,1.55-1.79,1.91-0.54
						c1.96,6.96,3.72,8,2.22,8.69C273.58,301.66,273,301.44,272.77,300.94z M269.04,281.15c-0.55,0.01-1-0.43-1.01-0.97
						c-0.05-2.71,0.12-5.45,0.49-8.15c0.18-1.3,2.14-1.02,1.96,0.27c-0.36,2.59-0.52,5.23-0.47,7.84
						C270.03,281.11,268.93,281.21,269.04,281.15z M272.95,260.63c-0.14,0.01-0.28-0.02-0.42-0.07c-0.51-0.21-0.75-0.79-0.54-1.29
						c1.04-2.51,2.28-4.96,3.69-7.28c0.28-0.47,0.9-0.61,1.36-0.33c0.47,0.28,0.62,0.89,0.33,1.36c-1.36,2.23-2.56,4.59-3.55,7
						C273.67,260.39,273.32,260.61,272.95,260.63z M284.69,243.35c-0.27,0.01-0.55-0.09-0.75-0.3c-0.38-0.39-0.37-1.02,0.02-1.4
						c1.95-1.89,4.07-3.63,6.3-5.19c0.45-0.31,1.07-0.2,1.38,0.24c0.31,0.45,0.2,1.07-0.24,1.38c-2.14,1.5-4.18,3.18-6.06,4.99
						C285.15,243.25,284.92,243.34,284.69,243.35z M301.39,231.57c-0.19-0.51,0.07-1.08,0.58-1.28c2.55-0.96,5.19-1.72,7.84-2.26
						c1.28-0.27,1.69,1.68,0.4,1.94c-2.55,0.52-5.09,1.25-7.55,2.17C302.14,232.35,301.58,232.07,301.39,231.57z"/>
					<path class="st3" d="M326.83,229.4c-3.6-0.48-4.87-0.07-4.8-1.41c0.03-0.55,0.48-0.97,1.04-0.94c1.33,0.07,2.68,0.2,4.02,0.38
						c0.54,0.07,0.92,0.57,0.85,1.11C327.87,229.08,327.38,229.47,326.83,229.4z"/>
				</g>
				<g>
					
						<linearGradient id="SVGID_00000085229704520967979170000015640647020984833717_" gradientUnits="userSpaceOnUse" x1="359.2023" y1="248.7322" x2="363.5611" y2="248.7322">
						<stop  offset="0" style="stop-color:#DBE2F3"/>
						<stop  offset="1" style="stop-color:#EAEFF8"/>
					</linearGradient>
					<path style="fill:url(#SVGID_00000085229704520967979170000015640647020984833717_);" d="M361.75,250.88
						c-2.05-3.01-3.2-3.68-2.16-4.52c0.43-0.34,1.05-0.27,1.39,0.15c0.84,1.04,1.64,2.13,2.4,3.25c0.31,0.45,0.19,1.07-0.26,1.38
						C362.68,251.45,362.06,251.34,361.75,250.88z"/>
					
						<linearGradient id="SVGID_00000096772323045293611020000005296720724124441500_" gradientUnits="userSpaceOnUse" x1="326.9368" y1="295.7862" x2="372.4044" y2="295.7862">
						<stop  offset="0" style="stop-color:#DBE2F3"/>
						<stop  offset="1" style="stop-color:#EAEFF8"/>
					</linearGradient>
					<path style="fill:url(#SVGID_00000096772323045293611020000005296720724124441500_);" d="M326.96,330.02
						c-0.25-1.63,1.53-0.72,8.35-2.88c1.25-0.4,1.85,1.49,0.6,1.89c-2.55,0.81-5.18,1.42-7.82,1.82
						C327.56,330.93,327.04,330.57,326.96,330.02z M346.38,323.29c-0.29-0.47-0.14-1.08,0.32-1.36c6.14-3.79,6.56-5.7,7.63-4.44
						c0.36,0.42,0.31,1.04-0.11,1.4c-2.03,1.74-4.21,3.33-6.48,4.73C347.28,323.9,346.67,323.76,346.38,323.29z M361.6,309.48
						c-1.35-0.95,0.52-1.59,3.69-8.02c0.58-1.17,2.36-0.3,1.78,0.88c-1.18,2.4-2.56,4.72-4.09,6.9
						C362.66,309.69,362.05,309.8,361.6,309.48z M370.16,290.8c-1.62-0.34-0.14-1.67,0.26-8.83c0.07-1.31,2.05-1.2,1.98,0.11
						c-0.15,2.66-0.51,5.34-1.06,7.96C371.23,290.58,370.7,290.92,370.16,290.8z M369.55,269.48c-1.4-7.07-3.05-8.14-1.49-8.71
						c0.51-0.19,1.08,0.08,1.27,0.59c0.92,2.52,1.65,5.12,2.16,7.73c0.11,0.54-0.24,1.06-0.78,1.16
						C370.18,270.36,369.65,270.01,369.55,269.48z"/>
					
						<linearGradient id="SVGID_00000062903841235678668870000014341680240277338557_" gradientUnits="userSpaceOnUse" x1="310.2069" y1="329.9314" x2="316.1101" y2="329.9314">
						<stop  offset="0" style="stop-color:#DBE2F3"/>
						<stop  offset="1" style="stop-color:#EAEFF8"/>
					</linearGradient>
					<path style="fill:url(#SVGID_00000062903841235678668870000014341680240277338557_);" d="M315.02,331.18
						c-1.33-0.14-2.68-0.33-4-0.56c-0.54-0.1-0.9-0.61-0.8-1.15c0.25-1.36,1.56-0.61,5-0.26c0.54,0.06,0.94,0.54,0.89,1.09
						C316.05,330.84,315.55,331.23,315.02,331.18z"/>
				</g>
				
					<linearGradient id="SVGID_00000018197273727117711480000010747181474831058582_" gradientUnits="userSpaceOnUse" x1="295.8078" y1="279.0471" x2="344.9036" y2="279.0471">
					<stop  offset="0" style="stop-color:#DBE2F3"/>
					<stop  offset="1" style="stop-color:#EAEFF8"/>
				</linearGradient>
				<path style="fill:url(#SVGID_00000018197273727117711480000010747181474831058582_);" d="M319.09,303.56
					c-0.94-0.05-1.5-0.79-1.46-1.57c0.04-0.82,0.75-1.45,1.56-1.4c1.52,0.08,3.06,0,4.59-0.25c0.3-0.11,8.4-0.85,14.06-8.66
					c11.21-15.5-1.99-36.98-20.9-33.94c-10.88,1.75-18.56,11.39-18.14,22.13c0.43,10.82,7.31,13.06,4.85,15.13
					c-0.63,0.53-1.56,0.45-2.09-0.18c-2.85-3.39-4.73-7.5-5.43-11.89c-2.14-13.34,6.96-25.98,20.35-28.12
					c14.4-2.31,27.83,8.46,28.42,23.32c0.47,11.99-8.02,23.12-20.64,25.15l0,0C322.54,303.56,320.8,303.65,319.09,303.56z"/>
			</g>
		</g>
	</g>
</g>
</svg>
